<svg width="276" height="180" viewBox="0 0 276 180" fill="none" xmlns="http://www.w3.org/2000/svg">
<rect x="0.5" y="0.5" width="275" height="179" rx="4.5" stroke="#9747FF" stroke-dasharray="10 5"/>
<g filter="url(#filter0_d_2381_2410)">
<rect x="20" y="20" width="236" height="50" rx="8" fill="#F4F4F4"/>
</g>
<path d="M81.22 53L86.36 38.1H89.88L95.02 53H92.06L91 49.8H85.24L84.16 53H81.22ZM86.02 47.4H90.22L87.74 39.98H88.5L86.02 47.4ZM101.128 53.24C100.074 53.24 99.1343 52.9933 98.3077 52.5C97.481 51.9933 96.8277 51.3067 96.3477 50.44C95.8677 49.5733 95.6277 48.6133 95.6277 47.56C95.6277 46.4933 95.8677 45.5333 96.3477 44.68C96.8277 43.8267 97.481 43.1467 98.3077 42.64C99.1477 42.1333 100.081 41.88 101.108 41.88C101.934 41.88 102.668 42.0467 103.308 42.38C103.961 42.7 104.474 43.1533 104.848 43.74L104.448 44.28V37.86H107.068V53H104.588V50.9L104.868 51.42C104.494 52.0067 103.974 52.46 103.308 52.78C102.641 53.0867 101.914 53.24 101.128 53.24ZM101.408 50.84C102.008 50.84 102.534 50.7 102.988 50.42C103.441 50.14 103.794 49.7533 104.048 49.26C104.314 48.7667 104.448 48.2 104.448 47.56C104.448 46.9333 104.314 46.3733 104.048 45.88C103.794 45.3733 103.441 44.98 102.988 44.7C102.534 44.42 102.008 44.28 101.408 44.28C100.821 44.28 100.294 44.4267 99.8277 44.72C99.361 45 98.9943 45.3867 98.7277 45.88C98.4743 46.36 98.3477 46.92 98.3477 47.56C98.3477 48.2 98.4743 48.7667 98.7277 49.26C98.9943 49.7533 99.361 50.14 99.8277 50.42C100.294 50.7 100.821 50.84 101.408 50.84ZM114.565 53.24C113.512 53.24 112.572 52.9933 111.745 52.5C110.918 51.9933 110.265 51.3067 109.785 50.44C109.305 49.5733 109.065 48.6133 109.065 47.56C109.065 46.4933 109.305 45.5333 109.785 44.68C110.265 43.8267 110.918 43.1467 111.745 42.64C112.585 42.1333 113.518 41.88 114.545 41.88C115.372 41.88 116.105 42.0467 116.745 42.38C117.398 42.7 117.912 43.1533 118.285 43.74L117.885 44.28V37.86H120.505V53H118.025V50.9L118.305 51.42C117.932 52.0067 117.412 52.46 116.745 52.78C116.078 53.0867 115.352 53.24 114.565 53.24ZM114.845 50.84C115.445 50.84 115.972 50.7 116.425 50.42C116.878 50.14 117.232 49.7533 117.485 49.26C117.752 48.7667 117.885 48.2 117.885 47.56C117.885 46.9333 117.752 46.3733 117.485 45.88C117.232 45.3733 116.878 44.98 116.425 44.7C115.972 44.42 115.445 44.28 114.845 44.28C114.258 44.28 113.732 44.4267 113.265 44.72C112.798 45 112.432 45.3867 112.165 45.88C111.912 46.36 111.785 46.92 111.785 47.56C111.785 48.2 111.912 48.7667 112.165 49.26C112.432 49.7533 112.798 50.14 113.265 50.42C113.732 50.7 114.258 50.84 114.845 50.84ZM126.717 53V38.1H128.837L137.037 49.14L135.937 49.36V38.1H138.657V53H136.517L128.437 41.88L129.437 41.66V53H126.717ZM146.482 53.24C145.362 53.24 144.382 52.9867 143.542 52.48C142.702 51.9733 142.048 51.2867 141.582 50.42C141.115 49.5533 140.882 48.5933 140.882 47.54C140.882 46.4467 141.115 45.48 141.582 44.64C142.062 43.7867 142.708 43.1133 143.522 42.62C144.348 42.1267 145.268 41.88 146.282 41.88C147.135 41.88 147.882 42.02 148.522 42.3C149.175 42.58 149.728 42.9667 150.182 43.46C150.635 43.9533 150.982 44.52 151.222 45.16C151.462 45.7867 151.582 46.4667 151.582 47.2C151.582 47.3867 151.568 47.58 151.542 47.78C151.528 47.98 151.495 48.1533 151.442 48.3H143.042V46.3H149.962L148.722 47.24C148.842 46.6267 148.808 46.08 148.622 45.6C148.448 45.12 148.155 44.74 147.742 44.46C147.342 44.18 146.855 44.04 146.282 44.04C145.735 44.04 145.248 44.18 144.822 44.46C144.395 44.7267 144.068 45.1267 143.842 45.66C143.628 46.18 143.548 46.8133 143.602 47.56C143.548 48.2267 143.635 48.82 143.862 49.34C144.102 49.8467 144.448 50.24 144.902 50.52C145.368 50.8 145.902 50.94 146.502 50.94C147.102 50.94 147.608 50.8133 148.022 50.56C148.448 50.3067 148.782 49.9667 149.022 49.54L151.142 50.58C150.928 51.1 150.595 51.56 150.142 51.96C149.688 52.36 149.148 52.6733 148.522 52.9C147.908 53.1267 147.228 53.24 146.482 53.24ZM156.308 53L152.568 42.12H155.328L158.068 50.38L157.108 50.36L160.028 42.12H162.348L165.248 50.36L164.288 50.38L167.028 42.12H169.788L166.048 53H163.708L160.748 44.38H161.628L158.628 53H156.308ZM177.639 53V40.5H173.779V38.1H184.179V40.5H180.379V53H177.639ZM187.727 53.24C186.967 53.24 186.307 53.1133 185.747 52.86C185.187 52.6067 184.754 52.2467 184.447 51.78C184.14 51.3 183.987 50.7467 183.987 50.12C183.987 49.52 184.12 48.9867 184.387 48.52C184.654 48.04 185.067 47.64 185.627 47.32C186.187 47 186.894 46.7733 187.747 46.64L191.307 46.06V48.06L188.247 48.58C187.727 48.6733 187.34 48.84 187.087 49.08C186.834 49.32 186.707 49.6333 186.707 50.02C186.707 50.3933 186.847 50.6933 187.127 50.92C187.42 51.1333 187.78 51.24 188.207 51.24C188.754 51.24 189.234 51.1267 189.647 50.9C190.074 50.66 190.4 50.3333 190.627 49.92C190.867 49.5067 190.987 49.0533 190.987 48.56V45.76C190.987 45.2933 190.8 44.9067 190.427 44.6C190.067 44.28 189.587 44.12 188.987 44.12C188.427 44.12 187.927 44.2733 187.487 44.58C187.06 44.8733 186.747 45.2667 186.547 45.76L184.407 44.72C184.62 44.1467 184.954 43.6533 185.407 43.24C185.874 42.8133 186.42 42.48 187.047 42.24C187.674 42 188.354 41.88 189.087 41.88C189.98 41.88 190.767 42.0467 191.447 42.38C192.127 42.7 192.654 43.1533 193.027 43.74C193.414 44.3133 193.607 44.9867 193.607 45.76V53H191.127V51.14L191.687 51.1C191.407 51.5667 191.074 51.96 190.687 52.28C190.3 52.5867 189.86 52.8267 189.367 53C188.874 53.16 188.327 53.24 187.727 53.24ZM196.029 53V42.12H198.489V44.54L198.289 44.18C198.542 43.3667 198.935 42.8 199.469 42.48C200.015 42.16 200.669 42 201.429 42H202.069V44.32H201.129C200.382 44.32 199.782 44.5533 199.329 45.02C198.875 45.4733 198.649 46.1133 198.649 46.94V53H196.029ZM208.789 57.4C207.976 57.4 207.222 57.2667 206.529 57C205.836 56.7333 205.236 56.36 204.729 55.88C204.236 55.4133 203.876 54.86 203.649 54.22L206.089 53.3C206.249 53.8067 206.562 54.2133 207.029 54.52C207.509 54.84 208.096 55 208.789 55C209.322 55 209.789 54.9 210.189 54.7C210.602 54.5 210.922 54.2067 211.149 53.82C211.376 53.4467 211.489 52.9933 211.489 52.46V49.98L211.989 50.58C211.616 51.2333 211.116 51.7267 210.489 52.06C209.862 52.3933 209.149 52.56 208.349 52.56C207.336 52.56 206.429 52.3267 205.629 51.86C204.829 51.3933 204.202 50.7533 203.749 49.94C203.296 49.1267 203.069 48.2133 203.069 47.2C203.069 46.1733 203.296 45.26 203.749 44.46C204.202 43.66 204.822 43.0333 205.609 42.58C206.396 42.1133 207.289 41.88 208.289 41.88C209.102 41.88 209.816 42.0533 210.429 42.4C211.056 42.7333 211.576 43.22 211.989 43.86L211.629 44.52V42.12H214.109V52.46C214.109 53.4067 213.876 54.2533 213.409 55C212.956 55.7467 212.329 56.3333 211.529 56.76C210.742 57.1867 209.829 57.4 208.789 57.4ZM208.669 50.14C209.229 50.14 209.716 50.02 210.129 49.78C210.556 49.5267 210.889 49.18 211.129 48.74C211.369 48.3 211.489 47.7933 211.489 47.22C211.489 46.66 211.362 46.16 211.109 45.72C210.869 45.2667 210.536 44.9133 210.109 44.66C209.696 44.4067 209.216 44.28 208.669 44.28C208.122 44.28 207.629 44.4067 207.189 44.66C206.749 44.9133 206.402 45.2667 206.149 45.72C205.909 46.16 205.789 46.66 205.789 47.22C205.789 47.78 205.909 48.28 206.149 48.72C206.402 49.16 206.742 49.5067 207.169 49.76C207.609 50.0133 208.109 50.14 208.669 50.14ZM221.716 53.24C220.596 53.24 219.616 52.9867 218.776 52.48C217.936 51.9733 217.283 51.2867 216.816 50.42C216.349 49.5533 216.116 48.5933 216.116 47.54C216.116 46.4467 216.349 45.48 216.816 44.64C217.296 43.7867 217.943 43.1133 218.756 42.62C219.583 42.1267 220.503 41.88 221.516 41.88C222.369 41.88 223.116 42.02 223.756 42.3C224.409 42.58 224.963 42.9667 225.416 43.46C225.869 43.9533 226.216 44.52 226.456 45.16C226.696 45.7867 226.816 46.4667 226.816 47.2C226.816 47.3867 226.803 47.58 226.776 47.78C226.763 47.98 226.729 48.1533 226.676 48.3H218.276V46.3H225.196L223.956 47.24C224.076 46.6267 224.043 46.08 223.856 45.6C223.683 45.12 223.389 44.74 222.976 44.46C222.576 44.18 222.089 44.04 221.516 44.04C220.969 44.04 220.483 44.18 220.056 44.46C219.629 44.7267 219.303 45.1267 219.076 45.66C218.863 46.18 218.783 46.8133 218.836 47.56C218.783 48.2267 218.869 48.82 219.096 49.34C219.336 49.8467 219.683 50.24 220.136 50.52C220.603 50.8 221.136 50.94 221.736 50.94C222.336 50.94 222.843 50.8133 223.256 50.56C223.683 50.3067 224.016 49.9667 224.256 49.54L226.376 50.58C226.163 51.1 225.829 51.56 225.376 51.96C224.923 52.36 224.383 52.6733 223.756 52.9C223.143 53.1267 222.463 53.24 221.716 53.24ZM233.762 53.12C232.535 53.12 231.582 52.7867 230.902 52.12C230.235 51.44 229.902 50.4867 229.902 49.26V44.46H228.022V42.12H228.222C228.755 42.12 229.169 41.98 229.462 41.7C229.755 41.42 229.902 41.0133 229.902 40.48V39.64H232.522V42.12H235.022V44.46H232.522V49.12C232.522 49.48 232.582 49.7867 232.702 50.04C232.835 50.2933 233.035 50.4867 233.302 50.62C233.582 50.7533 233.935 50.82 234.362 50.82C234.455 50.82 234.562 50.8133 234.682 50.8C234.815 50.7867 234.942 50.7733 235.062 50.76V53C234.875 53.0267 234.662 53.0533 234.422 53.08C234.182 53.1067 233.962 53.12 233.762 53.12Z" fill="#113595"/>
<path d="M54 59C46.268 59 40 52.7319 40 45C40 37.268 46.268 31 54 31C61.7319 31 68 37.268 68 45C68 52.7319 61.7319 59 54 59ZM52.6 43.6H47V46.4H52.6V52H55.4V46.4H61V43.6H55.4V38H52.6V43.6Z" fill="#113595"/>
<g filter="url(#filter1_i_2381_2410)">
<rect x="20" y="100" width="236" height="50" rx="8" fill="#7D7D7D"/>
</g>
<path d="M81.22 133L86.36 118.1H89.88L95.02 133H92.06L91 129.8H85.24L84.16 133H81.22ZM86.02 127.4H90.22L87.74 119.98H88.5L86.02 127.4ZM101.128 133.24C100.074 133.24 99.1343 132.993 98.3077 132.5C97.481 131.993 96.8277 131.307 96.3477 130.44C95.8677 129.573 95.6277 128.613 95.6277 127.56C95.6277 126.493 95.8677 125.533 96.3477 124.68C96.8277 123.827 97.481 123.147 98.3077 122.64C99.1477 122.133 100.081 121.88 101.108 121.88C101.934 121.88 102.668 122.047 103.308 122.38C103.961 122.7 104.474 123.153 104.848 123.74L104.448 124.28V117.86H107.068V133H104.588V130.9L104.868 131.42C104.494 132.007 103.974 132.46 103.308 132.78C102.641 133.087 101.914 133.24 101.128 133.24ZM101.408 130.84C102.008 130.84 102.534 130.7 102.988 130.42C103.441 130.14 103.794 129.753 104.048 129.26C104.314 128.767 104.448 128.2 104.448 127.56C104.448 126.933 104.314 126.373 104.048 125.88C103.794 125.373 103.441 124.98 102.988 124.7C102.534 124.42 102.008 124.28 101.408 124.28C100.821 124.28 100.294 124.427 99.8277 124.72C99.361 125 98.9943 125.387 98.7277 125.88C98.4743 126.36 98.3477 126.92 98.3477 127.56C98.3477 128.2 98.4743 128.767 98.7277 129.26C98.9943 129.753 99.361 130.14 99.8277 130.42C100.294 130.7 100.821 130.84 101.408 130.84ZM114.565 133.24C113.512 133.24 112.572 132.993 111.745 132.5C110.918 131.993 110.265 131.307 109.785 130.44C109.305 129.573 109.065 128.613 109.065 127.56C109.065 126.493 109.305 125.533 109.785 124.68C110.265 123.827 110.918 123.147 111.745 122.64C112.585 122.133 113.518 121.88 114.545 121.88C115.372 121.88 116.105 122.047 116.745 122.38C117.398 122.7 117.912 123.153 118.285 123.74L117.885 124.28V117.86H120.505V133H118.025V130.9L118.305 131.42C117.932 132.007 117.412 132.46 116.745 132.78C116.078 133.087 115.352 133.24 114.565 133.24ZM114.845 130.84C115.445 130.84 115.972 130.7 116.425 130.42C116.878 130.14 117.232 129.753 117.485 129.26C117.752 128.767 117.885 128.2 117.885 127.56C117.885 126.933 117.752 126.373 117.485 125.88C117.232 125.373 116.878 124.98 116.425 124.7C115.972 124.42 115.445 124.28 114.845 124.28C114.258 124.28 113.732 124.427 113.265 124.72C112.798 125 112.432 125.387 112.165 125.88C111.912 126.36 111.785 126.92 111.785 127.56C111.785 128.2 111.912 128.767 112.165 129.26C112.432 129.753 112.798 130.14 113.265 130.42C113.732 130.7 114.258 130.84 114.845 130.84ZM126.717 133V118.1H128.837L137.037 129.14L135.937 129.36V118.1H138.657V133H136.517L128.437 121.88L129.437 121.66V133H126.717ZM146.482 133.24C145.362 133.24 144.382 132.987 143.542 132.48C142.702 131.973 142.048 131.287 141.582 130.42C141.115 129.553 140.882 128.593 140.882 127.54C140.882 126.447 141.115 125.48 141.582 124.64C142.062 123.787 142.708 123.113 143.522 122.62C144.348 122.127 145.268 121.88 146.282 121.88C147.135 121.88 147.882 122.02 148.522 122.3C149.175 122.58 149.728 122.967 150.182 123.46C150.635 123.953 150.982 124.52 151.222 125.16C151.462 125.787 151.582 126.467 151.582 127.2C151.582 127.387 151.568 127.58 151.542 127.78C151.528 127.98 151.495 128.153 151.442 128.3H143.042V126.3H149.962L148.722 127.24C148.842 126.627 148.808 126.08 148.622 125.6C148.448 125.12 148.155 124.74 147.742 124.46C147.342 124.18 146.855 124.04 146.282 124.04C145.735 124.04 145.248 124.18 144.822 124.46C144.395 124.727 144.068 125.127 143.842 125.66C143.628 126.18 143.548 126.813 143.602 127.56C143.548 128.227 143.635 128.82 143.862 129.34C144.102 129.847 144.448 130.24 144.902 130.52C145.368 130.8 145.902 130.94 146.502 130.94C147.102 130.94 147.608 130.813 148.022 130.56C148.448 130.307 148.782 129.967 149.022 129.54L151.142 130.58C150.928 131.1 150.595 131.56 150.142 131.96C149.688 132.36 149.148 132.673 148.522 132.9C147.908 133.127 147.228 133.24 146.482 133.24ZM156.308 133L152.568 122.12H155.328L158.068 130.38L157.108 130.36L160.028 122.12H162.348L165.248 130.36L164.288 130.38L167.028 122.12H169.788L166.048 133H163.708L160.748 124.38H161.628L158.628 133H156.308ZM177.639 133V120.5H173.779V118.1H184.179V120.5H180.379V133H177.639ZM187.727 133.24C186.967 133.24 186.307 133.113 185.747 132.86C185.187 132.607 184.754 132.247 184.447 131.78C184.14 131.3 183.987 130.747 183.987 130.12C183.987 129.52 184.12 128.987 184.387 128.52C184.654 128.04 185.067 127.64 185.627 127.32C186.187 127 186.894 126.773 187.747 126.64L191.307 126.06V128.06L188.247 128.58C187.727 128.673 187.34 128.84 187.087 129.08C186.834 129.32 186.707 129.633 186.707 130.02C186.707 130.393 186.847 130.693 187.127 130.92C187.42 131.133 187.78 131.24 188.207 131.24C188.754 131.24 189.234 131.127 189.647 130.9C190.074 130.66 190.4 130.333 190.627 129.92C190.867 129.507 190.987 129.053 190.987 128.56V125.76C190.987 125.293 190.8 124.907 190.427 124.6C190.067 124.28 189.587 124.12 188.987 124.12C188.427 124.12 187.927 124.273 187.487 124.58C187.06 124.873 186.747 125.267 186.547 125.76L184.407 124.72C184.62 124.147 184.954 123.653 185.407 123.24C185.874 122.813 186.42 122.48 187.047 122.24C187.674 122 188.354 121.88 189.087 121.88C189.98 121.88 190.767 122.047 191.447 122.38C192.127 122.7 192.654 123.153 193.027 123.74C193.414 124.313 193.607 124.987 193.607 125.76V133H191.127V131.14L191.687 131.1C191.407 131.567 191.074 131.96 190.687 132.28C190.3 132.587 189.86 132.827 189.367 133C188.874 133.16 188.327 133.24 187.727 133.24ZM196.029 133V122.12H198.489V124.54L198.289 124.18C198.542 123.367 198.935 122.8 199.469 122.48C200.015 122.16 200.669 122 201.429 122H202.069V124.32H201.129C200.382 124.32 199.782 124.553 199.329 125.02C198.875 125.473 198.649 126.113 198.649 126.94V133H196.029ZM208.789 137.4C207.976 137.4 207.222 137.267 206.529 137C205.836 136.733 205.236 136.36 204.729 135.88C204.236 135.413 203.876 134.86 203.649 134.22L206.089 133.3C206.249 133.807 206.562 134.213 207.029 134.52C207.509 134.84 208.096 135 208.789 135C209.322 135 209.789 134.9 210.189 134.7C210.602 134.5 210.922 134.207 211.149 133.82C211.376 133.447 211.489 132.993 211.489 132.46V129.98L211.989 130.58C211.616 131.233 211.116 131.727 210.489 132.06C209.862 132.393 209.149 132.56 208.349 132.56C207.336 132.56 206.429 132.327 205.629 131.86C204.829 131.393 204.202 130.753 203.749 129.94C203.296 129.127 203.069 128.213 203.069 127.2C203.069 126.173 203.296 125.26 203.749 124.46C204.202 123.66 204.822 123.033 205.609 122.58C206.396 122.113 207.289 121.88 208.289 121.88C209.102 121.88 209.816 122.053 210.429 122.4C211.056 122.733 211.576 123.22 211.989 123.86L211.629 124.52V122.12H214.109V132.46C214.109 133.407 213.876 134.253 213.409 135C212.956 135.747 212.329 136.333 211.529 136.76C210.742 137.187 209.829 137.4 208.789 137.4ZM208.669 130.14C209.229 130.14 209.716 130.02 210.129 129.78C210.556 129.527 210.889 129.18 211.129 128.74C211.369 128.3 211.489 127.793 211.489 127.22C211.489 126.66 211.362 126.16 211.109 125.72C210.869 125.267 210.536 124.913 210.109 124.66C209.696 124.407 209.216 124.28 208.669 124.28C208.122 124.28 207.629 124.407 207.189 124.66C206.749 124.913 206.402 125.267 206.149 125.72C205.909 126.16 205.789 126.66 205.789 127.22C205.789 127.78 205.909 128.28 206.149 128.72C206.402 129.16 206.742 129.507 207.169 129.76C207.609 130.013 208.109 130.14 208.669 130.14ZM221.716 133.24C220.596 133.24 219.616 132.987 218.776 132.48C217.936 131.973 217.283 131.287 216.816 130.42C216.349 129.553 216.116 128.593 216.116 127.54C216.116 126.447 216.349 125.48 216.816 124.64C217.296 123.787 217.943 123.113 218.756 122.62C219.583 122.127 220.503 121.88 221.516 121.88C222.369 121.88 223.116 122.02 223.756 122.3C224.409 122.58 224.963 122.967 225.416 123.46C225.869 123.953 226.216 124.52 226.456 125.16C226.696 125.787 226.816 126.467 226.816 127.2C226.816 127.387 226.803 127.58 226.776 127.78C226.763 127.98 226.729 128.153 226.676 128.3H218.276V126.3H225.196L223.956 127.24C224.076 126.627 224.043 126.08 223.856 125.6C223.683 125.12 223.389 124.74 222.976 124.46C222.576 124.18 222.089 124.04 221.516 124.04C220.969 124.04 220.483 124.18 220.056 124.46C219.629 124.727 219.303 125.127 219.076 125.66C218.863 126.18 218.783 126.813 218.836 127.56C218.783 128.227 218.869 128.82 219.096 129.34C219.336 129.847 219.683 130.24 220.136 130.52C220.603 130.8 221.136 130.94 221.736 130.94C222.336 130.94 222.843 130.813 223.256 130.56C223.683 130.307 224.016 129.967 224.256 129.54L226.376 130.58C226.163 131.1 225.829 131.56 225.376 131.96C224.923 132.36 224.383 132.673 223.756 132.9C223.143 133.127 222.463 133.24 221.716 133.24ZM233.762 133.12C232.535 133.12 231.582 132.787 230.902 132.12C230.235 131.44 229.902 130.487 229.902 129.26V124.46H228.022V122.12H228.222C228.755 122.12 229.169 121.98 229.462 121.7C229.755 121.42 229.902 121.013 229.902 120.48V119.64H232.522V122.12H235.022V124.46H232.522V129.12C232.522 129.48 232.582 129.787 232.702 130.04C232.835 130.293 233.035 130.487 233.302 130.62C233.582 130.753 233.935 130.82 234.362 130.82C234.455 130.82 234.562 130.813 234.682 130.8C234.815 130.787 234.942 130.773 235.062 130.76V133C234.875 133.027 234.662 133.053 234.422 133.08C234.182 133.107 233.962 133.12 233.762 133.12Z" fill="white"/>
<path d="M54 139C46.268 139 40 132.732 40 125C40 117.268 46.268 111 54 111C61.7319 111 68 117.268 68 125C68 132.732 61.7319 139 54 139ZM52.6 123.6H47V126.4H52.6V132H55.4V126.4H61V123.6H55.4V118H52.6V123.6Z" fill="white"/>
<defs>
<filter id="filter0_d_2381_2410" x="16" y="20" width="244" height="58" filterUnits="userSpaceOnUse" color-interpolation-filters="sRGB">
<feFlood flood-opacity="0" result="BackgroundImageFix"/>
<feColorMatrix in="SourceAlpha" type="matrix" values="0 0 0 0 0 0 0 0 0 0 0 0 0 0 0 0 0 0 127 0" result="hardAlpha"/>
<feOffset dy="4"/>
<feGaussianBlur stdDeviation="2"/>
<feComposite in2="hardAlpha" operator="out"/>
<feColorMatrix type="matrix" values="0 0 0 0 0 0 0 0 0 0 0 0 0 0 0 0 0 0 0.25 0"/>
<feBlend mode="normal" in2="BackgroundImageFix" result="effect1_dropShadow_2381_2410"/>
<feBlend mode="normal" in="SourceGraphic" in2="effect1_dropShadow_2381_2410" result="shape"/>
</filter>
<filter id="filter1_i_2381_2410" x="20" y="100" width="236" height="54" filterUnits="userSpaceOnUse" color-interpolation-filters="sRGB">
<feFlood flood-opacity="0" result="BackgroundImageFix"/>
<feBlend mode="normal" in="SourceGraphic" in2="BackgroundImageFix" result="shape"/>
<feColorMatrix in="SourceAlpha" type="matrix" values="0 0 0 0 0 0 0 0 0 0 0 0 0 0 0 0 0 0 127 0" result="hardAlpha"/>
<feOffset dy="4"/>
<feGaussianBlur stdDeviation="2"/>
<feComposite in2="hardAlpha" operator="arithmetic" k2="-1" k3="1"/>
<feColorMatrix type="matrix" values="0 0 0 0 0 0 0 0 0 0 0 0 0 0 0 0 0 0 0.25 0"/>
<feBlend mode="normal" in2="shape" result="effect1_innerShadow_2381_2410"/>
</filter>
</defs>
</svg>
