<svg width="260" height="70" viewBox="18 18 260 65" fill="none" xmlns="http://www.w3.org/2000/svg">
<g filter="url(#filter0_d_2051_2232)">
<rect x="20" y="20" width="253" height="52" rx="8" fill="#008B16"/>
</g>
<g filter="url(#filter1_d_2051_2232)">
<path d="M106 61C97.7157 61 91 54.2842 91 46C91 37.7157 97.7157 31 106 31C114.284 31 121 37.7157 121 46C121 54.2842 114.284 61 106 61ZM104.504 52L115.111 41.3934L112.989 39.2721L104.504 47.7574L100.261 43.5146L98.14 45.6361L104.504 52Z" fill="white" transform="translate(-30,1)"  />
</g>
<g filter="url(#filter2_d_2051_2232)">
<path d="M127.198 53L131.824 39.59H134.992L139.618 53H136.954L136 50.12H130.816L129.844 53H127.198ZM131.518 47.96H135.298L133.066 41.282H133.75L131.518 47.96ZM140.912 56.6V43.208H143.126V45.152L142.91 44.666C143.246 44.138 143.702 43.73 144.278 43.442C144.854 43.142 145.52 42.992 146.276 42.992C147.2 42.992 148.034 43.22 148.778 43.676C149.522 44.132 150.11 44.744 150.542 45.512C150.986 46.28 151.208 47.144 151.208 48.104C151.208 49.052 150.992 49.916 150.56 50.696C150.128 51.476 149.54 52.094 148.796 52.55C148.052 52.994 147.206 53.216 146.258 53.216C145.55 53.216 144.896 53.078 144.296 52.802C143.708 52.514 143.24 52.106 142.892 51.578L143.27 51.11V56.6H140.912ZM145.988 51.056C146.528 51.056 147.008 50.93 147.428 50.678C147.848 50.426 148.172 50.078 148.4 49.634C148.64 49.19 148.76 48.68 148.76 48.104C148.76 47.528 148.64 47.024 148.4 46.592C148.172 46.148 147.848 45.8 147.428 45.548C147.008 45.284 146.528 45.152 145.988 45.152C145.472 45.152 145.004 45.278 144.584 45.53C144.176 45.782 143.852 46.136 143.612 46.592C143.384 47.036 143.27 47.54 143.27 48.104C143.27 48.68 143.384 49.19 143.612 49.634C143.852 50.078 144.176 50.426 144.584 50.678C145.004 50.93 145.472 51.056 145.988 51.056ZM153.006 56.6V43.208H155.22V45.152L155.004 44.666C155.34 44.138 155.796 43.73 156.372 43.442C156.948 43.142 157.614 42.992 158.37 42.992C159.294 42.992 160.128 43.22 160.872 43.676C161.616 44.132 162.204 44.744 162.636 45.512C163.08 46.28 163.302 47.144 163.302 48.104C163.302 49.052 163.086 49.916 162.654 50.696C162.222 51.476 161.634 52.094 160.89 52.55C160.146 52.994 159.3 53.216 158.352 53.216C157.644 53.216 156.99 53.078 156.39 52.802C155.802 52.514 155.334 52.106 154.986 51.578L155.364 51.11V56.6H153.006ZM158.082 51.056C158.622 51.056 159.102 50.93 159.522 50.678C159.942 50.426 160.266 50.078 160.494 49.634C160.734 49.19 160.854 48.68 160.854 48.104C160.854 47.528 160.734 47.024 160.494 46.592C160.266 46.148 159.942 45.8 159.522 45.548C159.102 45.284 158.622 45.152 158.082 45.152C157.566 45.152 157.098 45.278 156.678 45.53C156.27 45.782 155.946 46.136 155.706 46.592C155.478 47.036 155.364 47.54 155.364 48.104C155.364 48.68 155.478 49.19 155.706 49.634C155.946 50.078 156.27 50.426 156.678 50.678C157.098 50.93 157.566 51.056 158.082 51.056ZM165.1 53V39.374H167.458V53H165.1ZM169.635 53V43.208H171.993V53H169.635ZM169.635 42.11V39.59H171.993V42.11H169.635ZM178.814 53.216C177.806 53.216 176.924 52.988 176.168 52.532C175.412 52.076 174.824 51.458 174.404 50.678C173.984 49.898 173.774 49.034 173.774 48.086C173.774 47.102 173.984 46.232 174.404 45.476C174.836 44.708 175.418 44.102 176.15 43.658C176.894 43.214 177.722 42.992 178.634 42.992C179.402 42.992 180.074 43.118 180.65 43.37C181.238 43.622 181.736 43.97 182.144 44.414C182.552 44.858 182.864 45.368 183.08 45.944C183.296 46.508 183.404 47.12 183.404 47.78C183.404 47.948 183.392 48.122 183.368 48.302C183.356 48.482 183.326 48.638 183.278 48.77H175.718V46.97H181.946L180.83 47.816C180.938 47.264 180.908 46.772 180.74 46.34C180.584 45.908 180.32 45.566 179.948 45.314C179.588 45.062 179.15 44.936 178.634 44.936C178.142 44.936 177.704 45.062 177.32 45.314C176.936 45.554 176.642 45.914 176.438 46.394C176.246 46.862 176.174 47.432 176.222 48.104C176.174 48.704 176.252 49.238 176.456 49.706C176.672 50.162 176.984 50.516 177.392 50.768C177.812 51.02 178.292 51.146 178.832 51.146C179.372 51.146 179.828 51.032 180.2 50.804C180.584 50.576 180.884 50.27 181.1 49.886L183.008 50.822C182.816 51.29 182.516 51.704 182.108 52.064C181.7 52.424 181.214 52.706 180.65 52.91C180.098 53.114 179.486 53.216 178.814 53.216ZM189.746 53.216C188.798 53.216 187.952 52.994 187.208 52.55C186.464 52.094 185.876 51.476 185.444 50.696C185.012 49.916 184.796 49.052 184.796 48.104C184.796 47.144 185.012 46.28 185.444 45.512C185.876 44.744 186.464 44.132 187.208 43.676C187.964 43.22 188.804 42.992 189.728 42.992C190.472 42.992 191.132 43.142 191.708 43.442C192.296 43.73 192.758 44.138 193.094 44.666L192.734 45.152V39.374H195.092V53H192.86V51.11L193.112 51.578C192.776 52.106 192.308 52.514 191.708 52.802C191.108 53.078 190.454 53.216 189.746 53.216ZM189.998 51.056C190.538 51.056 191.012 50.93 191.42 50.678C191.828 50.426 192.146 50.078 192.374 49.634C192.614 49.19 192.734 48.68 192.734 48.104C192.734 47.54 192.614 47.036 192.374 46.592C192.146 46.136 191.828 45.782 191.42 45.53C191.012 45.278 190.538 45.152 189.998 45.152C189.47 45.152 188.996 45.284 188.576 45.548C188.156 45.8 187.826 46.148 187.586 46.592C187.358 47.024 187.244 47.528 187.244 48.104C187.244 48.68 187.358 49.19 187.586 49.634C187.826 50.078 188.156 50.426 188.576 50.678C188.996 50.93 189.47 51.056 189.998 51.056Z" fill="white"/>
</g>
<defs>
<filter id="filter0_d_2051_2232" x="16" y="20" width="260" height="60" filterUnits="userSpaceOnUse" color-interpolation-filters="sRGB">
<feFlood flood-opacity="0" result="BackgroundImageFix"/>
<feColorMatrix in="SourceAlpha" type="matrix" values="0 0 0 0 0 0 0 0 0 0 0 0 0 0 0 0 0 0 127 0" result="hardAlpha"/>
<feOffset dy="4"/>
<feGaussianBlur stdDeviation="2"/>
<feComposite in2="hardAlpha" operator="out"/>
<feColorMatrix type="matrix" values="0 0 0 0 0 0 0 0 0 0 0 0 0 0 0 0 0 0 0.25 0"/>
<feBlend mode="normal" in2="BackgroundImageFix" result="effect1_dropShadow_2051_2232"/>
<feBlend mode="normal" in="SourceGraphic" in2="effect1_dropShadow_2051_2232" result="shape"/>
</filter>
<filter id="filter1_d_2051_2232" x="37" y="31" width="70" height="38" filterUnits="userSpaceOnUse" color-interpolation-filters="sRGB">
<feFlood flood-opacity="0" result="BackgroundImageFix"/>
<feColorMatrix in="SourceAlpha" type="matrix" values="0 0 0 0 0 0 0 0 0 0 0 0 0 0 0 0 0 0 127 0" result="hardAlpha"/>
<feOffset dy="4"/>
<feGaussianBlur stdDeviation="2"/>
<feComposite in2="hardAlpha" operator="out"/>
<feColorMatrix type="matrix" values="0 0 0 0 0 0 0 0 0 0 0 0 0 0 0 0 0 0 0.25 0"/>
<feBlend mode="normal" in2="BackgroundImageFix" result="effect1_dropShadow_2051_2232"/>
<feBlend mode="normal" in="SourceGraphic" in2="effect1_dropShadow_2051_2232" result="shape"/>
</filter>
<filter id="filter2_d_2051_2232" x="123.198" y="39.374" width="75.8938" height="25.226" filterUnits="userSpaceOnUse" color-interpolation-filters="sRGB">
<feFlood flood-opacity="0" result="BackgroundImageFix"/>
<feColorMatrix in="SourceAlpha" type="matrix" values="0 0 0 0 0 0 0 0 0 0 0 0 0 0 0 0 0 0 127 0" result="hardAlpha"/>
<feOffset dy="4"/>
<feGaussianBlur stdDeviation="2"/>
<feComposite in2="hardAlpha" operator="out"/>
<feColorMatrix type="matrix" values="0 0 0 0 0 0 0 0 0 0 0 0 0 0 0 0 0 0 0.25 0"/>
<feBlend mode="normal" in2="BackgroundImageFix" result="effect1_dropShadow_2051_2232"/>
<feBlend mode="normal" in="SourceGraphic" in2="effect1_dropShadow_2051_2232" result="shape"/>
</filter>

</defs>
</svg>
