<svg width="257" height="68" viewBox="0 0 257 68" fill="none" xmlns="http://www.w3.org/2000/svg">
<g filter="url(#filter0_d_2148_5164)">
<rect x="4" width="249" height="54" rx="8" fill="#008B16"/>
<g clip-path="url(#clip0_2148_5164)">
<g filter="url(#filter1_d_2148_5164)">
<path d="M80.9997 43.6667C71.7949 43.6667 64.333 36.2047 64.333 27C64.333 17.7953 71.7949 10.3334 80.9997 10.3334C90.2043 10.3334 97.6663 17.7953 97.6663 27C97.6663 36.2047 90.2043 43.6667 80.9997 43.6667ZM79.3373 33.6667L91.1225 21.8816L88.7655 19.5246L79.3373 28.9527L74.6234 24.2385L72.2663 26.5957L79.3373 33.6667Z" fill="white"/>
</g>
</g>
<g filter="url(#filter2_d_2148_5164)">
<path d="M106.48 34L111.106 20.59H114.274L118.9 34H116.236L115.282 31.12H110.098L109.126 34H106.48ZM110.8 28.96H114.58L112.348 22.282H113.032L110.8 28.96ZM120.195 37.6V24.208H122.409V26.152L122.193 25.666C122.529 25.138 122.985 24.73 123.561 24.442C124.137 24.142 124.803 23.992 125.559 23.992C126.483 23.992 127.317 24.22 128.061 24.676C128.805 25.132 129.393 25.744 129.825 26.512C130.269 27.28 130.491 28.144 130.491 29.104C130.491 30.052 130.275 30.916 129.843 31.696C129.411 32.476 128.823 33.094 128.079 33.55C127.335 33.994 126.489 34.216 125.541 34.216C124.833 34.216 124.179 34.078 123.579 33.802C122.991 33.514 122.523 33.106 122.175 32.578L122.553 32.11V37.6H120.195ZM125.271 32.056C125.811 32.056 126.291 31.93 126.711 31.678C127.131 31.426 127.455 31.078 127.683 30.634C127.923 30.19 128.043 29.68 128.043 29.104C128.043 28.528 127.923 28.024 127.683 27.592C127.455 27.148 127.131 26.8 126.711 26.548C126.291 26.284 125.811 26.152 125.271 26.152C124.755 26.152 124.287 26.278 123.867 26.53C123.459 26.782 123.135 27.136 122.895 27.592C122.667 28.036 122.553 28.54 122.553 29.104C122.553 29.68 122.667 30.19 122.895 30.634C123.135 31.078 123.459 31.426 123.867 31.678C124.287 31.93 124.755 32.056 125.271 32.056ZM132.288 37.6V24.208H134.502V26.152L134.286 25.666C134.622 25.138 135.078 24.73 135.654 24.442C136.23 24.142 136.896 23.992 137.652 23.992C138.576 23.992 139.41 24.22 140.154 24.676C140.898 25.132 141.486 25.744 141.918 26.512C142.362 27.28 142.584 28.144 142.584 29.104C142.584 30.052 142.368 30.916 141.936 31.696C141.504 32.476 140.916 33.094 140.172 33.55C139.428 33.994 138.582 34.216 137.634 34.216C136.926 34.216 136.272 34.078 135.672 33.802C135.084 33.514 134.616 33.106 134.268 32.578L134.646 32.11V37.6H132.288ZM137.364 32.056C137.904 32.056 138.384 31.93 138.804 31.678C139.224 31.426 139.548 31.078 139.776 30.634C140.016 30.19 140.136 29.68 140.136 29.104C140.136 28.528 140.016 28.024 139.776 27.592C139.548 27.148 139.224 26.8 138.804 26.548C138.384 26.284 137.904 26.152 137.364 26.152C136.848 26.152 136.38 26.278 135.96 26.53C135.552 26.782 135.228 27.136 134.988 27.592C134.76 28.036 134.646 28.54 134.646 29.104C134.646 29.68 134.76 30.19 134.988 30.634C135.228 31.078 135.552 31.426 135.96 31.678C136.38 31.93 136.848 32.056 137.364 32.056ZM144.382 34V24.208H146.596V26.386L146.416 26.062C146.644 25.33 146.998 24.82 147.478 24.532C147.97 24.244 148.558 24.1 149.242 24.1H149.818V26.188H148.972C148.3 26.188 147.76 26.398 147.352 26.818C146.944 27.226 146.74 27.802 146.74 28.546V34H144.382ZM155.903 34.216C154.943 34.216 154.067 33.994 153.275 33.55C152.495 33.106 151.871 32.5 151.403 31.732C150.947 30.964 150.719 30.088 150.719 29.104C150.719 28.12 150.947 27.244 151.403 26.476C151.871 25.708 152.495 25.102 153.275 24.658C154.055 24.214 154.931 23.992 155.903 23.992C156.863 23.992 157.733 24.214 158.513 24.658C159.293 25.102 159.911 25.708 160.367 26.476C160.835 27.232 161.069 28.108 161.069 29.104C161.069 30.088 160.835 30.964 160.367 31.732C159.899 32.5 159.275 33.106 158.495 33.55C157.715 33.994 156.851 34.216 155.903 34.216ZM155.903 32.056C156.431 32.056 156.893 31.93 157.289 31.678C157.697 31.426 158.015 31.078 158.243 30.634C158.483 30.178 158.603 29.668 158.603 29.104C158.603 28.528 158.483 28.024 158.243 27.592C158.015 27.148 157.697 26.8 157.289 26.548C156.893 26.284 156.431 26.152 155.903 26.152C155.363 26.152 154.889 26.284 154.481 26.548C154.073 26.8 153.749 27.148 153.509 27.592C153.281 28.024 153.167 28.528 153.167 29.104C153.167 29.668 153.281 30.178 153.509 30.634C153.749 31.078 154.073 31.426 154.481 31.678C154.889 31.93 155.363 32.056 155.903 32.056ZM165.633 34L161.781 24.208H164.355L167.145 31.912H166.191L168.999 24.208H171.573L167.721 34H165.633ZM177.345 34.216C176.337 34.216 175.455 33.988 174.699 33.532C173.943 33.076 173.355 32.458 172.935 31.678C172.515 30.898 172.305 30.034 172.305 29.086C172.305 28.102 172.515 27.232 172.935 26.476C173.367 25.708 173.949 25.102 174.681 24.658C175.425 24.214 176.253 23.992 177.165 23.992C177.933 23.992 178.605 24.118 179.181 24.37C179.769 24.622 180.267 24.97 180.675 25.414C181.083 25.858 181.395 26.368 181.611 26.944C181.827 27.508 181.935 28.12 181.935 28.78C181.935 28.948 181.923 29.122 181.899 29.302C181.887 29.482 181.857 29.638 181.809 29.77H174.249V27.97H180.477L179.361 28.816C179.469 28.264 179.439 27.772 179.271 27.34C179.115 26.908 178.851 26.566 178.479 26.314C178.119 26.062 177.681 25.936 177.165 25.936C176.673 25.936 176.235 26.062 175.851 26.314C175.467 26.554 175.173 26.914 174.969 27.394C174.777 27.862 174.705 28.432 174.753 29.104C174.705 29.704 174.783 30.238 174.987 30.706C175.203 31.162 175.515 31.516 175.923 31.768C176.343 32.02 176.823 32.146 177.363 32.146C177.903 32.146 178.359 32.032 178.731 31.804C179.115 31.576 179.415 31.27 179.631 30.886L181.539 31.822C181.347 32.29 181.047 32.704 180.639 33.064C180.231 33.424 179.745 33.706 179.181 33.91C178.629 34.114 178.017 34.216 177.345 34.216ZM188.276 34.216C187.328 34.216 186.482 33.994 185.738 33.55C184.994 33.094 184.406 32.476 183.974 31.696C183.542 30.916 183.326 30.052 183.326 29.104C183.326 28.144 183.542 27.28 183.974 26.512C184.406 25.744 184.994 25.132 185.738 24.676C186.494 24.22 187.334 23.992 188.258 23.992C189.002 23.992 189.662 24.142 190.238 24.442C190.826 24.73 191.288 25.138 191.624 25.666L191.264 26.152V20.374H193.622V34H191.39V32.11L191.642 32.578C191.306 33.106 190.838 33.514 190.238 33.802C189.638 34.078 188.984 34.216 188.276 34.216ZM188.528 32.056C189.068 32.056 189.542 31.93 189.95 31.678C190.358 31.426 190.676 31.078 190.904 30.634C191.144 30.19 191.264 29.68 191.264 29.104C191.264 28.54 191.144 28.036 190.904 27.592C190.676 27.136 190.358 26.782 189.95 26.53C189.542 26.278 189.068 26.152 188.528 26.152C188 26.152 187.526 26.284 187.106 26.548C186.686 26.8 186.356 27.148 186.116 27.592C185.888 28.024 185.774 28.528 185.774 29.104C185.774 29.68 185.888 30.19 186.116 30.634C186.356 31.078 186.686 31.426 187.106 31.678C187.526 31.93 188 32.056 188.528 32.056Z" fill="white"/>
</g>
</g>
<defs>
<filter id="filter0_d_2148_5164" x="0" y="0" width="257" height="75.5581" filterUnits="userSpaceOnUse" color-interpolation-filters="sRGB">
<feFlood flood-opacity="0" result="BackgroundImageFix"/>
<feColorMatrix in="SourceAlpha" type="matrix" values="0 0 0 0 0 0 0 0 0 0 0 0 0 0 0 0 0 0 127 0" result="hardAlpha"/>
<feOffset dy="4"/>
<feGaussianBlur stdDeviation="2"/>
<feComposite in2="hardAlpha" operator="out"/>
<feColorMatrix type="matrix" values="0 0 0 0 0 0 0 0 0 0 0 0 0 0 0 0 0 0 0.25 0"/>
<feBlend mode="normal" in2="BackgroundImageFix" result="effect1_dropShadow_2148_5164"/>
<feBlend mode="normal" in="SourceGraphic" in2="effect1_dropShadow_2148_5164" result="shape"/>
</filter>
<filter id="filter1_d_2148_5164" x="60.333" y="10.3334" width="41.333" height="41.3334" filterUnits="userSpaceOnUse" color-interpolation-filters="sRGB">
<feFlood flood-opacity="0" result="BackgroundImageFix"/>
<feColorMatrix in="SourceAlpha" type="matrix" values="0 0 0 0 0 0 0 0 0 0 0 0 0 0 0 0 0 0 127 0" result="hardAlpha"/>
<feOffset dy="4"/>
<feGaussianBlur stdDeviation="2"/>
<feComposite in2="hardAlpha" operator="out"/>
<feColorMatrix type="matrix" values="0 0 0 0 0 0 0 0 0 0 0 0 0 0 0 0 0 0 0.25 0"/>
<feBlend mode="normal" in2="BackgroundImageFix" result="effect1_dropShadow_2148_5164"/>
<feBlend mode="normal" in="SourceGraphic" in2="effect1_dropShadow_2148_5164" result="shape"/>
</filter>
<filter id="filter2_d_2148_5164" x="102.48" y="20.374" width="95.1416" height="25.226" filterUnits="userSpaceOnUse" color-interpolation-filters="sRGB">
<feFlood flood-opacity="0" result="BackgroundImageFix"/>
<feColorMatrix in="SourceAlpha" type="matrix" values="0 0 0 0 0 0 0 0 0 0 0 0 0 0 0 0 0 0 127 0" result="hardAlpha"/>
<feOffset dy="4"/>
<feGaussianBlur stdDeviation="2"/>
<feComposite in2="hardAlpha" operator="out"/>
<feColorMatrix type="matrix" values="0 0 0 0 0 0 0 0 0 0 0 0 0 0 0 0 0 0 0.25 0"/>
<feBlend mode="normal" in2="BackgroundImageFix" result="effect1_dropShadow_2148_5164"/>
<feBlend mode="normal" in="SourceGraphic" in2="effect1_dropShadow_2148_5164" result="shape"/>
</filter>
<clipPath id="clip0_2148_5164">
<rect width="40" height="40" fill="white" transform="translate(61 7)"/>
</clipPath>
</defs>
</svg>
