<svg width="257" height="68" viewBox="0 0 257 68" fill="none" xmlns="http://www.w3.org/2000/svg">
<g filter="url(#filter0_d_2148_5160)">
<rect x="0" width="249" height="55" rx="8" fill="#533BB0"/>
</g>
<g filter="url(#filter1_d_2148_5160)">
<path d="M46.198 33L50.824 19.59H53.992L58.618 33H55.954L55 30.12H49.816L48.844 33H46.198ZM50.518 27.96H54.298L52.066 21.282H52.75L50.518 27.96ZM63.6385 33.216C62.5945 33.216 61.6825 32.97 60.9025 32.478C60.1345 31.974 59.6065 31.296 59.3185 30.444L61.0825 29.598C61.3345 30.15 61.6825 30.582 62.1265 30.894C62.5825 31.206 63.0865 31.362 63.6385 31.362C64.0705 31.362 64.4125 31.266 64.6645 31.074C64.9165 30.882 65.0425 30.63 65.0425 30.318C65.0425 30.126 64.9885 29.97 64.8805 29.85C64.7845 29.718 64.6465 29.61 64.4665 29.526C64.2985 29.43 64.1125 29.352 63.9085 29.292L62.3065 28.842C61.4785 28.602 60.8485 28.236 60.4165 27.744C59.9965 27.252 59.7865 26.67 59.7865 25.998C59.7865 25.398 59.9365 24.876 60.2365 24.432C60.5485 23.976 60.9745 23.622 61.5145 23.37C62.0665 23.118 62.6965 22.992 63.4045 22.992C64.3285 22.992 65.1445 23.214 65.8525 23.658C66.5605 24.102 67.0645 24.726 67.3645 25.53L65.5645 26.376C65.3965 25.932 65.1145 25.578 64.7185 25.314C64.3225 25.05 63.8785 24.918 63.3865 24.918C62.9905 24.918 62.6785 25.008 62.4505 25.188C62.2225 25.368 62.1085 25.602 62.1085 25.89C62.1085 26.07 62.1565 26.226 62.2525 26.358C62.3485 26.49 62.4805 26.598 62.6485 26.682C62.8285 26.766 63.0325 26.844 63.2605 26.916L64.8265 27.384C65.6305 27.624 66.2485 27.984 66.6805 28.464C67.1245 28.944 67.3465 29.532 67.3465 30.228C67.3465 30.816 67.1905 31.338 66.8785 31.794C66.5665 32.238 66.1345 32.586 65.5825 32.838C65.0305 33.09 64.3825 33.216 63.6385 33.216ZM69.1585 33V19.374H71.5165V28.302L70.6165 28.032L75.2245 23.208H78.1585L74.5405 27.15L78.2305 33H75.5305L72.3265 27.924L73.7305 27.636L70.7785 30.804L71.5165 29.364V33H69.1585ZM82.9444 33V19.59H85.2844L90.3064 26.412H89.1904L94.1044 19.59H96.4444V33H93.9784V22.38L94.9324 22.614L89.8384 29.4H89.5504L84.5824 22.614L85.3924 22.38V33H82.9444ZM103.601 33.216C102.641 33.216 101.765 32.994 100.973 32.55C100.193 32.106 99.5688 31.5 99.1008 30.732C98.6448 29.964 98.4168 29.088 98.4168 28.104C98.4168 27.12 98.6448 26.244 99.1008 25.476C99.5688 24.708 100.193 24.102 100.973 23.658C101.753 23.214 102.629 22.992 103.601 22.992C104.561 22.992 105.431 23.214 106.211 23.658C106.991 24.102 107.609 24.708 108.065 25.476C108.533 26.232 108.767 27.108 108.767 28.104C108.767 29.088 108.533 29.964 108.065 30.732C107.597 31.5 106.973 32.106 106.193 32.55C105.413 32.994 104.549 33.216 103.601 33.216ZM103.601 31.056C104.129 31.056 104.591 30.93 104.987 30.678C105.395 30.426 105.713 30.078 105.941 29.634C106.181 29.178 106.301 28.668 106.301 28.104C106.301 27.528 106.181 27.024 105.941 26.592C105.713 26.148 105.395 25.8 104.987 25.548C104.591 25.284 104.129 25.152 103.601 25.152C103.061 25.152 102.587 25.284 102.179 25.548C101.771 25.8 101.447 26.148 101.207 26.592C100.979 27.024 100.865 27.528 100.865 28.104C100.865 28.668 100.979 29.178 101.207 29.634C101.447 30.078 101.771 30.426 102.179 30.678C102.587 30.93 103.061 31.056 103.601 31.056ZM110.555 33V23.208H112.769V25.386L112.589 25.062C112.817 24.33 113.171 23.82 113.651 23.532C114.143 23.244 114.731 23.1 115.415 23.1H115.991V25.188H115.145C114.473 25.188 113.933 25.398 113.525 25.818C113.117 26.226 112.913 26.802 112.913 27.546V33H110.555ZM121.931 33.216C120.923 33.216 120.041 32.988 119.285 32.532C118.529 32.076 117.941 31.458 117.521 30.678C117.101 29.898 116.891 29.034 116.891 28.086C116.891 27.102 117.101 26.232 117.521 25.476C117.953 24.708 118.535 24.102 119.267 23.658C120.011 23.214 120.839 22.992 121.751 22.992C122.519 22.992 123.191 23.118 123.767 23.37C124.355 23.622 124.853 23.97 125.261 24.414C125.669 24.858 125.981 25.368 126.197 25.944C126.413 26.508 126.521 27.12 126.521 27.78C126.521 27.948 126.509 28.122 126.485 28.302C126.473 28.482 126.443 28.638 126.395 28.77H118.835V26.97H125.063L123.947 27.816C124.055 27.264 124.025 26.772 123.857 26.34C123.701 25.908 123.437 25.566 123.065 25.314C122.705 25.062 122.267 24.936 121.751 24.936C121.259 24.936 120.821 25.062 120.437 25.314C120.053 25.554 119.759 25.914 119.555 26.394C119.363 26.862 119.291 27.432 119.339 28.104C119.291 28.704 119.369 29.238 119.573 29.706C119.789 30.162 120.101 30.516 120.509 30.768C120.929 31.02 121.409 31.146 121.949 31.146C122.489 31.146 122.945 31.032 123.317 30.804C123.701 30.576 124.001 30.27 124.217 29.886L126.125 30.822C125.933 31.29 125.633 31.704 125.225 32.064C124.817 32.424 124.331 32.706 123.767 32.91C123.215 33.114 122.603 33.216 121.931 33.216ZM131.706 33V19.59H140.616V21.75H134.154V25.188H140.256V27.348H134.154V30.84H140.616V33H131.706ZM145.165 33L141.313 23.208H143.887L146.677 30.912H145.723L148.531 23.208H151.105L147.253 33H145.165ZM152.409 33V23.208H154.767V33H152.409ZM152.409 22.11V19.59H154.767V22.11H152.409ZM161.498 33.216C160.55 33.216 159.704 32.994 158.96 32.55C158.216 32.094 157.628 31.476 157.196 30.696C156.764 29.916 156.548 29.052 156.548 28.104C156.548 27.144 156.764 26.28 157.196 25.512C157.628 24.744 158.216 24.132 158.96 23.676C159.716 23.22 160.556 22.992 161.48 22.992C162.224 22.992 162.884 23.142 163.46 23.442C164.048 23.73 164.51 24.138 164.846 24.666L164.486 25.152V19.374H166.844V33H164.612V31.11L164.864 31.578C164.528 32.106 164.06 32.514 163.46 32.802C162.86 33.078 162.206 33.216 161.498 33.216ZM161.75 31.056C162.29 31.056 162.764 30.93 163.172 30.678C163.58 30.426 163.898 30.078 164.126 29.634C164.366 29.19 164.486 28.68 164.486 28.104C164.486 27.54 164.366 27.036 164.126 26.592C163.898 26.136 163.58 25.782 163.172 25.53C162.764 25.278 162.29 25.152 161.75 25.152C161.222 25.152 160.748 25.284 160.328 25.548C159.908 25.8 159.578 26.148 159.338 26.592C159.11 27.024 158.996 27.528 158.996 28.104C158.996 28.68 159.11 29.19 159.338 29.634C159.578 30.078 159.908 30.426 160.328 30.678C160.748 30.93 161.222 31.056 161.75 31.056ZM173.681 33.216C172.673 33.216 171.791 32.988 171.035 32.532C170.279 32.076 169.691 31.458 169.271 30.678C168.851 29.898 168.641 29.034 168.641 28.086C168.641 27.102 168.851 26.232 169.271 25.476C169.703 24.708 170.285 24.102 171.017 23.658C171.761 23.214 172.589 22.992 173.501 22.992C174.269 22.992 174.941 23.118 175.517 23.37C176.105 23.622 176.603 23.97 177.011 24.414C177.419 24.858 177.731 25.368 177.947 25.944C178.163 26.508 178.271 27.12 178.271 27.78C178.271 27.948 178.259 28.122 178.235 28.302C178.223 28.482 178.193 28.638 178.145 28.77H170.585V26.97H176.813L175.697 27.816C175.805 27.264 175.775 26.772 175.607 26.34C175.451 25.908 175.187 25.566 174.815 25.314C174.455 25.062 174.017 24.936 173.501 24.936C173.009 24.936 172.571 25.062 172.187 25.314C171.803 25.554 171.509 25.914 171.305 26.394C171.113 26.862 171.041 27.432 171.089 28.104C171.041 28.704 171.119 29.238 171.323 29.706C171.539 30.162 171.851 30.516 172.259 30.768C172.679 31.02 173.159 31.146 173.699 31.146C174.239 31.146 174.695 31.032 175.067 30.804C175.451 30.576 175.751 30.27 175.967 29.886L177.875 30.822C177.683 31.29 177.383 31.704 176.975 32.064C176.567 32.424 176.081 32.706 175.517 32.91C174.965 33.114 174.353 33.216 173.681 33.216ZM180.059 33V23.208H182.273V25.134L182.093 24.792C182.321 24.204 182.693 23.76 183.209 23.46C183.737 23.148 184.349 22.992 185.045 22.992C185.765 22.992 186.401 23.148 186.953 23.46C187.517 23.772 187.955 24.21 188.267 24.774C188.579 25.326 188.735 25.968 188.735 26.7V33H186.377V27.258C186.377 26.826 186.293 26.454 186.125 26.142C185.957 25.83 185.723 25.59 185.423 25.422C185.135 25.242 184.793 25.152 184.397 25.152C184.013 25.152 183.671 25.242 183.371 25.422C183.071 25.59 182.837 25.83 182.669 26.142C182.501 26.454 182.417 26.826 182.417 27.258V33H180.059ZM195.445 33.216C194.473 33.216 193.597 32.994 192.817 32.55C192.049 32.094 191.443 31.482 190.999 30.714C190.555 29.934 190.333 29.058 190.333 28.086C190.333 27.114 190.555 26.244 190.999 25.476C191.443 24.708 192.049 24.102 192.817 23.658C193.597 23.214 194.473 22.992 195.445 22.992C196.141 22.992 196.789 23.118 197.389 23.37C197.989 23.61 198.505 23.946 198.937 24.378C199.381 24.798 199.699 25.302 199.891 25.89L197.821 26.79C197.641 26.298 197.335 25.902 196.903 25.602C196.483 25.302 195.997 25.152 195.445 25.152C194.929 25.152 194.467 25.278 194.059 25.53C193.663 25.782 193.351 26.13 193.123 26.574C192.895 27.018 192.781 27.528 192.781 28.104C192.781 28.68 192.895 29.19 193.123 29.634C193.351 30.078 193.663 30.426 194.059 30.678C194.467 30.93 194.929 31.056 195.445 31.056C196.009 31.056 196.501 30.906 196.921 30.606C197.341 30.306 197.641 29.904 197.821 29.4L199.891 30.336C199.699 30.888 199.387 31.386 198.955 31.83C198.523 32.262 198.007 32.604 197.407 32.856C196.807 33.096 196.153 33.216 195.445 33.216ZM206.324 33.216C205.316 33.216 204.434 32.988 203.678 32.532C202.922 32.076 202.334 31.458 201.914 30.678C201.494 29.898 201.284 29.034 201.284 28.086C201.284 27.102 201.494 26.232 201.914 25.476C202.346 24.708 202.928 24.102 203.66 23.658C204.404 23.214 205.232 22.992 206.144 22.992C206.912 22.992 207.584 23.118 208.16 23.37C208.748 23.622 209.246 23.97 209.654 24.414C210.062 24.858 210.374 25.368 210.59 25.944C210.806 26.508 210.914 27.12 210.914 27.78C210.914 27.948 210.902 28.122 210.878 28.302C210.866 28.482 210.836 28.638 210.788 28.77H203.228V26.97H209.456L208.34 27.816C208.448 27.264 208.418 26.772 208.25 26.34C208.094 25.908 207.83 25.566 207.458 25.314C207.098 25.062 206.66 24.936 206.144 24.936C205.652 24.936 205.214 25.062 204.83 25.314C204.446 25.554 204.152 25.914 203.948 26.394C203.756 26.862 203.684 27.432 203.732 28.104C203.684 28.704 203.762 29.238 203.966 29.706C204.182 30.162 204.494 30.516 204.902 30.768C205.322 31.02 205.802 31.146 206.342 31.146C206.882 31.146 207.338 31.032 207.71 30.804C208.094 30.576 208.394 30.27 208.61 29.886L210.518 30.822C210.326 31.29 210.026 31.704 209.618 32.064C209.21 32.424 208.724 32.706 208.16 32.91C207.608 33.114 206.996 33.216 206.324 33.216Z" fill="white"/>
</g>
<defs>
<filter id="filter0_d_2148_5160" x="0" y="0" width="257" height="60" filterUnits="userSpaceOnUse" color-interpolation-filters="sRGB">
<feFlood flood-opacity="0" result="BackgroundImageFix"/>
<feColorMatrix in="SourceAlpha" type="matrix" values="0 0 0 0 0 0 0 0 0 0 0 0 0 0 0 0 0 0 127 0" result="hardAlpha"/>
<feOffset dy="4"/>
<feGaussianBlur stdDeviation="2"/>
<feComposite in2="hardAlpha" operator="out"/>
<feColorMatrix type="matrix" values="0 0 0 0 0 0 0 0 0 0 0 0 0 0 0 0 0 0 0.25 0"/>
<feBlend mode="normal" in2="BackgroundImageFix" result="effect1_dropShadow_2148_5160"/>
<feBlend mode="normal" in="SourceGraphic" in2="effect1_dropShadow_2148_5160" result="shape"/>
</filter>
<filter id="filter1_d_2148_5160" x="42.1982" y="19.374" width="172.716" height="21.8419" filterUnits="userSpaceOnUse" color-interpolation-filters="sRGB">
<feFlood flood-opacity="0" result="BackgroundImageFix"/>
<feColorMatrix in="SourceAlpha" type="matrix" values="0 0 0 0 0 0 0 0 0 0 0 0 0 0 0 0 0 0 127 0" result="hardAlpha"/>
<feOffset dy="4"/>
<feGaussianBlur stdDeviation="2"/>
<feComposite in2="hardAlpha" operator="out"/>
<feColorMatrix type="matrix" values="0 0 0 0 0 0 0 0 0 0 0 0 0 0 0 0 0 0 0.25 0"/>
<feBlend mode="normal" in2="BackgroundImageFix" result="effect1_dropShadow_2148_5160"/>
<feBlend mode="normal" in="SourceGraphic" in2="effect1_dropShadow_2148_5160" result="shape"/>
</filter>
</defs>
</svg>
