<?xml version="1.0" encoding="utf-8"?>
<!-- Generator: Adobe Illustrator 26.5.0, SVG Export Plug-In . SVG Version: 6.00 Build 0)  -->
<svg version="1.1" id="Layer_1" xmlns="http://www.w3.org/2000/svg" xmlns:xlink="http://www.w3.org/1999/xlink" x="0px" y="0px"
	 viewBox="0 0 1920 1176" style="enable-background:new 0 0 1920 1176;" xml:space="preserve">
<style type="text/css">
	.st0{fill:url(#SVGID_1_);}
	.st1{fill:none;}
	.st2{fill:#3055D9;fill-opacity:0.3;}
	.st3{fill:#FFFFFF;}
</style>
<linearGradient id="SVGID_1_" gradientUnits="userSpaceOnUse" x1="830.5268" y1="1139.2609" x2="1090.8817" y2="30.742" gradientTransform="matrix(1 0 0 -1 0 1176)">
	<stop  offset="0" style="stop-color:#0F123B"/>
	<stop  offset="0.5869" style="stop-color:#090D2E"/>
	<stop  offset="1" style="stop-color:#020515"/>
</linearGradient>
<rect class="st0" width="1920" height="1176"/>
<g>
	<rect x="-291" class="st1" width="2526" height="1472.8"/>
	<rect x="-291" class="st2" width="2526" height="1472.8"/>
</g>
<path class="st3" d="M1827.3,56.2c-0.7,0-1.4,0.2-2,0.6c-0.6,0.4-1.1,1-1.3,1.6c-0.3,0.7-0.4,1.4-0.2,2.1c0.1,0.7,0.5,1.3,1,1.8
	c0.5,0.5,1.2,0.8,1.9,1c0.7,0.1,1.4,0.1,2.1-0.2c0.7-0.3,1.2-0.7,1.6-1.3c0.4-0.6,0.6-1.3,0.6-2c0-1-0.4-1.9-1.1-2.5
	C1829.1,56.6,1828.2,56.2,1827.3,56.2z M1835.1,59.8c0,0.3,0,0.7-0.1,1l2.2,1.7c0.1,0.1,0.2,0.2,0.2,0.3s0,0.2-0.1,0.4l-2.1,3.6
	c-0.1,0.1-0.2,0.2-0.3,0.2c-0.1,0-0.2,0-0.4,0l-2.6-1c-0.5,0.4-1.1,0.8-1.8,1l-0.4,2.7c0,0.1-0.1,0.2-0.2,0.3
	c-0.1,0.1-0.2,0.1-0.3,0.1h-4.2c-0.1,0-0.2,0-0.3-0.1c-0.1-0.1-0.2-0.2-0.2-0.3l-0.4-2.7c-0.6-0.3-1.2-0.6-1.8-1l-2.6,1
	c-0.1,0-0.2,0-0.4,0c-0.1,0-0.2-0.1-0.3-0.2l-2.1-3.6c-0.1-0.1-0.1-0.2-0.1-0.4c0-0.1,0.1-0.2,0.2-0.3l2.2-1.7
	c-0.1-0.3-0.1-0.7-0.1-1c0-0.3,0-0.7,0.1-1l-2.2-1.7c-0.1-0.1-0.2-0.2-0.2-0.3c0-0.1,0-0.2,0.1-0.4l2.1-3.6c0.1-0.1,0.2-0.2,0.3-0.2
	c0.1,0,0.2,0,0.4,0l2.6,1c0.5-0.4,1.1-0.8,1.8-1l0.4-2.7c0-0.1,0.1-0.2,0.2-0.3c0.1-0.1,0.2-0.1,0.3-0.1h4.2c0.1,0,0.2,0,0.3,0.1
	c0.1,0.1,0.2,0.2,0.2,0.3l0.4,2.7c0.6,0.3,1.2,0.6,1.8,1l2.6-1c0.1,0,0.2,0,0.4,0c0.1,0,0.2,0.1,0.3,0.2l2.1,3.6
	c0.1,0.1,0.1,0.2,0.1,0.4c0,0.1-0.1,0.2-0.2,0.3l-2.2,1.7C1835,59.1,1835.1,59.5,1835.1,59.8z"/>
<path class="st3" d="M1879.9,63.6c-0.1-0.1-0.1-0.2-0.2-0.3c-0.9-1.2-1.5-1.9-1.5-5.3c0-1.8-0.4-3.2-1.2-4.3
	c-0.6-0.8-1.4-1.4-2.4-1.8c0,0,0,0,0,0c-0.4-1.3-1.4-2.2-2.6-2.2c-1.2,0-2.2,0.9-2.6,2.2c0,0,0,0,0,0c-2.4,1-3.6,3-3.6,6.1
	c0,3.4-0.6,4.1-1.5,5.3c-0.1,0.1-0.1,0.2-0.2,0.3c-0.2,0.2-0.3,0.5-0.3,0.8c0,0.3,0,0.6,0.1,0.9c0.3,0.6,0.8,0.9,1.5,0.9h13.3
	c0.7,0,1.2-0.4,1.5-0.9c0.1-0.3,0.2-0.6,0.1-0.9C1880.2,64.1,1880.1,63.9,1879.9,63.6z"/>
<path class="st3" d="M1872,69.9c0.6,0,1.2-0.2,1.8-0.5c0.5-0.3,1-0.8,1.3-1.4c0,0,0-0.1,0-0.1s0-0.1,0-0.1c0,0,0,0-0.1-0.1
	c0,0-0.1,0-0.1,0h-5.8c0,0-0.1,0-0.1,0c0,0-0.1,0-0.1,0.1c0,0,0,0.1,0,0.1s0,0.1,0,0.1c0.3,0.6,0.7,1,1.3,1.4
	C1870.7,69.7,1871.3,69.9,1872,69.9z"/>
<path class="st3" d="M1783.6,50c-0.9-1-2.2-1.5-3.6-1.5s-2.7,0.5-3.6,1.5c-0.9,1-1.4,2.3-1.3,3.8c0.2,2.9,2.4,5.2,4.9,5.2
	s4.7-2.3,4.9-5.2C1785,52.4,1784.5,51,1783.6,50z"/>
<path class="st3" d="M1788.2,69.5h-16.5c-0.2,0-0.4,0-0.6-0.1c-0.2-0.1-0.4-0.2-0.5-0.4c-0.3-0.4-0.4-0.9-0.3-1.4
	c0.4-2.2,1.6-4,3.6-5.3c1.7-1.1,3.9-1.8,6.2-1.8s4.4,0.6,6.2,1.8c1.9,1.3,3.2,3.1,3.6,5.3c0.1,0.5,0,1-0.3,1.4
	c-0.1,0.2-0.3,0.3-0.5,0.4C1788.7,69.5,1788.5,69.5,1788.2,69.5z"/>
</svg>
