<?xml version="1.0" encoding="UTF-8"?>
<svg id="Layer_1" xmlns="http://www.w3.org/2000/svg" xmlns:xlink="http://www.w3.org/1999/xlink" viewBox="0 0 1920 1080">
  <defs>
    <style>
      .cls-1, .cls-2 {
        fill: #fff;
      }

      .cls-2 {
        fill-rule: evenodd;
      }

      .cls-3 {
        fill: none;
      }

      .cls-4 {
        fill: #113595;
      }

      .cls-5 {
        clip-path: url(#clippath);
      }
    </style>
    <clipPath id="clippath">
      <rect class="cls-3" width="1920" height="1080"/>
    </clipPath>
  </defs>
  <g class="cls-5">
    <g>
      <rect class="cls-4" x="343" y="200" width="280" height="176" rx="20" ry="20"/>
      <rect class="cls-4" x="956" y="200" width="279" height="176" rx="20" ry="20"/>
      <rect class="cls-4" x="650" y="200" width="279" height="176" rx="20" ry="20"/>
      <rect class="cls-4" x="1262" y="200" width="280" height="176" rx="20" ry="20"/>
      <rect class="cls-4" x="1569" y="200" width="279" height="176" rx="20" ry="20"/>
      <path class="cls-1" d="M458.76,234.4l24.24-5.4,24.24,5.4c1.35.3,2.31,1.5,2.31,2.88v29.51c0,5.93-2.96,11.46-7.88,14.75l-18.67,12.46-18.67-12.46c-4.92-3.29-7.88-8.82-7.88-14.75v-29.51c0-1.39.96-2.58,2.31-2.88ZM483,265.93l8.67,4.57-1.66-9.67,7.01-6.85-9.69-1.41-4.33-8.8-4.33,8.8-9.69,1.41,7.01,6.85-1.66,9.67,8.67-4.57Z"/>
      <path class="cls-1" d="M452.72,339v-18.62h3.4v15.62h7.98v3h-11.38ZM472.47,339.3c-1.4,0-2.62-.32-3.67-.95-1.05-.63-1.87-1.49-2.45-2.58s-.88-2.28-.88-3.6.29-2.57.88-3.62c.6-1.07,1.41-1.91,2.43-2.52,1.03-.62,2.18-.92,3.45-.92,1.07,0,2,.17,2.8.52.82.35,1.51.83,2.07,1.45.57.62,1,1.32,1.3,2.12.3.78.45,1.63.45,2.55,0,.23-.02.48-.05.73-.02.25-.06.47-.12.65h-10.5v-2.5h8.65l-1.55,1.17c.15-.77.11-1.45-.12-2.05-.22-.6-.58-1.08-1.1-1.42-.5-.35-1.11-.53-1.83-.53s-1.29.18-1.82.53c-.53.33-.94.83-1.23,1.5-.27.65-.37,1.44-.3,2.38-.07.83.04,1.57.33,2.22.3.63.73,1.12,1.3,1.48.58.35,1.25.52,2,.52s1.38-.16,1.9-.47c.53-.32.95-.74,1.25-1.28l2.65,1.3c-.27.65-.68,1.23-1.25,1.73-.57.5-1.24.89-2.02,1.17-.77.28-1.62.42-2.55.42ZM485.18,339l-5.35-13.6h3.57l3.88,10.7h-1.32l3.9-10.7h3.58l-5.35,13.6h-2.9ZM501.45,339.3c-1.4,0-2.62-.32-3.68-.95-1.05-.63-1.87-1.49-2.45-2.58-.58-1.08-.88-2.28-.88-3.6s.29-2.57.88-3.62c.6-1.07,1.41-1.91,2.42-2.52,1.03-.62,2.18-.92,3.45-.92,1.07,0,2,.17,2.8.52.82.35,1.51.83,2.08,1.45.57.62,1,1.32,1.3,2.12.3.78.45,1.63.45,2.55,0,.23-.02.48-.05.73-.02.25-.06.47-.12.65h-10.5v-2.5h8.65l-1.55,1.17c.15-.77.11-1.45-.12-2.05-.22-.6-.58-1.08-1.1-1.42-.5-.35-1.11-.53-1.82-.53s-1.29.18-1.83.53c-.53.33-.94.83-1.23,1.5-.27.65-.37,1.44-.3,2.38-.07.83.04,1.57.33,2.22.3.63.73,1.12,1.3,1.48.58.35,1.25.52,2,.52s1.38-.16,1.9-.47c.53-.32.95-.74,1.25-1.28l2.65,1.3c-.27.65-.68,1.23-1.25,1.73-.57.5-1.24.89-2.02,1.17-.77.28-1.62.42-2.55.42ZM510.31,339v-18.92h3.27v18.92h-3.27Z"/>
      <path class="cls-1" d="M790,255c7.18,0,13-5.82,13-13s-5.82-13-13-13-13,5.82-13,13,5.82,13,13,13ZM768.88,264.75c4.49,0,8.12-3.64,8.12-8.12s-3.64-8.12-8.12-8.12-8.12,3.64-8.12,8.12,3.64,8.12,8.12,8.12ZM819.25,256.62c0,4.49-3.64,8.12-8.12,8.12s-8.12-3.64-8.12-8.12,3.64-8.12,8.12-8.12,8.12,3.64,8.12,8.12ZM790,258.25c8.97,0,16.25,7.27,16.25,16.25v19.5h-32.5v-19.5c0-8.98,7.28-16.25,16.25-16.25ZM767.25,274.5c0-2.25.33-4.43.94-6.48l-.55.05c-5.7.62-10.14,5.44-10.14,11.31v14.62h9.75v-19.5ZM822.5,294v-14.62c0-6.05-4.73-11-10.69-11.36.61,2.05.94,4.23.94,6.48v19.5h9.75Z"/>
      <path class="cls-1" d="M744.03,339v-18.62h6.08c1.97,0,3.67.4,5.12,1.2,1.47.78,2.6,1.88,3.4,3.27.8,1.38,1.2,2.99,1.2,4.82s-.4,3.43-1.2,4.85c-.8,1.4-1.93,2.5-3.4,3.3-1.45.78-3.16,1.17-5.12,1.17h-6.08ZM747.43,336h2.75c1.27,0,2.36-.26,3.27-.77.93-.53,1.66-1.27,2.17-2.2.52-.95.78-2.07.78-3.35s-.26-2.42-.78-3.35c-.52-.93-1.24-1.66-2.17-2.18-.92-.52-2.01-.77-3.27-.77h-2.75v12.62ZM762.27,339v-13.6h3.27v13.6h-3.27ZM762.27,323.88v-3.5h3.27v3.5h-3.27ZM772.66,339l-5.35-13.6h3.57l3.88,10.7h-1.32l3.9-10.7h3.58l-5.35,13.6h-2.9ZM782.72,339v-13.6h3.28v13.6h-3.28ZM782.72,323.88v-3.5h3.28v3.5h-3.28ZM794.2,339.3c-1.45,0-2.72-.34-3.8-1.02-1.07-.7-1.8-1.64-2.2-2.82l2.45-1.18c.35.77.83,1.37,1.45,1.8.63.43,1.33.65,2.1.65.6,0,1.08-.13,1.42-.4.35-.27.53-.62.53-1.05,0-.27-.08-.48-.23-.65-.13-.18-.32-.33-.57-.45-.23-.13-.49-.24-.78-.32l-2.22-.62c-1.15-.33-2.03-.84-2.62-1.52-.58-.68-.88-1.49-.88-2.43,0-.83.21-1.56.62-2.17.43-.63,1.02-1.12,1.77-1.48.77-.35,1.64-.52,2.62-.52,1.28,0,2.42.31,3.4.92.98.62,1.68,1.48,2.1,2.6l-2.5,1.17c-.23-.62-.62-1.11-1.17-1.47-.55-.37-1.17-.55-1.85-.55-.55,0-.98.12-1.3.38-.32.25-.47.58-.47.98,0,.25.07.47.2.65.13.18.32.33.55.45.25.12.53.23.85.32l2.18.65c1.12.33,1.97.83,2.57,1.5.62.67.93,1.48.93,2.45,0,.82-.22,1.54-.65,2.18-.43.62-1.03,1.1-1.8,1.45-.77.35-1.67.52-2.7.52ZM801.86,339v-13.6h3.27v13.6h-3.27ZM801.86,323.88v-3.5h3.27v3.5h-3.27ZM814.81,339.3c-1.33,0-2.55-.31-3.65-.92-1.08-.62-1.95-1.46-2.6-2.52-.63-1.07-.95-2.28-.95-3.65s.32-2.58.95-3.65c.65-1.07,1.52-1.91,2.6-2.52,1.08-.62,2.3-.92,3.65-.92s2.54.31,3.62.92c1.08.62,1.94,1.46,2.58,2.52.65,1.05.97,2.27.97,3.65s-.32,2.58-.97,3.65c-.65,1.07-1.52,1.91-2.6,2.52-1.08.62-2.28.92-3.6.92ZM814.81,336.3c.73,0,1.38-.17,1.92-.52.57-.35,1.01-.83,1.33-1.45.33-.63.5-1.34.5-2.12s-.17-1.5-.5-2.1c-.32-.62-.76-1.1-1.33-1.45-.55-.37-1.19-.55-1.92-.55s-1.41.18-1.97.55c-.57.35-1.02.83-1.35,1.45-.32.6-.47,1.3-.47,2.1s.16,1.49.47,2.12c.33.62.78,1.1,1.35,1.45.57.35,1.22.52,1.97.52ZM824.47,339v-13.6h3.08v2.68l-.25-.48c.32-.82.83-1.43,1.55-1.85.73-.43,1.58-.65,2.55-.65s1.88.22,2.65.65c.78.43,1.39,1.04,1.83,1.83.43.77.65,1.66.65,2.67v8.75h-3.27v-7.98c0-.6-.12-1.12-.35-1.55-.23-.43-.56-.77-.97-1-.4-.25-.88-.38-1.42-.38s-1.01.12-1.42.38c-.42.23-.74.57-.98,1-.23.43-.35.95-.35,1.55v7.98h-3.28Z"/>
      <path class="cls-1" d="M1064.05,229h28.4v28.89h-28.4v-28.89ZM1064.05,265.11h28.4v28.89h-28.4v-28.89ZM1099.55,229h28.4v28.89h-28.4v-28.89ZM1099.55,265.11h28.4v28.89h-28.4v-28.89Z"/>
      <path class="cls-1" d="M1048.8,339.3c-1.33,0-2.57-.24-3.7-.72-1.12-.48-2.1-1.16-2.95-2.03-.83-.87-1.48-1.88-1.95-3.05-.47-1.17-.7-2.44-.7-3.83s.22-2.66.67-3.82c.47-1.18,1.12-2.2,1.95-3.05.85-.87,1.85-1.53,2.98-2,1.13-.48,2.37-.72,3.7-.72s2.52.22,3.57.67c1.07.45,1.97,1.05,2.7,1.8.74.73,1.26,1.54,1.58,2.43l-3.05,1.42c-.35-.93-.94-1.7-1.78-2.3-.83-.62-1.84-.93-3.02-.93s-2.2.28-3.1.83c-.88.55-1.58,1.31-2.08,2.27-.48.97-.72,2.1-.72,3.4s.24,2.44.72,3.43c.5.97,1.2,1.73,2.08,2.27.9.55,1.93.83,3.1.83s2.19-.3,3.02-.9c.84-.62,1.43-1.39,1.78-2.32l3.05,1.42c-.32.88-.84,1.7-1.58,2.45-.73.73-1.63,1.32-2.7,1.77-1.05.45-2.24.67-3.57.67ZM1063.01,339.3c-.95,0-1.77-.16-2.47-.47-.7-.32-1.24-.77-1.63-1.35-.38-.6-.57-1.29-.57-2.08s.17-1.42.5-2c.33-.6.85-1.1,1.55-1.5.7-.4,1.58-.68,2.65-.85l4.45-.72v2.5l-3.83.65c-.65.12-1.13.32-1.45.62-.31.3-.47.69-.47,1.17s.17.84.52,1.12c.37.27.82.4,1.35.4.69,0,1.29-.14,1.8-.42.54-.3.95-.71,1.23-1.23.3-.52.45-1.08.45-1.7v-3.5c0-.58-.23-1.07-.7-1.45-.45-.4-1.05-.6-1.8-.6-.7,0-1.33.19-1.88.58-.53.37-.92.86-1.17,1.48l-2.68-1.3c.27-.72.69-1.33,1.25-1.85.59-.53,1.27-.95,2.05-1.25.79-.3,1.64-.45,2.55-.45,1.12,0,2.1.21,2.95.62.85.4,1.51.97,1.98,1.7.48.72.72,1.56.72,2.53v9.05h-3.1v-2.33l.7-.05c-.35.58-.76,1.08-1.25,1.48-.48.38-1.03.68-1.65.9-.61.2-1.3.3-2.05.3ZM1079.35,339.15c-1.54,0-2.73-.42-3.58-1.25-.83-.85-1.25-2.04-1.25-3.57v-6h-2.35v-2.93h.25c.67,0,1.19-.17,1.55-.52.37-.35.55-.86.55-1.52v-1.05h3.28v3.1h3.12v2.93h-3.12v5.82c0,.45.07.83.22,1.15.17.32.42.56.75.73.35.17.79.25,1.33.25.11,0,.25,0,.4-.02.16-.02.32-.03.47-.05v2.8c-.23.03-.5.07-.8.1-.3.03-.57.05-.82.05ZM1089.8,339.3c-1.4,0-2.62-.32-3.67-.95s-1.87-1.49-2.45-2.58c-.59-1.08-.88-2.28-.88-3.6s.29-2.57.88-3.62c.6-1.07,1.41-1.91,2.42-2.52,1.04-.62,2.19-.92,3.45-.92,1.07,0,2,.17,2.8.52.82.35,1.51.83,2.08,1.45.56.62,1,1.32,1.3,2.12.3.78.45,1.63.45,2.55,0,.23-.02.48-.05.73-.02.25-.06.47-.13.65h-10.5v-2.5h8.65l-1.55,1.17c.15-.77.11-1.45-.12-2.05-.22-.6-.59-1.08-1.1-1.42-.5-.35-1.11-.53-1.83-.53-.68,0-1.29.18-1.82.53-.54.33-.94.83-1.23,1.5-.26.65-.36,1.44-.3,2.38-.06.83.04,1.57.33,2.22.3.63.73,1.12,1.3,1.48.58.35,1.25.52,2,.52s1.38-.16,1.9-.47c.53-.32.95-.74,1.25-1.28l2.65,1.3c-.27.65-.69,1.23-1.25,1.73-.57.5-1.24.89-2.03,1.17-.76.28-1.61.42-2.55.42ZM1105.26,344.5c-1.02,0-1.96-.17-2.82-.5-.87-.33-1.62-.8-2.25-1.4-.62-.58-1.07-1.27-1.35-2.08l3.05-1.15c.2.63.59,1.14,1.17,1.52.6.4,1.33.6,2.2.6.67,0,1.25-.12,1.75-.38.52-.25.92-.62,1.2-1.1.28-.47.43-1.03.43-1.7v-3.1l.62.75c-.47.82-1.09,1.43-1.87,1.85-.79.42-1.68.62-2.68.62-1.27,0-2.4-.29-3.4-.88-1-.58-1.78-1.38-2.35-2.4-.57-1.02-.85-2.16-.85-3.42s.28-2.42.85-3.42c.57-1,1.34-1.78,2.33-2.35.98-.58,2.1-.88,3.35-.88,1.01,0,1.9.22,2.67.65.78.42,1.43,1.02,1.95,1.83l-.45.82v-3h3.1v12.93c0,1.18-.29,2.24-.87,3.17-.57.93-1.35,1.67-2.35,2.2-.99.53-2.13.8-3.43.8ZM1105.11,335.42c.7,0,1.31-.15,1.83-.45.53-.32.95-.75,1.25-1.3.3-.55.45-1.18.45-1.9s-.16-1.32-.48-1.88c-.3-.57-.72-1.01-1.25-1.32-.52-.32-1.12-.48-1.8-.48s-1.3.16-1.85.48c-.55.32-.98.76-1.3,1.32-.3.55-.45,1.18-.45,1.88s.15,1.33.45,1.88c.32.55.74.98,1.28,1.3.55.32,1.17.47,1.87.47ZM1121.62,339.3c-1.33,0-2.55-.31-3.65-.92-1.08-.62-1.95-1.46-2.6-2.52-.63-1.07-.95-2.28-.95-3.65s.32-2.58.95-3.65c.65-1.07,1.52-1.91,2.6-2.52,1.08-.62,2.3-.92,3.65-.92s2.54.31,3.62.92c1.09.62,1.95,1.46,2.58,2.52.65,1.05.97,2.27.97,3.65s-.32,2.58-.97,3.65c-.65,1.07-1.52,1.91-2.6,2.52-1.08.62-2.28.92-3.6.92ZM1121.62,336.3c.73,0,1.37-.17,1.92-.52.57-.35,1.01-.83,1.33-1.45.33-.63.5-1.34.5-2.12s-.17-1.5-.5-2.1c-.32-.62-.76-1.1-1.33-1.45-.55-.37-1.19-.55-1.92-.55s-1.41.18-1.98.55c-.56.35-1.01.83-1.35,1.45-.31.6-.47,1.3-.47,2.1s.16,1.49.47,2.12c.34.62.79,1.1,1.35,1.45.57.35,1.23.52,1.98.52ZM1131.28,339v-13.6h3.07v3.02l-.25-.45c.32-1.02.81-1.73,1.48-2.12.68-.4,1.5-.6,2.45-.6h.8v2.9h-1.18c-.93,0-1.68.29-2.25.88-.56.57-.85,1.37-.85,2.4v7.58h-3.27ZM1142.28,344.52c-.37,0-.73-.03-1.08-.1-.35-.05-.66-.14-.95-.27v-2.75c.22.05.48.1.78.15.31.05.61.08.87.08.75,0,1.29-.17,1.63-.52.35-.35.66-.81.92-1.38l.9-2.1-.05,2.75-5.92-14.98h3.52l4.15,11.05h-1.25l4.13-11.05h3.55l-5.93,14.98c-.35.88-.77,1.63-1.27,2.25s-1.09,1.08-1.75,1.4c-.65.33-1.4.5-2.25.5Z"/>
      <path class="cls-1" d="M1387.03,236.69v11.53h-11.53v-11.53h11.53ZM1367.81,229v26.9h26.9v-26.9h-26.9ZM1406.24,229h30.74v7.69h-30.74v-7.69ZM1406.24,255.9h30.74v7.69h-30.74v-7.69ZM1406.24,282.8h30.74v7.69h-30.74v-7.69ZM1397.43,275.91l-5.44-5.43-12.65,12.65-6.89-6.89-5.43,5.43,12.32,12.33,18.09-18.09Z"/>
      <path class="cls-1" d="M1335.45,339v-18.62h3.4v18.62h-3.4ZM1348.49,339.3c-1.32,0-2.5-.31-3.53-.92-1.03-.63-1.85-1.49-2.45-2.58-.6-1.08-.9-2.28-.9-3.6s.3-2.53.9-3.6c.6-1.07,1.42-1.92,2.45-2.55,1.05-.63,2.22-.95,3.5-.95,1.03,0,1.95.21,2.75.62.82.4,1.46.97,1.93,1.7l-.5.68v-8.02h3.27v18.92h-3.1v-2.62l.35.65c-.47.73-1.12,1.3-1.95,1.7-.83.38-1.74.57-2.72.57ZM1348.84,336.3c.75,0,1.4-.17,1.97-.52.57-.35,1.01-.83,1.33-1.45.33-.62.5-1.33.5-2.12s-.17-1.48-.5-2.1c-.32-.63-.76-1.12-1.33-1.48-.57-.35-1.22-.52-1.97-.52s-1.4.18-1.98.55c-.58.35-1.04.83-1.37,1.45-.32.6-.48,1.3-.48,2.1s.16,1.51.48,2.12c.33.62.79,1.1,1.37,1.45s1.24.52,1.98.52ZM1365.41,339.3c-1.4,0-2.63-.32-3.68-.95-1.05-.63-1.86-1.49-2.45-2.58-.58-1.08-.87-2.28-.87-3.6s.29-2.57.87-3.62c.6-1.07,1.41-1.91,2.43-2.52,1.03-.62,2.18-.92,3.45-.92,1.06,0,2,.17,2.8.52.81.35,1.51.83,2.07,1.45.57.62,1,1.32,1.3,2.12.3.78.45,1.63.45,2.55,0,.23-.01.48-.05.73-.01.25-.06.47-.12.65h-10.5v-2.5h8.65l-1.55,1.17c.15-.77.11-1.45-.13-2.05-.21-.6-.58-1.08-1.1-1.42-.5-.35-1.11-.53-1.82-.53s-1.29.18-1.83.53c-.53.33-.94.83-1.22,1.5-.27.65-.37,1.44-.3,2.38-.07.83.04,1.57.32,2.22.3.63.74,1.12,1.3,1.48.59.35,1.25.52,2,.52s1.39-.16,1.9-.47c.54-.32.95-.74,1.25-1.28l2.65,1.3c-.26.65-.68,1.23-1.25,1.73-.56.5-1.24.89-2.02,1.17-.77.28-1.62.42-2.55.42ZM1378.34,339.3c-.95,0-1.77-.16-2.47-.47-.7-.32-1.25-.77-1.63-1.35-.38-.6-.57-1.29-.57-2.08s.16-1.42.5-2c.33-.6.85-1.1,1.55-1.5.7-.4,1.58-.68,2.65-.85l4.45-.72v2.5l-3.83.65c-.65.12-1.13.32-1.45.62-.32.3-.47.69-.47,1.17s.17.84.52,1.12c.37.27.82.4,1.35.4.68,0,1.28-.14,1.8-.42.53-.3.94-.71,1.23-1.23.3-.52.45-1.08.45-1.7v-3.5c0-.58-.24-1.07-.7-1.45-.45-.4-1.05-.6-1.8-.6-.7,0-1.33.19-1.88.58-.53.37-.92.86-1.17,1.48l-2.68-1.3c.27-.72.68-1.33,1.25-1.85.58-.53,1.27-.95,2.05-1.25.78-.3,1.63-.45,2.55-.45,1.12,0,2.1.21,2.95.62.85.4,1.51.97,1.98,1.7.48.72.72,1.56.72,2.53v9.05h-3.1v-2.33l.7-.05c-.35.58-.77,1.08-1.25,1.48-.48.38-1.03.68-1.65.9-.62.2-1.3.3-2.05.3ZM1400.09,339.3c-1.19,0-2.29-.22-3.3-.65-1-.43-1.87-1.03-2.6-1.8-.72-.78-1.25-1.69-1.58-2.73l2.83-1.23c.45,1.07,1.1,1.91,1.95,2.52.85.6,1.8.9,2.87.9.6,0,1.12-.09,1.55-.28.45-.2.79-.47,1.03-.8.25-.33.37-.73.37-1.2,0-.55-.17-1-.5-1.35-.32-.37-.8-.65-1.45-.85l-3.57-1.15c-1.45-.45-2.55-1.12-3.28-2.03-.73-.9-1.1-1.96-1.1-3.17,0-1.07.26-2.01.78-2.83.53-.82,1.26-1.45,2.2-1.9.95-.47,2.03-.7,3.25-.7,1.11,0,2.14.2,3.07.6.93.38,1.73.93,2.4,1.62.68.68,1.19,1.49,1.53,2.43l-2.8,1.25c-.37-.93-.92-1.65-1.65-2.15-.74-.52-1.59-.78-2.55-.78-.57,0-1.07.1-1.5.3-.44.18-.78.45-1.03.8-.23.33-.35.73-.35,1.2,0,.52.17.98.5,1.38.33.38.84.68,1.53.9l3.42,1.08c1.48.48,2.59,1.15,3.33,2,.75.85,1.12,1.9,1.12,3.15,0,1.07-.27,2.01-.82,2.82-.55.82-1.31,1.46-2.28,1.93-.97.47-2.09.7-3.37.7ZM1415.55,339.15c-1.54,0-2.73-.42-3.58-1.25-.83-.85-1.25-2.04-1.25-3.57v-6h-2.35v-2.93h.25c.67,0,1.19-.17,1.55-.52.37-.35.55-.86.55-1.52v-1.05h3.28v3.1h3.12v2.93h-3.12v5.82c0,.45.07.83.22,1.15.17.32.42.56.75.73.35.17.79.25,1.33.25.11,0,.25,0,.4-.02.16-.02.32-.03.47-.05v2.8c-.23.03-.5.07-.8.1-.3.03-.57.05-.82.05ZM1423.75,339.3c-.95,0-1.77-.16-2.47-.47-.7-.32-1.25-.77-1.63-1.35-.38-.6-.57-1.29-.57-2.08s.16-1.42.5-2c.33-.6.85-1.1,1.55-1.5s1.58-.68,2.65-.85l4.45-.72v2.5l-3.83.65c-.65.12-1.13.32-1.45.62-.32.3-.47.69-.47,1.17s.17.84.52,1.12c.37.27.82.4,1.35.4.68,0,1.28-.14,1.8-.42.53-.3.94-.71,1.23-1.23.3-.52.45-1.08.45-1.7v-3.5c0-.58-.24-1.07-.7-1.45-.45-.4-1.05-.6-1.8-.6-.7,0-1.33.19-1.88.58-.53.37-.92.86-1.17,1.48l-2.68-1.3c.27-.72.68-1.33,1.25-1.85.58-.53,1.27-.95,2.05-1.25.78-.3,1.63-.45,2.55-.45,1.12,0,2.1.21,2.95.62.85.4,1.51.97,1.98,1.7.48.72.72,1.56.72,2.53v9.05h-3.1v-2.33l.7-.05c-.35.58-.77,1.08-1.25,1.48-.48.38-1.03.68-1.65.9-.62.2-1.3.3-2.05.3ZM1440.08,339.15c-1.53,0-2.72-.42-3.57-1.25-.83-.85-1.25-2.04-1.25-3.57v-6h-2.35v-2.93h.25c.67,0,1.18-.17,1.55-.52s.55-.86.55-1.52v-1.05h3.27v3.1h3.13v2.93h-3.13v5.82c0,.45.08.83.23,1.15.17.32.42.56.75.73.35.17.79.25,1.32.25.12,0,.25,0,.4-.02.17-.02.33-.03.48-.05v2.8c-.23.03-.5.07-.8.1-.3.03-.58.05-.83.05ZM1449.06,339.3c-1.05,0-1.97-.23-2.75-.7-.77-.47-1.36-1.12-1.77-1.95-.4-.83-.6-1.81-.6-2.92v-8.33h3.27v8.05c0,.57.11,1.07.33,1.5.23.42.55.75.97,1,.43.23.92.35,1.45.35s1.01-.12,1.43-.35c.41-.25.74-.59.97-1.03.23-.43.35-.95.35-1.55v-7.98h3.28v13.6h-3.1v-2.67l.27.47c-.32.83-.84,1.46-1.57,1.88-.72.42-1.56.62-2.53.62ZM1464.21,339.3c-1.45,0-2.72-.34-3.8-1.02-1.07-.7-1.8-1.64-2.2-2.82l2.45-1.18c.35.77.83,1.37,1.45,1.8.63.43,1.33.65,2.1.65.6,0,1.07-.13,1.42-.4s.53-.62.53-1.05c0-.27-.08-.48-.23-.65-.13-.18-.32-.33-.57-.45-.24-.13-.5-.24-.78-.32l-2.22-.62c-1.15-.33-2.03-.84-2.63-1.52-.58-.68-.87-1.49-.87-2.43,0-.83.2-1.56.62-2.17.43-.63,1.03-1.12,1.78-1.48.76-.35,1.64-.52,2.62-.52,1.28,0,2.42.31,3.4.92s1.68,1.48,2.1,2.6l-2.5,1.17c-.23-.62-.62-1.11-1.17-1.47-.55-.37-1.17-.55-1.85-.55-.55,0-.99.12-1.3.38-.32.25-.48.58-.48.98,0,.25.07.47.2.65.13.18.32.33.55.45.25.12.53.23.85.32l2.18.65c1.11.33,1.97.83,2.57,1.5.62.67.93,1.48.93,2.45,0,.82-.22,1.54-.65,2.18-.44.62-1.04,1.1-1.8,1.45-.77.35-1.67.52-2.7.52Z"/>
      <rect class="cls-4" x="343" y="427" width="280" height="176" rx="20" ry="20"/>
      <rect class="cls-4" x="650" y="427" width="279" height="176" rx="20" ry="20"/>
      <rect class="cls-4" x="1568" y="427" width="280" height="176" rx="20" ry="20"/>
      <path class="cls-1" d="M493.29,456c7.58,0,13.72,6.13,13.72,13.68,0,2.49-.67,4.83-1.84,6.85h15.56s0,6.84,0,6.84h-6.86v34.21c0,1.89-1.54,3.42-3.43,3.42h-54.9c-1.89,0-3.43-1.53-3.43-3.42v-34.21h-6.86v-6.84h15.56c-1.17-2.01-1.84-4.35-1.84-6.84,0-7.56,6.15-13.68,13.72-13.68,4.1,0,7.78,1.79,10.3,4.64,2.51-2.84,6.19-4.64,10.29-4.64ZM486.43,483.37h-6.86v34.21h6.86v-34.21ZM472.71,462.84c-3.79,0-6.86,3.06-6.86,6.84s2.8,6.56,6.35,6.82l.51.02h6.86v-6.84c0-3.43-2.53-6.26-5.82-6.76l-.53-.06-.51-.02ZM493.29,462.84c-3.62,0-6.58,2.79-6.84,6.33l-.02.51v6.84h6.86c3.62,0,6.58-2.79,6.84-6.33l.02-.51c0-3.78-3.07-6.84-6.86-6.84Z"/>
      <path class="cls-1" d="M431.72,566v-18.62h6.92c1.27,0,2.38.23,3.35.7.98.45,1.75,1.12,2.3,2,.55.87.82,1.92.82,3.17s-.31,2.38-.92,3.28c-.6.9-1.42,1.57-2.45,2l4.27,7.47h-3.85l-4.58-8.17,2.2,1.3h-4.68v6.88h-3.4ZM435.12,556.12h3.58c.62,0,1.15-.12,1.6-.35.45-.25.8-.59,1.05-1.03s.38-.93.38-1.5-.12-1.08-.38-1.5c-.25-.43-.6-.77-1.05-1-.45-.25-.98-.38-1.6-.38h-3.58v5.75ZM453.67,566.3c-1.4,0-2.62-.32-3.68-.95-1.05-.63-1.87-1.49-2.45-2.57-.58-1.08-.88-2.28-.88-3.6s.29-2.58.88-3.62c.6-1.07,1.41-1.91,2.42-2.52,1.03-.62,2.18-.93,3.45-.93,1.07,0,2,.18,2.8.53.82.35,1.51.83,2.08,1.45.57.62,1,1.33,1.3,2.12.3.78.45,1.63.45,2.55,0,.23-.02.47-.05.72-.02.25-.06.47-.12.65h-10.5v-2.5h8.65l-1.55,1.17c.15-.77.11-1.45-.12-2.05-.22-.6-.58-1.08-1.1-1.42-.5-.35-1.11-.53-1.82-.53s-1.29.17-1.83.53c-.53.33-.94.83-1.23,1.5-.27.65-.37,1.44-.3,2.38-.07.83.04,1.58.32,2.22.3.63.73,1.12,1.3,1.48.58.35,1.25.52,2,.52s1.38-.16,1.9-.47c.53-.32.95-.74,1.25-1.28l2.65,1.3c-.27.65-.68,1.23-1.25,1.73-.57.5-1.24.89-2.02,1.17-.77.28-1.62.42-2.55.42ZM465.95,566l-4.67-13.6h3.45l3.43,10.32-1.2-.02,3.65-10.3h2.9l3.62,10.3-1.2.02,3.42-10.32h3.45l-4.68,13.6h-2.92l-3.7-10.78h1.1l-3.75,10.78h-2.9ZM488.23,566.3c-.95,0-1.77-.16-2.47-.47-.7-.32-1.24-.77-1.62-1.35-.38-.6-.58-1.29-.58-2.07s.17-1.42.5-2c.33-.6.85-1.1,1.55-1.5.7-.4,1.58-.68,2.65-.85l4.45-.72v2.5l-3.82.65c-.65.12-1.13.33-1.45.62-.32.3-.48.69-.48,1.18s.18.84.52,1.12c.37.27.82.4,1.35.4.68,0,1.28-.14,1.8-.42.53-.3.94-.71,1.22-1.22.3-.52.45-1.08.45-1.7v-3.5c0-.58-.23-1.07-.7-1.45-.45-.4-1.05-.6-1.8-.6-.7,0-1.33.19-1.88.57-.53.37-.92.86-1.17,1.48l-2.68-1.3c.27-.72.68-1.33,1.25-1.85.58-.53,1.27-.95,2.05-1.25.78-.3,1.63-.45,2.55-.45,1.12,0,2.1.21,2.95.62.85.4,1.51.97,1.97,1.7.48.72.73,1.56.73,2.53v9.05h-3.1v-2.33l.7-.05c-.35.58-.77,1.08-1.25,1.47-.48.38-1.03.68-1.65.9-.62.2-1.3.3-2.05.3ZM498.61,566v-13.6h3.08v3.02l-.25-.45c.32-1.02.81-1.72,1.47-2.12.68-.4,1.5-.6,2.45-.6h.8v2.9h-1.17c-.93,0-1.68.29-2.25.88-.57.57-.85,1.37-.85,2.4v7.58h-3.27ZM514.29,566.3c-1.32,0-2.49-.31-3.53-.92-1.03-.63-1.85-1.49-2.45-2.58-.6-1.08-.9-2.28-.9-3.6s.3-2.53.9-3.6c.6-1.07,1.42-1.92,2.45-2.55,1.05-.63,2.22-.95,3.5-.95,1.03,0,1.95.21,2.75.62.82.4,1.46.97,1.92,1.7l-.5.67v-8.02h3.28v18.92h-3.1v-2.62l.35.65c-.47.73-1.12,1.3-1.95,1.7-.83.38-1.74.58-2.72.58ZM514.64,563.3c.75,0,1.41-.17,1.97-.52.57-.35,1.01-.83,1.33-1.45.33-.62.5-1.33.5-2.12s-.17-1.48-.5-2.1c-.32-.63-.76-1.12-1.33-1.47-.57-.35-1.22-.53-1.97-.53s-1.39.18-1.97.55c-.58.35-1.04.83-1.38,1.45-.32.6-.48,1.3-.48,2.1s.16,1.51.48,2.12c.33.62.79,1.1,1.38,1.45.58.35,1.24.52,1.97.52ZM529.93,566.3c-1.45,0-2.72-.34-3.8-1.02-1.07-.7-1.8-1.64-2.2-2.83l2.45-1.17c.35.77.83,1.37,1.45,1.8.63.43,1.33.65,2.1.65.6,0,1.07-.13,1.42-.4.35-.27.52-.62.52-1.05,0-.27-.07-.48-.22-.65-.13-.18-.33-.33-.58-.45-.23-.13-.49-.24-.77-.33l-2.23-.62c-1.15-.33-2.02-.84-2.62-1.52-.58-.68-.88-1.49-.88-2.42,0-.83.21-1.56.62-2.18.43-.63,1.03-1.12,1.78-1.47.77-.35,1.64-.53,2.62-.53,1.28,0,2.42.31,3.4.93.98.62,1.68,1.48,2.1,2.6l-2.5,1.17c-.23-.62-.62-1.11-1.17-1.47-.55-.37-1.17-.55-1.85-.55-.55,0-.98.12-1.3.38-.32.25-.47.57-.47.97,0,.25.07.47.2.65.13.18.32.33.55.45.25.12.53.23.85.33l2.17.65c1.12.33,1.98.83,2.58,1.5.62.67.92,1.48.92,2.45,0,.82-.22,1.54-.65,2.17-.43.62-1.03,1.1-1.8,1.45-.77.35-1.67.52-2.7.52Z"/>
      <path class="cls-1" d="M790,456c17.94,0,32.5,14.56,32.5,32.5s-14.56,32.5-32.5,32.5-32.5-14.56-32.5-32.5,14.56-32.5,32.5-32.5ZM770.58,499.6c4.77,7.12,11.93,11.65,19.94,11.65s15.17-4.53,19.94-11.65c-5.22-4.87-12.24-7.85-19.94-7.85s-14.72,2.98-19.94,7.85ZM790,485.25c5.39,0,9.75-4.36,9.75-9.75s-4.36-9.75-9.75-9.75-9.75,4.36-9.75,9.75,4.36,9.75,9.75,9.75Z"/>
      <path class="cls-1" d="M771.25,566.3c-1.43,0-2.71-.3-3.83-.9-1.1-.6-1.97-1.43-2.6-2.48-.63-1.05-.95-2.24-.95-3.58v-11.97h3.4v11.8c0,.77.17,1.46.5,2.08.35.62.83,1.1,1.42,1.45.6.33,1.28.5,2.05.5s1.47-.17,2.05-.5c.6-.35,1.07-.83,1.4-1.45.35-.62.53-1.31.53-2.08v-11.8h3.4v11.97c0,1.33-.32,2.53-.95,3.58-.63,1.05-1.51,1.88-2.62,2.48-1.1.6-2.37.9-3.8.9ZM786.92,566.3c-1.45,0-2.72-.34-3.8-1.02-1.07-.7-1.8-1.64-2.2-2.83l2.45-1.17c.35.77.83,1.37,1.45,1.8.63.43,1.33.65,2.1.65.6,0,1.08-.13,1.42-.4.35-.27.53-.62.53-1.05,0-.27-.08-.48-.23-.65-.13-.18-.32-.33-.57-.45-.23-.13-.49-.24-.78-.33l-2.22-.62c-1.15-.33-2.03-.84-2.62-1.52-.58-.68-.88-1.49-.88-2.42,0-.83.21-1.56.62-2.18.43-.63,1.02-1.12,1.77-1.47.77-.35,1.64-.53,2.62-.53,1.28,0,2.42.31,3.4.93.98.62,1.68,1.48,2.1,2.6l-2.5,1.17c-.23-.62-.62-1.11-1.17-1.47s-1.17-.55-1.85-.55c-.55,0-.98.12-1.3.38-.32.25-.47.57-.47.97,0,.25.07.47.2.65.13.18.32.33.55.45.25.12.53.23.85.33l2.18.65c1.12.33,1.97.83,2.57,1.5.62.67.93,1.48.93,2.45,0,.82-.22,1.54-.65,2.17-.43.62-1.03,1.1-1.8,1.45-.77.35-1.67.52-2.7.52ZM801.04,566.3c-1.4,0-2.62-.32-3.67-.95s-1.87-1.49-2.45-2.57c-.58-1.08-.88-2.28-.88-3.6s.29-2.58.88-3.62c.6-1.07,1.41-1.91,2.42-2.52,1.03-.62,2.18-.93,3.45-.93,1.07,0,2,.18,2.8.53.82.35,1.51.83,2.08,1.45s1,1.33,1.3,2.12c.3.78.45,1.63.45,2.55,0,.23-.02.47-.05.72-.02.25-.06.47-.12.65h-10.5v-2.5h8.65l-1.55,1.17c.15-.77.11-1.45-.12-2.05-.22-.6-.58-1.08-1.1-1.42-.5-.35-1.11-.53-1.83-.53s-1.29.17-1.83.53c-.53.33-.94.83-1.22,1.5-.27.65-.37,1.44-.3,2.38-.07.83.04,1.58.32,2.22.3.63.73,1.12,1.3,1.48.58.35,1.25.52,2,.52s1.38-.16,1.9-.47c.53-.32.95-.74,1.25-1.28l2.65,1.3c-.27.65-.68,1.23-1.25,1.73s-1.24.89-2.03,1.17c-.77.28-1.62.42-2.55.42ZM809.9,566v-13.6h3.08v3.02l-.25-.45c.32-1.02.81-1.72,1.48-2.12.68-.4,1.5-.6,2.45-.6h.8v2.9h-1.18c-.93,0-1.68.29-2.25.88-.57.57-.85,1.37-.85,2.4v7.58h-3.28Z"/>
      <rect class="cls-4" x="956" y="427" width="279" height="176" rx="20" ry="20"/>
      <path class="cls-1" d="M1110.81,459.09l-25.67,25.68.02,14.61,14.58-.03,25.67-25.67v43.88c0,1.9-1.54,3.44-3.44,3.44h-55.03c-1.9,0-3.44-1.54-3.44-3.44v-55.03c0-1.9,1.54-3.44,3.44-3.44h43.87ZM1123.64,456l4.86,4.86-31.61,31.61h-4.86s-.01-4.86-.01-4.86l31.62-31.61Z"/>
      <path class="cls-1" d="M1015.16,566v-15.62h-4.82v-3h13v3h-4.75v15.62h-3.43ZM1027.77,566.3c-.95,0-1.77-.16-2.47-.47-.7-.32-1.24-.77-1.63-1.35-.38-.6-.57-1.29-.57-2.07s.16-1.42.5-2c.33-.6.85-1.1,1.55-1.5.7-.4,1.58-.68,2.65-.85l4.45-.72v2.5l-3.83.65c-.65.12-1.13.33-1.45.62-.31.3-.47.69-.47,1.18s.17.84.52,1.12c.37.27.82.4,1.35.4.69,0,1.29-.14,1.8-.42.54-.3.94-.71,1.23-1.22.3-.52.45-1.08.45-1.7v-3.5c0-.58-.24-1.07-.7-1.45-.45-.4-1.05-.6-1.8-.6-.7,0-1.33.19-1.88.57-.53.37-.92.86-1.17,1.48l-2.68-1.3c.27-.72.69-1.33,1.25-1.85.59-.53,1.27-.95,2.05-1.25.79-.3,1.64-.45,2.55-.45,1.12,0,2.1.21,2.95.62.85.4,1.51.97,1.98,1.7.48.72.72,1.56.72,2.53v9.05h-3.1v-2.33l.7-.05c-.35.58-.76,1.08-1.25,1.47-.48.38-1.03.68-1.65.9-.61.2-1.3.3-2.05.3ZM1038.15,566v-13.6h3.08v3.02l-.25-.45c.31-1.02.8-1.72,1.47-2.12.68-.4,1.5-.6,2.45-.6h.8v2.9h-1.17c-.94,0-1.69.29-2.25.88-.57.57-.85,1.37-.85,2.4v7.58h-3.28ZM1054.1,571.5c-1.02,0-1.96-.17-2.82-.5-.87-.33-1.62-.8-2.25-1.4-.62-.58-1.07-1.27-1.35-2.07l3.05-1.15c.2.63.59,1.14,1.17,1.53.6.4,1.33.6,2.2.6.67,0,1.25-.12,1.75-.38.52-.25.92-.62,1.2-1.1.28-.47.43-1.03.43-1.7v-3.1l.62.75c-.47.82-1.09,1.43-1.87,1.85-.79.42-1.68.62-2.68.62-1.27,0-2.4-.29-3.4-.88s-1.78-1.38-2.35-2.4c-.57-1.02-.85-2.16-.85-3.42s.28-2.42.85-3.42c.57-1,1.34-1.78,2.33-2.35.98-.58,2.1-.88,3.35-.88,1.01,0,1.9.22,2.67.65.78.42,1.43,1.03,1.95,1.83l-.45.83v-3h3.1v12.92c0,1.18-.29,2.24-.87,3.17-.57.93-1.35,1.67-2.35,2.2-.99.53-2.13.8-3.43.8ZM1053.95,562.42c.7,0,1.31-.15,1.83-.45.53-.32.95-.75,1.25-1.3.3-.55.45-1.18.45-1.9s-.16-1.33-.48-1.88c-.3-.57-.72-1.01-1.25-1.33-.52-.32-1.12-.48-1.8-.48s-1.3.16-1.85.48c-.55.32-.98.76-1.3,1.33-.3.55-.45,1.17-.45,1.88s.15,1.32.45,1.88c.32.55.74.98,1.28,1.3.55.32,1.17.47,1.87.47ZM1070.26,566.3c-1.4,0-2.63-.32-3.68-.95-1.05-.63-1.86-1.49-2.45-2.57-.58-1.08-.87-2.28-.87-3.6s.29-2.58.87-3.62c.6-1.07,1.41-1.91,2.43-2.52,1.03-.62,2.18-.93,3.45-.93,1.07,0,2,.18,2.8.53.82.35,1.51.83,2.07,1.45.57.62,1,1.33,1.3,2.12.3.78.45,1.63.45,2.55,0,.23-.01.47-.05.72-.01.25-.05.47-.12.65h-10.5v-2.5h8.65l-1.55,1.17c.15-.77.11-1.45-.13-2.05-.21-.6-.58-1.08-1.1-1.42-.5-.35-1.1-.53-1.82-.53-.68,0-1.29.17-1.83.53-.53.33-.94.83-1.22,1.5-.27.65-.37,1.44-.3,2.38-.07.83.04,1.58.32,2.22.3.63.74,1.12,1.3,1.48.59.35,1.25.52,2,.52s1.39-.16,1.9-.47c.54-.32.95-.74,1.25-1.28l2.65,1.3c-.26.65-.68,1.23-1.25,1.73-.56.5-1.24.89-2.02,1.17-.77.28-1.62.42-2.55.42ZM1085.32,566.15c-1.54,0-2.73-.42-3.58-1.25-.83-.85-1.25-2.04-1.25-3.58v-6h-2.35v-2.92h.25c.67,0,1.19-.18,1.55-.53.37-.35.55-.86.55-1.53v-1.05h3.28v3.1h3.12v2.92h-3.12v5.83c0,.45.07.83.22,1.15.17.32.42.56.75.73.35.17.79.25,1.33.25.11,0,.25,0,.4-.03.16-.02.32-.03.47-.05v2.8c-.23.03-.5.07-.8.1-.3.03-.57.05-.82.05ZM1100.81,566.3c-1.18,0-2.28-.22-3.3-.65-1-.43-1.86-1.03-2.6-1.8-.71-.78-1.24-1.69-1.57-2.72l2.82-1.22c.45,1.07,1.1,1.91,1.95,2.52.85.6,1.81.9,2.88.9.6,0,1.11-.09,1.55-.28.45-.2.79-.47,1.02-.8.25-.33.38-.73.38-1.2,0-.55-.17-1-.5-1.35-.32-.37-.8-.65-1.45-.85l-3.58-1.15c-1.45-.45-2.54-1.12-3.27-2.03-.74-.9-1.1-1.96-1.1-3.17,0-1.07.26-2.01.77-2.83.54-.82,1.27-1.45,2.2-1.9.95-.47,2.04-.7,3.25-.7,1.12,0,2.14.2,3.08.6.93.38,1.73.92,2.4,1.62.68.68,1.19,1.49,1.52,2.42l-2.8,1.25c-.36-.93-.91-1.65-1.65-2.15-.73-.52-1.58-.78-2.55-.78-.56,0-1.06.1-1.5.3-.43.18-.77.45-1.02.8-.24.33-.35.73-.35,1.2,0,.52.16.98.5,1.38.33.38.84.68,1.52.9l3.43,1.08c1.48.48,2.59,1.15,3.32,2,.75.85,1.13,1.9,1.13,3.15,0,1.07-.28,2.01-.83,2.83-.55.82-1.31,1.46-2.27,1.92-.97.47-2.09.7-3.38.7ZM1116.52,566.3c-1.4,0-2.62-.32-3.67-.95-1.05-.63-1.87-1.49-2.45-2.57-.58-1.08-.88-2.28-.88-3.6s.3-2.58.88-3.62c.6-1.07,1.41-1.91,2.42-2.52,1.04-.62,2.19-.93,3.45-.93,1.07,0,2,.18,2.8.53.82.35,1.51.83,2.08,1.45.57.62,1,1.33,1.3,2.12.3.78.45,1.63.45,2.55,0,.23-.02.47-.05.72-.02.25-.06.47-.13.65h-10.5v-2.5h8.65l-1.55,1.17c.15-.77.11-1.45-.12-2.05-.22-.6-.58-1.08-1.1-1.42-.5-.35-1.11-.53-1.83-.53-.68,0-1.29.17-1.82.53-.53.33-.94.83-1.23,1.5-.26.65-.36,1.44-.3,2.38-.06.83.05,1.58.33,2.22.3.63.73,1.12,1.3,1.48.58.35,1.25.52,2,.52s1.38-.16,1.9-.47c.53-.32.95-.74,1.25-1.28l2.65,1.3c-.27.65-.68,1.23-1.25,1.73-.57.5-1.24.89-2.03,1.17-.76.28-1.61.42-2.55.42ZM1131.58,566.15c-1.53,0-2.72-.42-3.57-1.25-.84-.85-1.25-2.04-1.25-3.58v-6h-2.35v-2.92h.25c.66,0,1.18-.18,1.55-.53.36-.35.55-.86.55-1.53v-1.05h3.27v3.1h3.13v2.92h-3.13v5.83c0,.45.08.83.23,1.15.16.32.41.56.75.73.35.17.79.25,1.32.25.12,0,.25,0,.4-.03.17-.02.33-.03.48-.05v2.8c-.24.03-.5.07-.8.1-.3.03-.58.05-.83.05ZM1141.91,566.15c-1.53,0-2.73-.42-3.58-1.25-.83-.85-1.25-2.04-1.25-3.58v-6h-2.35v-2.92h.25c.67,0,1.19-.18,1.55-.53.37-.35.55-.86.55-1.53v-1.05h3.28v3.1h3.12v2.92h-3.12v5.83c0,.45.07.83.22,1.15.17.32.42.56.75.73.35.17.8.25,1.33.25.12,0,.25,0,.4-.03.17-.02.32-.03.47-.05v2.8c-.23.03-.5.07-.8.1-.3.03-.57.05-.82.05ZM1146.04,566v-13.6h3.27v13.6h-3.27ZM1146.04,550.88v-3.5h3.27v3.5h-3.27ZM1152.33,566v-13.6h3.08v2.67l-.25-.48c.32-.82.83-1.43,1.55-1.85.73-.43,1.58-.65,2.55-.65s1.88.22,2.65.65c.78.43,1.39,1.04,1.82,1.83.44.77.65,1.66.65,2.67v8.75h-3.27v-7.97c0-.6-.12-1.12-.35-1.55-.23-.43-.56-.77-.98-1-.4-.25-.87-.38-1.42-.38s-1.01.12-1.43.38c-.41.23-.74.57-.97,1-.23.43-.35.95-.35,1.55v7.97h-3.28ZM1173.75,571.5c-1.01,0-1.95-.17-2.82-.5s-1.62-.8-2.25-1.4c-.62-.58-1.07-1.27-1.35-2.07l3.05-1.15c.2.63.59,1.14,1.17,1.53.6.4,1.34.6,2.2.6.67,0,1.25-.12,1.75-.38.52-.25.92-.62,1.2-1.1.29-.47.43-1.03.43-1.7v-3.1l.62.75c-.46.82-1.09,1.43-1.87,1.85s-1.68.62-2.68.62c-1.26,0-2.4-.29-3.4-.88s-1.78-1.38-2.35-2.4c-.56-1.02-.85-2.16-.85-3.42s.29-2.42.85-3.42c.57-1,1.35-1.78,2.33-2.35.98-.58,2.1-.88,3.35-.88,1.02,0,1.91.22,2.67.65.79.42,1.44,1.03,1.95,1.83l-.45.83v-3h3.1v12.92c0,1.18-.29,2.24-.87,3.17-.57.93-1.35,1.67-2.35,2.2-.98.53-2.13.8-3.43.8ZM1173.6,562.42c.7,0,1.31-.15,1.83-.45.53-.32.95-.75,1.25-1.3.3-.55.45-1.18.45-1.9s-.16-1.33-.48-1.88c-.3-.57-.71-1.01-1.25-1.33-.51-.32-1.11-.48-1.8-.48s-1.3.16-1.85.48-.98.76-1.3,1.33c-.3.55-.45,1.17-.45,1.88s.15,1.32.45,1.88c.32.55.75.98,1.28,1.3.55.32,1.17.47,1.87.47Z"/>
      <rect class="cls-4" x="1262" y="427" width="279" height="176" rx="20" ry="20"/>
      <path class="cls-2" d="M1372.15,506.56c1.73,0,3.14,1.38,3.14,3.07v8.2c0,.57.47,1.02,1.05,1.02h50.32c.58,0,1.05-.46,1.05-1.02v-8.2c0-1.7,1.41-3.07,3.14-3.07s3.15,1.38,3.15,3.07v8.2c0,3.96-3.29,7.17-7.34,7.17h-50.32c-4.05,0-7.34-3.21-7.34-7.17v-8.2c0-1.7,1.41-3.07,3.15-3.07Z"/>
      <path class="cls-2" d="M1396.21,509.63c-2.16,0-3.96-1.61-4.15-3.71-.64-7.18-.76-14.4-.34-21.6-1.03-.06-2.07-.12-3.1-.19l-6.25-.45c-2.41-.17-3.76-2.8-2.45-4.79,4.45-6.81,10.19-12.73,16.91-17.45l2.5-1.76c1.3-.91,3.04-.91,4.34,0l2.5,1.76c6.72,4.72,12.46,10.64,16.91,17.45,1.31,1.99-.04,4.61-2.45,4.79l-6.25.45c-1.03.07-2.07.14-3.1.19.42,7.2.3,14.42-.34,21.6-.19,2.1-1.99,3.71-4.15,3.71h-10.58Z"/>
      <path class="cls-1" d="M1287.22,566.3c-1.43,0-2.71-.3-3.82-.9-1.1-.6-1.97-1.43-2.6-2.48-.64-1.05-.95-2.24-.95-3.58v-11.97h3.4v11.8c0,.77.16,1.46.5,2.08.35.62.82,1.1,1.42,1.45.6.33,1.28.5,2.05.5s1.47-.17,2.05-.5c.6-.35,1.07-.83,1.4-1.45.35-.62.53-1.31.53-2.08v-11.8h3.4v11.97c0,1.33-.32,2.53-.95,3.58-.64,1.05-1.51,1.88-2.63,2.48-1.1.6-2.37.9-3.8.9ZM1297.71,571v-18.6h3.08v2.7l-.3-.67c.47-.73,1.1-1.3,1.9-1.7.8-.42,1.72-.62,2.77-.62,1.29,0,2.45.32,3.48.95s1.85,1.48,2.45,2.55c.62,1.07.92,2.27.92,3.6s-.3,2.52-.9,3.6-1.41,1.94-2.45,2.58c-1.03.62-2.2.92-3.52.92-.98,0-1.89-.19-2.73-.58-.81-.4-1.46-.97-1.95-1.7l.53-.65v7.62h-3.28ZM1304.76,563.3c.75,0,1.42-.17,2-.52.59-.35,1.04-.83,1.35-1.45.34-.62.5-1.33.5-2.12s-.16-1.5-.5-2.1c-.31-.62-.76-1.1-1.35-1.45-.58-.37-1.25-.55-2-.55-.71,0-1.36.18-1.95.53-.56.35-1.01.84-1.35,1.47-.31.62-.47,1.32-.47,2.1s.16,1.51.47,2.12c.34.62.79,1.1,1.35,1.45.59.35,1.24.52,1.95.52ZM1314.51,566v-18.92h3.28v18.92h-3.28ZM1327.46,566.3c-1.33,0-2.55-.31-3.65-.92-1.08-.62-1.95-1.46-2.6-2.53-.63-1.07-.95-2.28-.95-3.65s.32-2.58.95-3.65c.65-1.07,1.52-1.91,2.6-2.52,1.08-.62,2.3-.93,3.65-.93s2.54.31,3.63.93c1.08.62,1.94,1.46,2.57,2.52.65,1.05.98,2.27.98,3.65s-.33,2.58-.98,3.65c-.65,1.07-1.52,1.91-2.6,2.53-1.08.62-2.28.92-3.6.92ZM1327.46,563.3c.73,0,1.38-.17,1.93-.52.56-.35,1-.83,1.32-1.45.33-.63.5-1.34.5-2.12s-.17-1.5-.5-2.1c-.32-.62-.76-1.1-1.32-1.45-.55-.37-1.2-.55-1.93-.55s-1.41.18-1.97.55c-.57.35-1.02.83-1.35,1.45-.32.6-.48,1.3-.48,2.1s.16,1.49.48,2.12c.33.62.78,1.1,1.35,1.45.56.35,1.22.52,1.97.52ZM1341.24,566.3c-.95,0-1.77-.16-2.47-.47-.7-.32-1.24-.77-1.63-1.35-.38-.6-.57-1.29-.57-2.07s.17-1.42.5-2c.33-.6.85-1.1,1.55-1.5.7-.4,1.58-.68,2.65-.85l4.45-.72v2.5l-3.83.65c-.65.12-1.13.33-1.45.62-.31.3-.47.69-.47,1.18s.17.84.52,1.12c.37.27.82.4,1.35.4.69,0,1.29-.14,1.8-.42.54-.3.95-.71,1.23-1.22.3-.52.45-1.08.45-1.7v-3.5c0-.58-.23-1.07-.7-1.45-.45-.4-1.05-.6-1.8-.6-.7,0-1.33.19-1.88.57-.53.37-.92.86-1.17,1.48l-2.68-1.3c.27-.72.69-1.33,1.25-1.85.59-.53,1.27-.95,2.05-1.25.79-.3,1.64-.45,2.55-.45,1.12,0,2.1.21,2.95.62.85.4,1.51.97,1.98,1.7.48.72.72,1.56.72,2.53v9.05h-3.1v-2.33l.7-.05c-.35.58-.76,1.08-1.25,1.47-.48.38-1.03.68-1.65.9-.61.2-1.3.3-2.05.3ZM1357.95,566.3c-1.32,0-2.5-.31-3.53-.92-1.03-.63-1.85-1.49-2.45-2.58s-.9-2.28-.9-3.6.3-2.53.9-3.6c.6-1.07,1.42-1.92,2.45-2.55,1.05-.63,2.22-.95,3.5-.95,1.03,0,1.95.21,2.75.62.82.4,1.46.97,1.93,1.7l-.5.67v-8.02h3.27v18.92h-3.1v-2.62l.35.65c-.47.73-1.12,1.3-1.95,1.7-.83.38-1.74.58-2.72.58ZM1358.3,563.3c.75,0,1.4-.17,1.97-.52.57-.35,1.01-.83,1.33-1.45.33-.62.5-1.33.5-2.12s-.17-1.48-.5-2.1c-.32-.63-.76-1.12-1.33-1.47-.57-.35-1.22-.53-1.97-.53s-1.4.18-1.98.55c-.58.35-1.04.83-1.37,1.45-.32.6-.48,1.3-.48,2.1s.16,1.51.48,2.12c.33.62.79,1.1,1.37,1.45.58.35,1.24.52,1.98.52ZM1373.14,566v-18.62h3.4v8.12h7.92v-8.12h3.43v18.62h-3.43v-7.5h-7.92v7.5h-3.4ZM1395.32,566.3c-.95,0-1.77-.16-2.47-.47-.7-.32-1.25-.77-1.63-1.35-.38-.6-.57-1.29-.57-2.07s.16-1.42.5-2c.33-.6.85-1.1,1.55-1.5.7-.4,1.58-.68,2.65-.85l4.45-.72v2.5l-3.83.65c-.65.12-1.13.33-1.45.62-.32.3-.47.69-.47,1.18s.17.84.52,1.12c.37.27.82.4,1.35.4.68,0,1.28-.14,1.8-.42.53-.3.94-.71,1.23-1.22.3-.52.45-1.08.45-1.7v-3.5c0-.58-.24-1.07-.7-1.45-.45-.4-1.05-.6-1.8-.6-.7,0-1.33.19-1.88.57-.53.37-.92.86-1.17,1.48l-2.68-1.3c.27-.72.68-1.33,1.25-1.85.58-.53,1.27-.95,2.05-1.25s1.63-.45,2.55-.45c1.12,0,2.1.21,2.95.62.85.4,1.51.97,1.98,1.7.48.72.72,1.56.72,2.53v9.05h-3.1v-2.33l.7-.05c-.35.58-.77,1.08-1.25,1.47-.48.38-1.03.68-1.65.9-.62.2-1.3.3-2.05.3ZM1405.7,566v-18.92h3.27v18.92h-3.27ZM1412,566v-18.92h3.27v18.92h-3.27ZM1432.19,566.3c-1.37,0-2.64-.24-3.83-.72-1.18-.48-2.21-1.16-3.1-2.03-.88-.87-1.57-1.88-2.07-3.05-.48-1.18-.73-2.46-.73-3.83s.25-2.66.73-3.83c.48-1.17,1.17-2.18,2.05-3.05s1.92-1.53,3.1-2c1.18-.48,2.47-.72,3.85-.72s2.67.24,3.85.72c1.18.48,2.22,1.16,3.1,2.03.88.85,1.57,1.86,2.05,3.02.5,1.17.75,2.44.75,3.83s-.25,2.64-.75,3.83c-.5,1.17-1.19,2.18-2.08,3.05-.88.87-1.91,1.54-3.1,2.03-1.16.48-2.44.72-3.82.72ZM1432.19,563.2c.92,0,1.76-.16,2.52-.48.77-.33,1.44-.79,2-1.38.59-.58,1.03-1.27,1.33-2.07.32-.8.47-1.67.47-2.6s-.15-1.79-.47-2.58c-.3-.8-.74-1.49-1.33-2.07-.56-.6-1.23-1.06-2-1.38-.76-.32-1.6-.48-2.52-.48s-1.73.16-2.5.48c-.77.32-1.44.77-2.03,1.38-.56.58-1,1.27-1.32,2.07-.32.78-.48,1.64-.48,2.58s.16,1.8.48,2.6c.32.8.76,1.49,1.32,2.07.59.58,1.26,1.04,2.03,1.38.77.32,1.6.48,2.5.48ZM1446.26,566v-10.67h-2.4v-2.92h2.4v-.45c0-1.03.21-1.91.63-2.62.43-.73,1.03-1.29,1.8-1.67.76-.38,1.67-.58,2.72-.58.2,0,.42.02.65.05.25.02.46.04.63.08v2.83c-.17-.03-.33-.05-.48-.05-.13-.02-.26-.02-.37-.02-.74,0-1.3.17-1.7.5-.4.32-.6.82-.6,1.5v.45h3.02v2.92h-3.02v10.67h-3.28ZM1459.56,566v-18.62h12.43v3h-9.03v5.15h7.9v3h-7.9v7.47h-3.4ZM1477.5,566.3c-.95,0-1.78-.16-2.48-.47-.7-.32-1.24-.77-1.62-1.35-.38-.6-.58-1.29-.58-2.07s.17-1.42.5-2c.34-.6.85-1.1,1.55-1.5.7-.4,1.59-.68,2.65-.85l4.45-.72v2.5l-3.82.65c-.65.12-1.13.33-1.45.62-.32.3-.48.69-.48,1.18s.18.84.53,1.12c.37.27.82.4,1.35.4.68,0,1.28-.14,1.8-.42.53-.3.94-.71,1.22-1.22.3-.52.45-1.08.45-1.7v-3.5c0-.58-.23-1.07-.7-1.45-.45-.4-1.05-.6-1.8-.6-.7,0-1.32.19-1.87.57-.53.37-.93.86-1.18,1.48l-2.67-1.3c.27-.72.68-1.33,1.25-1.85.58-.53,1.27-.95,2.05-1.25s1.63-.45,2.55-.45c1.12,0,2.1.21,2.95.62.85.4,1.51.97,1.97,1.7.49.72.73,1.56.73,2.53v9.05h-3.1v-2.33l.7-.05c-.35.58-.77,1.08-1.25,1.47-.48.38-1.03.68-1.65.9-.62.2-1.3.3-2.05.3ZM1487.88,566v-13.6h3.07v3.15l-.35-.52c.25-.98.75-1.72,1.5-2.2.75-.48,1.63-.73,2.65-.73,1.12,0,2.1.29,2.95.88.85.58,1.4,1.35,1.65,2.3l-.92.07c.41-1.08,1.04-1.89,1.87-2.42.83-.55,1.79-.83,2.88-.83.96,0,1.82.22,2.57.65.77.43,1.37,1.04,1.8,1.83.43.77.65,1.66.65,2.67v8.75h-3.27v-7.97c0-.6-.11-1.12-.33-1.55-.22-.43-.52-.77-.9-1-.38-.25-.85-.38-1.4-.38-.52,0-.97.12-1.37.38-.4.23-.71.57-.93,1-.22.43-.32.95-.32,1.55v7.97h-3.28v-7.97c0-.6-.11-1.12-.32-1.55-.22-.43-.53-.77-.93-1-.38-.25-.84-.38-1.37-.38s-.98.12-1.38.38c-.4.23-.71.57-.92,1-.22.43-.33.95-.33,1.55v7.97h-3.27ZM1517.42,566.3c-1.4,0-2.62-.32-3.67-.95s-1.87-1.49-2.45-2.57c-.59-1.08-.88-2.28-.88-3.6s.29-2.58.88-3.62c.6-1.07,1.41-1.91,2.42-2.52,1.04-.62,2.19-.93,3.45-.93,1.07,0,2,.18,2.8.53.82.35,1.51.83,2.08,1.45.56.62,1,1.33,1.3,2.12.3.78.45,1.63.45,2.55,0,.23-.02.47-.05.72-.02.25-.06.47-.13.65h-10.5v-2.5h8.65l-1.55,1.17c.15-.77.11-1.45-.12-2.05-.22-.6-.59-1.08-1.1-1.42-.5-.35-1.11-.53-1.83-.53-.68,0-1.29.17-1.82.53-.54.33-.94.83-1.23,1.5-.26.65-.36,1.44-.3,2.38-.06.83.04,1.58.33,2.22.3.63.73,1.12,1.3,1.48.58.35,1.25.52,2,.52s1.38-.16,1.9-.47c.53-.32.95-.74,1.25-1.28l2.65,1.3c-.27.65-.69,1.23-1.25,1.73-.57.5-1.24.89-2.03,1.17-.76.28-1.61.42-2.55.42Z"/>
      <path class="cls-1" d="M1701.33,456.69c4.35-.91,8.89-.93,13.34,0,.58,3.77,2.81,7.25,6.38,9.3,3.57,2.05,7.71,2.23,11.28.85,3.03,3.38,5.28,7.31,6.66,11.52-2.98,2.38-4.89,6.04-4.89,10.15s1.91,7.77,4.9,10.15c-.69,2.08-1.6,4.12-2.75,6.1-1.14,1.97-2.46,3.78-3.92,5.42-3.57-1.38-7.71-1.2-11.28.85-3.57,2.05-5.8,5.53-6.38,9.29-4.35.91-8.89.93-13.34,0-.58-3.77-2.81-7.25-6.38-9.3-3.57-2.05-7.71-2.23-11.28-.85-3.03-3.38-5.28-7.31-6.66-11.52,2.98-2.38,4.89-6.04,4.89-10.15s-1.91-7.77-4.9-10.15c.69-2.08,1.6-4.12,2.75-6.1,1.14-1.97,2.46-3.78,3.92-5.42,3.57,1.38,7.71,1.2,11.28-.85,3.57-2.05,5.8-5.53,6.38-9.3ZM1708,498.25c5.41,0,9.79-4.36,9.79-9.75s-4.38-9.75-9.79-9.75-9.79,4.36-9.79,9.75,4.38,9.75,9.79,9.75Z"/>
      <path class="cls-1" d="M1639.28,566l6.43-18.62h4.4l6.42,18.62h-3.7l-1.32-4h-7.2l-1.35,4h-3.68ZM1645.28,559h5.25l-3.1-9.28h.95l-3.1,9.28ZM1658.33,571v-18.6h3.07v2.7l-.3-.67c.47-.73,1.1-1.3,1.9-1.7.8-.42,1.73-.62,2.78-.62,1.28,0,2.44.32,3.47.95,1.04.63,1.85,1.48,2.45,2.55.62,1.07.93,2.27.93,3.6s-.3,2.52-.9,3.6-1.42,1.94-2.45,2.58c-1.03.62-2.21.92-3.53.92-.98,0-1.89-.19-2.72-.58-.82-.4-1.47-.97-1.95-1.7l.52-.65v7.62h-3.27ZM1665.38,563.3c.75,0,1.42-.17,2-.52.58-.35,1.03-.83,1.35-1.45.33-.62.5-1.33.5-2.12s-.17-1.5-.5-2.1c-.32-.62-.77-1.1-1.35-1.45-.58-.37-1.25-.55-2-.55s-1.37.18-1.95.53c-.57.35-1.02.84-1.35,1.47-.32.62-.48,1.32-.48,2.1s.16,1.51.48,2.12c.33.62.78,1.1,1.35,1.45.58.35,1.23.52,1.95.52ZM1675.13,571v-18.6h3.07v2.7l-.3-.67c.47-.73,1.1-1.3,1.9-1.7.8-.42,1.73-.62,2.78-.62,1.28,0,2.44.32,3.47.95,1.03.63,1.85,1.48,2.45,2.55.62,1.07.93,2.27.93,3.6s-.3,2.52-.9,3.6-1.42,1.94-2.45,2.58c-1.04.62-2.21.92-3.53.92-.98,0-1.89-.19-2.72-.58-.82-.4-1.47-.97-1.95-1.7l.52-.65v7.62h-3.27ZM1682.18,563.3c.75,0,1.41-.17,2-.52.58-.35,1.03-.83,1.35-1.45.33-.62.5-1.33.5-2.12s-.17-1.5-.5-2.1c-.32-.62-.77-1.1-1.35-1.45-.59-.37-1.25-.55-2-.55s-1.37.18-1.95.53c-.57.35-1.02.84-1.35,1.47-.32.62-.48,1.32-.48,2.1s.16,1.51.48,2.12c.33.62.78,1.1,1.35,1.45.58.35,1.23.52,1.95.52ZM1705.39,566.3c-1.33,0-2.57-.24-3.7-.72-1.12-.48-2.1-1.16-2.95-2.03-.83-.87-1.48-1.88-1.95-3.05-.47-1.17-.7-2.44-.7-3.83s.23-2.66.68-3.83c.46-1.18,1.11-2.2,1.95-3.05.85-.87,1.84-1.53,2.97-2,1.13-.48,2.37-.72,3.7-.72s2.53.22,3.58.67c1.06.45,1.96,1.05,2.7,1.8.73.73,1.25,1.54,1.57,2.42l-3.05,1.43c-.35-.93-.94-1.7-1.77-2.3-.84-.62-1.85-.92-3.03-.92s-2.2.28-3.1.83c-.88.55-1.57,1.31-2.07,2.28-.49.97-.73,2.1-.73,3.4s.24,2.44.73,3.42c.5.97,1.19,1.73,2.07,2.28.9.55,1.93.83,3.1.83s2.19-.3,3.03-.9c.83-.62,1.42-1.39,1.77-2.33l3.05,1.43c-.32.88-.84,1.7-1.57,2.45-.74.73-1.64,1.33-2.7,1.78-1.05.45-2.25.67-3.58.67ZM1722.13,566.3c-1.33,0-2.55-.31-3.65-.92-1.08-.62-1.95-1.46-2.6-2.53-.63-1.07-.95-2.28-.95-3.65s.32-2.58.95-3.65c.65-1.07,1.52-1.91,2.6-2.52,1.09-.62,2.3-.93,3.65-.93s2.54.31,3.63.93c1.08.62,1.94,1.46,2.57,2.52.65,1.05.98,2.27.98,3.65s-.33,2.58-.98,3.65c-.65,1.07-1.51,1.91-2.6,2.53-1.08.62-2.28.92-3.6.92ZM1722.13,563.3c.74,0,1.38-.17,1.93-.52.56-.35,1.01-.83,1.32-1.45.34-.63.5-1.34.5-2.12s-.16-1.5-.5-2.1c-.31-.62-.76-1.1-1.32-1.45-.55-.37-1.19-.55-1.93-.55s-1.41.18-1.97.55c-.57.35-1.02.83-1.35,1.45-.32.6-.48,1.3-.48,2.1s.16,1.49.48,2.12c.33.62.78,1.1,1.35,1.45.56.35,1.22.52,1.97.52ZM1731.79,566v-13.6h3.08v2.67l-.25-.48c.31-.82.83-1.43,1.55-1.85.73-.43,1.58-.65,2.55-.65s1.88.22,2.65.65c.78.43,1.39,1.04,1.82,1.83.43.77.65,1.66.65,2.67v8.75h-3.27v-7.97c0-.6-.12-1.12-.35-1.55-.24-.43-.56-.77-.98-1-.4-.25-.87-.38-1.42-.38s-1.01.12-1.43.38c-.42.23-.74.57-.97,1-.24.43-.35.95-.35,1.55v7.97h-3.28ZM1748.18,566v-10.67h-2.4v-2.92h2.4v-.45c0-1.03.21-1.91.63-2.62.43-.73,1.03-1.29,1.8-1.67s1.67-.58,2.72-.58c.2,0,.42.02.65.05.25.02.46.04.63.08v2.83c-.17-.03-.33-.05-.48-.05-.13-.02-.25-.02-.37-.02-.73,0-1.3.17-1.7.5-.4.32-.6.82-.6,1.5v.45h5.95v2.92h-5.95v10.67h-3.28ZM1756.18,566v-13.6h3.3v13.6h-3.3ZM1768.81,571.5c-1.02,0-1.96-.17-2.82-.5-.87-.33-1.62-.8-2.25-1.4-.62-.58-1.07-1.27-1.35-2.07l3.05-1.15c.2.63.59,1.14,1.17,1.53.6.4,1.33.6,2.2.6.67,0,1.25-.12,1.75-.38.52-.25.92-.62,1.2-1.1.28-.47.43-1.03.43-1.7v-3.1l.62.75c-.47.82-1.09,1.43-1.87,1.85-.79.42-1.68.62-2.68.62-1.27,0-2.4-.29-3.4-.88s-1.78-1.38-2.35-2.4c-.57-1.02-.85-2.16-.85-3.42s.28-2.42.85-3.42c.57-1,1.34-1.78,2.33-2.35.98-.58,2.1-.88,3.35-.88,1.01,0,1.9.22,2.67.65.78.42,1.43,1.03,1.95,1.83l-.45.83v-3h3.1v12.92c0,1.18-.29,2.24-.87,3.17-.57.93-1.35,1.67-2.35,2.2-.99.53-2.13.8-3.43.8ZM1768.66,562.42c.7,0,1.31-.15,1.83-.45.53-.32.95-.75,1.25-1.3s.45-1.18.45-1.9-.16-1.33-.48-1.88c-.3-.57-.72-1.01-1.25-1.33-.52-.32-1.12-.48-1.8-.48s-1.3.16-1.85.48c-.55.32-.98.76-1.3,1.33-.3.55-.45,1.17-.45,1.88s.15,1.32.45,1.88c.32.55.74.98,1.28,1.3.55.32,1.17.47,1.87.47Z"/>
      <path class="cls-1" d="M1718.03,252.47v17.06h-18.06v-17.06h18.06ZM1723.44,252.47h18.06v17.06h-18.06v-17.06ZM1718.03,294h-18.06v-18.06h18.06v18.06ZM1723.44,294v-18.06h18.06v14.45c0,1.99-1.62,3.61-3.61,3.61h-14.45ZM1718.03,229v18.06h-18.06v-18.06h18.06ZM1723.44,229h14.45c1.99,0,3.61,1.62,3.61,3.61v14.45h-18.06v-18.06ZM1694.56,252.47v17.06h-18.06v-17.06h18.06ZM1694.56,294h-14.45c-1.99,0-3.61-1.62-3.61-3.61v-14.45h18.06v18.06ZM1694.56,229v18.06h-18.06v-14.45c0-1.99,1.62-3.61,3.61-3.61h14.45Z"/>
      <path class="cls-1" d="M1633.58,335.3c-1.19,0-2.29-.22-3.3-.65-1-.43-1.87-1.03-2.6-1.8-.72-.78-1.25-1.69-1.58-2.73l2.83-1.23c.45,1.07,1.1,1.91,1.95,2.52.85.6,1.8.9,2.87.9.6,0,1.12-.09,1.55-.28.45-.2.79-.47,1.03-.8.25-.33.37-.73.37-1.2,0-.55-.17-1-.5-1.35-.32-.37-.8-.65-1.45-.85l-3.57-1.15c-1.45-.45-2.55-1.12-3.28-2.03-.73-.9-1.1-1.96-1.1-3.17,0-1.07.26-2.01.78-2.83.53-.82,1.26-1.45,2.2-1.9.95-.47,2.03-.7,3.25-.7,1.11,0,2.14.2,3.07.6.93.38,1.73.93,2.4,1.62.68.68,1.19,1.49,1.53,2.43l-2.8,1.25c-.37-.93-.92-1.65-1.65-2.15-.74-.52-1.59-.78-2.55-.78-.57,0-1.07.1-1.5.3-.44.18-.78.45-1.03.8-.23.33-.35.73-.35,1.2,0,.52.17.98.5,1.38.33.38.84.68,1.53.9l3.42,1.08c1.48.48,2.59,1.15,3.33,2,.75.85,1.12,1.9,1.12,3.15,0,1.07-.27,2.01-.82,2.82-.55.82-1.31,1.46-2.28,1.93-.97.47-2.09.7-3.37.7ZM1647.69,335.3c-1.05,0-1.97-.23-2.75-.7-.77-.47-1.36-1.12-1.78-1.95-.4-.83-.6-1.81-.6-2.92v-8.33h3.28v8.05c0,.57.11,1.07.32,1.5.24.42.56.75.98,1,.43.23.91.35,1.45.35s1.01-.12,1.42-.35c.42-.25.74-.59.98-1.03.23-.43.35-.95.35-1.55v-7.98h3.27v13.6h-3.1v-2.67l.28.47c-.32.83-.84,1.46-1.58,1.88-.71.42-1.56.62-2.52.62ZM1665.08,335.3c-.98,0-1.89-.19-2.72-.57-.82-.4-1.47-.97-1.95-1.7l.32-.65v2.62h-3.07v-18.92h3.27v8.02l-.5-.68c.47-.73,1.1-1.3,1.9-1.7.8-.42,1.73-.62,2.78-.62,1.28,0,2.44.32,3.47.95,1.03.63,1.85,1.48,2.45,2.55.62,1.07.93,2.27.93,3.6s-.3,2.52-.9,3.6c-.6,1.08-1.42,1.94-2.45,2.58-1.04.62-2.21.92-3.53.92ZM1664.71,332.3c.75,0,1.41-.17,2-.52.58-.35,1.03-.83,1.35-1.45.33-.62.5-1.33.5-2.12s-.17-1.5-.5-2.1c-.32-.62-.77-1.1-1.35-1.45-.59-.37-1.25-.55-2-.55s-1.37.17-1.95.52c-.57.35-1.02.84-1.35,1.48-.32.62-.48,1.32-.48,2.1s.16,1.51.48,2.12c.33.62.78,1.1,1.35,1.45.58.35,1.23.52,1.95.52ZM1687.92,335.3c-1.33,0-2.57-.24-3.7-.72-1.12-.48-2.1-1.16-2.95-2.03-.83-.87-1.48-1.88-1.95-3.05-.47-1.17-.7-2.44-.7-3.83s.23-2.66.68-3.82c.46-1.18,1.11-2.2,1.95-3.05.85-.87,1.84-1.53,2.97-2,1.13-.48,2.37-.72,3.7-.72s2.53.22,3.58.67c1.06.45,1.96,1.05,2.7,1.8.73.73,1.25,1.54,1.57,2.43l-3.05,1.42c-.35-.93-.94-1.7-1.77-2.3-.84-.62-1.85-.93-3.03-.93s-2.2.28-3.1.83c-.88.55-1.57,1.31-2.07,2.27-.49.97-.73,2.1-.73,3.4s.24,2.44.73,3.43c.5.97,1.19,1.73,2.07,2.27.9.55,1.93.83,3.1.83s2.19-.3,3.03-.9c.83-.62,1.42-1.39,1.77-2.32l3.05,1.42c-.32.88-.84,1.7-1.57,2.45-.74.73-1.64,1.32-2.7,1.77-1.05.45-2.25.67-3.58.67ZM1702.14,335.3c-.95,0-1.78-.16-2.48-.47-.7-.32-1.24-.77-1.62-1.35-.39-.6-.58-1.29-.58-2.08s.17-1.42.5-2c.34-.6.85-1.1,1.55-1.5s1.59-.68,2.65-.85l4.45-.72v2.5l-3.82.65c-.65.12-1.14.32-1.45.62-.32.3-.48.69-.48,1.17s.18.84.53,1.12c.36.27.81.4,1.35.4.68,0,1.28-.14,1.8-.42.53-.3.94-.71,1.22-1.23.3-.52.45-1.08.45-1.7v-3.5c0-.58-.23-1.07-.7-1.45-.45-.4-1.05-.6-1.8-.6-.7,0-1.32.19-1.87.58-.54.37-.93.86-1.18,1.48l-2.67-1.3c.26-.72.68-1.33,1.25-1.85.58-.53,1.26-.95,2.05-1.25.78-.3,1.63-.45,2.55-.45,1.11,0,2.1.21,2.95.62.85.4,1.51.97,1.97,1.7.49.72.73,1.56.73,2.53v9.05h-3.1v-2.33l.7-.05c-.35.58-.77,1.08-1.25,1.48-.49.38-1.04.68-1.65.9-.62.2-1.3.3-2.05.3ZM1718.47,335.15c-1.53,0-2.72-.42-3.57-1.25-.84-.85-1.25-2.04-1.25-3.57v-6h-2.35v-2.93h.25c.66,0,1.18-.17,1.55-.52.36-.35.55-.86.55-1.52v-1.05h3.27v3.1h3.13v2.93h-3.13v5.82c0,.45.08.83.23,1.15.16.32.41.56.75.73.35.17.79.25,1.32.25.12,0,.25,0,.4-.02.17-.02.33-.03.48-.05v2.8c-.24.03-.5.07-.8.1-.3.03-.58.05-.83.05ZM1728.93,335.3c-1.4,0-2.63-.32-3.68-.95s-1.87-1.49-2.45-2.58c-.58-1.08-.87-2.28-.87-3.6s.29-2.57.87-3.62c.6-1.07,1.41-1.91,2.43-2.52,1.03-.62,2.18-.92,3.45-.92,1.06,0,2,.17,2.8.52.81.35,1.5.83,2.07,1.45.57.62,1,1.32,1.3,2.12.3.78.45,1.63.45,2.55,0,.23-.02.48-.05.73-.02.25-.06.47-.12.65h-10.5v-2.5h8.65l-1.55,1.17c.15-.77.1-1.45-.13-2.05-.22-.6-.58-1.08-1.1-1.42-.5-.35-1.11-.53-1.82-.53s-1.3.18-1.83.53c-.53.33-.94.83-1.22,1.5-.27.65-.37,1.44-.3,2.38-.07.83.04,1.57.32,2.22.3.63.73,1.12,1.3,1.48.58.35,1.25.52,2,.52s1.38-.16,1.9-.47c.53-.32.95-.74,1.25-1.28l2.65,1.3c-.27.65-.68,1.23-1.25,1.73s-1.24.89-2.02,1.17c-.77.28-1.62.42-2.55.42ZM1744.38,340.5c-1.01,0-1.96-.17-2.82-.5-.87-.33-1.62-.8-2.25-1.4-.62-.58-1.07-1.27-1.35-2.08l3.05-1.15c.2.63.59,1.14,1.17,1.52.6.4,1.34.6,2.2.6.67,0,1.25-.12,1.75-.38.52-.25.92-.62,1.2-1.1.29-.47.43-1.03.43-1.7v-3.1l.62.75c-.46.82-1.09,1.43-1.87,1.85-.79.42-1.68.62-2.68.62-1.26,0-2.4-.29-3.4-.88-1-.58-1.78-1.38-2.35-2.4-.56-1.02-.85-2.16-.85-3.42s.29-2.42.85-3.42c.57-1,1.34-1.78,2.33-2.35.98-.58,2.1-.88,3.35-.88,1.01,0,1.91.22,2.67.65.79.42,1.44,1.02,1.95,1.83l-.45.82v-3h3.1v12.93c0,1.18-.29,2.24-.87,3.17-.57.93-1.35,1.67-2.35,2.2-.99.53-2.13.8-3.43.8ZM1744.23,331.42c.7,0,1.31-.15,1.83-.45.53-.32.95-.75,1.25-1.3.3-.55.45-1.18.45-1.9s-.16-1.32-.48-1.88c-.3-.57-.71-1.01-1.25-1.32-.51-.32-1.11-.48-1.8-.48s-1.3.16-1.85.48c-.55.32-.98.76-1.3,1.32-.3.55-.45,1.18-.45,1.88s.15,1.33.45,1.88c.32.55.74.98,1.28,1.3.55.32,1.17.47,1.87.47ZM1760.74,335.3c-1.33,0-2.55-.31-3.65-.92-1.08-.62-1.95-1.46-2.6-2.52-.63-1.07-.95-2.28-.95-3.65s.32-2.58.95-3.65c.65-1.07,1.52-1.91,2.6-2.52,1.09-.62,2.3-.92,3.65-.92s2.54.31,3.63.92c1.08.62,1.94,1.46,2.57,2.52.65,1.05.98,2.27.98,3.65s-.33,2.58-.98,3.65c-.65,1.07-1.51,1.91-2.6,2.52-1.08.62-2.28.92-3.6.92ZM1760.74,332.3c.74,0,1.38-.17,1.93-.52.56-.35,1.01-.83,1.32-1.45.34-.63.5-1.34.5-2.12s-.16-1.5-.5-2.1c-.31-.62-.76-1.1-1.32-1.45-.55-.37-1.19-.55-1.93-.55s-1.41.18-1.97.55c-.57.35-1.02.83-1.35,1.45-.32.6-.48,1.3-.48,2.1s.16,1.49.48,2.12c.33.62.78,1.1,1.35,1.45.56.35,1.22.52,1.97.52ZM1770.4,335v-13.6h3.08v3.02l-.25-.45c.31-1.02.8-1.73,1.47-2.12.68-.4,1.5-.6,2.45-.6h.8v2.9h-1.17c-.94,0-1.69.29-2.25.88-.57.57-.85,1.37-.85,2.4v7.58h-3.28ZM1781.4,340.52c-.37,0-.72-.03-1.07-.1-.35-.05-.67-.14-.95-.27v-2.75c.21.05.47.1.77.15.32.05.61.08.88.08.75,0,1.29-.17,1.62-.52.35-.35.66-.81.93-1.38l.9-2.1-.05,2.75-5.93-14.98h3.53l4.15,11.05h-1.25l4.12-11.05h3.55l-5.92,14.98c-.35.88-.78,1.63-1.28,2.25s-1.08,1.08-1.75,1.4c-.65.33-1.4.5-2.25.5Z"/>
    </g>
  </g>
</svg>