<svg width="257" height="60" viewBox="0 0 257 60" fill="none" xmlns="http://www.w3.org/2000/svg">
<g filter="url(#filter0_d_2156_9487)">
<rect x="4" width="249" height="52" rx="8" fill="#FF4D00"/>
</g>
<g filter="url(#filter1_d_2156_9487)">
<text x="95" y="37" font-family="Verdana" font-size="25" fill="white" >Defend</text>
</g>
<g filter="url(#filter2_d_2156_9487)">
<path d="M31.1,15.2l-7.1,10.1v5.7s4,0,4,0l7.1-10.1v17.2c0,.7-.4,1.3-1,1.3h-15.2c-.5,0-1-.6-1-1.3v-21.6c0-.7.4-1.3,1-1.3h12.2ZM34.7,14l1.3,1.9-8.8,12.4h-1.3s0-1.9,0-1.9l8.8-12.4Z" fill="white" transform="translate(30,-1)"/>
</g>
<defs>
<filter id="filter0_d_2156_9487" x="0" y="0" width="257" height="60" filterUnits="userSpaceOnUse" color-interpolation-filters="sRGB">
<feFlood flood-opacity="0" result="BackgroundImageFix"/>
<feColorMatrix in="SourceAlpha" type="matrix" values="0 0 0 0 0 0 0 0 0 0 0 0 0 0 0 0 0 0 127 0" result="hardAlpha"/>
<feOffset dy="4"/>
<feGaussianBlur stdDeviation="2"/>
<feComposite in2="hardAlpha" operator="out"/>
<feColorMatrix type="matrix" values="0 0 0 0 0 0 0 0 0 0 0 0 0 0 0 0 0 0 0.25 0"/>
<feBlend mode="normal" in2="BackgroundImageFix" result="effect1_dropShadow_2156_9487"/>
<feBlend mode="normal" in="SourceGraphic" in2="effect1_dropShadow_2156_9487" result="shape"/>
</filter>
<filter id="filter1_d_2156_9487" x="40" y="10" width="200" height="30" filterUnits="userSpaceOnUse" color-interpolation-filters="sRGB">
<feFlood flood-opacity="0" result="BackgroundImageFix"/>
<feColorMatrix in="SourceAlpha" type="matrix" values="0 0 0 0 0 0 0 0 0 0 0 0 0 0 0 0 0 0 127 0" result="hardAlpha"/>
<feOffset dy="4"/>
<feGaussianBlur stdDeviation="2"/>
<feComposite in2="hardAlpha" operator="out"/>
<feColorMatrix type="matrix" values="0 0 0 0 0 0 0 0 0 0 0 0 0 0 0 0 0 0 0.25 0"/>
<feBlend mode="normal" in2="BackgroundImageFix" result="effect1_dropShadow_2156_9487"/>
<feBlend mode="normal" in="SourceGraphic" in2="effect1_dropShadow_2156_9487" result="shape"/>
</filter>
<filter id="filter2_d_2156_9487" x="46" y="17" width="80" height="26.8995" filterUnits="userSpaceOnUse" color-interpolation-filters="sRGB">
<feFlood flood-opacity="0" result="BackgroundImageFix"/>
<feColorMatrix in="SourceAlpha" type="matrix" values="0 0 0 0 0 0 0 0 0 0 0 0 0 0 0 0 0 0 127 0" result="hardAlpha"/>
<feOffset dy="4"/>
<feGaussianBlur stdDeviation="2"/>
<feComposite in2="hardAlpha" operator="out"/>
<feColorMatrix type="matrix" values="0 0 0 0 0 0 0 0 0 0 0 0 0 0 0 0 0 0 0.25 0"/>
<feBlend mode="normal" in2="BackgroundImageFix" result="effect1_dropShadow_2156_9487"/>
<feBlend mode="normal" in="SourceGraphic" in2="effect1_dropShadow_2156_9487" result="shape"/>
</filter>
</defs>
</svg>
