<svg width="257" height="60" viewBox="0 0 257 60" fill="none" xmlns="http://www.w3.org/2000/svg">
<g filter="url(#filter0_d_2156_9487)">
<rect x="4" width="249" height="52" rx="8" fill="#FF4D00"/>
</g>
<g filter="url(#filter1_d_2156_9487)">
<path d="M69.296 33V19.59H78.206V21.75H71.744V25.188H77.846V27.348H71.744V30.84H78.206V33H69.296ZM84.3571 33.216C83.4091 33.216 82.5631 32.994 81.8191 32.55C81.0751 32.094 80.4871 31.476 80.0551 30.696C79.6231 29.916 79.4071 29.052 79.4071 28.104C79.4071 27.144 79.6231 26.28 80.0551 25.512C80.4871 24.744 81.0751 24.132 81.8191 23.676C82.5751 23.22 83.4151 22.992 84.3391 22.992C85.0831 22.992 85.7431 23.142 86.3191 23.442C86.9071 23.73 87.3691 24.138 87.7051 24.666L87.3451 25.152V19.374H89.7031V33H87.4711V31.11L87.7231 31.578C87.3871 32.106 86.9191 32.514 86.3191 32.802C85.7191 33.078 85.0651 33.216 84.3571 33.216ZM84.6091 31.056C85.1491 31.056 85.6231 30.93 86.0311 30.678C86.4391 30.426 86.7571 30.078 86.9851 29.634C87.2251 29.19 87.3451 28.68 87.3451 28.104C87.3451 27.54 87.2251 27.036 86.9851 26.592C86.7571 26.136 86.4391 25.782 86.0311 25.53C85.6231 25.278 85.1491 25.152 84.6091 25.152C84.0811 25.152 83.6071 25.284 83.1871 25.548C82.7671 25.8 82.4371 26.148 82.1971 26.592C81.9691 27.024 81.8551 27.528 81.8551 28.104C81.8551 28.68 81.9691 29.19 82.1971 29.634C82.4371 30.078 82.7671 30.426 83.1871 30.678C83.6071 30.93 84.0811 31.056 84.6091 31.056ZM91.8968 33V23.208H94.2548V33H91.8968ZM91.8968 22.11V19.59H94.2548V22.11H91.8968ZM100.896 33.108C99.792 33.108 98.934 32.808 98.322 32.208C97.722 31.596 97.422 30.738 97.422 29.634V25.314H95.73V23.208H95.91C96.39 23.208 96.762 23.082 97.026 22.83C97.29 22.578 97.422 22.212 97.422 21.732V20.976H99.78V23.208H102.03V25.314H99.78V29.508C99.78 29.832 99.834 30.108 99.942 30.336C100.062 30.564 100.242 30.738 100.482 30.858C100.734 30.978 101.052 31.038 101.436 31.038C101.52 31.038 101.616 31.032 101.724 31.02C101.844 31.008 101.958 30.996 102.066 30.984V33C101.898 33.024 101.706 33.048 101.49 33.072C101.274 33.096 101.076 33.108 100.896 33.108ZM107.265 33V19.59H112.917C113.805 19.59 114.561 19.746 115.185 20.058C115.821 20.358 116.307 20.79 116.643 21.354C116.991 21.906 117.165 22.578 117.165 23.37C117.165 23.982 116.997 24.558 116.661 25.098C116.337 25.626 115.815 26.064 115.095 26.412V25.278C115.755 25.53 116.277 25.842 116.661 26.214C117.045 26.586 117.315 27 117.471 27.456C117.627 27.912 117.705 28.392 117.705 28.896C117.705 30.18 117.279 31.188 116.427 31.92C115.587 32.64 114.417 33 112.917 33H107.265ZM109.713 30.84H113.169C113.805 30.84 114.309 30.666 114.681 30.318C115.065 29.958 115.257 29.484 115.257 28.896C115.257 28.308 115.065 27.834 114.681 27.474C114.309 27.114 113.805 26.934 113.169 26.934H109.713V30.84ZM109.713 24.792H113.043C113.547 24.792 113.949 24.648 114.249 24.36C114.549 24.06 114.699 23.676 114.699 23.208C114.699 22.74 114.549 22.368 114.249 22.092C113.949 21.816 113.547 21.678 113.043 21.678H109.713V24.792ZM120.7 36.978C120.436 36.978 120.178 36.954 119.926 36.906C119.674 36.87 119.446 36.804 119.242 36.708V34.728C119.398 34.764 119.584 34.8 119.8 34.836C120.028 34.872 120.238 34.89 120.43 34.89C120.97 34.89 121.36 34.764 121.6 34.512C121.852 34.26 122.074 33.93 122.266 33.522L122.914 32.01L122.878 33.99L118.612 23.208H121.15L124.138 31.164H123.238L126.208 23.208H128.764L124.498 33.99C124.246 34.626 123.94 35.166 123.58 35.61C123.22 36.054 122.8 36.39 122.32 36.618C121.852 36.858 121.312 36.978 120.7 36.978ZM132.358 33L136.984 19.59H140.152L144.778 33H142.114L141.16 30.12H135.976L135.004 33H132.358ZM136.678 27.96H140.458L138.226 21.282H138.91L136.678 27.96ZM146.073 36.6V23.208H148.287V25.152L148.071 24.666C148.407 24.138 148.863 23.73 149.439 23.442C150.015 23.142 150.681 22.992 151.437 22.992C152.361 22.992 153.195 23.22 153.939 23.676C154.683 24.132 155.271 24.744 155.703 25.512C156.147 26.28 156.369 27.144 156.369 28.104C156.369 29.052 156.153 29.916 155.721 30.696C155.289 31.476 154.701 32.094 153.957 32.55C153.213 32.994 152.367 33.216 151.419 33.216C150.711 33.216 150.057 33.078 149.457 32.802C148.869 32.514 148.401 32.106 148.053 31.578L148.431 31.11V36.6H146.073ZM151.149 31.056C151.689 31.056 152.169 30.93 152.589 30.678C153.009 30.426 153.333 30.078 153.561 29.634C153.801 29.19 153.921 28.68 153.921 28.104C153.921 27.528 153.801 27.024 153.561 26.592C153.333 26.148 153.009 25.8 152.589 25.548C152.169 25.284 151.689 25.152 151.149 25.152C150.633 25.152 150.165 25.278 149.745 25.53C149.337 25.782 149.013 26.136 148.773 26.592C148.545 27.036 148.431 27.54 148.431 28.104C148.431 28.68 148.545 29.19 148.773 29.634C149.013 30.078 149.337 30.426 149.745 30.678C150.165 30.93 150.633 31.056 151.149 31.056ZM158.166 36.6V23.208H160.38V25.152L160.164 24.666C160.5 24.138 160.956 23.73 161.532 23.442C162.108 23.142 162.774 22.992 163.53 22.992C164.454 22.992 165.288 23.22 166.032 23.676C166.776 24.132 167.364 24.744 167.796 25.512C168.24 26.28 168.462 27.144 168.462 28.104C168.462 29.052 168.246 29.916 167.814 30.696C167.382 31.476 166.794 32.094 166.05 32.55C165.306 32.994 164.46 33.216 163.512 33.216C162.804 33.216 162.15 33.078 161.55 32.802C160.962 32.514 160.494 32.106 160.146 31.578L160.524 31.11V36.6H158.166ZM163.242 31.056C163.782 31.056 164.262 30.93 164.682 30.678C165.102 30.426 165.426 30.078 165.654 29.634C165.894 29.19 166.014 28.68 166.014 28.104C166.014 27.528 165.894 27.024 165.654 26.592C165.426 26.148 165.102 25.8 164.682 25.548C164.262 25.284 163.782 25.152 163.242 25.152C162.726 25.152 162.258 25.278 161.838 25.53C161.43 25.782 161.106 26.136 160.866 26.592C160.638 27.036 160.524 27.54 160.524 28.104C160.524 28.68 160.638 29.19 160.866 29.634C161.106 30.078 161.43 30.426 161.838 30.678C162.258 30.93 162.726 31.056 163.242 31.056ZM170.26 33V23.208H172.474V25.386L172.294 25.062C172.522 24.33 172.876 23.82 173.356 23.532C173.848 23.244 174.436 23.1 175.12 23.1H175.696V25.188H174.85C174.178 25.188 173.638 25.398 173.23 25.818C172.822 26.226 172.618 26.802 172.618 27.546V33H170.26ZM181.781 33.216C180.821 33.216 179.945 32.994 179.153 32.55C178.373 32.106 177.749 31.5 177.281 30.732C176.825 29.964 176.597 29.088 176.597 28.104C176.597 27.12 176.825 26.244 177.281 25.476C177.749 24.708 178.373 24.102 179.153 23.658C179.933 23.214 180.809 22.992 181.781 22.992C182.741 22.992 183.611 23.214 184.391 23.658C185.171 24.102 185.789 24.708 186.245 25.476C186.713 26.232 186.947 27.108 186.947 28.104C186.947 29.088 186.713 29.964 186.245 30.732C185.777 31.5 185.153 32.106 184.373 32.55C183.593 32.994 182.729 33.216 181.781 33.216ZM181.781 31.056C182.309 31.056 182.771 30.93 183.167 30.678C183.575 30.426 183.893 30.078 184.121 29.634C184.361 29.178 184.481 28.668 184.481 28.104C184.481 27.528 184.361 27.024 184.121 26.592C183.893 26.148 183.575 25.8 183.167 25.548C182.771 25.284 182.309 25.152 181.781 25.152C181.241 25.152 180.767 25.284 180.359 25.548C179.951 25.8 179.627 26.148 179.387 26.592C179.159 27.024 179.045 27.528 179.045 28.104C179.045 28.668 179.159 29.178 179.387 29.634C179.627 30.078 179.951 30.426 180.359 30.678C180.767 30.93 181.241 31.056 181.781 31.056ZM191.511 33L187.659 23.208H190.233L193.023 30.912H192.069L194.877 23.208H197.451L193.599 33H191.511ZM203.222 33.216C202.214 33.216 201.332 32.988 200.576 32.532C199.82 32.076 199.232 31.458 198.812 30.678C198.392 29.898 198.182 29.034 198.182 28.086C198.182 27.102 198.392 26.232 198.812 25.476C199.244 24.708 199.826 24.102 200.558 23.658C201.302 23.214 202.13 22.992 203.042 22.992C203.81 22.992 204.482 23.118 205.058 23.37C205.646 23.622 206.144 23.97 206.552 24.414C206.96 24.858 207.272 25.368 207.488 25.944C207.704 26.508 207.812 27.12 207.812 27.78C207.812 27.948 207.8 28.122 207.776 28.302C207.764 28.482 207.734 28.638 207.686 28.77H200.126V26.97H206.354L205.238 27.816C205.346 27.264 205.316 26.772 205.148 26.34C204.992 25.908 204.728 25.566 204.356 25.314C203.996 25.062 203.558 24.936 203.042 24.936C202.55 24.936 202.112 25.062 201.728 25.314C201.344 25.554 201.05 25.914 200.846 26.394C200.654 26.862 200.582 27.432 200.63 28.104C200.582 28.704 200.66 29.238 200.864 29.706C201.08 30.162 201.392 30.516 201.8 30.768C202.22 31.02 202.7 31.146 203.24 31.146C203.78 31.146 204.236 31.032 204.608 30.804C204.992 30.576 205.292 30.27 205.508 29.886L207.416 30.822C207.224 31.29 206.924 31.704 206.516 32.064C206.108 32.424 205.622 32.706 205.058 32.91C204.506 33.114 203.894 33.216 203.222 33.216ZM209.6 33V23.208H211.814V25.386L211.634 25.062C211.862 24.33 212.216 23.82 212.696 23.532C213.188 23.244 213.776 23.1 214.46 23.1H215.036V25.188H214.19C213.518 25.188 212.978 25.398 212.57 25.818C212.162 26.226 211.958 26.802 211.958 27.546V33H209.6Z" fill="white"/>
</g>
<g filter="url(#filter2_d_2156_9487)">
<path d="M53.7574 17.8995L46.2914 25.3654L46.2989 29.6125L50.537 29.6051L58 22.1421V34.8995C58 35.4517 57.5523 35.8995 57 35.8995H41C40.4477 35.8995 40 35.4517 40 34.8995V18.8995C40 18.3472 40.4477 17.8995 41 17.8995H53.7574ZM57.4853 17L58.8995 18.4142L49.7071 27.6066L48.2954 27.609L48.2929 26.1924L57.4853 17Z" fill="white"/>
</g>
<defs>
<filter id="filter0_d_2156_9487" x="0" y="0" width="257" height="60" filterUnits="userSpaceOnUse" color-interpolation-filters="sRGB">
<feFlood flood-opacity="0" result="BackgroundImageFix"/>
<feColorMatrix in="SourceAlpha" type="matrix" values="0 0 0 0 0 0 0 0 0 0 0 0 0 0 0 0 0 0 127 0" result="hardAlpha"/>
<feOffset dy="4"/>
<feGaussianBlur stdDeviation="2"/>
<feComposite in2="hardAlpha" operator="out"/>
<feColorMatrix type="matrix" values="0 0 0 0 0 0 0 0 0 0 0 0 0 0 0 0 0 0 0.25 0"/>
<feBlend mode="normal" in2="BackgroundImageFix" result="effect1_dropShadow_2156_9487"/>
<feBlend mode="normal" in="SourceGraphic" in2="effect1_dropShadow_2156_9487" result="shape"/>
</filter>
<filter id="filter1_d_2156_9487" x="65.2959" y="19.374" width="153.74" height="25.604" filterUnits="userSpaceOnUse" color-interpolation-filters="sRGB">
<feFlood flood-opacity="0" result="BackgroundImageFix"/>
<feColorMatrix in="SourceAlpha" type="matrix" values="0 0 0 0 0 0 0 0 0 0 0 0 0 0 0 0 0 0 127 0" result="hardAlpha"/>
<feOffset dy="4"/>
<feGaussianBlur stdDeviation="2"/>
<feComposite in2="hardAlpha" operator="out"/>
<feColorMatrix type="matrix" values="0 0 0 0 0 0 0 0 0 0 0 0 0 0 0 0 0 0 0.25 0"/>
<feBlend mode="normal" in2="BackgroundImageFix" result="effect1_dropShadow_2156_9487"/>
<feBlend mode="normal" in="SourceGraphic" in2="effect1_dropShadow_2156_9487" result="shape"/>
</filter>
<filter id="filter2_d_2156_9487" x="36" y="17" width="26.8994" height="26.8995" filterUnits="userSpaceOnUse" color-interpolation-filters="sRGB">
<feFlood flood-opacity="0" result="BackgroundImageFix"/>
<feColorMatrix in="SourceAlpha" type="matrix" values="0 0 0 0 0 0 0 0 0 0 0 0 0 0 0 0 0 0 127 0" result="hardAlpha"/>
<feOffset dy="4"/>
<feGaussianBlur stdDeviation="2"/>
<feComposite in2="hardAlpha" operator="out"/>
<feColorMatrix type="matrix" values="0 0 0 0 0 0 0 0 0 0 0 0 0 0 0 0 0 0 0.25 0"/>
<feBlend mode="normal" in2="BackgroundImageFix" result="effect1_dropShadow_2156_9487"/>
<feBlend mode="normal" in="SourceGraphic" in2="effect1_dropShadow_2156_9487" result="shape"/>
</filter>
</defs>
</svg>
