<svg width="257" height="68" viewBox="0 0 257 68" fill="none" xmlns="http://www.w3.org/2000/svg">
<g filter="url(#filter0_d_2148_5165)">
<rect x="4" width="249" height="52" rx="8" fill="#F00000"/>
<g filter="url(#filter1_d_2148_5165)">
<path d="M92.3067 33V19.59H94.2147L101.595 29.526L100.605 29.724V19.59H103.053V33H101.127L93.8547 22.992L94.7547 22.794V33H92.3067ZM110.239 33.216C109.279 33.216 108.403 32.994 107.611 32.55C106.831 32.106 106.207 31.5 105.739 30.732C105.283 29.964 105.055 29.088 105.055 28.104C105.055 27.12 105.283 26.244 105.739 25.476C106.207 24.708 106.831 24.102 107.611 23.658C108.391 23.214 109.267 22.992 110.239 22.992C111.199 22.992 112.069 23.214 112.849 23.658C113.629 24.102 114.247 24.708 114.703 25.476C115.171 26.232 115.405 27.108 115.405 28.104C115.405 29.088 115.171 29.964 114.703 30.732C114.235 31.5 113.611 32.106 112.831 32.55C112.051 32.994 111.187 33.216 110.239 33.216ZM110.239 31.056C110.767 31.056 111.229 30.93 111.625 30.678C112.033 30.426 112.351 30.078 112.579 29.634C112.819 29.178 112.939 28.668 112.939 28.104C112.939 27.528 112.819 27.024 112.579 26.592C112.351 26.148 112.033 25.8 111.625 25.548C111.229 25.284 110.767 25.152 110.239 25.152C109.699 25.152 109.225 25.284 108.817 25.548C108.409 25.8 108.085 26.148 107.845 26.592C107.617 27.024 107.503 27.528 107.503 28.104C107.503 28.668 107.617 29.178 107.845 29.634C108.085 30.078 108.409 30.426 108.817 30.678C109.225 30.93 109.699 31.056 110.239 31.056ZM121.481 33.108C120.377 33.108 119.519 32.808 118.907 32.208C118.307 31.596 118.007 30.738 118.007 29.634V25.314H116.315V23.208H116.495C116.975 23.208 117.347 23.082 117.611 22.83C117.875 22.578 118.007 22.212 118.007 21.732V20.976H120.365V23.208H122.615V25.314H120.365V29.508C120.365 29.832 120.419 30.108 120.527 30.336C120.647 30.564 120.827 30.738 121.067 30.858C121.319 30.978 121.637 31.038 122.021 31.038C122.105 31.038 122.201 31.032 122.309 31.02C122.429 31.008 122.543 30.996 122.651 30.984V33C122.483 33.024 122.291 33.048 122.075 33.072C121.859 33.096 121.661 33.108 121.481 33.108ZM126.752 33L131.378 19.59H134.546L139.172 33H136.508L135.554 30.12H130.37L129.398 33H126.752ZM131.072 27.96H134.852L132.62 21.282H133.304L131.072 27.96ZM140.466 36.6V23.208H142.68V25.152L142.464 24.666C142.8 24.138 143.256 23.73 143.832 23.442C144.408 23.142 145.074 22.992 145.83 22.992C146.754 22.992 147.588 23.22 148.332 23.676C149.076 24.132 149.664 24.744 150.096 25.512C150.54 26.28 150.762 27.144 150.762 28.104C150.762 29.052 150.546 29.916 150.114 30.696C149.682 31.476 149.094 32.094 148.35 32.55C147.606 32.994 146.76 33.216 145.812 33.216C145.104 33.216 144.45 33.078 143.85 32.802C143.262 32.514 142.794 32.106 142.446 31.578L142.824 31.11V36.6H140.466ZM145.542 31.056C146.082 31.056 146.562 30.93 146.982 30.678C147.402 30.426 147.726 30.078 147.954 29.634C148.194 29.19 148.314 28.68 148.314 28.104C148.314 27.528 148.194 27.024 147.954 26.592C147.726 26.148 147.402 25.8 146.982 25.548C146.562 25.284 146.082 25.152 145.542 25.152C145.026 25.152 144.558 25.278 144.138 25.53C143.73 25.782 143.406 26.136 143.166 26.592C142.938 27.036 142.824 27.54 142.824 28.104C142.824 28.68 142.938 29.19 143.166 29.634C143.406 30.078 143.73 30.426 144.138 30.678C144.558 30.93 145.026 31.056 145.542 31.056ZM152.56 36.6V23.208H154.774V25.152L154.558 24.666C154.894 24.138 155.35 23.73 155.926 23.442C156.502 23.142 157.168 22.992 157.924 22.992C158.848 22.992 159.682 23.22 160.426 23.676C161.17 24.132 161.758 24.744 162.19 25.512C162.634 26.28 162.856 27.144 162.856 28.104C162.856 29.052 162.64 29.916 162.208 30.696C161.776 31.476 161.188 32.094 160.444 32.55C159.7 32.994 158.854 33.216 157.906 33.216C157.198 33.216 156.544 33.078 155.944 32.802C155.356 32.514 154.888 32.106 154.54 31.578L154.918 31.11V36.6H152.56ZM157.636 31.056C158.176 31.056 158.656 30.93 159.076 30.678C159.496 30.426 159.82 30.078 160.048 29.634C160.288 29.19 160.408 28.68 160.408 28.104C160.408 27.528 160.288 27.024 160.048 26.592C159.82 26.148 159.496 25.8 159.076 25.548C158.656 25.284 158.176 25.152 157.636 25.152C157.12 25.152 156.652 25.278 156.232 25.53C155.824 25.782 155.5 26.136 155.26 26.592C155.032 27.036 154.918 27.54 154.918 28.104C154.918 28.68 155.032 29.19 155.26 29.634C155.5 30.078 155.824 30.426 156.232 30.678C156.652 30.93 157.12 31.056 157.636 31.056ZM164.654 33V23.208H166.868V25.386L166.688 25.062C166.916 24.33 167.27 23.82 167.75 23.532C168.242 23.244 168.83 23.1 169.514 23.1H170.09V25.188H169.244C168.572 25.188 168.032 25.398 167.624 25.818C167.216 26.226 167.012 26.802 167.012 27.546V33H164.654ZM176.174 33.216C175.214 33.216 174.338 32.994 173.546 32.55C172.766 32.106 172.142 31.5 171.674 30.732C171.218 29.964 170.99 29.088 170.99 28.104C170.99 27.12 171.218 26.244 171.674 25.476C172.142 24.708 172.766 24.102 173.546 23.658C174.326 23.214 175.202 22.992 176.174 22.992C177.134 22.992 178.004 23.214 178.784 23.658C179.564 24.102 180.182 24.708 180.638 25.476C181.106 26.232 181.34 27.108 181.34 28.104C181.34 29.088 181.106 29.964 180.638 30.732C180.17 31.5 179.546 32.106 178.766 32.55C177.986 32.994 177.122 33.216 176.174 33.216ZM176.174 31.056C176.702 31.056 177.164 30.93 177.56 30.678C177.968 30.426 178.286 30.078 178.514 29.634C178.754 29.178 178.874 28.668 178.874 28.104C178.874 27.528 178.754 27.024 178.514 26.592C178.286 26.148 177.968 25.8 177.56 25.548C177.164 25.284 176.702 25.152 176.174 25.152C175.634 25.152 175.16 25.284 174.752 25.548C174.344 25.8 174.02 26.148 173.78 26.592C173.552 27.024 173.438 27.528 173.438 28.104C173.438 28.668 173.552 29.178 173.78 29.634C174.02 30.078 174.344 30.426 174.752 30.678C175.16 30.93 175.634 31.056 176.174 31.056ZM185.904 33L182.052 23.208H184.626L187.416 30.912H186.462L189.27 23.208H191.844L187.992 33H185.904ZM197.616 33.216C196.608 33.216 195.726 32.988 194.97 32.532C194.214 32.076 193.626 31.458 193.206 30.678C192.786 29.898 192.576 29.034 192.576 28.086C192.576 27.102 192.786 26.232 193.206 25.476C193.638 24.708 194.22 24.102 194.952 23.658C195.696 23.214 196.524 22.992 197.436 22.992C198.204 22.992 198.876 23.118 199.452 23.37C200.04 23.622 200.538 23.97 200.946 24.414C201.354 24.858 201.666 25.368 201.882 25.944C202.098 26.508 202.206 27.12 202.206 27.78C202.206 27.948 202.194 28.122 202.17 28.302C202.158 28.482 202.128 28.638 202.08 28.77H194.52V26.97H200.748L199.632 27.816C199.74 27.264 199.71 26.772 199.542 26.34C199.386 25.908 199.122 25.566 198.75 25.314C198.39 25.062 197.952 24.936 197.436 24.936C196.944 24.936 196.506 25.062 196.122 25.314C195.738 25.554 195.444 25.914 195.24 26.394C195.048 26.862 194.976 27.432 195.024 28.104C194.976 28.704 195.054 29.238 195.258 29.706C195.474 30.162 195.786 30.516 196.194 30.768C196.614 31.02 197.094 31.146 197.634 31.146C198.174 31.146 198.63 31.032 199.002 30.804C199.386 30.576 199.686 30.27 199.902 29.886L201.81 30.822C201.618 31.29 201.318 31.704 200.91 32.064C200.502 32.424 200.016 32.706 199.452 32.91C198.9 33.114 198.288 33.216 197.616 33.216ZM208.548 33.216C207.6 33.216 206.754 32.994 206.01 32.55C205.266 32.094 204.678 31.476 204.246 30.696C203.814 29.916 203.598 29.052 203.598 28.104C203.598 27.144 203.814 26.28 204.246 25.512C204.678 24.744 205.266 24.132 206.01 23.676C206.766 23.22 207.606 22.992 208.53 22.992C209.274 22.992 209.934 23.142 210.51 23.442C211.098 23.73 211.56 24.138 211.896 24.666L211.536 25.152V19.374H213.894V33H211.662V31.11L211.914 31.578C211.578 32.106 211.11 32.514 210.51 32.802C209.91 33.078 209.256 33.216 208.548 33.216ZM208.8 31.056C209.34 31.056 209.814 30.93 210.222 30.678C210.63 30.426 210.948 30.078 211.176 29.634C211.416 29.19 211.536 28.68 211.536 28.104C211.536 27.54 211.416 27.036 211.176 26.592C210.948 26.136 210.63 25.782 210.222 25.53C209.814 25.278 209.34 25.152 208.8 25.152C208.272 25.152 207.798 25.284 207.378 25.548C206.958 25.8 206.628 26.148 206.388 26.592C206.16 27.024 206.046 27.528 206.046 28.104C206.046 28.68 206.16 29.19 206.388 29.634C206.628 30.078 206.958 30.426 207.378 30.678C207.798 30.93 208.272 31.056 208.8 31.056Z" fill="white"/>
</g>
<g filter="url(#filter2_d_2148_5165)">
<path d="M63.665 42.33C54.4612 42.33 47 34.8687 47 25.665C47 16.4612 54.4612 9 63.665 9C72.8687 9 80.33 16.4612 80.33 25.665C80.33 34.8687 72.8687 42.33 63.665 42.33ZM63.665 23.3082L58.9514 18.5946L56.5946 20.9514L61.3082 25.665L56.5946 30.3785L58.9514 32.7353L63.665 28.0218L68.3785 32.7353L70.7353 30.3785L66.0218 25.665L70.7353 20.9514L68.3785 18.5946L63.665 23.3082Z" fill="white" transform="translate(-30,0)" />
</g>
</g>
<defs>
<filter id="filter0_d_2148_5165" x="0" y="0" width="257" height="75.5581" filterUnits="userSpaceOnUse" color-interpolation-filters="sRGB">
<feFlood flood-opacity="0" result="BackgroundImageFix"/>
<feColorMatrix in="SourceAlpha" type="matrix" values="0 0 0 0 0 0 0 0 0 0 0 0 0 0 0 0 0 0 127 0" result="hardAlpha"/>
<feOffset dy="4"/>
<feGaussianBlur stdDeviation="2"/>
<feComposite in2="hardAlpha" operator="out"/>
<feColorMatrix type="matrix" values="0 0 0 0 0 0 0 0 0 0 0 0 0 0 0 0 0 0 0.25 0"/>
<feBlend mode="normal" in2="BackgroundImageFix" result="effect1_dropShadow_2148_5165"/>
<feBlend mode="normal" in="SourceGraphic" in2="effect1_dropShadow_2148_5165" result="shape"/>
</filter>
<filter id="filter1_d_2148_5165" x="88.3066" y="19.374" width="129.587" height="25.226" filterUnits="userSpaceOnUse" color-interpolation-filters="sRGB">
<feFlood flood-opacity="0" result="BackgroundImageFix"/>
<feColorMatrix in="SourceAlpha" type="matrix" values="0 0 0 0 0 0 0 0 0 0 0 0 0 0 0 0 0 0 127 0" result="hardAlpha"/>
<feOffset dy="4"/>
<feGaussianBlur stdDeviation="2"/>
<feComposite in2="hardAlpha" operator="out"/>
<feColorMatrix type="matrix" values="0 0 0 0 0 0 0 0 0 0 0 0 0 0 0 0 0 0 0.25 0"/>
<feBlend mode="normal" in2="BackgroundImageFix" result="effect1_dropShadow_2148_5165"/>
<feBlend mode="normal" in="SourceGraphic" in2="effect1_dropShadow_2148_5165" result="shape"/>
</filter>
<filter id="filter2_d_2148_5165" x="13" y="9" width="80" height="41.33" filterUnits="userSpaceOnUse" color-interpolation-filters="sRGB">
<feFlood flood-opacity="0" result="BackgroundImageFix"/>
<feColorMatrix in="SourceAlpha" type="matrix" values="0 0 0 0 0 0 0 0 0 0 0 0 0 0 0 0 0 0 127 0" result="hardAlpha"/>
<feOffset dy="4"/>
<feGaussianBlur stdDeviation="2"/>
<feComposite in2="hardAlpha" operator="out"/>
<feColorMatrix type="matrix" values="0 0 0 0 0 0 0 0 0 0 0 0 0 0 0 0 0 0 0.25 0"/>
<feBlend mode="normal" in2="BackgroundImageFix" result="effect1_dropShadow_2148_5165"/>
<feBlend mode="normal" in="SourceGraphic" in2="effect1_dropShadow_2148_5165" result="shape"/>
</filter>
</defs>
</svg>
