<svg width="260" height="62" viewBox="18 18 260 62" fill="none" xmlns="http://www.w3.org/2000/svg">

<g filter="url(#filter0_d_2051_2245)">
<rect x="20" y="20" width="255" height="55" rx="8" fill="#F00000"/>
</g>
<g filter="url(#filter1_d_2051_2245)">
<path d="M112.296 54V40.59H114.204L121.584 50.526L120.594 50.724V40.59H123.042V54H121.116L113.844 43.992L114.744 43.794V54H112.296ZM130.228 54.216C129.268 54.216 128.392 53.994 127.6 53.55C126.82 53.106 126.196 52.5 125.728 51.732C125.272 50.964 125.044 50.088 125.044 49.104C125.044 48.12 125.272 47.244 125.728 46.476C126.196 45.708 126.82 45.102 127.6 44.658C128.38 44.214 129.256 43.992 130.228 43.992C131.188 43.992 132.058 44.214 132.838 44.658C133.618 45.102 134.236 45.708 134.692 46.476C135.16 47.232 135.394 48.108 135.394 49.104C135.394 50.088 135.16 50.964 134.692 51.732C134.224 52.5 133.6 53.106 132.82 53.55C132.04 53.994 131.176 54.216 130.228 54.216ZM130.228 52.056C130.756 52.056 131.218 51.93 131.614 51.678C132.022 51.426 132.34 51.078 132.568 50.634C132.808 50.178 132.928 49.668 132.928 49.104C132.928 48.528 132.808 48.024 132.568 47.592C132.34 47.148 132.022 46.8 131.614 46.548C131.218 46.284 130.756 46.152 130.228 46.152C129.688 46.152 129.214 46.284 128.806 46.548C128.398 46.8 128.074 47.148 127.834 47.592C127.606 48.024 127.492 48.528 127.492 49.104C127.492 49.668 127.606 50.178 127.834 50.634C128.074 51.078 128.398 51.426 128.806 51.678C129.214 51.93 129.688 52.056 130.228 52.056ZM141.47 54.108C140.366 54.108 139.508 53.808 138.896 53.208C138.296 52.596 137.996 51.738 137.996 50.634V46.314H136.304V44.208H136.484C136.964 44.208 137.336 44.082 137.6 43.83C137.864 43.578 137.996 43.212 137.996 42.732V41.976H140.354V44.208H142.604V46.314H140.354V50.508C140.354 50.832 140.408 51.108 140.516 51.336C140.636 51.564 140.816 51.738 141.056 51.858C141.308 51.978 141.626 52.038 142.01 52.038C142.094 52.038 142.19 52.032 142.298 52.02C142.418 52.008 142.532 51.996 142.64 51.984V54C142.472 54.024 142.28 54.048 142.064 54.072C141.848 54.096 141.65 54.108 141.47 54.108ZM146.741 54L151.367 40.59H154.535L159.161 54H156.497L155.543 51.12H150.359L149.387 54H146.741ZM151.061 48.96H154.841L152.609 42.282H153.293L151.061 48.96ZM160.455 57.6V44.208H162.669V46.152L162.453 45.666C162.789 45.138 163.245 44.73 163.821 44.442C164.397 44.142 165.063 43.992 165.819 43.992C166.743 43.992 167.577 44.22 168.321 44.676C169.065 45.132 169.653 45.744 170.085 46.512C170.529 47.28 170.751 48.144 170.751 49.104C170.751 50.052 170.535 50.916 170.103 51.696C169.671 52.476 169.083 53.094 168.339 53.55C167.595 53.994 166.749 54.216 165.801 54.216C165.093 54.216 164.439 54.078 163.839 53.802C163.251 53.514 162.783 53.106 162.435 52.578L162.813 52.11V57.6H160.455ZM165.531 52.056C166.071 52.056 166.551 51.93 166.971 51.678C167.391 51.426 167.715 51.078 167.943 50.634C168.183 50.19 168.303 49.68 168.303 49.104C168.303 48.528 168.183 48.024 167.943 47.592C167.715 47.148 167.391 46.8 166.971 46.548C166.551 46.284 166.071 46.152 165.531 46.152C165.015 46.152 164.547 46.278 164.127 46.53C163.719 46.782 163.395 47.136 163.155 47.592C162.927 48.036 162.813 48.54 162.813 49.104C162.813 49.68 162.927 50.19 163.155 50.634C163.395 51.078 163.719 51.426 164.127 51.678C164.547 51.93 165.015 52.056 165.531 52.056ZM172.549 57.6V44.208H174.763V46.152L174.547 45.666C174.883 45.138 175.339 44.73 175.915 44.442C176.491 44.142 177.157 43.992 177.913 43.992C178.837 43.992 179.671 44.22 180.415 44.676C181.159 45.132 181.747 45.744 182.179 46.512C182.623 47.28 182.845 48.144 182.845 49.104C182.845 50.052 182.629 50.916 182.197 51.696C181.765 52.476 181.177 53.094 180.433 53.55C179.689 53.994 178.843 54.216 177.895 54.216C177.187 54.216 176.533 54.078 175.933 53.802C175.345 53.514 174.877 53.106 174.529 52.578L174.907 52.11V57.6H172.549ZM177.625 52.056C178.165 52.056 178.645 51.93 179.065 51.678C179.485 51.426 179.809 51.078 180.037 50.634C180.277 50.19 180.397 49.68 180.397 49.104C180.397 48.528 180.277 48.024 180.037 47.592C179.809 47.148 179.485 46.8 179.065 46.548C178.645 46.284 178.165 46.152 177.625 46.152C177.109 46.152 176.641 46.278 176.221 46.53C175.813 46.782 175.489 47.136 175.249 47.592C175.021 48.036 174.907 48.54 174.907 49.104C174.907 49.68 175.021 50.19 175.249 50.634C175.489 51.078 175.813 51.426 176.221 51.678C176.641 51.93 177.109 52.056 177.625 52.056ZM184.643 54V40.374H187.001V54H184.643ZM189.178 54V44.208H191.536V54H189.178ZM189.178 43.11V40.59H191.536V43.11H189.178ZM198.357 54.216C197.349 54.216 196.467 53.988 195.711 53.532C194.955 53.076 194.367 52.458 193.947 51.678C193.527 50.898 193.317 50.034 193.317 49.086C193.317 48.102 193.527 47.232 193.947 46.476C194.379 45.708 194.961 45.102 195.693 44.658C196.437 44.214 197.265 43.992 198.177 43.992C198.945 43.992 199.617 44.118 200.193 44.37C200.781 44.622 201.279 44.97 201.687 45.414C202.095 45.858 202.407 46.368 202.623 46.944C202.839 47.508 202.947 48.12 202.947 48.78C202.947 48.948 202.935 49.122 202.911 49.302C202.899 49.482 202.869 49.638 202.821 49.77H195.261V47.97H201.489L200.373 48.816C200.481 48.264 200.451 47.772 200.283 47.34C200.127 46.908 199.863 46.566 199.491 46.314C199.131 46.062 198.693 45.936 198.177 45.936C197.685 45.936 197.247 46.062 196.863 46.314C196.479 46.554 196.185 46.914 195.981 47.394C195.789 47.862 195.717 48.432 195.765 49.104C195.717 49.704 195.795 50.238 195.999 50.706C196.215 51.162 196.527 51.516 196.935 51.768C197.355 52.02 197.835 52.146 198.375 52.146C198.915 52.146 199.371 52.032 199.743 51.804C200.127 51.576 200.427 51.27 200.643 50.886L202.551 51.822C202.359 52.29 202.059 52.704 201.651 53.064C201.243 53.424 200.757 53.706 200.193 53.91C199.641 54.114 199.029 54.216 198.357 54.216ZM209.289 54.216C208.341 54.216 207.495 53.994 206.751 53.55C206.007 53.094 205.419 52.476 204.987 51.696C204.555 50.916 204.339 50.052 204.339 49.104C204.339 48.144 204.555 47.28 204.987 46.512C205.419 45.744 206.007 45.132 206.751 44.676C207.507 44.22 208.347 43.992 209.271 43.992C210.015 43.992 210.675 44.142 211.251 44.442C211.839 44.73 212.301 45.138 212.637 45.666L212.277 46.152V40.374H214.635V54H212.403V52.11L212.655 52.578C212.319 53.106 211.851 53.514 211.251 53.802C210.651 54.078 209.997 54.216 209.289 54.216ZM209.541 52.056C210.081 52.056 210.555 51.93 210.963 51.678C211.371 51.426 211.689 51.078 211.917 50.634C212.157 50.19 212.277 49.68 212.277 49.104C212.277 48.54 212.157 48.036 211.917 47.592C211.689 47.136 211.371 46.782 210.963 46.53C210.555 46.278 210.081 46.152 209.541 46.152C209.013 46.152 208.539 46.284 208.119 46.548C207.699 46.8 207.369 47.148 207.129 47.592C206.901 48.024 206.787 48.528 206.787 49.104C206.787 49.68 206.901 50.19 207.129 50.634C207.369 51.078 207.699 51.426 208.119 51.678C208.539 51.93 209.013 52.056 209.541 52.056Z" fill="white"/>
</g>
<g filter="url(#filter2_d_2051_2245)">
<path d="M88 61C79.7157 61 73 54.2842 73 46C73 37.7157 79.7157 31 88 31C96.2842 31 103 37.7157 103 46C103 54.2842 96.2842 61 88 61ZM88 43.8787L83.7574 39.636L81.636 41.7574L85.8787 46L81.636 50.2426L83.7574 52.3639L88 48.1213L92.2426 52.3639L94.3639 50.2426L90.1213 46L94.3639 41.7574L92.2426 39.636L88 43.8787Z" fill="white" transform="translate(-15,0)"/>
</g>

<defs>
<filter id="filter0_d_2051_2245" x="16" y="20" width="257" height="60" filterUnits="userSpaceOnUse" color-interpolation-filters="sRGB">
<feFlood flood-opacity="0" result="BackgroundImageFix"/>
<feColorMatrix in="SourceAlpha" type="matrix" values="0 0 0 0 0 0 0 0 0 0 0 0 0 0 0 0 0 0 127 0" result="hardAlpha"/>
<feOffset dy="4"/>
<feGaussianBlur stdDeviation="2"/>
<feComposite in2="hardAlpha" operator="out"/>
<feColorMatrix type="matrix" values="0 0 0 0 0 0 0 0 0 0 0 0 0 0 0 0 0 0 0.25 0"/>
<feBlend mode="normal" in2="BackgroundImageFix" result="effect1_dropShadow_2051_2245"/>
<feBlend mode="normal" in="SourceGraphic" in2="effect1_dropShadow_2051_2245" result="shape"/>
</filter>
<filter id="filter1_d_2051_2245" x="108.296" y="40.374" width="110.339" height="25.226" filterUnits="userSpaceOnUse" color-interpolation-filters="sRGB">
<feFlood flood-opacity="0" result="BackgroundImageFix"/>
<feColorMatrix in="SourceAlpha" type="matrix" values="0 0 0 0 0 0 0 0 0 0 0 0 0 0 0 0 0 0 127 0" result="hardAlpha"/>
<feOffset dy="4"/>
<feGaussianBlur stdDeviation="2"/>
<feComposite in2="hardAlpha" operator="out"/>
<feColorMatrix type="matrix" values="0 0 0 0 0 0 0 0 0 0 0 0 0 0 0 0 0 0 0.25 0"/>
<feBlend mode="normal" in2="BackgroundImageFix" result="effect1_dropShadow_2051_2245"/>
<feBlend mode="normal" in="SourceGraphic" in2="effect1_dropShadow_2051_2245" result="shape"/>
</filter>
<filter id="filter2_d_2051_2245" x="49" y="31" width="68" height="38" filterUnits="userSpaceOnUse" color-interpolation-filters="sRGB">
<feFlood flood-opacity="0" result="BackgroundImageFix"/>
<feColorMatrix in="SourceAlpha" type="matrix" values="0 0 0 0 0 0 0 0 0 0 0 0 0 0 0 0 0 0 127 0" result="hardAlpha"/>
<feOffset dy="4"/>
<feGaussianBlur stdDeviation="2"/>
<feComposite in2="hardAlpha" operator="out"/>
<feColorMatrix type="matrix" values="0 0 0 0 0 0 0 0 0 0 0 0 0 0 0 0 0 0 0.25 0"/>
<feBlend mode="normal" in2="BackgroundImageFix" result="effect1_dropShadow_2051_2245"/>
<feBlend mode="normal" in="SourceGraphic" in2="effect1_dropShadow_2051_2245" result="shape"/>
</filter>
<filter id="filter3_i_2051_2245" x="20" y="92" width="249" height="56" filterUnits="userSpaceOnUse" color-interpolation-filters="sRGB">
<feFlood flood-opacity="0" result="BackgroundImageFix"/>
<feBlend mode="normal" in="SourceGraphic" in2="BackgroundImageFix" result="shape"/>
<feColorMatrix in="SourceAlpha" type="matrix" values="0 0 0 0 0 0 0 0 0 0 0 0 0 0 0 0 0 0 127 0" result="hardAlpha"/>
<feOffset dy="4"/>
<feGaussianBlur stdDeviation="2"/>
<feComposite in2="hardAlpha" operator="arithmetic" k2="-1" k3="1"/>
<feColorMatrix type="matrix" values="0 0 0 0 0 0 0 0 0 0 0 0 0 0 0 0 0 0 0.25 0"/>
<feBlend mode="normal" in2="shape" result="effect1_innerShadow_2051_2245"/>
</filter>
</defs>
</svg>
