<svg height="612pt" viewBox="-19 -21 612.00208 612" width="612pt" xmlns="http://www.w3.org/2000/svg"><path d="m212.414062 383.445312c-22.835937-.03125-41.339843-18.53125-41.367187-41.363281v-187.4375c.003906-1.921875.140625-3.839843.410156-5.746093-20.410156 2.890624-35.59375 20.347656-35.617187 40.964843v187.425781c.027344 22.835938 18.53125 41.335938 41.363281 41.367188h231.273437l16.246094-35.210938zm0 0" fill="#d4e1f4"/><path d="m437.917969 184.957031v199.957031c-.019531 18.625-15.113281 33.722657-33.742188 33.742188h-234.597656c-18.628906-.019531-33.722656-15.117188-33.742187-33.742188v-199.957031c.019531-18.628906 15.113281-33.722656 33.742187-33.742187h234.597656c18.628907.019531 33.722657 15.113281 33.742188 33.742187zm-17.496094 199.957031v-148.117187h-267.089844v148.117187c.003907 8.96875 7.273438 16.234376 16.246094 16.246094h234.597656c8.964844-.011718 16.234375-7.277344 16.246094-16.246094zm0-165.613281v-34.34375c-.011719-8.972656-7.28125-16.242187-16.246094-16.246093h-234.597656c-8.972656.003906-16.242187 7.273437-16.246094 16.246093v34.34375zm0 0" fill="#0635c9"/><g fill="#1ae5be"><path d="m565.003906 276.1875c-4.832031 0-8.75 3.914062-8.75 8.746094 0 62.585937-26.96875 129.917968-72.144531 180.109375-50.742187 56.378906-120.125 87.421875-195.398437 87.421875-47.074219 0-94.203126-13.347656-136.292969-38.59375-30.449219-18.296875-57.308594-41.980469-79.269531-69.898438l81.753906 2.699219c3.164062.167969 6.160156-1.390625 7.851562-4.066406 1.6875-2.679688 1.800782-6.058594.292969-8.839844-1.511719-2.785156-4.40625-4.53125-7.566406-4.574219l-96.367188-3.171875c-3.40625-1.847656-7.617187-1.238281-10.355469 1.5-2.738281 2.742188-3.351562 6.953125-1.507812 10.355469l3.179688 96.367188c.042968 3.164062 1.789062 6.058593 4.574218 7.566406 2.78125 1.507812 6.160156 1.394531 8.835938-.292969 2.679687-1.683594 4.230468-4.6875 4.070312-7.851563l-2.339844-71.234374c22.117188 26.285156 48.417969 48.730468 77.851563 66.4375 44.800781 26.882812 95.050781 41.09375 145.289063 41.09375 80.296874 0 154.304687-33.109376 208.40625-93.21875 24.160156-26.960938 43.371093-57.980469 56.75-91.617188 13.011718-32.855469 19.882812-67.496094 19.882812-100.191406 0-4.832032-3.917969-8.746094-8.746094-8.746094zm0 0"/><path d="m285.035156 17.40625c47.078125 0 94.207032 13.347656 136.300782 38.589844 30.441406 18.296875 57.304687 41.984375 79.269531 69.898437l-81.761719-2.703125c-3.15625-.160156-6.160156 1.398438-7.847656 4.074219s-1.796875 6.050781-.289063 8.835937c1.507813 2.78125 4.402344 4.527344 7.566407 4.578126l96.367187 3.171874c3.402344 1.847657 7.613281 1.234376 10.351563-1.503906 2.738281-2.738281 3.351562-6.949218 1.503906-10.359375l-3.171875-96.363281c-.042969-3.164062-1.796875-6.054688-4.574219-7.566406-2.785156-1.507813-6.167969-1.398438-8.839844.292968-2.675781 1.6875-4.234375 4.691407-4.066406 7.847657l2.332031 71.234375c-22.113281-26.277344-48.417969-48.722656-77.84375-66.433594-44.804687-26.878906-95.054687-41.0898438-145.296875-41.0898438-80.292968 0-154.300781 33.1015628-208.402344 93.2148438-24.160156 26.964844-43.375 57.976562-56.75 91.617188-13.007812 32.855468-19.882812 67.5-19.882812 100.191406 0 4.828125 3.914062 8.75 8.75 8.75 4.832031 0 8.746094-3.921875 8.746094-8.75 0-62.585938 26.96875-129.921875 72.148437-180.109375 50.734375-56.375 120.125-87.417969 195.390625-87.417969zm0 0"/><path d="m389.203125 253.101562h-78.261719c-4.828125 0-8.746094 3.917969-8.746094 8.746094 0 4.835938 3.917969 8.75 8.746094 8.75h78.261719c4.832031 0 8.746094-3.914062 8.746094-8.75 0-4.828125-3.914063-8.746094-8.746094-8.746094zm0 0"/><path d="m389.203125 289.117188h-78.261719c-4.828125 0-8.746094 3.921874-8.746094 8.75 0 4.832031 3.917969 8.746093 8.746094 8.746093h78.261719c4.832031 0 8.746094-3.914062 8.746094-8.746093 0-4.828126-3.914063-8.75-8.746094-8.75zm0 0"/><path d="m389.203125 325.125h-78.261719c-4.828125 0-8.746094 3.917969-8.746094 8.75 0 4.828125 3.917969 8.746094 8.746094 8.746094h78.261719c4.832031 0 8.746094-3.917969 8.746094-8.746094 0-4.832031-3.914063-8.75-8.746094-8.75zm0 0"/><path d="m389.203125 361.128906h-78.261719c-4.828125 0-8.746094 3.914063-8.746094 8.75 0 4.832032 3.917969 8.746094 8.746094 8.746094h78.261719c4.832031 0 8.746094-3.914062 8.746094-8.746094 0-4.835937-3.914063-8.75-8.746094-8.75zm0 0"/><path d="m288.011719 213.699219c10.609375-.011719 19.214843-8.601563 19.261719-19.207031v-.050782c.007812-10.625-8.589844-19.253906-19.210938-19.28125h-.0625c-10.644531-.015625-19.285156 8.601563-19.292969 19.242188-.015625 10.644531 8.601563 19.285156 19.242188 19.296875zm-1.773438-19.28125c-.007812-.46875.183594-.917969.527344-1.238281.324219-.339844.773437-.527344 1.246094-.523438.476562-.015625.929687.175781 1.25.523438.332031.328124.519531.777343.515625 1.246093.003906.476563-.1875.929688-.527344 1.25-.324219.347657-.777344.539063-1.25.527344-.976562-.011719-1.761719-.808594-1.761719-1.785156zm0 0"/><path d="m174.25 369.878906c0 4.832032 3.914062 8.746094 8.746094 8.746094h90.359375c4.832031 0 8.746093-3.914062 8.746093-8.746094v-108.03125c0-4.828125-3.914062-8.746094-8.746093-8.746094h-90.359375c-4.828125.007813-8.742188 3.917969-8.746094 8.746094zm17.496094-99.28125h72.859375v90.53125h-72.859375zm0 0"/><path d="m240.757812 213.550781c10.621094.003907 19.242188-8.589843 19.273438-19.210937v-.050782c-.011719-10.617187-8.59375-19.226562-19.210938-19.28125h-.0625c-10.640624-.019531-19.28125 8.597657-19.300781 19.238282-.015625 10.644531 8.59375 19.285156 19.242188 19.304687zm-1.773437-19.273437c0-.46875.191406-.917969.523437-1.25.332032-.332032.78125-.523438 1.25-.523438.980469.003906 1.773438.796875 1.777344 1.773438.003906.476562-.1875.929687-.527344 1.261718-.507812.503907-1.269531.65625-1.929687.378907-.664063-.273438-1.09375-.925781-1.09375-1.640625zm0 0"/><path d="m193.457031 213.398438h.066407c10.613281-.003907 19.21875-8.59375 19.257812-19.207032v-.078125c-.015625-10.601562-8.59375-19.203125-19.199219-19.242187h-.058593c-10.644532-.019532-19.285157 8.59375-19.296876 19.234375-.019531 10.636719 8.589844 19.277343 19.230469 19.292969zm-1.183593-20.519532c.328124-.335937.78125-.519531 1.25-.511718.964843 0 1.75.78125 1.761718 1.746093v.027344c0 .46875-.1875.917969-.519531 1.25-.332031.324219-.78125.511719-1.242187.511719h-.015626c-.976562-.003906-1.761718-.796875-1.761718-1.773438-.003906-.472656.183594-.921875.527344-1.25zm0 0"/></g></svg>