<svg width="270" height="80" viewBox="18 106 270 80" fill="none" xmlns="http://www.w3.org/2000/svg">
<g filter="url(#filter3_i_2051_2203)">
<rect x="20" y="107.558" width="249" height="67.5581" rx="8" fill="#7D7D7D"/>
</g>
<path d="M60.5904 136.587C59.6148 137.03 59.0092 137.82 59.0001 138.938C58.9938 139.72 59.4807 140.769 60.4563 141.198C60.8581 141.376 66.5003 142.198 66.5003 142.198C66.5003 142.198 67.9937 147.312 68.5319 149.109C68.6878 149.629 68.7766 149.884 69.1186 150.224C69.6988 150.799 70.6796 150.618 71.1038 150.157C72.2261 148.938 74 147.058 74 147.058L74.7466 147.716C74.7466 147.716 78.0617 150.581 79.8738 151.93C80.9408 152.724 81.6813 153.553 82.8822 153.558C83.4939 153.561 84.4751 153.231 85.1237 152.427C85.5522 151.896 85.8272 151.046 85.9335 150.284C86.1753 148.553 89.012 129.84 89 129.185C88.9808 128.14 88.1694 127.552 87.495 127.558C87.0714 127.563 86.7224 127.696 85.9457 127.953C79.9376 129.94 60.9883 136.406 60.5904 136.587ZM83 132.433C83 132.433 75.083 139.898 71.9194 143.334C70.9058 144.434 70.8343 146.322 70.8343 146.322L69.199 140.654L83 132.433Z" fill="white"/>
<path d="M117.592 138.774C116.74 138.774 115.948 138.618 115.216 138.306C114.496 137.994 113.872 137.562 113.344 137.01C112.828 136.446 112.45 135.792 112.21 135.048L114.244 134.166C114.568 134.934 115.036 135.54 115.648 135.984C116.26 136.416 116.95 136.632 117.718 136.632C118.15 136.632 118.522 136.566 118.834 136.434C119.158 136.29 119.404 136.098 119.572 135.858C119.752 135.618 119.842 135.33 119.842 134.994C119.842 134.598 119.722 134.274 119.482 134.022C119.254 133.758 118.906 133.554 118.438 133.41L115.864 132.582C114.82 132.258 114.034 131.772 113.506 131.124C112.978 130.476 112.714 129.714 112.714 128.838C112.714 128.07 112.9 127.392 113.272 126.804C113.656 126.216 114.184 125.76 114.856 125.436C115.54 125.1 116.32 124.932 117.196 124.932C118 124.932 118.738 125.076 119.41 125.364C120.082 125.64 120.658 126.03 121.138 126.534C121.63 127.026 121.996 127.608 122.236 128.28L120.22 129.18C119.956 128.508 119.56 127.992 119.032 127.632C118.504 127.26 117.892 127.074 117.196 127.074C116.788 127.074 116.428 127.146 116.116 127.29C115.804 127.422 115.558 127.614 115.378 127.866C115.21 128.106 115.126 128.394 115.126 128.73C115.126 129.102 115.246 129.432 115.486 129.72C115.726 129.996 116.092 130.212 116.584 130.368L119.05 131.142C120.118 131.49 120.916 131.97 121.444 132.582C121.984 133.194 122.254 133.95 122.254 134.85C122.254 135.618 122.056 136.296 121.66 136.884C121.264 137.472 120.718 137.934 120.022 138.27C119.326 138.606 118.516 138.774 117.592 138.774ZM127.142 138.774C126.458 138.774 125.864 138.66 125.36 138.432C124.856 138.204 124.466 137.88 124.19 137.46C123.914 137.028 123.776 136.53 123.776 135.966C123.776 135.426 123.896 134.946 124.136 134.526C124.376 134.094 124.748 133.734 125.252 133.446C125.756 133.158 126.392 132.954 127.16 132.834L130.364 132.312V134.112L127.61 134.58C127.142 134.664 126.794 134.814 126.566 135.03C126.338 135.246 126.224 135.528 126.224 135.876C126.224 136.212 126.35 136.482 126.602 136.686C126.866 136.878 127.19 136.974 127.574 136.974C128.066 136.974 128.498 136.872 128.87 136.668C129.254 136.452 129.548 136.158 129.752 135.786C129.968 135.414 130.076 135.006 130.076 134.562V132.042C130.076 131.622 129.908 131.274 129.572 130.998C129.248 130.71 128.816 130.566 128.276 130.566C127.772 130.566 127.322 130.704 126.926 130.98C126.542 131.244 126.26 131.598 126.08 132.042L124.154 131.106C124.346 130.59 124.646 130.146 125.054 129.774C125.474 129.39 125.966 129.09 126.53 128.874C127.094 128.658 127.706 128.55 128.366 128.55C129.17 128.55 129.878 128.7 130.49 129C131.102 129.288 131.576 129.696 131.912 130.224C132.26 130.74 132.434 131.346 132.434 132.042V138.558H130.202V136.884L130.706 136.848C130.454 137.268 130.154 137.622 129.806 137.91C129.458 138.186 129.062 138.402 128.618 138.558C128.174 138.702 127.682 138.774 127.142 138.774ZM137.39 138.558L133.538 128.766H136.112L138.902 136.47H137.948L140.756 128.766H143.33L139.478 138.558H137.39ZM149.101 138.774C148.093 138.774 147.211 138.546 146.455 138.09C145.699 137.634 145.111 137.016 144.691 136.236C144.271 135.456 144.061 134.592 144.061 133.644C144.061 132.66 144.271 131.79 144.691 131.034C145.123 130.266 145.705 129.66 146.437 129.216C147.181 128.772 148.009 128.55 148.921 128.55C149.689 128.55 150.361 128.676 150.937 128.928C151.525 129.18 152.023 129.528 152.431 129.972C152.839 130.416 153.151 130.926 153.367 131.502C153.583 132.066 153.691 132.678 153.691 133.338C153.691 133.506 153.679 133.68 153.655 133.86C153.643 134.04 153.613 134.196 153.565 134.328H146.005V132.528H152.233L151.117 133.374C151.225 132.822 151.195 132.33 151.027 131.898C150.871 131.466 150.607 131.124 150.235 130.872C149.875 130.62 149.437 130.494 148.921 130.494C148.429 130.494 147.991 130.62 147.607 130.872C147.223 131.112 146.929 131.472 146.725 131.952C146.533 132.42 146.461 132.99 146.509 133.662C146.461 134.262 146.539 134.796 146.743 135.264C146.959 135.72 147.271 136.074 147.679 136.326C148.099 136.578 148.579 136.704 149.119 136.704C149.659 136.704 150.115 136.59 150.487 136.362C150.871 136.134 151.171 135.828 151.387 135.444L153.295 136.38C153.103 136.848 152.803 137.262 152.395 137.622C151.987 137.982 151.501 138.264 150.937 138.468C150.385 138.672 149.773 138.774 149.101 138.774ZM163.124 138.774C162.296 138.774 161.57 138.624 160.946 138.324C160.322 138.024 159.83 137.604 159.47 137.064C159.122 136.512 158.948 135.87 158.948 135.138C158.948 134.526 159.056 133.998 159.272 133.554C159.5 133.098 159.776 132.714 160.1 132.402C160.424 132.078 160.742 131.814 161.054 131.61C161.378 131.406 161.648 131.244 161.864 131.124L163.034 130.494C163.418 130.29 163.766 130.086 164.078 129.882C164.402 129.666 164.66 129.432 164.852 129.18C165.044 128.916 165.14 128.61 165.14 128.262C165.14 127.866 165.008 127.536 164.744 127.272C164.492 126.996 164.168 126.858 163.772 126.858C163.388 126.858 163.058 126.996 162.782 127.272C162.518 127.536 162.386 127.872 162.386 128.28C162.386 128.58 162.452 128.874 162.584 129.162C162.728 129.45 162.896 129.72 163.088 129.972C163.28 130.212 163.466 130.428 163.646 130.62L170.756 138.558H167.93L161.936 131.988C161.66 131.688 161.384 131.364 161.108 131.016C160.832 130.656 160.604 130.26 160.424 129.828C160.244 129.396 160.154 128.916 160.154 128.388C160.154 127.692 160.316 127.086 160.64 126.57C160.976 126.042 161.414 125.64 161.954 125.364C162.506 125.076 163.106 124.932 163.754 124.932C164.414 124.932 165.008 125.076 165.536 125.364C166.076 125.652 166.502 126.048 166.814 126.552C167.138 127.056 167.3 127.632 167.3 128.28C167.3 128.94 167.144 129.504 166.832 129.972C166.532 130.428 166.166 130.818 165.734 131.142C165.314 131.454 164.912 131.718 164.528 131.934L163.322 132.654C163.058 132.798 162.776 132.984 162.476 133.212C162.188 133.428 161.942 133.692 161.738 134.004C161.534 134.304 161.432 134.67 161.432 135.102C161.432 135.618 161.588 136.026 161.9 136.326C162.224 136.614 162.662 136.758 163.214 136.758C163.55 136.758 163.85 136.704 164.114 136.596C164.378 136.476 164.612 136.332 164.816 136.164C165.02 135.984 165.194 135.798 165.338 135.606C165.482 135.402 165.614 135.216 165.734 135.048L167.84 131.988H170.306L167.876 135.768C167.696 136.068 167.474 136.392 167.21 136.74C166.946 137.088 166.628 137.418 166.256 137.73C165.884 138.03 165.44 138.282 164.924 138.486C164.42 138.678 163.82 138.774 163.124 138.774ZM181.137 138.774C180.285 138.774 179.493 138.618 178.761 138.306C178.041 137.994 177.417 137.562 176.889 137.01C176.373 136.446 175.995 135.792 175.755 135.048L177.789 134.166C178.113 134.934 178.581 135.54 179.193 135.984C179.805 136.416 180.495 136.632 181.263 136.632C181.695 136.632 182.067 136.566 182.379 136.434C182.703 136.29 182.949 136.098 183.117 135.858C183.297 135.618 183.387 135.33 183.387 134.994C183.387 134.598 183.267 134.274 183.027 134.022C182.799 133.758 182.451 133.554 181.983 133.41L179.409 132.582C178.365 132.258 177.579 131.772 177.051 131.124C176.523 130.476 176.259 129.714 176.259 128.838C176.259 128.07 176.445 127.392 176.817 126.804C177.201 126.216 177.729 125.76 178.401 125.436C179.085 125.1 179.865 124.932 180.741 124.932C181.545 124.932 182.283 125.076 182.955 125.364C183.627 125.64 184.203 126.03 184.683 126.534C185.175 127.026 185.541 127.608 185.781 128.28L183.765 129.18C183.501 128.508 183.105 127.992 182.577 127.632C182.049 127.26 181.437 127.074 180.741 127.074C180.333 127.074 179.973 127.146 179.661 127.29C179.349 127.422 179.103 127.614 178.923 127.866C178.755 128.106 178.671 128.394 178.671 128.73C178.671 129.102 178.791 129.432 179.031 129.72C179.271 129.996 179.637 130.212 180.129 130.368L182.595 131.142C183.663 131.49 184.461 131.97 184.989 132.582C185.529 133.194 185.799 133.95 185.799 134.85C185.799 135.618 185.601 136.296 185.205 136.884C184.809 137.472 184.263 137.934 183.567 138.27C182.871 138.606 182.061 138.774 181.137 138.774ZM192.449 138.774C191.441 138.774 190.559 138.546 189.803 138.09C189.047 137.634 188.459 137.016 188.039 136.236C187.619 135.456 187.409 134.592 187.409 133.644C187.409 132.66 187.619 131.79 188.039 131.034C188.471 130.266 189.053 129.66 189.785 129.216C190.529 128.772 191.357 128.55 192.269 128.55C193.037 128.55 193.709 128.676 194.285 128.928C194.873 129.18 195.371 129.528 195.779 129.972C196.187 130.416 196.499 130.926 196.715 131.502C196.931 132.066 197.039 132.678 197.039 133.338C197.039 133.506 197.027 133.68 197.003 133.86C196.991 134.04 196.961 134.196 196.913 134.328H189.353V132.528H195.581L194.465 133.374C194.573 132.822 194.543 132.33 194.375 131.898C194.219 131.466 193.955 131.124 193.583 130.872C193.223 130.62 192.785 130.494 192.269 130.494C191.777 130.494 191.339 130.62 190.955 130.872C190.571 131.112 190.277 131.472 190.073 131.952C189.881 132.42 189.809 132.99 189.857 133.662C189.809 134.262 189.887 134.796 190.091 135.264C190.307 135.72 190.619 136.074 191.027 136.326C191.447 136.578 191.927 136.704 192.467 136.704C193.007 136.704 193.463 136.59 193.835 136.362C194.219 136.134 194.519 135.828 194.735 135.444L196.643 136.38C196.451 136.848 196.151 137.262 195.743 137.622C195.335 137.982 194.849 138.264 194.285 138.468C193.733 138.672 193.121 138.774 192.449 138.774ZM198.827 138.558V128.766H201.041V130.692L200.861 130.35C201.089 129.762 201.461 129.318 201.977 129.018C202.505 128.706 203.117 128.55 203.813 128.55C204.533 128.55 205.169 128.706 205.721 129.018C206.285 129.33 206.723 129.768 207.035 130.332C207.347 130.884 207.503 131.526 207.503 132.258V138.558H205.145V132.816C205.145 132.384 205.061 132.012 204.893 131.7C204.725 131.388 204.491 131.148 204.191 130.98C203.903 130.8 203.561 130.71 203.165 130.71C202.781 130.71 202.439 130.8 202.139 130.98C201.839 131.148 201.605 131.388 201.437 131.7C201.269 132.012 201.185 132.384 201.185 132.816V138.558H198.827ZM214.05 138.774C213.102 138.774 212.256 138.552 211.512 138.108C210.768 137.652 210.18 137.034 209.748 136.254C209.316 135.474 209.1 134.61 209.1 133.662C209.1 132.702 209.316 131.838 209.748 131.07C210.18 130.302 210.768 129.69 211.512 129.234C212.268 128.778 213.108 128.55 214.032 128.55C214.776 128.55 215.436 128.7 216.012 129C216.6 129.288 217.062 129.696 217.398 130.224L217.038 130.71V124.932H219.396V138.558H217.164V136.668L217.416 137.136C217.08 137.664 216.612 138.072 216.012 138.36C215.412 138.636 214.758 138.774 214.05 138.774ZM214.302 136.614C214.842 136.614 215.316 136.488 215.724 136.236C216.132 135.984 216.45 135.636 216.678 135.192C216.918 134.748 217.038 134.238 217.038 133.662C217.038 133.098 216.918 132.594 216.678 132.15C216.45 131.694 216.132 131.34 215.724 131.088C215.316 130.836 214.842 130.71 214.302 130.71C213.774 130.71 213.3 130.842 212.88 131.106C212.46 131.358 212.13 131.706 211.89 132.15C211.662 132.582 211.548 133.086 211.548 133.662C211.548 134.238 211.662 134.748 211.89 135.192C212.13 135.636 212.46 135.984 212.88 136.236C213.3 136.488 213.774 136.614 214.302 136.614ZM106.734 158.666C105.63 158.666 104.772 158.366 104.16 157.766C103.56 157.154 103.26 156.296 103.26 155.192V150.872H101.568V148.766H101.748C102.228 148.766 102.6 148.64 102.864 148.388C103.128 148.136 103.26 147.77 103.26 147.29V146.534H105.618V148.766H107.868V150.872H105.618V155.066C105.618 155.39 105.672 155.666 105.78 155.894C105.9 156.122 106.08 156.296 106.32 156.416C106.572 156.536 106.89 156.596 107.274 156.596C107.358 156.596 107.454 156.59 107.562 156.578C107.682 156.566 107.796 156.554 107.904 156.542V158.558C107.736 158.582 107.544 158.606 107.328 158.63C107.112 158.654 106.914 158.666 106.734 158.666ZM114.406 158.774C113.446 158.774 112.57 158.552 111.778 158.108C110.998 157.664 110.374 157.058 109.906 156.29C109.45 155.522 109.222 154.646 109.222 153.662C109.222 152.678 109.45 151.802 109.906 151.034C110.374 150.266 110.998 149.66 111.778 149.216C112.558 148.772 113.434 148.55 114.406 148.55C115.366 148.55 116.236 148.772 117.016 149.216C117.796 149.66 118.414 150.266 118.87 151.034C119.338 151.79 119.572 152.666 119.572 153.662C119.572 154.646 119.338 155.522 118.87 156.29C118.402 157.058 117.778 157.664 116.998 158.108C116.218 158.552 115.354 158.774 114.406 158.774ZM114.406 156.614C114.934 156.614 115.396 156.488 115.792 156.236C116.2 155.984 116.518 155.636 116.746 155.192C116.986 154.736 117.106 154.226 117.106 153.662C117.106 153.086 116.986 152.582 116.746 152.15C116.518 151.706 116.2 151.358 115.792 151.106C115.396 150.842 114.934 150.71 114.406 150.71C113.866 150.71 113.392 150.842 112.984 151.106C112.576 151.358 112.252 151.706 112.012 152.15C111.784 152.582 111.67 153.086 111.67 153.662C111.67 154.226 111.784 154.736 112.012 155.192C112.252 155.636 112.576 155.984 112.984 156.236C113.392 156.488 113.866 156.614 114.406 156.614ZM131.057 158.774C130.097 158.774 129.209 158.6 128.393 158.252C127.589 157.904 126.881 157.418 126.269 156.794C125.669 156.17 125.201 155.438 124.865 154.598C124.529 153.758 124.361 152.84 124.361 151.844C124.361 150.848 124.523 149.93 124.847 149.09C125.183 148.238 125.651 147.506 126.251 146.894C126.863 146.27 127.577 145.79 128.393 145.454C129.209 145.106 130.097 144.932 131.057 144.932C132.017 144.932 132.875 145.094 133.631 145.418C134.399 145.742 135.047 146.174 135.575 146.714C136.103 147.242 136.481 147.824 136.709 148.46L134.513 149.486C134.261 148.814 133.835 148.262 133.235 147.83C132.635 147.386 131.909 147.164 131.057 147.164C130.217 147.164 129.473 147.362 128.825 147.758C128.189 148.154 127.691 148.7 127.331 149.396C126.983 150.092 126.809 150.908 126.809 151.844C126.809 152.78 126.983 153.602 127.331 154.31C127.691 155.006 128.189 155.552 128.825 155.948C129.473 156.344 130.217 156.542 131.057 156.542C131.909 156.542 132.635 156.326 133.235 155.894C133.835 155.45 134.261 154.892 134.513 154.22L136.709 155.246C136.481 155.882 136.103 156.47 135.575 157.01C135.047 157.538 134.399 157.964 133.631 158.288C132.875 158.612 132.017 158.774 131.057 158.774ZM143.111 158.774C142.151 158.774 141.275 158.552 140.483 158.108C139.703 157.664 139.079 157.058 138.611 156.29C138.155 155.522 137.927 154.646 137.927 153.662C137.927 152.678 138.155 151.802 138.611 151.034C139.079 150.266 139.703 149.66 140.483 149.216C141.263 148.772 142.139 148.55 143.111 148.55C144.071 148.55 144.941 148.772 145.721 149.216C146.501 149.66 147.119 150.266 147.575 151.034C148.043 151.79 148.277 152.666 148.277 153.662C148.277 154.646 148.043 155.522 147.575 156.29C147.107 157.058 146.483 157.664 145.703 158.108C144.923 158.552 144.059 158.774 143.111 158.774ZM143.111 156.614C143.639 156.614 144.101 156.488 144.497 156.236C144.905 155.984 145.223 155.636 145.451 155.192C145.691 154.736 145.811 154.226 145.811 153.662C145.811 153.086 145.691 152.582 145.451 152.15C145.223 151.706 144.905 151.358 144.497 151.106C144.101 150.842 143.639 150.71 143.111 150.71C142.571 150.71 142.097 150.842 141.689 151.106C141.281 151.358 140.957 151.706 140.717 152.15C140.489 152.582 140.375 153.086 140.375 153.662C140.375 154.226 140.489 154.736 140.717 155.192C140.957 155.636 141.281 155.984 141.689 156.236C142.097 156.488 142.571 156.614 143.111 156.614ZM154.853 158.774C153.893 158.774 153.017 158.552 152.225 158.108C151.445 157.664 150.821 157.058 150.353 156.29C149.897 155.522 149.669 154.646 149.669 153.662C149.669 152.678 149.897 151.802 150.353 151.034C150.821 150.266 151.445 149.66 152.225 149.216C153.005 148.772 153.881 148.55 154.853 148.55C155.813 148.55 156.683 148.772 157.463 149.216C158.243 149.66 158.861 150.266 159.317 151.034C159.785 151.79 160.019 152.666 160.019 153.662C160.019 154.646 159.785 155.522 159.317 156.29C158.849 157.058 158.225 157.664 157.445 158.108C156.665 158.552 155.801 158.774 154.853 158.774ZM154.853 156.614C155.381 156.614 155.843 156.488 156.239 156.236C156.647 155.984 156.965 155.636 157.193 155.192C157.433 154.736 157.553 154.226 157.553 153.662C157.553 153.086 157.433 152.582 157.193 152.15C156.965 151.706 156.647 151.358 156.239 151.106C155.843 150.842 155.381 150.71 154.853 150.71C154.313 150.71 153.839 150.842 153.431 151.106C153.023 151.358 152.699 151.706 152.459 152.15C152.231 152.582 152.117 153.086 152.117 153.662C152.117 154.226 152.231 154.736 152.459 155.192C152.699 155.636 153.023 155.984 153.431 156.236C153.839 156.488 154.313 156.614 154.853 156.614ZM161.807 158.558V148.766H164.021V150.944L163.841 150.62C164.069 149.888 164.423 149.378 164.903 149.09C165.395 148.802 165.983 148.658 166.667 148.658H167.243V150.746H166.397C165.725 150.746 165.185 150.956 164.777 151.376C164.369 151.784 164.165 152.36 164.165 153.104V158.558H161.807ZM173.093 158.774C172.145 158.774 171.299 158.552 170.555 158.108C169.811 157.652 169.223 157.034 168.791 156.254C168.359 155.474 168.143 154.61 168.143 153.662C168.143 152.702 168.359 151.838 168.791 151.07C169.223 150.302 169.811 149.69 170.555 149.234C171.311 148.778 172.151 148.55 173.075 148.55C173.819 148.55 174.479 148.7 175.055 149C175.643 149.288 176.105 149.696 176.441 150.224L176.081 150.71V144.932H178.439V158.558H176.207V156.668L176.459 157.136C176.123 157.664 175.655 158.072 175.055 158.36C174.455 158.636 173.801 158.774 173.093 158.774ZM173.345 156.614C173.885 156.614 174.359 156.488 174.767 156.236C175.175 155.984 175.493 155.636 175.721 155.192C175.961 154.748 176.081 154.238 176.081 153.662C176.081 153.098 175.961 152.594 175.721 152.15C175.493 151.694 175.175 151.34 174.767 151.088C174.359 150.836 173.885 150.71 173.345 150.71C172.817 150.71 172.343 150.842 171.923 151.106C171.503 151.358 171.173 151.706 170.933 152.15C170.705 152.582 170.591 153.086 170.591 153.662C170.591 154.238 170.705 154.748 170.933 155.192C171.173 155.636 171.503 155.984 171.923 156.236C172.343 156.488 172.817 156.614 173.345 156.614ZM180.633 158.558V148.766H182.991V158.558H180.633ZM180.633 147.668V145.148H182.991V147.668H180.633ZM185.168 158.558V148.766H187.382V150.692L187.202 150.35C187.43 149.762 187.802 149.318 188.318 149.018C188.846 148.706 189.458 148.55 190.154 148.55C190.874 148.55 191.51 148.706 192.062 149.018C192.626 149.33 193.064 149.768 193.376 150.332C193.688 150.884 193.844 151.526 193.844 152.258V158.558H191.486V152.816C191.486 152.384 191.402 152.012 191.234 151.7C191.066 151.388 190.832 151.148 190.532 150.98C190.244 150.8 189.902 150.71 189.506 150.71C189.122 150.71 188.78 150.8 188.48 150.98C188.18 151.148 187.946 151.388 187.778 151.7C187.61 152.012 187.526 152.384 187.526 152.816V158.558H185.168ZM198.808 158.774C198.124 158.774 197.53 158.66 197.026 158.432C196.522 158.204 196.132 157.88 195.856 157.46C195.58 157.028 195.442 156.53 195.442 155.966C195.442 155.426 195.562 154.946 195.802 154.526C196.042 154.094 196.414 153.734 196.918 153.446C197.422 153.158 198.058 152.954 198.826 152.834L202.03 152.312V154.112L199.276 154.58C198.808 154.664 198.46 154.814 198.232 155.03C198.004 155.246 197.89 155.528 197.89 155.876C197.89 156.212 198.016 156.482 198.268 156.686C198.532 156.878 198.856 156.974 199.24 156.974C199.732 156.974 200.164 156.872 200.536 156.668C200.92 156.452 201.214 156.158 201.418 155.786C201.634 155.414 201.742 155.006 201.742 154.562V152.042C201.742 151.622 201.574 151.274 201.238 150.998C200.914 150.71 200.482 150.566 199.942 150.566C199.438 150.566 198.988 150.704 198.592 150.98C198.208 151.244 197.926 151.598 197.746 152.042L195.82 151.106C196.012 150.59 196.312 150.146 196.72 149.774C197.14 149.39 197.632 149.09 198.196 148.874C198.76 148.658 199.372 148.55 200.032 148.55C200.836 148.55 201.544 148.7 202.156 149C202.768 149.288 203.242 149.696 203.578 150.224C203.926 150.74 204.1 151.346 204.1 152.042V158.558H201.868V156.884L202.372 156.848C202.12 157.268 201.82 157.622 201.472 157.91C201.124 158.186 200.728 158.402 200.284 158.558C199.84 158.702 199.348 158.774 198.808 158.774ZM210.568 158.666C209.464 158.666 208.606 158.366 207.994 157.766C207.394 157.154 207.094 156.296 207.094 155.192V150.872H205.402V148.766H205.582C206.062 148.766 206.434 148.64 206.698 148.388C206.962 148.136 207.094 147.77 207.094 147.29V146.534H209.452V148.766H211.702V150.872H209.452V155.066C209.452 155.39 209.506 155.666 209.614 155.894C209.734 156.122 209.914 156.296 210.154 156.416C210.406 156.536 210.724 156.596 211.108 156.596C211.192 156.596 211.288 156.59 211.396 156.578C211.516 156.566 211.63 156.554 211.738 156.542V158.558C211.57 158.582 211.378 158.606 211.162 158.63C210.946 158.654 210.748 158.666 210.568 158.666ZM218.24 158.774C217.28 158.774 216.404 158.552 215.612 158.108C214.832 157.664 214.208 157.058 213.74 156.29C213.284 155.522 213.056 154.646 213.056 153.662C213.056 152.678 213.284 151.802 213.74 151.034C214.208 150.266 214.832 149.66 215.612 149.216C216.392 148.772 217.268 148.55 218.24 148.55C219.2 148.55 220.07 148.772 220.85 149.216C221.63 149.66 222.248 150.266 222.704 151.034C223.172 151.79 223.406 152.666 223.406 153.662C223.406 154.646 223.172 155.522 222.704 156.29C222.236 157.058 221.612 157.664 220.832 158.108C220.052 158.552 219.188 158.774 218.24 158.774ZM218.24 156.614C218.768 156.614 219.23 156.488 219.626 156.236C220.034 155.984 220.352 155.636 220.58 155.192C220.82 154.736 220.94 154.226 220.94 153.662C220.94 153.086 220.82 152.582 220.58 152.15C220.352 151.706 220.034 151.358 219.626 151.106C219.23 150.842 218.768 150.71 218.24 150.71C217.7 150.71 217.226 150.842 216.818 151.106C216.41 151.358 216.086 151.706 215.846 152.15C215.618 152.582 215.504 153.086 215.504 153.662C215.504 154.226 215.618 154.736 215.846 155.192C216.086 155.636 216.41 155.984 216.818 156.236C217.226 156.488 217.7 156.614 218.24 156.614ZM225.194 158.558V148.766H227.408V150.944L227.228 150.62C227.456 149.888 227.81 149.378 228.29 149.09C228.782 148.802 229.37 148.658 230.054 148.658H230.63V150.746H229.784C229.112 150.746 228.572 150.956 228.164 151.376C227.756 151.784 227.552 152.36 227.552 153.104V158.558H225.194Z" fill="white"/>
<defs>
<filter id="filter0_d_2051_2203" x="16" y="20" width="257" height="75.5581" filterUnits="userSpaceOnUse" color-interpolation-filters="sRGB">
<feFlood flood-opacity="0" result="BackgroundImageFix"/>
<feColorMatrix in="SourceAlpha" type="matrix" values="0 0 0 0 0 0 0 0 0 0 0 0 0 0 0 0 0 0 127 0" result="hardAlpha"/>
<feOffset dy="4"/>
<feGaussianBlur stdDeviation="2"/>
<feComposite in2="hardAlpha" operator="out"/>
<feColorMatrix type="matrix" values="0 0 0 0 0 0 0 0 0 0 0 0 0 0 0 0 0 0 0.25 0"/>
<feBlend mode="normal" in2="BackgroundImageFix" result="effect1_dropShadow_2051_2203"/>
<feBlend mode="normal" in="SourceGraphic" in2="effect1_dropShadow_2051_2203" result="shape"/>
</filter>
<filter id="filter1_d_2051_2203" x="55" y="40" width="38" height="34" filterUnits="userSpaceOnUse" color-interpolation-filters="sRGB">
<feFlood flood-opacity="0" result="BackgroundImageFix"/>
<feColorMatrix in="SourceAlpha" type="matrix" values="0 0 0 0 0 0 0 0 0 0 0 0 0 0 0 0 0 0 127 0" result="hardAlpha"/>
<feOffset dy="4"/>
<feGaussianBlur stdDeviation="2"/>
<feComposite in2="hardAlpha" operator="out"/>
<feColorMatrix type="matrix" values="0 0 0 0 0 0 0 0 0 0 0 0 0 0 0 0 0 0 0.25 0"/>
<feBlend mode="normal" in2="BackgroundImageFix" result="effect1_dropShadow_2051_2203"/>
<feBlend mode="normal" in="SourceGraphic" in2="effect1_dropShadow_2051_2203" result="shape"/>
</filter>
<filter id="filter2_d_2051_2203" x="97.5679" y="37.374" width="137.062" height="41.842" filterUnits="userSpaceOnUse" color-interpolation-filters="sRGB">
<feFlood flood-opacity="0" result="BackgroundImageFix"/>
<feColorMatrix in="SourceAlpha" type="matrix" values="0 0 0 0 0 0 0 0 0 0 0 0 0 0 0 0 0 0 127 0" result="hardAlpha"/>
<feOffset dy="4"/>
<feGaussianBlur stdDeviation="2"/>
<feComposite in2="hardAlpha" operator="out"/>
<feColorMatrix type="matrix" values="0 0 0 0 0 0 0 0 0 0 0 0 0 0 0 0 0 0 0.25 0"/>
<feBlend mode="normal" in2="BackgroundImageFix" result="effect1_dropShadow_2051_2203"/>
<feBlend mode="normal" in="SourceGraphic" in2="effect1_dropShadow_2051_2203" result="shape"/>
</filter>
<filter id="filter3_i_2051_2203" x="20" y="107.558" width="249" height="71.5581" filterUnits="userSpaceOnUse" color-interpolation-filters="sRGB">
<feFlood flood-opacity="0" result="BackgroundImageFix"/>
<feBlend mode="normal" in="SourceGraphic" in2="BackgroundImageFix" result="shape"/>
<feColorMatrix in="SourceAlpha" type="matrix" values="0 0 0 0 0 0 0 0 0 0 0 0 0 0 0 0 0 0 127 0" result="hardAlpha"/>
<feOffset dy="4"/>
<feGaussianBlur stdDeviation="2"/>
<feComposite in2="hardAlpha" operator="arithmetic" k2="-1" k3="1"/>
<feColorMatrix type="matrix" values="0 0 0 0 0 0 0 0 0 0 0 0 0 0 0 0 0 0 0.25 0"/>
<feBlend mode="normal" in2="shape" result="effect1_innerShadow_2051_2203"/>
</filter>
</defs>
</svg>
