<?xml version="1.0" encoding="UTF-8"?>
<svg xmlns="http://www.w3.org/2000/svg" version="1.1" viewBox="0 0 257 60">
  <defs>
    <style>
      .cls-1 {
        fill: blue;
        font-family: Verdana, Verdana;
        font-size: 18px;
        isolation: isolate;
      }

      .cls-2 {
        fill: #f4f4f4;
      }

      .cls-3 {
        fill: #113595;
      }
    </style>
  </defs>
  <!-- Generator: Adobe Illustrator 28.6.0, SVG Export Plug-In . SVG Version: 1.2.0 Build 709)  -->
  <g>
    <g id="Layer_1">
      <g>
        <rect class="cls-2" x="4" width="249" height="52" rx="8" ry="8"/>
        <text class="cls-1" transform="translate(56.1 35)"><tspan x="0" y="0">Save By Coordinator</tspan></text>
        <g>
          <path class="cls-3" d="M23.9,20.4c0,1.4,1.2,2.6,2.6,2.6h9c1.4,0,2.6-1.2,2.6-2.6v-5c0-.2.2-.4.4-.4s.4,0,.6.3l4.4,5.2c.6.7.9,1.6.9,2.6l-.5,13.1c0,2-1.7,3.6-3.7,3.6h-.6c-.4,0-.8-.3-.8-.8v-7.5c0-1.4-1.2-2.6-2.6-2.6h-10.5c-1.4,0-2.6,1.2-2.6,2.6v7.5c0,.4-.3.8-.8.8h-.2c-1.8,0-3.3-1.3-3.6-3.1-.7-5.8-.8-11.6,0-17.4v-.8c.3-1.9,2-3.4,3.9-3.4h.7c.4,0,.8.3.8.8v4.6Z"/>
          <path class="cls-3" d="M25.4,39c0,.4.3.8.8.8h9.8c.4,0,.8-.3.8-.8v-7.5c0-.2-.2-.4-.4-.4h-10.5c-.2,0-.4.2-.4.4v7.5Z"/>
          <path class="cls-3" d="M35.9,15.8c0-.4-.3-.8-.8-.8h-8.2c-.4,0-.8.3-.8.8v4.6c0,.2.2.4.4.4h9c.2,0,.4-.2.4-.4v-4.6Z"/>
        </g>
      </g>
    </g>
  </g>
</svg>