<svg width="290" height="80" viewBox="18 18 290 80" fill="none" xmlns="http://www.w3.org/2000/svg">

<g filter="url(#filter0_d_2051_2203)">
<rect x="20" y="20" width="285" height="67.5581" rx="8" fill="#008B16"/>
<g filter="url(#filter1_d_2051_2203)">
<path d="M60.5904 49.0285C59.6148 49.4721 59.0092 50.2619 59.0001 51.3799C58.9938 52.1615 59.4807 53.2113 60.4563 53.6403C60.8581 53.8174 66.5003 54.6396 66.5003 54.6396C66.5003 54.6396 67.9937 59.7535 68.5319 61.5507C68.6878 62.0707 68.7766 62.3259 69.1186 62.6655C69.6988 63.2407 70.6796 63.0604 71.1038 62.5989C72.2261 61.3801 74 59.5 74 59.5L74.7466 60.1581C74.7466 60.1581 78.0617 63.023 79.8738 64.3717C80.9408 65.1663 81.6813 65.9951 82.8822 66C83.4939 66.0032 84.4751 65.6733 85.1237 64.869C85.5522 64.3376 85.8272 63.4877 85.9335 62.7256C86.1753 60.995 89.012 42.2816 89 41.6267C88.9808 40.5818 88.1694 39.9936 87.495 40.0001C87.0714 40.0049 86.7224 40.1382 85.9457 40.3949C79.9376 42.3823 60.9883 48.8482 60.5904 49.0285ZM83 44.875C83 44.875 75.083 52.3403 71.9194 55.7755C70.9058 56.8756 70.8343 58.7639 70.8343 58.7639L69.199 53.0959L83 44.875Z" fill="white"/>
</g>
<g filter="url(#filter2_d_2051_2203)">
    <text x="110" y="50" font-family="Verdana" font-size="18" fill="white" >Implement &amp; Send</text>
    <text x="120" y="75" font-family="Verdana" font-size="20" fill="white" >to Coordinator</text>
</g>
</g>

<defs>
<filter id="filter0_d_2051_2203" x="16" y="20" width="290" height="75.5581" filterUnits="userSpaceOnUse" color-interpolation-filters="sRGB">
<feFlood flood-opacity="0" result="BackgroundImageFix"/>
<feColorMatrix in="SourceAlpha" type="matrix" values="0 0 0 0 0 0 0 0 0 0 0 0 0 0 0 0 0 0 127 0" result="hardAlpha"/>
<feOffset dy="4"/>
<feGaussianBlur stdDeviation="2"/>
<feComposite in2="hardAlpha" operator="out"/>
<feColorMatrix type="matrix" values="0 0 0 0 0 0 0 0 0 0 0 0 0 0 0 0 0 0 0.25 0"/>
<feBlend mode="normal" in2="BackgroundImageFix" result="effect1_dropShadow_2051_2203"/>
<feBlend mode="normal" in="SourceGraphic" in2="effect1_dropShadow_2051_2203" result="shape"/>
</filter>
<filter id="filter1_d_2051_2203" x="55" y="40" width="38" height="34" filterUnits="userSpaceOnUse" color-interpolation-filters="sRGB">
<feFlood flood-opacity="0" result="BackgroundImageFix"/>
<feColorMatrix in="SourceAlpha" type="matrix" values="0 0 0 0 0 0 0 0 0 0 0 0 0 0 0 0 0 0 127 0" result="hardAlpha"/>
<feOffset dy="4"/>
<feGaussianBlur stdDeviation="2"/>
<feComposite in2="hardAlpha" operator="out"/>
<feColorMatrix type="matrix" values="0 0 0 0 0 0 0 0 0 0 0 0 0 0 0 0 0 0 0.25 0"/>
<feBlend mode="normal" in2="BackgroundImageFix" result="effect1_dropShadow_2051_2203"/>
<feBlend mode="normal" in="SourceGraphic" in2="effect1_dropShadow_2051_2203" result="shape"/>
</filter>
<filter id="filter2_d_2051_2203" x="17.5679" y="30.374" width="280" height="51.842" filterUnits="userSpaceOnUse" color-interpolation-filters="sRGB">
<feFlood flood-opacity="0" result="BackgroundImageFix"/>
<feColorMatrix in="SourceAlpha" type="matrix" values="0 0 0 0 0 0 0 0 0 0 0 0 0 0 0 0 0 0 127 0" result="hardAlpha"/>
<feOffset dy="4"/>
<feGaussianBlur stdDeviation="2"/>
<feComposite in2="hardAlpha" operator="out"/>
<feColorMatrix type="matrix" values="0 0 0 0 0 0 0 0 0 0 0 0 0 0 0 0 0 0 0.25 0"/>
<feBlend mode="normal" in2="BackgroundImageFix" result="effect1_dropShadow_2051_2203"/>
<feBlend mode="normal" in="SourceGraphic" in2="effect1_dropShadow_2051_2203" result="shape"/>
</filter>
<filter id="filter3_i_2051_2203" x="20" y="107.558" width="249" height="71.5581" filterUnits="userSpaceOnUse" color-interpolation-filters="sRGB">
<feFlood flood-opacity="0" result="BackgroundImageFix"/>
<feBlend mode="normal" in="SourceGraphic" in2="BackgroundImageFix" result="shape"/>
<feColorMatrix in="SourceAlpha" type="matrix" values="0 0 0 0 0 0 0 0 0 0 0 0 0 0 0 0 0 0 127 0" result="hardAlpha"/>
<feOffset dy="4"/>
<feGaussianBlur stdDeviation="2"/>
<feComposite in2="hardAlpha" operator="arithmetic" k2="-1" k3="1"/>
<feColorMatrix type="matrix" values="0 0 0 0 0 0 0 0 0 0 0 0 0 0 0 0 0 0 0.25 0"/>
<feBlend mode="normal" in2="shape" result="effect1_innerShadow_2051_2203"/>
</filter>
</defs>
</svg>
