<svg width="449" height="69" viewBox="0 0 449 69" fill="none" xmlns="http://www.w3.org/2000/svg">
<g filter="url(#filter0_i_2051_2170)">
<rect y="0.558105" width="449" height="67.5581" rx="8" fill="#7D7D7D"/>
<path d="M45.5904 29.5868C44.6148 30.0304 44.0092 30.8201 44.0001 31.9381C43.9938 32.7197 44.4807 33.7695 45.4563 34.1985C45.8581 34.3756 51.5003 35.1979 51.5003 35.1979C51.5003 35.1979 52.9937 40.3117 53.5319 42.109C53.6878 42.629 53.7766 42.8841 54.1186 43.2237C54.6988 43.799 55.6796 43.6186 56.1038 43.1571C57.2261 41.9384 59 40.0582 59 40.0582L59.7466 40.7163C59.7466 40.7163 63.0617 43.5812 64.8738 44.9299C65.9408 45.7246 66.6813 46.5533 67.8822 46.5582C68.4939 46.5615 69.4751 46.2316 70.1237 45.4272C70.5522 44.8958 70.8272 44.0459 70.9335 43.2838C71.1753 41.5532 74.012 22.8398 74 22.1849C73.9808 21.14 73.1694 20.5518 72.495 20.5583C72.0714 20.5632 71.7224 20.6964 70.9457 20.9532C64.9376 22.9405 45.9883 29.4064 45.5904 29.5868ZM68 25.4333C68 25.4333 60.083 32.8985 56.9194 36.3337C55.9058 37.4339 55.8343 39.3221 55.8343 39.3221L54.199 33.6541L68 25.4333Z" fill="white"/>
<path d="M98.0918 30.7742C97.2398 30.7742 96.4478 30.6182 95.7158 30.3062C94.9958 29.9942 94.3718 29.5622 93.8438 29.0102C93.3278 28.4462 92.9498 27.7922 92.7098 27.0482L94.7438 26.1662C95.0678 26.9342 95.5358 27.5402 96.1478 27.9842C96.7598 28.4162 97.4498 28.6322 98.2178 28.6322C98.6498 28.6322 99.0218 28.5662 99.3338 28.4342C99.6578 28.2902 99.9038 28.0982 100.072 27.8582C100.252 27.6182 100.342 27.3302 100.342 26.9942C100.342 26.5982 100.222 26.2742 99.9818 26.0222C99.7538 25.7582 99.4058 25.5542 98.9378 25.4102L96.3638 24.5822C95.3198 24.2582 94.5338 23.7722 94.0058 23.1242C93.4778 22.4762 93.2138 21.7142 93.2138 20.8382C93.2138 20.0702 93.3998 19.3922 93.7718 18.8042C94.1558 18.2162 94.6838 17.7602 95.3558 17.4362C96.0398 17.1002 96.8198 16.9322 97.6958 16.9322C98.4998 16.9322 99.2378 17.0762 99.9098 17.3642C100.582 17.6402 101.158 18.0302 101.638 18.5342C102.13 19.0262 102.496 19.6082 102.736 20.2802L100.72 21.1802C100.456 20.5082 100.06 19.9922 99.5318 19.6322C99.0038 19.2602 98.3918 19.0742 97.6958 19.0742C97.2878 19.0742 96.9278 19.1462 96.6158 19.2902C96.3038 19.4222 96.0578 19.6142 95.8778 19.8662C95.7098 20.1062 95.6258 20.3942 95.6258 20.7302C95.6258 21.1022 95.7458 21.4322 95.9858 21.7202C96.2258 21.9962 96.5918 22.2122 97.0838 22.3682L99.5498 23.1422C100.618 23.4902 101.416 23.9702 101.944 24.5822C102.484 25.1942 102.754 25.9502 102.754 26.8502C102.754 27.6182 102.556 28.2962 102.16 28.8842C101.764 29.4722 101.218 29.9342 100.522 30.2702C99.8258 30.6062 99.0158 30.7742 98.0918 30.7742ZM107.642 30.7742C106.958 30.7742 106.364 30.6602 105.86 30.4322C105.356 30.2042 104.966 29.8802 104.69 29.4602C104.414 29.0282 104.276 28.5302 104.276 27.9662C104.276 27.4262 104.396 26.9462 104.636 26.5262C104.876 26.0942 105.248 25.7342 105.752 25.4462C106.256 25.1582 106.892 24.9542 107.66 24.8342L110.864 24.3122V26.1122L108.11 26.5802C107.642 26.6642 107.294 26.8142 107.066 27.0302C106.838 27.2462 106.724 27.5282 106.724 27.8762C106.724 28.2122 106.85 28.4822 107.102 28.6862C107.366 28.8782 107.69 28.9742 108.074 28.9742C108.566 28.9742 108.998 28.8722 109.37 28.6682C109.754 28.4522 110.048 28.1582 110.252 27.7862C110.468 27.4142 110.576 27.0062 110.576 26.5622V24.0422C110.576 23.6222 110.408 23.2742 110.072 22.9982C109.748 22.7102 109.316 22.5662 108.776 22.5662C108.272 22.5662 107.822 22.7042 107.426 22.9802C107.042 23.2442 106.76 23.5982 106.58 24.0422L104.654 23.1062C104.846 22.5902 105.146 22.1462 105.554 21.7742C105.974 21.3902 106.466 21.0902 107.03 20.8742C107.594 20.6582 108.206 20.5502 108.866 20.5502C109.67 20.5502 110.378 20.7002 110.99 21.0002C111.602 21.2882 112.076 21.6962 112.412 22.2242C112.76 22.7402 112.934 23.3462 112.934 24.0422V30.5582H110.702V28.8842L111.206 28.8482C110.954 29.2682 110.654 29.6222 110.306 29.9102C109.958 30.1862 109.562 30.4022 109.118 30.5582C108.674 30.7022 108.182 30.7742 107.642 30.7742ZM117.89 30.5582L114.038 20.7662H116.612L119.402 28.4702H118.448L121.256 20.7662H123.83L119.978 30.5582H117.89ZM129.601 30.7742C128.593 30.7742 127.711 30.5462 126.955 30.0902C126.199 29.6342 125.611 29.0162 125.191 28.2362C124.771 27.4562 124.561 26.5922 124.561 25.6442C124.561 24.6602 124.771 23.7902 125.191 23.0342C125.623 22.2662 126.205 21.6602 126.937 21.2162C127.681 20.7722 128.509 20.5502 129.421 20.5502C130.189 20.5502 130.861 20.6762 131.437 20.9282C132.025 21.1802 132.523 21.5282 132.931 21.9722C133.339 22.4162 133.651 22.9262 133.867 23.5022C134.083 24.0662 134.191 24.6782 134.191 25.3382C134.191 25.5062 134.179 25.6802 134.155 25.8602C134.143 26.0402 134.113 26.1962 134.065 26.3282H126.505V24.5282H132.733L131.617 25.3742C131.725 24.8222 131.695 24.3302 131.527 23.8982C131.371 23.4662 131.107 23.1242 130.735 22.8722C130.375 22.6202 129.937 22.4942 129.421 22.4942C128.929 22.4942 128.491 22.6202 128.107 22.8722C127.723 23.1122 127.429 23.4722 127.225 23.9522C127.033 24.4202 126.961 24.9902 127.009 25.6622C126.961 26.2622 127.039 26.7962 127.243 27.2642C127.459 27.7202 127.771 28.0742 128.179 28.3262C128.599 28.5782 129.079 28.7042 129.619 28.7042C130.159 28.7042 130.615 28.5902 130.987 28.3622C131.371 28.1342 131.671 27.8282 131.887 27.4442L133.795 28.3802C133.603 28.8482 133.303 29.2622 132.895 29.6222C132.487 29.9822 132.001 30.2642 131.437 30.4682C130.885 30.6722 130.273 30.7742 129.601 30.7742ZM143.624 30.7742C142.796 30.7742 142.07 30.6242 141.446 30.3242C140.822 30.0242 140.33 29.6042 139.97 29.0642C139.622 28.5122 139.448 27.8702 139.448 27.1382C139.448 26.5262 139.556 25.9982 139.772 25.5542C140 25.0982 140.276 24.7142 140.6 24.4022C140.924 24.0782 141.242 23.8142 141.554 23.6102C141.878 23.4062 142.148 23.2442 142.364 23.1242L143.534 22.4942C143.918 22.2902 144.266 22.0862 144.578 21.8822C144.902 21.6662 145.16 21.4322 145.352 21.1802C145.544 20.9162 145.64 20.6102 145.64 20.2622C145.64 19.8662 145.508 19.5362 145.244 19.2722C144.992 18.9962 144.668 18.8582 144.272 18.8582C143.888 18.8582 143.558 18.9962 143.282 19.2722C143.018 19.5362 142.886 19.8722 142.886 20.2802C142.886 20.5802 142.952 20.8742 143.084 21.1622C143.228 21.4502 143.396 21.7202 143.588 21.9722C143.78 22.2122 143.966 22.4282 144.146 22.6202L151.256 30.5582H148.43L142.436 23.9882C142.16 23.6882 141.884 23.3642 141.608 23.0162C141.332 22.6562 141.104 22.2602 140.924 21.8282C140.744 21.3962 140.654 20.9162 140.654 20.3882C140.654 19.6922 140.816 19.0862 141.14 18.5702C141.476 18.0422 141.914 17.6402 142.454 17.3642C143.006 17.0762 143.606 16.9322 144.254 16.9322C144.914 16.9322 145.508 17.0762 146.036 17.3642C146.576 17.6522 147.002 18.0482 147.314 18.5522C147.638 19.0562 147.8 19.6322 147.8 20.2802C147.8 20.9402 147.644 21.5042 147.332 21.9722C147.032 22.4282 146.666 22.8182 146.234 23.1422C145.814 23.4542 145.412 23.7182 145.028 23.9342L143.822 24.6542C143.558 24.7982 143.276 24.9842 142.976 25.2122C142.688 25.4282 142.442 25.6922 142.238 26.0042C142.034 26.3042 141.932 26.6702 141.932 27.1022C141.932 27.6182 142.088 28.0262 142.4 28.3262C142.724 28.6142 143.162 28.7582 143.714 28.7582C144.05 28.7582 144.35 28.7042 144.614 28.5962C144.878 28.4762 145.112 28.3322 145.316 28.1642C145.52 27.9842 145.694 27.7982 145.838 27.6062C145.982 27.4022 146.114 27.2162 146.234 27.0482L148.34 23.9882H150.806L148.376 27.7682C148.196 28.0682 147.974 28.3922 147.71 28.7402C147.446 29.0882 147.128 29.4182 146.756 29.7302C146.384 30.0302 145.94 30.2822 145.424 30.4862C144.92 30.6782 144.32 30.7742 143.624 30.7742ZM161.637 30.7742C160.785 30.7742 159.993 30.6182 159.261 30.3062C158.541 29.9942 157.917 29.5622 157.389 29.0102C156.873 28.4462 156.495 27.7922 156.255 27.0482L158.289 26.1662C158.613 26.9342 159.081 27.5402 159.693 27.9842C160.305 28.4162 160.995 28.6322 161.763 28.6322C162.195 28.6322 162.567 28.5662 162.879 28.4342C163.203 28.2902 163.449 28.0982 163.617 27.8582C163.797 27.6182 163.887 27.3302 163.887 26.9942C163.887 26.5982 163.767 26.2742 163.527 26.0222C163.299 25.7582 162.951 25.5542 162.483 25.4102L159.909 24.5822C158.865 24.2582 158.079 23.7722 157.551 23.1242C157.023 22.4762 156.759 21.7142 156.759 20.8382C156.759 20.0702 156.945 19.3922 157.317 18.8042C157.701 18.2162 158.229 17.7602 158.901 17.4362C159.585 17.1002 160.365 16.9322 161.241 16.9322C162.045 16.9322 162.783 17.0762 163.455 17.3642C164.127 17.6402 164.703 18.0302 165.183 18.5342C165.675 19.0262 166.041 19.6082 166.281 20.2802L164.265 21.1802C164.001 20.5082 163.605 19.9922 163.077 19.6322C162.549 19.2602 161.937 19.0742 161.241 19.0742C160.833 19.0742 160.473 19.1462 160.161 19.2902C159.849 19.4222 159.603 19.6142 159.423 19.8662C159.255 20.1062 159.171 20.3942 159.171 20.7302C159.171 21.1022 159.291 21.4322 159.531 21.7202C159.771 21.9962 160.137 22.2122 160.629 22.3682L163.095 23.1422C164.163 23.4902 164.961 23.9702 165.489 24.5822C166.029 25.1942 166.299 25.9502 166.299 26.8502C166.299 27.6182 166.101 28.2962 165.705 28.8842C165.309 29.4722 164.763 29.9342 164.067 30.2702C163.371 30.6062 162.561 30.7742 161.637 30.7742ZM172.949 30.7742C171.941 30.7742 171.059 30.5462 170.303 30.0902C169.547 29.6342 168.959 29.0162 168.539 28.2362C168.119 27.4562 167.909 26.5922 167.909 25.6442C167.909 24.6602 168.119 23.7902 168.539 23.0342C168.971 22.2662 169.553 21.6602 170.285 21.2162C171.029 20.7722 171.857 20.5502 172.769 20.5502C173.537 20.5502 174.209 20.6762 174.785 20.9282C175.373 21.1802 175.871 21.5282 176.279 21.9722C176.687 22.4162 176.999 22.9262 177.215 23.5022C177.431 24.0662 177.539 24.6782 177.539 25.3382C177.539 25.5062 177.527 25.6802 177.503 25.8602C177.491 26.0402 177.461 26.1962 177.413 26.3282H169.853V24.5282H176.081L174.965 25.3742C175.073 24.8222 175.043 24.3302 174.875 23.8982C174.719 23.4662 174.455 23.1242 174.083 22.8722C173.723 22.6202 173.285 22.4942 172.769 22.4942C172.277 22.4942 171.839 22.6202 171.455 22.8722C171.071 23.1122 170.777 23.4722 170.573 23.9522C170.381 24.4202 170.309 24.9902 170.357 25.6622C170.309 26.2622 170.387 26.7962 170.591 27.2642C170.807 27.7202 171.119 28.0742 171.527 28.3262C171.947 28.5782 172.427 28.7042 172.967 28.7042C173.507 28.7042 173.963 28.5902 174.335 28.3622C174.719 28.1342 175.019 27.8282 175.235 27.4442L177.143 28.3802C176.951 28.8482 176.651 29.2622 176.243 29.6222C175.835 29.9822 175.349 30.2642 174.785 30.4682C174.233 30.6722 173.621 30.7742 172.949 30.7742ZM179.327 30.5582V20.7662H181.541V22.6922L181.361 22.3502C181.589 21.7622 181.961 21.3182 182.477 21.0182C183.005 20.7062 183.617 20.5502 184.313 20.5502C185.033 20.5502 185.669 20.7062 186.221 21.0182C186.785 21.3302 187.223 21.7682 187.535 22.3322C187.847 22.8842 188.003 23.5262 188.003 24.2582V30.5582H185.645V24.8162C185.645 24.3842 185.561 24.0122 185.393 23.7002C185.225 23.3882 184.991 23.1482 184.691 22.9802C184.403 22.8002 184.061 22.7102 183.665 22.7102C183.281 22.7102 182.939 22.8002 182.639 22.9802C182.339 23.1482 182.105 23.3882 181.937 23.7002C181.769 24.0122 181.685 24.3842 181.685 24.8162V30.5582H179.327ZM194.55 30.7742C193.602 30.7742 192.756 30.5522 192.012 30.1082C191.268 29.6522 190.68 29.0342 190.248 28.2542C189.816 27.4742 189.6 26.6102 189.6 25.6622C189.6 24.7022 189.816 23.8382 190.248 23.0702C190.68 22.3022 191.268 21.6902 192.012 21.2342C192.768 20.7782 193.608 20.5502 194.532 20.5502C195.276 20.5502 195.936 20.7002 196.512 21.0002C197.1 21.2882 197.562 21.6962 197.898 22.2242L197.538 22.7102V16.9322H199.896V30.5582H197.664V28.6682L197.916 29.1362C197.58 29.6642 197.112 30.0722 196.512 30.3602C195.912 30.6362 195.258 30.7742 194.55 30.7742ZM194.802 28.6142C195.342 28.6142 195.816 28.4882 196.224 28.2362C196.632 27.9842 196.95 27.6362 197.178 27.1922C197.418 26.7482 197.538 26.2382 197.538 25.6622C197.538 25.0982 197.418 24.5942 197.178 24.1502C196.95 23.6942 196.632 23.3402 196.224 23.0882C195.816 22.8362 195.342 22.7102 194.802 22.7102C194.274 22.7102 193.8 22.8422 193.38 23.1062C192.96 23.3582 192.63 23.7062 192.39 24.1502C192.162 24.5822 192.048 25.0862 192.048 25.6622C192.048 26.2382 192.162 26.7482 192.39 27.1922C192.63 27.6362 192.96 27.9842 193.38 28.2362C193.8 28.4882 194.274 28.6142 194.802 28.6142ZM102.747 50.6662C101.643 50.6662 100.785 50.3662 100.173 49.7662C99.5726 49.1542 99.2726 48.2962 99.2726 47.1922V42.8722H97.5806V40.7662H97.7606C98.2406 40.7662 98.6126 40.6402 98.8766 40.3882C99.1406 40.1362 99.2726 39.7702 99.2726 39.2902V38.5342H101.631V40.7662H103.881V42.8722H101.631V47.0662C101.631 47.3902 101.685 47.6662 101.793 47.8942C101.913 48.1222 102.093 48.2962 102.333 48.4162C102.585 48.5362 102.903 48.5962 103.287 48.5962C103.371 48.5962 103.467 48.5902 103.575 48.5782C103.695 48.5662 103.809 48.5542 103.917 48.5422V50.5582C103.749 50.5822 103.557 50.6062 103.341 50.6302C103.125 50.6542 102.927 50.6662 102.747 50.6662ZM110.418 50.7742C109.458 50.7742 108.582 50.5522 107.79 50.1082C107.01 49.6642 106.386 49.0582 105.918 48.2902C105.462 47.5222 105.234 46.6462 105.234 45.6622C105.234 44.6782 105.462 43.8022 105.918 43.0342C106.386 42.2662 107.01 41.6602 107.79 41.2162C108.57 40.7722 109.446 40.5502 110.418 40.5502C111.378 40.5502 112.248 40.7722 113.028 41.2162C113.808 41.6602 114.426 42.2662 114.882 43.0342C115.35 43.7902 115.584 44.6662 115.584 45.6622C115.584 46.6462 115.35 47.5222 114.882 48.2902C114.414 49.0582 113.79 49.6642 113.01 50.1082C112.23 50.5522 111.366 50.7742 110.418 50.7742ZM110.418 48.6142C110.946 48.6142 111.408 48.4882 111.804 48.2362C112.212 47.9842 112.53 47.6362 112.758 47.1922C112.998 46.7362 113.118 46.2262 113.118 45.6622C113.118 45.0862 112.998 44.5822 112.758 44.1502C112.53 43.7062 112.212 43.3582 111.804 43.1062C111.408 42.8422 110.946 42.7102 110.418 42.7102C109.878 42.7102 109.404 42.8422 108.996 43.1062C108.588 43.3582 108.264 43.7062 108.024 44.1502C107.796 44.5822 107.682 45.0862 107.682 45.6622C107.682 46.2262 107.796 46.7362 108.024 47.1922C108.264 47.6362 108.588 47.9842 108.996 48.2362C109.404 48.4882 109.878 48.6142 110.418 48.6142ZM119.672 50.5582L124.298 37.1482H127.466L132.092 50.5582H129.428L128.474 47.6782H123.29L122.318 50.5582H119.672ZM123.992 45.5182H127.772L125.54 38.8402H126.224L123.992 45.5182ZM133.386 54.1582V40.7662H135.6V42.7102L135.384 42.2242C135.72 41.6962 136.176 41.2882 136.752 41.0002C137.328 40.7002 137.994 40.5502 138.75 40.5502C139.674 40.5502 140.508 40.7782 141.252 41.2342C141.996 41.6902 142.584 42.3022 143.016 43.0702C143.46 43.8382 143.682 44.7022 143.682 45.6622C143.682 46.6102 143.466 47.4742 143.034 48.2542C142.602 49.0342 142.014 49.6522 141.27 50.1082C140.526 50.5522 139.68 50.7742 138.732 50.7742C138.024 50.7742 137.37 50.6362 136.77 50.3602C136.182 50.0722 135.714 49.6642 135.366 49.1362L135.744 48.6682V54.1582H133.386ZM138.462 48.6142C139.002 48.6142 139.482 48.4882 139.902 48.2362C140.322 47.9842 140.646 47.6362 140.874 47.1922C141.114 46.7482 141.234 46.2382 141.234 45.6622C141.234 45.0862 141.114 44.5822 140.874 44.1502C140.646 43.7062 140.322 43.3582 139.902 43.1062C139.482 42.8422 139.002 42.7102 138.462 42.7102C137.946 42.7102 137.478 42.8362 137.058 43.0882C136.65 43.3402 136.326 43.6942 136.086 44.1502C135.858 44.5942 135.744 45.0982 135.744 45.6622C135.744 46.2382 135.858 46.7482 136.086 47.1922C136.326 47.6362 136.65 47.9842 137.058 48.2362C137.478 48.4882 137.946 48.6142 138.462 48.6142ZM145.48 54.1582V40.7662H147.694V42.7102L147.478 42.2242C147.814 41.6962 148.27 41.2882 148.846 41.0002C149.422 40.7002 150.088 40.5502 150.844 40.5502C151.768 40.5502 152.602 40.7782 153.346 41.2342C154.09 41.6902 154.678 42.3022 155.11 43.0702C155.554 43.8382 155.776 44.7022 155.776 45.6622C155.776 46.6102 155.56 47.4742 155.128 48.2542C154.696 49.0342 154.108 49.6522 153.364 50.1082C152.62 50.5522 151.774 50.7742 150.826 50.7742C150.118 50.7742 149.464 50.6362 148.864 50.3602C148.276 50.0722 147.808 49.6642 147.46 49.1362L147.838 48.6682V54.1582H145.48ZM150.556 48.6142C151.096 48.6142 151.576 48.4882 151.996 48.2362C152.416 47.9842 152.74 47.6362 152.968 47.1922C153.208 46.7482 153.328 46.2382 153.328 45.6622C153.328 45.0862 153.208 44.5822 152.968 44.1502C152.74 43.7062 152.416 43.3582 151.996 43.1062C151.576 42.8422 151.096 42.7102 150.556 42.7102C150.04 42.7102 149.572 42.8362 149.152 43.0882C148.744 43.3402 148.42 43.6942 148.18 44.1502C147.952 44.5942 147.838 45.0982 147.838 45.6622C147.838 46.2382 147.952 46.7482 148.18 47.1922C148.42 47.6362 148.744 47.9842 149.152 48.2362C149.572 48.4882 150.04 48.6142 150.556 48.6142ZM157.574 50.5582V40.7662H159.788V42.9442L159.608 42.6202C159.836 41.8882 160.19 41.3782 160.67 41.0902C161.162 40.8022 161.75 40.6582 162.434 40.6582H163.01V42.7462H162.164C161.492 42.7462 160.952 42.9562 160.544 43.3762C160.136 43.7842 159.932 44.3602 159.932 45.1042V50.5582H157.574ZM169.094 50.7742C168.134 50.7742 167.258 50.5522 166.466 50.1082C165.686 49.6642 165.062 49.0582 164.594 48.2902C164.138 47.5222 163.91 46.6462 163.91 45.6622C163.91 44.6782 164.138 43.8022 164.594 43.0342C165.062 42.2662 165.686 41.6602 166.466 41.2162C167.246 40.7722 168.122 40.5502 169.094 40.5502C170.054 40.5502 170.924 40.7722 171.704 41.2162C172.484 41.6602 173.102 42.2662 173.558 43.0342C174.026 43.7902 174.26 44.6662 174.26 45.6622C174.26 46.6462 174.026 47.5222 173.558 48.2902C173.09 49.0582 172.466 49.6642 171.686 50.1082C170.906 50.5522 170.042 50.7742 169.094 50.7742ZM169.094 48.6142C169.622 48.6142 170.084 48.4882 170.48 48.2362C170.888 47.9842 171.206 47.6362 171.434 47.1922C171.674 46.7362 171.794 46.2262 171.794 45.6622C171.794 45.0862 171.674 44.5822 171.434 44.1502C171.206 43.7062 170.888 43.3582 170.48 43.1062C170.084 42.8422 169.622 42.7102 169.094 42.7102C168.554 42.7102 168.08 42.8422 167.672 43.1062C167.264 43.3582 166.94 43.7062 166.7 44.1502C166.472 44.5822 166.358 45.0862 166.358 45.6622C166.358 46.2262 166.472 46.7362 166.7 47.1922C166.94 47.6362 167.264 47.9842 167.672 48.2362C168.08 48.4882 168.554 48.6142 169.094 48.6142ZM178.824 50.5582L174.972 40.7662H177.546L180.336 48.4702H179.382L182.19 40.7662H184.764L180.912 50.5582H178.824ZM190.536 50.7742C189.528 50.7742 188.646 50.5462 187.89 50.0902C187.134 49.6342 186.546 49.0162 186.126 48.2362C185.706 47.4562 185.496 46.5922 185.496 45.6442C185.496 44.6602 185.706 43.7902 186.126 43.0342C186.558 42.2662 187.14 41.6602 187.872 41.2162C188.616 40.7722 189.444 40.5502 190.356 40.5502C191.124 40.5502 191.796 40.6762 192.372 40.9282C192.96 41.1802 193.458 41.5282 193.866 41.9722C194.274 42.4162 194.586 42.9262 194.802 43.5022C195.018 44.0662 195.126 44.6782 195.126 45.3382C195.126 45.5062 195.114 45.6802 195.09 45.8602C195.078 46.0402 195.048 46.1962 195 46.3282H187.44V44.5282H193.668L192.552 45.3742C192.66 44.8222 192.63 44.3302 192.462 43.8982C192.306 43.4662 192.042 43.1242 191.67 42.8722C191.31 42.6202 190.872 42.4942 190.356 42.4942C189.864 42.4942 189.426 42.6202 189.042 42.8722C188.658 43.1122 188.364 43.4722 188.16 43.9522C187.968 44.4202 187.896 44.9902 187.944 45.6622C187.896 46.2622 187.974 46.7962 188.178 47.2642C188.394 47.7202 188.706 48.0742 189.114 48.3262C189.534 48.5782 190.014 48.7042 190.554 48.7042C191.094 48.7042 191.55 48.5902 191.922 48.3622C192.306 48.1342 192.606 47.8282 192.822 47.4442L194.73 48.3802C194.538 48.8482 194.238 49.2622 193.83 49.6222C193.422 49.9822 192.936 50.2642 192.372 50.4682C191.82 50.6722 191.208 50.7742 190.536 50.7742Z" fill="white"/>
</g>
<defs>
<filter id="filter0_i_2051_2170" x="0" y="0.558105" width="249" height="71.5581" filterUnits="userSpaceOnUse" color-interpolation-filters="sRGB">
<feFlood flood-opacity="0" result="BackgroundImageFix"/>
<feBlend mode="normal" in="SourceGraphic" in2="BackgroundImageFix" result="shape"/>
<feColorMatrix in="SourceAlpha" type="matrix" values="0 0 0 0 0 0 0 0 0 0 0 0 0 0 0 0 0 0 127 0" result="hardAlpha"/>
<feOffset dy="4"/>
<feGaussianBlur stdDeviation="2"/>
<feComposite in2="hardAlpha" operator="arithmetic" k2="-1" k3="1"/>
<feColorMatrix type="matrix" values="0 0 0 0 0 0 0 0 0 0 0 0 0 0 0 0 0 0 0.25 0"/>
<feBlend mode="normal" in2="shape" result="effect1_innerShadow_2051_2170"/>
</filter>
</defs>
</svg>
