<?xml version="1.0" encoding="UTF-8"?>
<svg xmlns="http://www.w3.org/2000/svg" version="1.1" xmlns:xlink="http://www.w3.org/1999/xlink" viewBox="0 0 400 76">
  <defs>
    <style>
      .cls-1 {
        filter: url(#drop-shadow-3);
      }

      .cls-1, .cls-2 {
        fill: #fff;
      }

      .cls-3 {
        filter: url(#drop-shadow-1);
      }

      .cls-4 {
        fill: #008b16;
      }

      .cls-2 {
        filter: url(#drop-shadow-2);
      }
    </style>
    <filter id="drop-shadow-1" filterUnits="userSpaceOnUse">
      <feOffset dx="5" dy="5"/>
      <feGaussianBlur result="blur" stdDeviation="5"/>
      <feFlood flood-color="#000" flood-opacity=".6"/>
      <feComposite in2="blur" operator="in"/>
      <feComposite in="SourceGraphic"/>
    </filter>
    <filter id="drop-shadow-2" filterUnits="userSpaceOnUse">
      <feOffset dx="5" dy="5"/>
      <feGaussianBlur result="blur-2" stdDeviation="5"/>
      <feFlood flood-color="#000" flood-opacity=".6"/>
      <feComposite in2="blur-2" operator="in"/>
      <feComposite in="SourceGraphic"/>
    </filter>
    <filter id="drop-shadow-3" filterUnits="userSpaceOnUse">
      <feOffset dx="5" dy="5"/>
      <feGaussianBlur result="blur-3" stdDeviation="5"/>
      <feFlood flood-color="#000" flood-opacity=".6"/>
      <feComposite in2="blur-3" operator="in"/>
      <feComposite in="SourceGraphic"/>
    </filter>
  </defs>
  <!-- Generator: Adobe Illustrator 28.6.0, SVG Export Plug-In . SVG Version: 1.2.0 Build 709)  -->
  <g>
    <g id="Layer_1">
      <g id="Layer_1-2" data-name="Layer_1">
        <g class="cls-3">
          <rect class="cls-4" x="4" y="0" width="390" height="67.6" rx="8" ry="8"/>
          <path class="cls-2" d="M85.1,27.1c-1.3.6-2.2,1.7-2.2,3.2s.7,2.5,2,3.1c.6.2,8.3,1.4,8.3,1.4,0,0,2.1,7,2.8,9.4.2.7.3,1.1.8,1.5.8.8,2.2.5,2.7,0,1.5-1.7,4-4.2,4-4.2l1,.9s4.6,3.9,7.1,5.8c1.5,1.1,2.5,2.2,4.2,2.2s2.2-.4,3.1-1.5c.6-.7,1-1.9,1.1-2.9.3-2.4,4.3-28,4.2-28.8,0-1.4-1.1-2.2-2.1-2.2s-1.1.2-2.1.5c-8.3,2.7-34.5,11.6-35,11.8v-.2ZM116.1,21.5s-10.9,10.2-15.3,14.9c-1.4,1.5-1.5,4.1-1.5,4.1l-2.3-7.8s19.1-11.2,19.1-11.2Z"/>
          <path class="cls-1" d="M164.6,28.1c-1.1,0-2.2-.2-3.2-.6s-1.8-1-2.5-1.7c-.7-.8-1.2-1.6-1.5-2.6l2.7-1.2c.4,1,1.1,1.8,1.9,2.4.8.6,1.7.9,2.8.9s1.1,0,1.5-.3c.4-.2.8-.5,1-.8s.4-.7.4-1.2-.2-1-.5-1.3c-.3-.4-.8-.6-1.4-.8l-3.4-1.1c-1.4-.4-2.4-1.1-3.1-2-.7-.9-1.1-1.9-1.1-3.1s.2-1.9.7-2.7,1.2-1.4,2.1-1.8c.9-.5,1.9-.7,3.1-.7s2.1.2,2.9.6c.9.4,1.7.9,2.3,1.6.7.7,1.1,1.4,1.5,2.3l-2.7,1.2c-.4-.9-.9-1.6-1.6-2.1-.7-.5-1.5-.7-2.4-.7s-1,0-1.4.3c-.4.2-.7.4-1,.8-.2.3-.3.7-.3,1.2s.2.9.5,1.3.8.7,1.5.9l3.3,1c1.4.5,2.5,1.1,3.2,1.9s1.1,1.8,1.1,3-.3,1.9-.8,2.7c-.5.8-1.3,1.4-2.2,1.9s-2,.7-3.2.7h-.2ZM177.3,28.1c-.9,0-1.7-.2-2.4-.5s-1.2-.7-1.6-1.3c-.4-.6-.6-1.2-.6-2s.2-1.4.5-1.9c.3-.6.8-1.1,1.5-1.5s1.5-.7,2.5-.8l4.3-.7v2.4l-3.7.6c-.6.1-1.1.3-1.4.6-.3.3-.5.7-.5,1.1s.2.8.5,1.1c.4.3.8.4,1.3.4s1.2-.1,1.7-.4.9-.7,1.2-1.2.4-1,.4-1.6v-3.4c0-.6-.2-1-.7-1.4-.4-.4-1-.6-1.7-.6s-1.3.2-1.8.6-.9.8-1.1,1.4l-2.6-1.3c.3-.7.7-1.3,1.2-1.8.6-.5,1.2-.9,2-1.2s1.6-.4,2.4-.4,2,.2,2.8.6c.8.4,1.4.9,1.9,1.6s.7,1.5.7,2.4v8.7h-3v-2.2h.7c-.3.5-.7,1-1.2,1.4s-1,.7-1.6.9c-.6.2-1.2.3-2,.3h.3ZM191,27.8l-5.1-13.1h3.4l3.7,10.3h-1.3l3.7-10.3h3.4l-5.1,13.1h-2.8.1ZM206.6,28.1c-1.3,0-2.5-.3-3.5-.9s-1.8-1.4-2.3-2.5c-.6-1-.8-2.2-.8-3.5s.3-2.5.8-3.5c.6-1,1.3-1.8,2.3-2.4,1-.6,2.1-.9,3.3-.9s1.9.2,2.7.5,1.4.8,2,1.4c.6.6,1,1.3,1.2,2.1.3.8.4,1.6.4,2.5s0,.5,0,.7,0,.5-.1.6h-10.1v-2.4h8.3l-1.5,1.1c.1-.7.1-1.4-.1-2-.2-.6-.6-1-1.1-1.4-.5-.3-1.1-.5-1.7-.5s-1.2.2-1.7.5-.9.8-1.2,1.5c-.3.6-.4,1.4-.3,2.3,0,.8,0,1.5.3,2.2.3.6.7,1.1,1.2,1.4.6.3,1.2.5,1.9.5s1.3-.2,1.8-.5.9-.7,1.2-1.2l2.5,1.3c-.3.6-.7,1.2-1.2,1.7s-1.2.9-1.9,1.1c-.7.3-1.5.4-2.4.4h0ZM225.2,28.1c-1.1,0-2.1-.2-2.9-.6-.8-.4-1.5-1-2-1.7s-.7-1.6-.7-2.6.1-1.5.4-2.1c.3-.6.7-1.1,1.1-1.5.4-.4.9-.8,1.3-1.1.4-.3.8-.5,1.1-.7l1.6-.8c.5-.3,1-.5,1.4-.8.4-.3.8-.6,1-.9.3-.4.4-.8.4-1.2s-.2-1-.5-1.3c-.3-.4-.8-.6-1.3-.6s-.9.2-1.3.6c-.4.4-.5.8-.5,1.4s0,.8.3,1.2c.2.4.4.7.7,1.1.3.3.5.6.7.9l9.5,10.7h-3.8l-8-8.8c-.4-.4-.7-.8-1.1-1.3-.4-.5-.7-1-.9-1.6s-.4-1.2-.4-1.9.2-1.7.6-2.4c.4-.7,1-1.2,1.7-1.6.7-.4,1.5-.6,2.4-.6s1.7.2,2.4.6c.7.4,1.3.9,1.7,1.6.4.7.6,1.5.6,2.3s-.2,1.6-.6,2.3c-.4.6-.9,1.1-1.5,1.6-.6.4-1.1.8-1.6,1.1l-1.6,1c-.4.2-.7.4-1.1.7-.4.3-.7.6-1,1.1-.3.4-.4.9-.4,1.5s.2,1.2.6,1.6c.4.4,1,.6,1.7.6s.8,0,1.2-.2.7-.4.9-.6c.3-.2.5-.5.7-.7.2-.3.4-.5.5-.7l2.8-4.1h3.3l-3.2,5.1c-.2.4-.5.8-.9,1.3s-.8.9-1.3,1.3-1.1.7-1.8,1-1.5.4-2.4.4l.2-.6ZM249.2,28.1c-1.1,0-2.2-.2-3.2-.6s-1.8-1-2.5-1.7c-.7-.8-1.2-1.6-1.5-2.6l2.7-1.2c.4,1,1.1,1.8,1.9,2.4.8.6,1.7.9,2.8.9s1.1,0,1.5-.3c.4-.2.8-.5,1-.8s.4-.7.4-1.2-.2-1-.5-1.3c-.3-.4-.8-.6-1.4-.8l-3.4-1.1c-1.4-.4-2.4-1.1-3.1-2-.7-.9-1.1-1.9-1.1-3.1s.2-1.9.7-2.7,1.2-1.4,2.1-1.8c.9-.5,1.9-.7,3.1-.7s2.1.2,2.9.6c.9.4,1.7.9,2.3,1.6.7.7,1.1,1.4,1.5,2.3l-2.7,1.2c-.4-.9-.9-1.6-1.6-2.1-.7-.5-1.5-.7-2.4-.7s-1,0-1.4.3c-.4.2-.7.4-1,.8-.2.3-.3.7-.3,1.2s.2.9.5,1.3.8.7,1.5.9l3.3,1c1.4.5,2.5,1.1,3.2,1.9s1.1,1.8,1.1,3-.3,1.9-.8,2.7c-.5.8-1.3,1.4-2.2,1.9s-2,.7-3.2.7h-.2ZM264.2,28.1c-1.3,0-2.5-.3-3.5-.9s-1.8-1.4-2.3-2.5c-.6-1-.8-2.2-.8-3.5s.3-2.5.8-3.5c.6-1,1.3-1.8,2.3-2.4,1-.6,2.1-.9,3.3-.9s1.9.2,2.7.5c.8.3,1.4.8,2,1.4.5.6,1,1.3,1.2,2.1.3.8.4,1.6.4,2.5s0,.5,0,.7,0,.5-.1.6h-10.1v-2.4h8.3l-1.5,1.1c.1-.7.1-1.4-.1-2s-.6-1-1.1-1.4c-.5-.3-1.1-.5-1.7-.5s-1.2.2-1.7.5-.9.8-1.2,1.5c-.3.6-.4,1.4-.3,2.3,0,.8,0,1.5.3,2.2.3.6.7,1.1,1.2,1.4.6.3,1.2.5,1.9.5s1.3-.2,1.8-.5.9-.7,1.2-1.2l2.5,1.3c-.3.6-.7,1.2-1.2,1.7s-1.2.9-1.9,1.1c-.7.3-1.5.4-2.4.4h0ZM272.7,27.8v-13.1h2.9v2.6l-.2-.5c.3-.8.8-1.4,1.5-1.8.7-.4,1.5-.6,2.4-.6s1.8.2,2.5.6c.8.4,1.3,1,1.7,1.8.4.7.6,1.6.6,2.6v8.5h-3.1v-7.7c0-.6-.1-1.1-.3-1.5s-.5-.7-.9-1c-.4-.2-.8-.4-1.4-.4s-1,.1-1.4.4c-.4.2-.7.5-.9,1s-.3.9-.3,1.5v7.7h-3.1ZM293,28.1c-1.3,0-2.4-.3-3.4-.9s-1.8-1.4-2.3-2.5c-.6-1-.9-2.2-.9-3.5s.3-2.4.9-3.5c.6-1,1.4-1.9,2.3-2.5,1-.6,2.1-.9,3.4-.9s1.9.2,2.6.6c.8.4,1.4.9,1.8,1.6l-.5.7v-7.8h3.1v18.3h-3v-2.5l.3.6c-.4.7-1.1,1.3-1.9,1.6-.8.4-1.7.6-2.6.6h.2ZM293.3,25.2c.7,0,1.3-.2,1.9-.5.5-.3,1-.8,1.3-1.4s.5-1.3.5-2.1-.2-1.4-.5-2-.7-1.1-1.3-1.4-1.2-.5-1.9-.5-1.3.2-1.9.5-1,.8-1.3,1.4-.5,1.3-.5,2,.2,1.5.5,2.1.8,1.1,1.3,1.4c.6.3,1.2.5,1.9.5ZM170.8,54.8c-1.5,0-2.6-.4-3.4-1.2-.8-.8-1.2-2-1.2-3.5v-5.8h-2.3v-2.8h.2c.6,0,1.1-.2,1.5-.5s.5-.8.5-1.5v-1h3.1v3h3v2.8h-3v5.6c0,.4,0,.8.2,1.1s.4.5.7.7.8.2,1.3.2.2,0,.4,0h.5v2.7h-1.6v.2ZM181,54.9c-1.3,0-2.4-.3-3.5-.9-1-.6-1.9-1.4-2.5-2.4s-.9-2.2-.9-3.5.3-2.5.9-3.5c.6-1,1.5-1.8,2.5-2.4s2.2-.9,3.5-.9,2.4.3,3.5.9,1.9,1.4,2.5,2.4.9,2.2.9,3.5-.3,2.5-.9,3.5c-.6,1-1.5,1.8-2.5,2.4s-2.2.9-3.4.9h-.1ZM181,52c.7,0,1.3-.2,1.8-.5s1-.8,1.3-1.4c.3-.6.5-1.3.5-2.1s-.2-1.5-.5-2c-.3-.6-.7-1.1-1.3-1.4-.5-.4-1.1-.5-1.8-.5s-1.3.2-1.9.5c-.5.3-1,.8-1.3,1.4-.3.6-.5,1.3-.5,2s.2,1.4.5,2.1c.3.6.8,1.1,1.3,1.4.5.3,1.2.5,1.9.5ZM193.3,54.6l6.2-18h4.2l6.2,18h-3.5l-1.3-3.9h-6.9l-1.3,3.9h-3.6ZM199.1,47.9h5l-3-9h.9l-3,9h.1ZM211.6,59.5v-18h2.9v2.6l-.3-.7c.4-.7,1.1-1.3,1.8-1.6.8-.4,1.7-.6,2.7-.6s2.3.3,3.3.9c1,.6,1.8,1.4,2.3,2.5.6,1,.9,2.2.9,3.5s-.3,2.4-.9,3.5c-.6,1-1.4,1.9-2.3,2.5-1,.6-2.1.9-3.4.9s-1.8-.2-2.6-.6c-.8-.4-1.4-.9-1.9-1.6l.5-.6v7.4h-3.1.1ZM218.3,52c.7,0,1.4-.2,1.9-.5.6-.3,1-.8,1.3-1.4.3-.6.5-1.3.5-2.1s-.2-1.5-.5-2c-.3-.6-.7-1.1-1.3-1.4-.6-.4-1.2-.5-1.9-.5s-1.3.2-1.9.5c-.5.3-1,.8-1.3,1.4-.3.6-.5,1.3-.5,2s.2,1.5.5,2.1.8,1.1,1.3,1.4c.6.3,1.2.5,1.9.5ZM227.7,59.5v-18h2.9v2.6l-.3-.7c.4-.7,1.1-1.3,1.8-1.6.8-.4,1.7-.6,2.7-.6s2.3.3,3.3.9c1,.6,1.8,1.4,2.3,2.5.6,1,.9,2.2.9,3.5s-.3,2.4-.9,3.5c-.6,1-1.4,1.9-2.3,2.5-1,.6-2.1.9-3.4.9s-1.8-.2-2.6-.6c-.8-.4-1.4-.9-1.9-1.6l.5-.6v7.4h-3.1.1ZM234.4,52c.7,0,1.4-.2,1.9-.5s1-.8,1.3-1.4c.3-.6.5-1.3.5-2.1s-.2-1.5-.5-2c-.3-.6-.7-1.1-1.3-1.4-.6-.4-1.2-.5-1.9-.5s-1.3.2-1.9.5c-.5.3-1,.8-1.3,1.4-.3.6-.5,1.3-.5,2s.2,1.5.5,2.1.8,1.1,1.3,1.4c.6.3,1.2.5,1.9.5ZM243.8,54.6v-13.1h2.9v2.9l-.2-.4c.3-1,.8-1.7,1.4-2.1.7-.4,1.4-.6,2.3-.6h.8v2.8h-1.1c-.9,0-1.6.3-2.2.8-.5.5-.8,1.3-.8,2.3v7.3h-3.1,0ZM259.1,54.9c-1.3,0-2.4-.3-3.5-.9-1-.6-1.9-1.4-2.5-2.4s-.9-2.2-.9-3.5.3-2.5.9-3.5c.6-1,1.5-1.8,2.5-2.4s2.2-.9,3.5-.9,2.4.3,3.5.9,1.9,1.4,2.5,2.4.9,2.2.9,3.5-.3,2.5-.9,3.5-1.5,1.8-2.5,2.4-2.2.9-3.4.9h-.1ZM259.1,52c.7,0,1.3-.2,1.8-.5s1-.8,1.3-1.4c.3-.6.5-1.3.5-2.1s-.2-1.5-.5-2c-.3-.6-.7-1.1-1.3-1.4-.5-.4-1.1-.5-1.8-.5s-1.3.2-1.9.5c-.5.3-1,.8-1.3,1.4-.3.6-.5,1.3-.5,2s.2,1.4.5,2.1c.3.6.8,1.1,1.3,1.4.5.3,1.2.5,1.9.5ZM272,54.6l-5.1-13.1h3.4l3.7,10.3h-1.3l3.7-10.3h3.4l-5.1,13.1h-2.8,0ZM287.6,54.9c-1.3,0-2.5-.3-3.5-.9-1-.6-1.8-1.4-2.3-2.5-.6-1-.8-2.2-.8-3.5s.3-2.5.8-3.5c.6-1,1.3-1.8,2.3-2.4,1-.6,2.1-.9,3.3-.9s1.9.2,2.7.5c.8.3,1.4.8,2,1.4s1,1.3,1.2,2.1c.3.8.4,1.6.4,2.5s0,.5,0,.7,0,.5-.1.6h-10.1v-2.4h8.3l-1.5,1.1c.1-.7.1-1.4-.1-2s-.6-1-1.1-1.4c-.5-.3-1.1-.5-1.7-.5s-1.2.2-1.7.5-.9.8-1.2,1.5c-.3.6-.4,1.4-.3,2.3,0,.8,0,1.5.3,2.2.3.6.7,1.1,1.2,1.4.6.3,1.2.5,1.9.5s1.3-.2,1.8-.5.9-.7,1.2-1.2l2.5,1.3c-.3.6-.7,1.2-1.2,1.7s-1.2.9-1.9,1.1c-.7.3-1.5.4-2.4.4h0ZM296.4,54.7v-13.1h2.9v2.9l-.2-.4c.3-1,.8-1.7,1.4-2.1.7-.4,1.4-.6,2.3-.6h.8v2.8h-1.1c-.9,0-1.6.3-2.2.8-.5.5-.8,1.3-.8,2.3v7.3h-3.1,0Z"/>
        </g>
      </g>
    </g>
  </g>
</svg>