<?xml version="1.0" encoding="UTF-8"?>
<svg id="Layer_1" xmlns="http://www.w3.org/2000/svg" xmlns:xlink="http://www.w3.org/1999/xlink" viewBox="0 0 275 67.6">
  <defs>
    <filter id="drop-shadow-1" filterUnits="userSpaceOnUse">
      <feOffset dx="4" dy="5"/>
      <feGaussianBlur result="blur" stdDeviation="5"/>
      <feFlood flood-color="#1a4937" flood-opacity=".57"/>
      <feComposite in2="blur" operator="in"/>
      <feComposite in="SourceGraphic"/>
    </filter>
    <filter id="drop-shadow-2" filterUnits="userSpaceOnUse">
      <feOffset dx="4" dy="5"/>
      <feGaussianBlur result="blur-2" stdDeviation="5"/>
      <feFlood flood-color="#1a4937" flood-opacity=".57"/>
      <feComposite in2="blur-2" operator="in"/>
      <feComposite in="SourceGraphic"/>
    </filter>
  </defs>
  <g id="Layer_1-2" data-name="Layer_1">
    <g id="Layer_1-2">
      <g>
        <rect width="275" height="67.6" rx="8" ry="8" fill="#008b16"/>
        <path d="M40.6,29c-1,.4-1.6,1.2-1.6,2.4s.5,1.8,1.5,2.3,6,1,6,1c0,0,1.5,5.1,2,6.9.2.5.2.8.6,1.1.6.6,1.6.4,2,0,1.1-1.2,2.9-3.1,2.9-3.1l.7.7s3.3,2.9,5.1,4.2c1.1.8,1.8,1.6,3,1.6s1.6-.3,2.2-1.1c.4-.5.7-1.4.8-2.1.2-1.7,3.1-20.4,3.1-21.1,0-1-.8-1.6-1.5-1.6s-.8.1-1.5.4c-6,2-25,8.5-25.4,8.6v-.2h.1ZM63,24.9s-7.9,7.5-11.1,10.9c-1,1.1-1.1,3-1.1,3l-1.6-5.7s13.8-8.2,13.8-8.2Z" fill="#fff" filter="url(#drop-shadow-1)"/>
        <g filter="url(#drop-shadow-2)">
          <g isolation="isolate">
            <g isolation="isolate">
              <text transform="translate(82.7 25.1)" fill="#fff" font-family="Roboto-Bold, Roboto" font-size="21" font-weight="700" isolation="isolate"><tspan x="0" y="0">Implement &amp; Send</tspan></text>
            </g>
          </g>
          <g isolation="isolate">
            <g isolation="isolate">
              <text transform="translate(102.5 57.8)" fill="#fff" font-family="Roboto-Bold, Roboto" font-size="21.2" font-weight="700" isolation="isolate"><tspan x="0" y="0" letter-spacing="-.01em">t</tspan><tspan x="6.85" y="0">o Coo</tspan><tspan x="61.96" y="0" letter-spacing="0em">r</tspan><tspan x="69.5" y="0">dina</tspan><tspan x="110.31" y="0" letter-spacing="-.01em">t</tspan><tspan x="117.16" y="0">or</tspan></text>
            </g>
          </g>
        </g>
      </g>
    </g>
  </g>
</svg>