<svg width="257" height="60" viewBox="0 0 257 60" fill="none" xmlns="http://www.w3.org/2000/svg">
<g filter="url(#filter0_d_2051_2175)">
<rect x="4" width="249" height="52" rx="8" fill="#F4F4F4"/>
<path d="M113.084 34.216C112.232 34.216 111.44 34.06 110.708 33.748C109.988 33.436 109.364 33.004 108.836 32.452C108.32 31.888 107.942 31.234 107.702 30.49L109.736 29.608C110.06 30.376 110.528 30.982 111.14 31.426C111.752 31.858 112.442 32.074 113.21 32.074C113.642 32.074 114.014 32.008 114.326 31.876C114.65 31.732 114.896 31.54 115.064 31.3C115.244 31.06 115.334 30.772 115.334 30.436C115.334 30.04 115.214 29.716 114.974 29.464C114.746 29.2 114.398 28.996 113.93 28.852L111.356 28.024C110.312 27.7 109.526 27.214 108.998 26.566C108.47 25.918 108.206 25.156 108.206 24.28C108.206 23.512 108.392 22.834 108.764 22.246C109.148 21.658 109.676 21.202 110.348 20.878C111.032 20.542 111.812 20.374 112.688 20.374C113.492 20.374 114.23 20.518 114.902 20.806C115.574 21.082 116.15 21.472 116.63 21.976C117.122 22.468 117.488 23.05 117.728 23.722L115.712 24.622C115.448 23.95 115.052 23.434 114.524 23.074C113.996 22.702 113.384 22.516 112.688 22.516C112.28 22.516 111.92 22.588 111.608 22.732C111.296 22.864 111.05 23.056 110.87 23.308C110.702 23.548 110.618 23.836 110.618 24.172C110.618 24.544 110.738 24.874 110.978 25.162C111.218 25.438 111.584 25.654 112.076 25.81L114.542 26.584C115.61 26.932 116.408 27.412 116.936 28.024C117.476 28.636 117.746 29.392 117.746 30.292C117.746 31.06 117.548 31.738 117.152 32.326C116.756 32.914 116.21 33.376 115.514 33.712C114.818 34.048 114.008 34.216 113.084 34.216ZM122.634 34.216C121.95 34.216 121.356 34.102 120.852 33.874C120.348 33.646 119.958 33.322 119.682 32.902C119.406 32.47 119.268 31.972 119.268 31.408C119.268 30.868 119.388 30.388 119.628 29.968C119.868 29.536 120.24 29.176 120.744 28.888C121.248 28.6 121.884 28.396 122.652 28.276L125.856 27.754V29.554L123.102 30.022C122.634 30.106 122.286 30.256 122.058 30.472C121.83 30.688 121.716 30.97 121.716 31.318C121.716 31.654 121.842 31.924 122.094 32.128C122.358 32.32 122.682 32.416 123.066 32.416C123.558 32.416 123.99 32.314 124.362 32.11C124.746 31.894 125.04 31.6 125.244 31.228C125.46 30.856 125.568 30.448 125.568 30.004V27.484C125.568 27.064 125.4 26.716 125.064 26.44C124.74 26.152 124.308 26.008 123.768 26.008C123.264 26.008 122.814 26.146 122.418 26.422C122.034 26.686 121.752 27.04 121.572 27.484L119.646 26.548C119.838 26.032 120.138 25.588 120.546 25.216C120.966 24.832 121.458 24.532 122.022 24.316C122.586 24.1 123.198 23.992 123.858 23.992C124.662 23.992 125.37 24.142 125.982 24.442C126.594 24.73 127.068 25.138 127.404 25.666C127.752 26.182 127.926 26.788 127.926 27.484V34H125.694V32.326L126.198 32.29C125.946 32.71 125.646 33.064 125.298 33.352C124.95 33.628 124.554 33.844 124.11 34C123.666 34.144 123.174 34.216 122.634 34.216ZM132.882 34L129.03 24.208H131.604L134.394 31.912H133.44L136.248 24.208H138.822L134.97 34H132.882ZM144.594 34.216C143.586 34.216 142.704 33.988 141.948 33.532C141.192 33.076 140.604 32.458 140.184 31.678C139.764 30.898 139.554 30.034 139.554 29.086C139.554 28.102 139.764 27.232 140.184 26.476C140.616 25.708 141.198 25.102 141.93 24.658C142.674 24.214 143.502 23.992 144.414 23.992C145.182 23.992 145.854 24.118 146.43 24.37C147.018 24.622 147.516 24.97 147.924 25.414C148.332 25.858 148.644 26.368 148.86 26.944C149.076 27.508 149.184 28.12 149.184 28.78C149.184 28.948 149.172 29.122 149.148 29.302C149.136 29.482 149.106 29.638 149.058 29.77H141.498V27.97H147.726L146.61 28.816C146.718 28.264 146.688 27.772 146.52 27.34C146.364 26.908 146.1 26.566 145.728 26.314C145.368 26.062 144.93 25.936 144.414 25.936C143.922 25.936 143.484 26.062 143.1 26.314C142.716 26.554 142.422 26.914 142.218 27.394C142.026 27.862 141.954 28.432 142.002 29.104C141.954 29.704 142.032 30.238 142.236 30.706C142.452 31.162 142.764 31.516 143.172 31.768C143.592 32.02 144.072 32.146 144.612 32.146C145.152 32.146 145.608 32.032 145.98 31.804C146.364 31.576 146.664 31.27 146.88 30.886L148.788 31.822C148.596 32.29 148.296 32.704 147.888 33.064C147.48 33.424 146.994 33.706 146.43 33.91C145.878 34.114 145.266 34.216 144.594 34.216ZM154.368 34V20.59H158.742C160.158 20.59 161.388 20.878 162.432 21.454C163.488 22.018 164.304 22.804 164.88 23.812C165.456 24.808 165.744 25.966 165.744 27.286C165.744 28.594 165.456 29.758 164.88 30.778C164.304 31.786 163.488 32.578 162.432 33.154C161.388 33.718 160.158 34 158.742 34H154.368ZM156.816 31.84H158.796C159.708 31.84 160.494 31.654 161.154 31.282C161.826 30.898 162.348 30.37 162.72 29.698C163.092 29.014 163.278 28.21 163.278 27.286C163.278 26.35 163.092 25.546 162.72 24.874C162.348 24.202 161.826 23.68 161.154 23.308C160.494 22.936 159.708 22.75 158.796 22.75H156.816V31.84ZM167.494 34V24.208H169.708V26.386L169.528 26.062C169.756 25.33 170.11 24.82 170.59 24.532C171.082 24.244 171.67 24.1 172.354 24.1H172.93V26.188H172.084C171.412 26.188 170.872 26.398 170.464 26.818C170.056 27.226 169.852 27.802 169.852 28.546V34H167.494ZM177.197 34.216C176.513 34.216 175.919 34.102 175.415 33.874C174.911 33.646 174.521 33.322 174.245 32.902C173.969 32.47 173.831 31.972 173.831 31.408C173.831 30.868 173.951 30.388 174.191 29.968C174.431 29.536 174.803 29.176 175.307 28.888C175.811 28.6 176.447 28.396 177.215 28.276L180.419 27.754V29.554L177.665 30.022C177.197 30.106 176.849 30.256 176.621 30.472C176.393 30.688 176.279 30.97 176.279 31.318C176.279 31.654 176.405 31.924 176.657 32.128C176.921 32.32 177.245 32.416 177.629 32.416C178.121 32.416 178.553 32.314 178.925 32.11C179.309 31.894 179.603 31.6 179.807 31.228C180.023 30.856 180.131 30.448 180.131 30.004V27.484C180.131 27.064 179.963 26.716 179.627 26.44C179.303 26.152 178.871 26.008 178.331 26.008C177.827 26.008 177.377 26.146 176.981 26.422C176.597 26.686 176.315 27.04 176.135 27.484L174.209 26.548C174.401 26.032 174.701 25.588 175.109 25.216C175.529 24.832 176.021 24.532 176.585 24.316C177.149 24.1 177.761 23.992 178.421 23.992C179.225 23.992 179.933 24.142 180.545 24.442C181.157 24.73 181.631 25.138 181.967 25.666C182.315 26.182 182.489 26.788 182.489 27.484V34H180.257V32.326L180.761 32.29C180.509 32.71 180.209 33.064 179.861 33.352C179.513 33.628 179.117 33.844 178.673 34C178.229 34.144 177.737 34.216 177.197 34.216ZM185.662 34V26.314H183.934V24.208H185.662V23.884C185.662 23.14 185.812 22.51 186.112 21.994C186.424 21.466 186.856 21.064 187.408 20.788C187.96 20.512 188.614 20.374 189.37 20.374C189.514 20.374 189.67 20.386 189.838 20.41C190.018 20.422 190.168 20.44 190.288 20.464V22.498C190.168 22.474 190.054 22.462 189.946 22.462C189.85 22.45 189.76 22.444 189.676 22.444C189.148 22.444 188.74 22.564 188.452 22.804C188.164 23.032 188.02 23.392 188.02 23.884V24.208H190.198V26.314H188.02V34H185.662ZM196.744 34.108C195.64 34.108 194.782 33.808 194.17 33.208C193.57 32.596 193.27 31.738 193.27 30.634V26.314H191.578V24.208H191.758C192.238 24.208 192.61 24.082 192.874 23.83C193.138 23.578 193.27 23.212 193.27 22.732V21.976H195.628V24.208H197.878V26.314H195.628V30.508C195.628 30.832 195.682 31.108 195.79 31.336C195.91 31.564 196.09 31.738 196.33 31.858C196.582 31.978 196.9 32.038 197.284 32.038C197.368 32.038 197.464 32.032 197.572 32.02C197.692 32.008 197.806 31.996 197.914 31.984V34C197.746 34.024 197.554 34.048 197.338 34.072C197.122 34.096 196.924 34.108 196.744 34.108Z" fill="#113595"/>
<path d="M68.875 19.4C68.875 20.8497 70.0503 22.025 71.5 22.025H80.5C81.9498 22.025 83.125 20.8497 83.125 19.4V14.4144C83.125 14.1855 83.3106 14 83.5394 14C83.7583 14 83.9662 14.0956 84.1087 14.2617L88.5527 19.443C89.1686 20.1611 89.4904 21.0855 89.4534 22.0308L88.941 35.1464C88.8623 37.159 87.2079 38.75 85.1938 38.75H84.625C84.2108 38.75 83.875 38.4142 83.875 38V30.5C83.875 29.0503 82.6998 27.875 81.25 27.875H70.75C69.3003 27.875 68.125 29.0503 68.125 30.5V38C68.125 38.4142 67.7892 38.75 67.375 38.75H67.1694C65.3637 38.75 63.8392 37.4082 63.6099 35.6171C62.869 29.8301 62.8371 23.9743 63.5148 18.1795L63.6062 17.3986C63.8328 15.4609 65.4745 14 67.4254 14H68.125C68.5392 14 68.875 14.3358 68.875 14.75V19.4Z" fill="#113595"/>
<path d="M70.375 38C70.375 38.4142 70.7108 38.75 71.125 38.75H80.875C81.2892 38.75 81.625 38.4142 81.625 38V30.5C81.625 30.2929 81.4571 30.125 81.25 30.125H70.75C70.5429 30.125 70.375 30.2929 70.375 30.5V38Z" fill="#113595"/>
<path d="M80.875 14.75C80.875 14.3358 80.5392 14 80.125 14H71.875C71.4608 14 71.125 14.3358 71.125 14.75V19.4C71.125 19.6071 71.2929 19.775 71.5 19.775H80.5C80.7071 19.775 80.875 19.6071 80.875 19.4V14.75Z" fill="#113595"/>
</g>
<defs>
<filter id="filter0_d_2051_2175" x="0" y="0" width="257" height="60" filterUnits="userSpaceOnUse" color-interpolation-filters="sRGB">
<feFlood flood-opacity="0" result="BackgroundImageFix"/>
<feColorMatrix in="SourceAlpha" type="matrix" values="0 0 0 0 0 0 0 0 0 0 0 0 0 0 0 0 0 0 127 0" result="hardAlpha"/>
<feOffset dy="4"/>
<feGaussianBlur stdDeviation="2"/>
<feComposite in2="hardAlpha" operator="out"/>
<feColorMatrix type="matrix" values="0 0 0 0 0 0 0 0 0 0 0 0 0 0 0 0 0 0 0.25 0"/>
<feBlend mode="normal" in2="BackgroundImageFix" result="effect1_dropShadow_2051_2175"/>
<feBlend mode="normal" in="SourceGraphic" in2="effect1_dropShadow_2051_2175" result="shape"/>
</filter>
</defs>
</svg>
