<svg width="249" height="52" viewBox="0 0 249 52" fill="none" xmlns="http://www.w3.org/2000/svg">
<g filter="url(#filter0_i_2051_2179)">
<rect width="249" height="52" rx="8" fill="#7D7D7D"/>
<path d="M109.275 34.216C108.423 34.216 107.631 34.06 106.899 33.748C106.179 33.436 105.555 33.004 105.027 32.452C104.511 31.888 104.133 31.234 103.893 30.49L105.927 29.608C106.251 30.376 106.719 30.982 107.331 31.426C107.943 31.858 108.633 32.074 109.401 32.074C109.833 32.074 110.205 32.008 110.517 31.876C110.841 31.732 111.087 31.54 111.255 31.3C111.435 31.06 111.525 30.772 111.525 30.436C111.525 30.04 111.405 29.716 111.165 29.464C110.937 29.2 110.589 28.996 110.121 28.852L107.547 28.024C106.503 27.7 105.717 27.214 105.189 26.566C104.661 25.918 104.397 25.156 104.397 24.28C104.397 23.512 104.583 22.834 104.955 22.246C105.339 21.658 105.867 21.202 106.539 20.878C107.223 20.542 108.003 20.374 108.879 20.374C109.683 20.374 110.421 20.518 111.093 20.806C111.765 21.082 112.341 21.472 112.821 21.976C113.313 22.468 113.679 23.05 113.919 23.722L111.903 24.622C111.639 23.95 111.243 23.434 110.715 23.074C110.187 22.702 109.575 22.516 108.879 22.516C108.471 22.516 108.111 22.588 107.799 22.732C107.487 22.864 107.241 23.056 107.061 23.308C106.893 23.548 106.809 23.836 106.809 24.172C106.809 24.544 106.929 24.874 107.169 25.162C107.409 25.438 107.775 25.654 108.267 25.81L110.733 26.584C111.801 26.932 112.599 27.412 113.127 28.024C113.667 28.636 113.937 29.392 113.937 30.292C113.937 31.06 113.739 31.738 113.343 32.326C112.947 32.914 112.401 33.376 111.705 33.712C111.009 34.048 110.199 34.216 109.275 34.216ZM118.826 34.216C118.142 34.216 117.548 34.102 117.044 33.874C116.54 33.646 116.15 33.322 115.874 32.902C115.598 32.47 115.46 31.972 115.46 31.408C115.46 30.868 115.58 30.388 115.82 29.968C116.06 29.536 116.432 29.176 116.936 28.888C117.44 28.6 118.076 28.396 118.844 28.276L122.048 27.754V29.554L119.294 30.022C118.826 30.106 118.478 30.256 118.25 30.472C118.022 30.688 117.908 30.97 117.908 31.318C117.908 31.654 118.034 31.924 118.286 32.128C118.55 32.32 118.874 32.416 119.258 32.416C119.75 32.416 120.182 32.314 120.554 32.11C120.938 31.894 121.232 31.6 121.436 31.228C121.652 30.856 121.76 30.448 121.76 30.004V27.484C121.76 27.064 121.592 26.716 121.256 26.44C120.932 26.152 120.5 26.008 119.96 26.008C119.456 26.008 119.006 26.146 118.61 26.422C118.226 26.686 117.944 27.04 117.764 27.484L115.838 26.548C116.03 26.032 116.33 25.588 116.738 25.216C117.158 24.832 117.65 24.532 118.214 24.316C118.778 24.1 119.39 23.992 120.05 23.992C120.854 23.992 121.562 24.142 122.174 24.442C122.786 24.73 123.26 25.138 123.596 25.666C123.944 26.182 124.118 26.788 124.118 27.484V34H121.886V32.326L122.39 32.29C122.138 32.71 121.838 33.064 121.49 33.352C121.142 33.628 120.746 33.844 120.302 34C119.858 34.144 119.366 34.216 118.826 34.216ZM129.073 34L125.221 24.208H127.795L130.585 31.912H129.631L132.439 24.208H135.013L131.161 34H129.073ZM140.785 34.216C139.777 34.216 138.895 33.988 138.139 33.532C137.383 33.076 136.795 32.458 136.375 31.678C135.955 30.898 135.745 30.034 135.745 29.086C135.745 28.102 135.955 27.232 136.375 26.476C136.807 25.708 137.389 25.102 138.121 24.658C138.865 24.214 139.693 23.992 140.605 23.992C141.373 23.992 142.045 24.118 142.621 24.37C143.209 24.622 143.707 24.97 144.115 25.414C144.523 25.858 144.835 26.368 145.051 26.944C145.267 27.508 145.375 28.12 145.375 28.78C145.375 28.948 145.363 29.122 145.339 29.302C145.327 29.482 145.297 29.638 145.249 29.77H137.689V27.97H143.917L142.801 28.816C142.909 28.264 142.879 27.772 142.711 27.34C142.555 26.908 142.291 26.566 141.919 26.314C141.559 26.062 141.121 25.936 140.605 25.936C140.113 25.936 139.675 26.062 139.291 26.314C138.907 26.554 138.613 26.914 138.409 27.394C138.217 27.862 138.145 28.432 138.193 29.104C138.145 29.704 138.223 30.238 138.427 30.706C138.643 31.162 138.955 31.516 139.363 31.768C139.783 32.02 140.263 32.146 140.803 32.146C141.343 32.146 141.799 32.032 142.171 31.804C142.555 31.576 142.855 31.27 143.071 30.886L144.979 31.822C144.787 32.29 144.487 32.704 144.079 33.064C143.671 33.424 143.185 33.706 142.621 33.91C142.069 34.114 141.457 34.216 140.785 34.216ZM150.56 34V20.59H154.934C156.35 20.59 157.58 20.878 158.624 21.454C159.68 22.018 160.496 22.804 161.072 23.812C161.648 24.808 161.936 25.966 161.936 27.286C161.936 28.594 161.648 29.758 161.072 30.778C160.496 31.786 159.68 32.578 158.624 33.154C157.58 33.718 156.35 34 154.934 34H150.56ZM153.008 31.84H154.988C155.9 31.84 156.686 31.654 157.346 31.282C158.018 30.898 158.54 30.37 158.912 29.698C159.284 29.014 159.47 28.21 159.47 27.286C159.47 26.35 159.284 25.546 158.912 24.874C158.54 24.202 158.018 23.68 157.346 23.308C156.686 22.936 155.9 22.75 154.988 22.75H153.008V31.84ZM163.686 34V24.208H165.9V26.386L165.72 26.062C165.948 25.33 166.302 24.82 166.782 24.532C167.274 24.244 167.862 24.1 168.546 24.1H169.122V26.188H168.276C167.604 26.188 167.064 26.398 166.656 26.818C166.248 27.226 166.044 27.802 166.044 28.546V34H163.686ZM173.388 34.216C172.704 34.216 172.11 34.102 171.606 33.874C171.102 33.646 170.712 33.322 170.436 32.902C170.16 32.47 170.022 31.972 170.022 31.408C170.022 30.868 170.142 30.388 170.382 29.968C170.622 29.536 170.994 29.176 171.498 28.888C172.002 28.6 172.638 28.396 173.406 28.276L176.61 27.754V29.554L173.856 30.022C173.388 30.106 173.04 30.256 172.812 30.472C172.584 30.688 172.47 30.97 172.47 31.318C172.47 31.654 172.596 31.924 172.848 32.128C173.112 32.32 173.436 32.416 173.82 32.416C174.312 32.416 174.744 32.314 175.116 32.11C175.5 31.894 175.794 31.6 175.998 31.228C176.214 30.856 176.322 30.448 176.322 30.004V27.484C176.322 27.064 176.154 26.716 175.818 26.44C175.494 26.152 175.062 26.008 174.522 26.008C174.018 26.008 173.568 26.146 173.172 26.422C172.788 26.686 172.506 27.04 172.326 27.484L170.4 26.548C170.592 26.032 170.892 25.588 171.3 25.216C171.72 24.832 172.212 24.532 172.776 24.316C173.34 24.1 173.952 23.992 174.612 23.992C175.416 23.992 176.124 24.142 176.736 24.442C177.348 24.73 177.822 25.138 178.158 25.666C178.506 26.182 178.68 26.788 178.68 27.484V34H176.448V32.326L176.952 32.29C176.7 32.71 176.4 33.064 176.052 33.352C175.704 33.628 175.308 33.844 174.864 34C174.42 34.144 173.928 34.216 173.388 34.216ZM181.853 34V26.314H180.125V24.208H181.853V23.884C181.853 23.14 182.003 22.51 182.303 21.994C182.615 21.466 183.047 21.064 183.599 20.788C184.151 20.512 184.805 20.374 185.561 20.374C185.705 20.374 185.861 20.386 186.029 20.41C186.209 20.422 186.359 20.44 186.479 20.464V22.498C186.359 22.474 186.245 22.462 186.137 22.462C186.041 22.45 185.951 22.444 185.867 22.444C185.339 22.444 184.931 22.564 184.643 22.804C184.355 23.032 184.211 23.392 184.211 23.884V24.208H186.389V26.314H184.211V34H181.853ZM192.935 34.108C191.831 34.108 190.973 33.808 190.361 33.208C189.761 32.596 189.461 31.738 189.461 30.634V26.314H187.769V24.208H187.949C188.429 24.208 188.801 24.082 189.065 23.83C189.329 23.578 189.461 23.212 189.461 22.732V21.976H191.819V24.208H194.069V26.314H191.819V30.508C191.819 30.832 191.873 31.108 191.981 31.336C192.101 31.564 192.281 31.738 192.521 31.858C192.773 31.978 193.091 32.038 193.475 32.038C193.559 32.038 193.655 32.032 193.763 32.02C193.883 32.008 193.997 31.996 194.105 31.984V34C193.937 34.024 193.745 34.048 193.529 34.072C193.313 34.096 193.115 34.108 192.935 34.108Z" fill="white"/>
<path d="M64.875 19.4C64.875 20.8497 66.0503 22.025 67.5 22.025H76.5C77.9498 22.025 79.125 20.8497 79.125 19.4V14.4144C79.125 14.1855 79.3106 14 79.5394 14C79.7583 14 79.9662 14.0956 80.1087 14.2617L84.5527 19.443C85.1686 20.1611 85.4904 21.0855 85.4534 22.0308L84.941 35.1464C84.8623 37.159 83.2079 38.75 81.1938 38.75H80.625C80.2108 38.75 79.875 38.4142 79.875 38V30.5C79.875 29.0503 78.6998 27.875 77.25 27.875H66.75C65.3003 27.875 64.125 29.0503 64.125 30.5V38C64.125 38.4142 63.7892 38.75 63.375 38.75H63.1694C61.3637 38.75 59.8392 37.4082 59.6099 35.6171C58.869 29.8301 58.8371 23.9743 59.5148 18.1795L59.6062 17.3986C59.8328 15.4609 61.4745 14 63.4254 14H64.125C64.5392 14 64.875 14.3358 64.875 14.75V19.4Z" fill="white"/>
<path d="M66.375 38C66.375 38.4142 66.7108 38.75 67.125 38.75H76.875C77.2892 38.75 77.625 38.4142 77.625 38V30.5C77.625 30.2929 77.4571 30.125 77.25 30.125H66.75C66.5429 30.125 66.375 30.2929 66.375 30.5V38Z" fill="white"/>
<path d="M76.875 14.75C76.875 14.3358 76.5392 14 76.125 14H67.875C67.4608 14 67.125 14.3358 67.125 14.75V19.4C67.125 19.6071 67.2929 19.775 67.5 19.775H76.5C76.7071 19.775 76.875 19.6071 76.875 19.4V14.75Z" fill="white"/>
</g>
<defs>
<filter id="filter0_i_2051_2179" x="0" y="0" width="249" height="56" filterUnits="userSpaceOnUse" color-interpolation-filters="sRGB">
<feFlood flood-opacity="0" result="BackgroundImageFix"/>
<feBlend mode="normal" in="SourceGraphic" in2="BackgroundImageFix" result="shape"/>
<feColorMatrix in="SourceAlpha" type="matrix" values="0 0 0 0 0 0 0 0 0 0 0 0 0 0 0 0 0 0 127 0" result="hardAlpha"/>
<feOffset dy="4"/>
<feGaussianBlur stdDeviation="2"/>
<feComposite in2="hardAlpha" operator="arithmetic" k2="-1" k3="1"/>
<feColorMatrix type="matrix" values="0 0 0 0 0 0 0 0 0 0 0 0 0 0 0 0 0 0 0.25 0"/>
<feBlend mode="normal" in2="shape" result="effect1_innerShadow_2051_2179"/>
</filter>
</defs>
</svg>
