<?xml version="1.0" encoding="UTF-8"?>
<svg id="Layer_1" xmlns="http://www.w3.org/2000/svg" xmlns:xlink="http://www.w3.org/1999/xlink" viewBox="0 0 1023 497.36">
  <defs>
    <filter id="filter0_i_2148_2210" x="0" y="0" width="319.875" height="118.772">
      <feFlood flood-opacity="0" result="BackgroundImageFix"/>
      <feBlend in="SourceGraphic" in2="BackgroundImageFix" result="shape"/>
      <feColorMatrix in="SourceAlpha" result="hardAlpha" values="0 0 0 0 0 0 0 0 0 0 0 0 0 0 0 0 0 0 127 0"/>
      <feOffset dy="4"/>
      <feGaussianBlur stdDeviation="2"/>
      <feComposite in2="hardAlpha" k2="-1" k3="1" operator="arithmetic"/>
      <feColorMatrix values="0 0 0 0 0 0 0 0 0 0 0 0 0 0 0 0 0 0 0.5 0"/>
      <feBlend in2="shape" result="effect1_innerShadow_2148_2210"/>
    </filter>
    <filter id="filter0_i_2148_2210-2" data-name="filter0_i_2148_2210" x="0" y="0" width="319.875" height="118.772">
      <feFlood flood-opacity="0" result="BackgroundImageFix"/>
      <feBlend in="SourceGraphic" in2="BackgroundImageFix" result="shape"/>
      <feColorMatrix in="SourceAlpha" result="hardAlpha" values="0 0 0 0 0 0 0 0 0 0 0 0 0 0 0 0 0 0 127 0"/>
      <feOffset dy="4"/>
      <feGaussianBlur stdDeviation="2"/>
      <feComposite in2="hardAlpha" k2="-1" k3="1" operator="arithmetic"/>
      <feColorMatrix values="0 0 0 0 0 0 0 0 0 0 0 0 0 0 0 0 0 0 0.5 0"/>
      <feBlend in2="shape" result="effect1_innerShadow_2148_2210"/>
    </filter>
    <filter id="filter0_i_2148_2210-3" data-name="filter0_i_2148_2210" x="0" y="0" width="319.875" height="118.772">
      <feFlood flood-opacity="0" result="BackgroundImageFix"/>
      <feBlend in="SourceGraphic" in2="BackgroundImageFix" result="shape"/>
      <feColorMatrix in="SourceAlpha" result="hardAlpha" values="0 0 0 0 0 0 0 0 0 0 0 0 0 0 0 0 0 0 127 0"/>
      <feOffset dy="4"/>
      <feGaussianBlur stdDeviation="2"/>
      <feComposite in2="hardAlpha" k2="-1" k3="1" operator="arithmetic"/>
      <feColorMatrix values="0 0 0 0 0 0 0 0 0 0 0 0 0 0 0 0 0 0 0.5 0"/>
      <feBlend in2="shape" result="effect1_innerShadow_2148_2210"/>
    </filter>
    <filter id="filter0_i_2148_2210-4" data-name="filter0_i_2148_2210" x="0" y="0" width="319.875" height="118.772">
      <feFlood flood-opacity="0" result="BackgroundImageFix"/>
      <feBlend in="SourceGraphic" in2="BackgroundImageFix" result="shape"/>
      <feColorMatrix in="SourceAlpha" result="hardAlpha" values="0 0 0 0 0 0 0 0 0 0 0 0 0 0 0 0 0 0 127 0"/>
      <feOffset dy="4"/>
      <feGaussianBlur stdDeviation="2"/>
      <feComposite in2="hardAlpha" k2="-1" k3="1" operator="arithmetic"/>
      <feColorMatrix values="0 0 0 0 0 0 0 0 0 0 0 0 0 0 0 0 0 0 0.5 0"/>
      <feBlend in2="shape" result="effect1_innerShadow_2148_2210"/>
    </filter>
    <filter id="filter0_i_2148_2210-5" data-name="filter0_i_2148_2210" x="0" y="0" width="319.875" height="118.772">
      <feFlood flood-opacity="0" result="BackgroundImageFix"/>
      <feBlend in="SourceGraphic" in2="BackgroundImageFix" result="shape"/>
      <feColorMatrix in="SourceAlpha" result="hardAlpha" values="0 0 0 0 0 0 0 0 0 0 0 0 0 0 0 0 0 0 127 0"/>
      <feOffset dy="4"/>
      <feGaussianBlur stdDeviation="2"/>
      <feComposite in2="hardAlpha" k2="-1" k3="1" operator="arithmetic"/>
      <feColorMatrix values="0 0 0 0 0 0 0 0 0 0 0 0 0 0 0 0 0 0 0.5 0"/>
      <feBlend in2="shape" result="effect1_innerShadow_2148_2210"/>
    </filter>
    <filter id="filter0_i_2148_2210-6" data-name="filter0_i_2148_2210" x="0" y="0" width="319.875" height="118.772">
      <feFlood flood-opacity="0" result="BackgroundImageFix"/>
      <feBlend in="SourceGraphic" in2="BackgroundImageFix" result="shape"/>
      <feColorMatrix in="SourceAlpha" result="hardAlpha" values="0 0 0 0 0 0 0 0 0 0 0 0 0 0 0 0 0 0 127 0"/>
      <feOffset dy="4"/>
      <feGaussianBlur stdDeviation="2"/>
      <feComposite in2="hardAlpha" k2="-1" k3="1" operator="arithmetic"/>
      <feColorMatrix values="0 0 0 0 0 0 0 0 0 0 0 0 0 0 0 0 0 0 0.5 0"/>
      <feBlend in2="shape" result="effect1_innerShadow_2148_2210"/>
    </filter>
    <filter id="filter0_i_2148_2210-7" data-name="filter0_i_2148_2210" x="0" y="0" width="319.875" height="118.772">
      <feFlood flood-opacity="0" result="BackgroundImageFix"/>
      <feBlend in="SourceGraphic" in2="BackgroundImageFix" result="shape"/>
      <feColorMatrix in="SourceAlpha" result="hardAlpha" values="0 0 0 0 0 0 0 0 0 0 0 0 0 0 0 0 0 0 127 0"/>
      <feOffset dy="4"/>
      <feGaussianBlur stdDeviation="2"/>
      <feComposite in2="hardAlpha" k2="-1" k3="1" operator="arithmetic"/>
      <feColorMatrix values="0 0 0 0 0 0 0 0 0 0 0 0 0 0 0 0 0 0 0.5 0"/>
      <feBlend in2="shape" result="effect1_innerShadow_2148_2210"/>
    </filter>
  </defs>
  <g filter="url(#filter0_i_2148_2210)">
    <rect width="319.88" height="114.77" rx="16" ry="16" fill="#fff"/>
  </g>
  <path d="M105.62,88.7v-2.44h-.76v-.7h1.61v2.42h.13c.3,0,.55-.07.75-.2s.35-.35.45-.65c.1-.3.15-.7.15-1.19s-.06-.89-.17-1.2c-.11-.31-.28-.53-.53-.67-.24-.14-.57-.21-.98-.21-.31,0-.62.04-.91.13-.29.08-.56.21-.83.38v-.83c.2-.12.46-.22.79-.3.33-.08.68-.12,1.06-.12.61,0,1.09.11,1.45.34.37.22.63.54.79.96.16.42.24.93.24,1.53s-.08,1.08-.24,1.49c-.15.41-.41.72-.76.94-.35.21-.81.32-1.4.32h-.84ZM107.96,82.59c-.33,0-.6-.08-.79-.23-.19-.16-.29-.38-.29-.67s.1-.52.29-.67c.19-.15.46-.23.79-.23s.6.08.8.23c.2.15.3.38.3.67s-.1.51-.3.67c-.2.15-.47.23-.8.23ZM107.96,82.12c.16,0,.28-.04.37-.12.08-.08.12-.18.12-.31,0-.13-.04-.24-.12-.31-.09-.08-.21-.12-.37-.12s-.27.04-.35.12c-.09.07-.13.18-.13.31s.04.23.13.31c.08.08.2.12.35.12ZM111.83,88.7v-3.89c0-.33-.08-.57-.23-.72-.15-.15-.4-.23-.75-.23-.24,0-.47.03-.68.1-.21.06-.41.15-.6.26v-.8c.13-.07.32-.13.57-.2.25-.07.54-.1.88-.1s.65.05.9.15c.25.1.45.27.59.5.14.23.21.53.21.91v4.02h-.89ZM116.23,88.8c-.39,0-.73-.07-1.02-.2-.28-.14-.5-.35-.65-.63-.15-.28-.22-.64-.22-1.09v-3.66h.89v3.61c0,.4.1.7.3.91.21.21.5.31.89.31.47,0,.83-.15,1.08-.45.26-.3.39-.7.39-1.21v-3.17h.89v5.48h-.74l-.04-.81h-.05c-.12.27-.33.49-.63.66-.29.17-.66.25-1.09.25ZM121.57,88.8c-.26,0-.51-.03-.76-.08-.24-.05-.5-.15-.77-.3l.28-.68c.15.09.31.16.5.23.19.06.4.09.65.09.49,0,.88-.18,1.15-.54.28-.37.42-.89.42-1.58s-.14-1.19-.43-1.54c-.28-.36-.71-.54-1.3-.54-.21,0-.43.02-.65.07s-.41.12-.58.21v-.75c.19-.1.4-.17.63-.21.23-.04.47-.06.7-.06.6,0,1.09.12,1.46.36.37.23.65.56.82.98.17.42.26.91.26,1.48,0,.88-.2,1.58-.6,2.09-.39.51-.99.77-1.78.77ZM127.29,88.8c-.39,0-.73-.07-1.02-.2-.28-.14-.5-.35-.65-.63-.15-.28-.22-.64-.22-1.09v-3.66h.89v3.61c0,.4.1.7.3.91.21.21.5.31.89.31.47,0,.83-.15,1.08-.45.26-.3.39-.7.39-1.21v-3.17h.89v5.48h-.74l-.04-.81h-.05c-.12.27-.33.49-.63.66-.29.17-.66.25-1.09.25ZM131.82,84.22v-1.79c0-.25.02-.46.07-.61.05-.16.11-.29.19-.39s.17-.18.26-.25v-.04h-1.75l.23-.7h2.82v.7c-.25,0-.46.08-.65.24-.19.16-.28.45-.28.88v1.96h-.89ZM132.91,88.8c-.18,0-.35-.03-.52-.09-.17-.06-.3-.17-.41-.32-.11-.15-.16-.37-.16-.64v-4.53h.89v4.42c0,.15.03.26.1.33.07.07.17.1.32.1.06,0,.12,0,.19-.02.07-.01.13-.03.19-.05l.12.65c-.13.06-.25.1-.37.12-.12.02-.24.03-.35.03ZM136.41,88.8c-.72,0-1.26-.19-1.62-.56-.35-.38-.53-.97-.53-1.78,0-.13,0-.28,0-.43.01-.16.03-.32.04-.47h2.1v.7h-1.26v.2c0,.42.05.75.14.99.09.23.23.4.41.49.19.09.42.14.69.14.3,0,.56-.06.78-.17.22-.11.39-.32.51-.62s.18-.73.18-1.29c0-.49-.05-.9-.16-1.21-.11-.31-.28-.55-.53-.7-.24-.15-.57-.23-.98-.23-.21,0-.42.02-.62.06-.2.03-.39.09-.58.16-.19.07-.37.15-.55.26v-.83c.13-.07.3-.14.49-.19.19-.06.41-.11.64-.14.23-.04.48-.06.73-.06.59,0,1.06.12,1.42.36.37.23.63.57.8,1,.17.43.25.93.25,1.52s-.08,1.09-.23,1.51c-.15.42-.4.74-.75.96-.34.22-.8.33-1.38.33ZM141.45,88.8c-.18,0-.35-.03-.52-.09-.17-.06-.3-.17-.41-.32-.11-.15-.16-.37-.16-.64v-4.53h.89v4.42c0,.15.03.26.1.33.07.07.17.1.32.1.06,0,.12,0,.19-.02.07-.01.13-.03.19-.05l.12.65c-.13.06-.25.1-.37.12-.12.02-.24.03-.35.03ZM144.93,88.8c-.53,0-.95-.12-1.26-.37-.3-.25-.51-.59-.64-1.02-.12-.43-.18-.9-.18-1.41,0-.57.06-1.03.17-1.4.12-.37.29-.67.5-.88.22-.22.48-.37.78-.46.31-.09.64-.14,1.01-.14.53,0,.97.08,1.3.24.34.15.59.37.75.66.16.29.24.63.24,1.03v3.65h-.88v-3.57c0-.41-.1-.73-.31-.94-.21-.22-.56-.33-1.07-.33-.31,0-.58.06-.83.17-.24.11-.43.32-.57.63-.13.31-.2.76-.2,1.35,0,.39.04.74.11,1.05.08.31.22.55.41.73.19.18.46.27.81.27.1,0,.19,0,.28-.02.09-.01.17-.03.25-.06l.09.69c-.11.05-.23.08-.37.1-.13.02-.26.03-.39.03ZM143.27,82.35v-.39l.73-.32h3.52v.71h-4.25ZM146.69,81.96v-1.13h.84v1.13h-.84ZM151.33,88.79c-.54,0-.97-.07-1.3-.21-.32-.14-.55-.34-.7-.59-.14-.25-.21-.55-.21-.9,0-.31.04-.55.13-.73.09-.19.21-.32.34-.41.14-.09.28-.14.43-.17v-.04c-.13-.04-.27-.11-.42-.2s-.27-.22-.37-.39c-.09-.17-.14-.38-.14-.63,0-.23.05-.45.16-.66.11-.21.28-.38.52-.51.24-.13.56-.2.95-.2.16,0,.33.01.5.04.17.02.31.06.4.11l-.16.69c-.07-.03-.17-.05-.29-.07-.11-.03-.23-.04-.36-.04-.28,0-.49.07-.62.2-.13.13-.2.3-.2.51,0,.23.06.41.17.53.12.12.27.2.45.25.19.04.38.06.58.06h.19v.65h-.19c-.4,0-.7.07-.89.22-.19.14-.28.38-.28.71,0,.19.04.37.11.53.08.16.21.29.4.38.19.09.46.14.8.14s.6-.05.79-.14c.19-.09.33-.23.41-.4.08-.18.12-.39.12-.64v-3.66h.89v3.6c0,.7-.18,1.2-.54,1.51-.35.31-.91.46-1.67.46ZM155.19,88.7v-5.48h.62l.16.87h.04c.11-.3.32-.54.62-.71.3-.17.66-.26,1.09-.26.4,0,.74.07,1.02.21.29.13.51.34.66.62.15.28.23.64.23,1.09v3.66h-.89v-3.61c0-.4-.1-.7-.3-.91-.2-.21-.5-.31-.89-.31-.31,0-.58.07-.8.22-.22.15-.39.35-.5.6-.11.25-.17.53-.17.84v3.17h-.89ZM155.27,82.35v-.39l.73-.32h3.52v.71h-4.25ZM158.7,81.96v-1.13h.84v1.13h-.84ZM158.68,80.24v-1.63h.85v1.63h-.85ZM162.79,88.8c-.39,0-.76-.04-1.1-.11-.33-.08-.62-.17-.85-.28l.26-.72c.14.05.3.11.48.17.18.06.37.11.58.15.21.03.43.05.65.05.35,0,.65-.07.88-.2.23-.13.35-.33.35-.58,0-.15-.04-.28-.13-.39-.08-.11-.21-.22-.38-.31-.17-.09-.4-.18-.67-.27-.42-.13-.78-.27-1.07-.42-.29-.15-.51-.33-.66-.54-.15-.21-.22-.48-.22-.79,0-.28.07-.53.22-.74.15-.22.39-.39.7-.51.32-.13.73-.19,1.22-.19.32,0,.62.03.9.09.29.05.51.13.67.23v.75c-.11-.05-.26-.11-.43-.16-.17-.05-.35-.1-.55-.13s-.41-.05-.62-.05c-.45,0-.76.07-.95.21-.18.13-.27.29-.27.46,0,.15.04.27.12.37.09.1.23.2.43.29.21.09.48.2.83.32.32.11.61.23.88.37.27.14.48.32.63.53.16.21.24.47.24.8,0,.28-.07.54-.21.79-.13.24-.36.44-.67.59-.31.15-.73.22-1.26.22ZM168.08,88.8c-.72,0-1.26-.19-1.62-.56-.35-.38-.53-.97-.53-1.78,0-.13,0-.28,0-.43.01-.16.03-.32.04-.47h2.1v.7h-1.26v.2c0,.42.05.75.14.99.09.23.23.4.41.49.19.09.42.14.69.14.3,0,.56-.06.78-.17.22-.11.39-.32.51-.62s.18-.73.18-1.29c0-.49-.05-.9-.16-1.21-.11-.31-.28-.55-.53-.7-.24-.15-.57-.23-.98-.23-.21,0-.42.02-.62.06-.2.03-.39.09-.58.16-.19.07-.37.15-.55.26v-.83c.13-.07.3-.14.49-.19.19-.06.41-.11.64-.14.23-.04.48-.06.73-.06.59,0,1.06.12,1.42.36.37.23.63.57.8,1,.17.43.25.93.25,1.52s-.08,1.09-.23,1.51-.4.74-.75.96c-.34.22-.8.33-1.38.33ZM173.82,88.8c-.72,0-1.26-.19-1.62-.56-.35-.38-.53-.97-.53-1.78,0-.13,0-.28,0-.43.01-.16.03-.32.04-.47h2.1v.7h-1.26v.2c0,.42.05.75.14.99.09.23.23.4.41.49.19.09.42.14.69.14.3,0,.56-.06.78-.17.22-.11.39-.32.51-.62.12-.3.18-.73.18-1.29,0-.49-.05-.9-.16-1.21-.11-.31-.28-.55-.53-.7-.24-.15-.57-.23-.98-.23-.21,0-.42.02-.62.06-.2.03-.39.09-.58.16-.19.07-.37.15-.55.26v-.83c.13-.07.3-.14.49-.19.19-.06.41-.11.64-.14.23-.04.48-.06.73-.06.59,0,1.06.12,1.42.36.37.23.63.57.8,1,.17.43.25.93.25,1.52s-.08,1.09-.23,1.51c-.15.42-.4.74-.75.96-.34.22-.8.33-1.38.33ZM179.51,88.8c-.39,0-.73-.07-1.02-.2-.28-.14-.5-.35-.65-.63-.15-.28-.22-.64-.22-1.09v-3.66h.89v3.61c0,.4.1.7.3.91.21.21.5.31.89.31.47,0,.83-.15,1.08-.45.26-.3.39-.7.39-1.21v-3.17h.89v5.48h-.74l-.04-.81h-.05c-.12.27-.33.49-.63.66-.29.17-.66.25-1.09.25ZM181.25,91.31v-1.06c0-.17-.07-.25-.22-.25-.03,0-.07,0-.1.01-.04,0-.08.02-.11.03l-.07-.6c.1-.03.21-.06.33-.08.11-.01.21-.02.28-.02.23,0,.41.05.52.16.11.11.16.27.16.46v1.35h-.79ZM186.39,88.8c-.43,0-.8-.08-1.11-.25-.31-.17-.52-.41-.63-.72h-.04l-.05.87h-.73v-5.48h.89v3.17c0,.33.06.63.17.88.12.25.29.44.51.58.23.13.5.2.81.2.39,0,.69-.1.88-.31.19-.21.29-.51.29-.91v-3.61h.89v3.67c0,.44-.08.8-.23,1.08-.15.28-.36.49-.64.63-.28.13-.62.2-1.01.2ZM187.01,82.35c-.28,0-.5-.04-.67-.12-.17-.08-.29-.18-.36-.31-.08-.13-.12-.26-.12-.4,0-.1.02-.21.05-.32.03-.12.06-.22.11-.29l.75.13s-.03.07-.04.14c-.01.06-.02.12-.02.17,0,.09.03.16.08.23.05.06.14.09.27.09h2.53v.68h-2.58ZM191.84,88.8c-.56,0-.99-.13-1.3-.38-.31-.26-.52-.61-.64-1.05-.12-.45-.18-.95-.18-1.52,0-.65.06-1.18.18-1.58.13-.4.31-.69.55-.87.24-.19.53-.28.88-.28.23,0,.43.04.59.12.17.08.28.21.35.4h.04c.07-.19.19-.33.36-.4.17-.08.38-.12.61-.12.43,0,.77.12,1,.35.24.23.36.58.36,1.05v4.18h-.89v-4.17c0-.26-.06-.44-.17-.53-.11-.09-.26-.14-.43-.14-.19,0-.34.05-.43.14-.09.09-.14.25-.16.46h-.56c-.03-.23-.1-.39-.21-.47-.11-.09-.24-.13-.38-.13-.27,0-.47.16-.6.47-.13.31-.2.82-.2,1.53,0,.46.03.85.1,1.18.07.33.21.58.4.76.19.17.47.26.84.26.13,0,.24,0,.33-.02.09-.01.17-.03.25-.05l.09.68c-.1.05-.22.08-.36.1-.14.02-.28.03-.42.03ZM190.26,82.35v-.39l.73-.32h3.52v.71h-4.25Z" fill="#7d7d7d"/>
  <path d="M248.44,87.64v-7.45h.98v7.45h-.98ZM253.42,87.76c-.51,0-.96-.12-1.37-.37-.4-.25-.72-.58-.95-1.01-.23-.43-.35-.9-.35-1.43s.12-1.02.35-1.44c.23-.43.55-.76.95-1.01.41-.25.86-.37,1.37-.37.45,0,.84.1,1.19.29.35.19.62.44.82.76l-.15.23v-3.34h.94v7.57h-.91v-1.15l.12.16c-.19.35-.46.63-.82.82-.35.19-.75.29-1.19.29ZM253.5,86.86c.34,0,.64-.08.91-.25.27-.17.48-.39.63-.68.16-.29.24-.62.24-.98s-.08-.69-.24-.98c-.15-.29-.36-.52-.63-.69-.27-.17-.57-.25-.91-.25s-.64.09-.91.26c-.27.17-.48.39-.63.68-.15.28-.23.61-.23.98s.08.69.23.98c.15.29.36.51.63.68.27.17.57.25.91.25ZM260.14,87.76c-.52,0-.98-.12-1.39-.37-.41-.25-.73-.58-.96-1.01-.23-.43-.35-.92-.35-1.45s.11-1.02.34-1.44c.23-.42.55-.75.94-.99.4-.25.85-.37,1.34-.37.4,0,.75.07,1.06.22.31.14.58.33.79.58.22.24.39.52.5.83.12.31.18.63.18.96,0,.07,0,.16-.02.25,0,.09-.02.17-.03.25h-4.42v-.8h3.88l-.44.36c.06-.35.03-.66-.1-.93-.13-.27-.31-.49-.56-.65-.25-.16-.53-.24-.84-.24s-.6.08-.86.24c-.26.16-.46.39-.61.69-.14.29-.2.64-.17,1.05-.03.39.03.74.18,1.04.15.29.37.52.64.69.28.16.58.24.91.24.36,0,.66-.08.91-.25.25-.17.45-.38.6-.64l.78.4c-.11.25-.27.47-.5.68-.22.2-.48.36-.79.48-.3.12-.64.18-1.01.18ZM265.31,87.76c-.35,0-.67-.06-.94-.19-.27-.13-.48-.31-.63-.54-.15-.23-.23-.5-.23-.8s.06-.54.18-.77c.13-.23.32-.43.58-.59.27-.16.6-.27,1-.34l2-.33v.78l-1.79.3c-.35.06-.6.17-.76.33-.15.16-.23.36-.23.59,0,.22.09.4.26.55.18.15.4.22.67.22.34,0,.63-.07.88-.21.25-.15.45-.34.59-.59.15-.25.22-.52.22-.82v-1.37c0-.29-.11-.53-.33-.71-.21-.19-.5-.28-.85-.28-.31,0-.58.08-.82.24-.23.15-.41.36-.52.62l-.81-.42c.1-.25.26-.47.48-.66.22-.2.48-.36.77-.47.29-.11.6-.17.92-.17.41,0,.78.08,1.09.24.31.15.56.37.73.65.18.27.27.59.27.96v3.66h-.91v-1.02l.17.06c-.11.21-.27.4-.46.56-.19.16-.42.29-.68.38-.26.09-.54.14-.85.14ZM270.94,89.14c-.54-.62-.95-1.31-1.23-2.06-.28-.76-.42-1.57-.42-2.42s.14-1.67.42-2.42c.28-.75.69-1.44,1.23-2.05h.8c-.48.68-.84,1.4-1.09,2.16-.25.75-.37,1.52-.37,2.31s.12,1.56.37,2.32c.25.75.61,1.47,1.09,2.16h-.8ZM274.64,87.76c-.54,0-1.01-.13-1.41-.4-.4-.27-.68-.63-.85-1.08l.74-.36c.15.32.36.57.63.76.27.19.56.28.89.28.29,0,.54-.07.73-.21s.29-.32.29-.55c0-.16-.05-.29-.14-.38-.09-.1-.19-.18-.32-.23-.13-.06-.24-.1-.35-.13l-.81-.23c-.49-.14-.84-.34-1.07-.6-.22-.26-.33-.56-.33-.91,0-.32.08-.6.24-.83.17-.24.39-.43.67-.56.29-.13.61-.2.96-.2.47,0,.9.12,1.27.36.38.24.65.58.81,1.01l-.76.35c-.12-.28-.3-.5-.54-.66-.24-.17-.51-.25-.81-.25-.27,0-.49.07-.65.21-.16.13-.24.3-.24.51,0,.15.04.28.12.38.08.09.18.17.29.22.11.05.22.09.33.12l.88.26c.44.13.78.32,1.02.59.25.27.37.59.37.96,0,.3-.08.57-.25.81-.17.24-.4.43-.69.56-.29.13-.63.2-1.02.2ZM277.36,89.14c.47-.69.83-1.41,1.08-2.16.25-.76.37-1.53.37-2.32s-.12-1.56-.37-2.31c-.25-.76-.61-1.48-1.08-2.16h.8c.54.61.95,1.3,1.22,2.05.28.75.42,1.56.42,2.42s-.14,1.66-.42,2.42c-.27.75-.68,1.44-1.22,2.06h-.8Z" fill="#7d7d7d"/>
  <path d="M107.94,45.57l-3.6-13.41h2.63l2.83,11.43h-.68l2.95-11.43h2.54l2.93,11.43h-.68l2.83-11.43h2.63l-3.6,13.41h-2.81l-2.97-11.12h.79l-2.97,11.12h-2.81ZM125.84,45.78c-.68,0-1.28-.11-1.78-.34-.5-.23-.89-.55-1.17-.97-.28-.43-.41-.93-.41-1.49s.12-1.02.36-1.44c.24-.43.61-.79,1.12-1.08.5-.29,1.14-.49,1.91-.61l3.2-.52v1.8l-2.75.47c-.47.08-.82.23-1.04.45-.23.22-.34.5-.34.85s.13.61.38.81c.26.19.59.29.97.29.49,0,.92-.1,1.3-.31.38-.22.68-.51.88-.88.22-.37.32-.78.32-1.22v-2.52c0-.42-.17-.77-.5-1.04-.32-.29-.76-.43-1.3-.43-.5,0-.95.14-1.35.41-.38.26-.67.62-.85,1.06l-1.93-.94c.19-.52.49-.96.9-1.33.42-.38.91-.68,1.48-.9.56-.22,1.18-.32,1.84-.32.8,0,1.51.15,2.12.45.61.29,1.09.7,1.42,1.22.35.52.52,1.12.52,1.82v6.52h-2.23v-1.67l.5-.04c-.25.42-.55.77-.9,1.06-.35.28-.74.49-1.19.65-.44.14-.94.22-1.48.22ZM133.32,45.57v-9.79h2.36v9.79h-2.36ZM133.32,34.68v-2.52h2.36v2.52h-2.36ZM142.32,45.68c-1.1,0-1.96-.3-2.57-.9-.6-.61-.9-1.47-.9-2.57v-4.32h-1.69v-2.11h.18c.48,0,.85-.13,1.12-.38.26-.25.4-.62.4-1.1v-.76h2.36v2.23h2.25v2.11h-2.25v4.19c0,.32.05.6.16.83.12.23.3.4.54.52.25.12.57.18.95.18.08,0,.18,0,.29-.02.12-.01.23-.02.34-.04v2.02c-.17.02-.36.05-.58.07-.22.02-.41.04-.59.04ZM145.29,45.57v-9.79h2.36v9.79h-2.36ZM145.29,34.68v-2.52h2.36v2.52h-2.36ZM149.82,45.57v-9.79h2.21v1.93l-.18-.34c.23-.59.6-1.03,1.12-1.33.53-.31,1.14-.47,1.84-.47s1.36.16,1.91.47c.56.31,1,.75,1.31,1.31.31.55.47,1.19.47,1.93v6.3h-2.36v-5.74c0-.43-.08-.8-.25-1.12s-.4-.55-.7-.72c-.29-.18-.63-.27-1.03-.27s-.73.09-1.03.27c-.3.17-.53.41-.7.72s-.25.68-.25,1.12v5.74h-2.36ZM165.24,49.53c-.73,0-1.41-.12-2.03-.36-.62-.24-1.16-.58-1.62-1.01-.44-.42-.77-.92-.97-1.49l2.2-.83c.14.46.43.82.85,1.1.43.29.96.43,1.58.43.48,0,.9-.09,1.26-.27.37-.18.66-.44.86-.79.2-.34.31-.74.31-1.22v-2.23l.45.54c-.34.59-.79,1.03-1.35,1.33s-1.21.45-1.93.45c-.91,0-1.73-.21-2.45-.63-.72-.42-1.28-1-1.69-1.73-.41-.73-.61-1.55-.61-2.47s.2-1.75.61-2.47c.41-.72.97-1.28,1.67-1.69.71-.42,1.51-.63,2.41-.63.73,0,1.37.16,1.93.47.56.3,1.03.74,1.4,1.31l-.32.59v-2.16h2.23v9.31c0,.85-.21,1.61-.63,2.29-.41.67-.97,1.2-1.69,1.58-.71.38-1.53.58-2.47.58ZM165.14,42.99c.5,0,.94-.11,1.31-.32.38-.23.68-.54.9-.94.22-.4.32-.85.32-1.37s-.11-.95-.34-1.35c-.22-.41-.52-.73-.9-.95-.37-.23-.8-.34-1.3-.34s-.94.11-1.33.34-.71.55-.94.95c-.22.4-.32.85-.32,1.35s.11.95.32,1.35c.23.4.53.71.92.94.4.23.85.34,1.35.34ZM104.34,68.57l4.63-13.41h3.17l4.63,13.41h-2.66l-.95-2.88h-5.18l-.97,2.88h-2.65ZM108.66,63.53h3.78l-2.23-6.68h.68l-2.23,6.68ZM118.06,72.17v-13.39h2.21v1.94l-.22-.49c.34-.53.79-.94,1.37-1.22.58-.3,1.24-.45,2-.45.92,0,1.76.23,2.5.68.74.46,1.33,1.07,1.76,1.84.44.77.67,1.63.67,2.59s-.22,1.81-.65,2.59c-.43.78-1.02,1.4-1.76,1.85-.74.44-1.59.67-2.54.67-.71,0-1.36-.14-1.96-.41-.59-.29-1.06-.7-1.4-1.22l.38-.47v5.49h-2.36ZM123.13,66.62c.54,0,1.02-.13,1.44-.38.42-.25.74-.6.97-1.04.24-.44.36-.95.36-1.53s-.12-1.08-.36-1.51c-.23-.44-.55-.79-.97-1.04-.42-.26-.9-.4-1.44-.4s-.98.13-1.4.38c-.41.25-.73.61-.97,1.06-.23.44-.34.95-.34,1.51s.11,1.09.34,1.53c.24.44.56.79.97,1.04.42.25.89.38,1.4.38ZM130.15,72.17v-13.39h2.21v1.94l-.22-.49c.34-.53.79-.94,1.37-1.22.58-.3,1.24-.45,2-.45.92,0,1.76.23,2.5.68.74.46,1.33,1.07,1.76,1.84.44.77.67,1.63.67,2.59s-.22,1.81-.65,2.59c-.43.78-1.02,1.4-1.76,1.85-.74.44-1.59.67-2.54.67-.71,0-1.36-.14-1.96-.41-.59-.29-1.06-.7-1.4-1.22l.38-.47v5.49h-2.36ZM135.23,66.62c.54,0,1.02-.13,1.44-.38s.74-.6.97-1.04c.24-.44.36-.95.36-1.53s-.12-1.08-.36-1.51c-.23-.44-.55-.79-.97-1.04-.42-.26-.9-.4-1.44-.4s-.98.13-1.4.38c-.41.25-.73.61-.97,1.06-.23.44-.34.95-.34,1.51s.11,1.09.34,1.53c.24.44.56.79.97,1.04.42.25.89.38,1.4.38ZM142.24,68.57v-9.79h2.21v2.18l-.18-.32c.23-.73.58-1.24,1.06-1.53.49-.29,1.08-.43,1.76-.43h.58v2.09h-.85c-.67,0-1.21.21-1.62.63-.41.41-.61.98-.61,1.73v5.45h-2.36ZM153.77,68.78c-.96,0-1.84-.22-2.63-.67-.78-.44-1.4-1.05-1.87-1.82-.46-.77-.68-1.64-.68-2.63s.23-1.86.68-2.63c.47-.77,1.09-1.37,1.87-1.82s1.66-.67,2.63-.67,1.83.22,2.61.67c.78.44,1.4,1.05,1.85,1.82.47.76.7,1.63.7,2.63s-.23,1.86-.7,2.63-1.09,1.37-1.87,1.82-1.64.67-2.59.67ZM153.77,66.62c.53,0,.99-.13,1.39-.38.41-.25.73-.6.95-1.04.24-.46.36-.97.36-1.53s-.12-1.08-.36-1.51c-.23-.44-.55-.79-.95-1.04-.4-.26-.86-.4-1.39-.4s-1.01.13-1.42.4c-.41.25-.73.6-.97,1.04-.23.43-.34.94-.34,1.51s.11,1.07.34,1.53c.24.44.56.79.97,1.04.41.25.88.38,1.42.38ZM163.5,68.57l-3.85-9.79h2.57l2.79,7.7h-.95l2.81-7.7h2.57l-3.85,9.79h-2.09ZM173.36,68.78c-.68,0-1.28-.11-1.78-.34-.5-.23-.89-.55-1.17-.97-.28-.43-.41-.93-.41-1.49s.12-1.02.36-1.44c.24-.43.61-.79,1.12-1.08.5-.29,1.14-.49,1.91-.61l3.2-.52v1.8l-2.75.47c-.47.08-.82.23-1.04.45-.23.22-.34.5-.34.85s.13.61.38.81c.26.19.59.29.97.29.49,0,.92-.1,1.3-.31.38-.22.68-.51.88-.88.22-.37.32-.78.32-1.22v-2.52c0-.42-.17-.77-.5-1.04-.32-.29-.76-.43-1.3-.43-.5,0-.95.14-1.35.41-.38.26-.67.62-.85,1.06l-1.93-.94c.19-.52.49-.96.9-1.33.42-.38.91-.68,1.48-.9.56-.22,1.18-.32,1.84-.32.8,0,1.51.15,2.12.45.61.29,1.09.7,1.42,1.22.35.52.52,1.12.52,1.82v6.52h-2.23v-1.67l.5-.04c-.25.42-.55.77-.9,1.06-.35.28-.74.49-1.19.65-.44.14-.94.22-1.48.22ZM180.83,68.57v-13.63h2.36v13.63h-2.36Z"/>
  <g filter="url(#filter0_i_2148_2210-2)">
    <path d="M63.23,87.14c-38.42-.66-38.41-57.8,0-58.45,38.41.66,38.41,57.8,0,58.45ZM66.15,57.92v-14.61h-5.84v20.46h17.53v-5.84h-11.69Z" fill="#ffb800"/>
  </g>
  <path d="M212.54,96.71V18.07" fill="none" stroke="#7d7d7d"/>
  <path d="M26.37,146.77l-3.34-11.92h1.65l2.8,10.5h-.38l2.91-10.5h1.65l2.9,10.5h-.4l2.82-10.5h1.65l-3.34,11.92h-1.74l-2.91-10.45h.42l-2.91,10.45h-1.74ZM41.83,146.96c-.57,0-1.07-.1-1.5-.3-.43-.21-.76-.5-1.01-.86-.25-.37-.37-.8-.37-1.28s.1-.87.29-1.23c.2-.37.51-.69.93-.94.43-.26.96-.44,1.6-.54l3.2-.53v1.25l-2.86.48c-.55.1-.96.27-1.22.53-.25.26-.37.57-.37.94,0,.35.14.65.42.88.29.23.65.35,1.07.35.54,0,1.01-.11,1.41-.34.41-.23.72-.55.94-.94.23-.39.35-.83.35-1.31v-2.19c0-.47-.18-.85-.53-1.14-.34-.3-.79-.45-1.36-.45-.49,0-.93.13-1.31.38-.37.25-.65.58-.83.99l-1.3-.67c.16-.39.42-.75.77-1.06.35-.32.76-.57,1.23-.75.47-.18.96-.27,1.47-.27.66,0,1.24.13,1.74.38.5.25.89.59,1.17,1.04.29.44.43.95.43,1.54v5.86h-1.46v-1.63l.27.1c-.18.34-.43.64-.74.9-.31.26-.67.46-1.09.61-.42.15-.87.22-1.36.22ZM48.5,146.77v-8.62h1.49v8.62h-1.49ZM48.5,136.77v-1.92h1.49v1.92h-1.49ZM55.8,146.87c-.84,0-1.49-.24-1.95-.72-.45-.48-.67-1.16-.67-2.03v-4.54h-1.57v-1.42h.32c.38,0,.69-.12.91-.35.22-.23.34-.54.34-.93v-.7h1.49v1.98h1.94v1.42h-1.94v4.5c0,.29.04.54.13.75.1.21.25.38.46.51.21.12.5.18.85.18.07,0,.17,0,.27-.02.12-.01.22-.02.32-.03v1.31c-.14.03-.29.05-.46.06-.17.02-.31.03-.43.03ZM58.64,146.77v-8.62h1.49v8.62h-1.49ZM58.64,136.77v-1.92h1.49v1.92h-1.49ZM62.44,146.77v-8.62h1.46v1.68l-.24-.14c.21-.54.55-.97,1.02-1.26.48-.31,1.04-.46,1.68-.46s1.17.14,1.65.42c.49.28.87.66,1.15,1.15.29.49.43,1.05.43,1.66v5.58h-1.5v-5.1c0-.48-.09-.88-.26-1.22-.17-.33-.42-.59-.74-.77-.31-.19-.67-.29-1.07-.29s-.77.1-1.09.29c-.31.18-.55.44-.74.78-.18.33-.27.73-.27,1.2v5.1h-1.49ZM75.83,150.29c-.61,0-1.17-.1-1.7-.29-.51-.19-.95-.46-1.33-.8-.36-.33-.64-.72-.83-1.17l1.39-.64c.15.41.43.75.85,1.02.43.29.96.43,1.6.43.49,0,.93-.1,1.33-.29.41-.18.73-.46.96-.83.23-.36.35-.8.35-1.33v-1.94l.27.29c-.3.59-.73,1.04-1.3,1.34-.55.31-1.17.46-1.84.46-.81,0-1.54-.19-2.18-.56-.64-.38-1.14-.9-1.5-1.55-.36-.66-.54-1.39-.54-2.19s.18-1.54.54-2.19c.36-.65.86-1.16,1.49-1.54.64-.38,1.37-.58,2.18-.58.67,0,1.28.15,1.82.46.55.3,1,.71,1.33,1.25l-.22.4v-1.92h1.46v8.26c0,.75-.18,1.41-.53,2-.35.59-.84,1.05-1.47,1.38-.62.34-1.33.51-2.13.51ZM75.72,145.12c.51,0,.97-.13,1.38-.38.42-.26.75-.6.99-1.02.25-.44.37-.92.37-1.46s-.12-1-.37-1.44c-.25-.44-.58-.78-.99-1.04-.41-.26-.86-.38-1.38-.38s-1,.13-1.42.38c-.43.26-.76.6-1.01,1.04-.23.43-.35.91-.35,1.44s.12,1.02.35,1.46c.25.43.58.77.99,1.02.43.26.91.38,1.44.38ZM87.29,146.77v-10.48h-3.23v-1.44h8v1.44h-3.18v10.48h-1.58ZM93.39,146.77v-8.62h1.49v8.62h-1.49ZM93.39,136.77v-1.92h1.49v1.92h-1.49ZM97.19,146.77v-8.62h1.46v1.76l-.21-.27c.21-.54.55-.96,1.02-1.25.47-.29,1-.43,1.58-.43.67,0,1.28.19,1.81.56.54.37.92.86,1.12,1.47l-.42.02c.22-.67.6-1.18,1.14-1.52.53-.35,1.12-.53,1.78-.53.6,0,1.14.14,1.62.42.49.28.88.66,1.17,1.15.29.49.43,1.05.43,1.66v5.58h-1.5v-5.1c0-.48-.08-.88-.26-1.22-.17-.33-.41-.59-.7-.77-.29-.19-.63-.29-1.02-.29s-.73.1-1.04.29c-.3.18-.54.44-.72.78-.17.33-.26.73-.26,1.2v5.1h-1.5v-5.1c0-.48-.08-.88-.26-1.22-.17-.33-.4-.59-.7-.77-.29-.19-.63-.29-1.02-.29s-.73.1-1.04.29c-.3.18-.54.44-.72.78-.17.33-.26.73-.26,1.2v5.1h-1.49ZM115.77,146.96c-.83,0-1.57-.2-2.22-.59-.65-.39-1.16-.93-1.54-1.62-.37-.69-.56-1.47-.56-2.32s.18-1.63.54-2.3c.37-.67.87-1.2,1.5-1.58.64-.39,1.35-.59,2.14-.59.64,0,1.21.12,1.7.35.5.22.92.53,1.26.93.35.38.62.83.8,1.33.19.49.29,1,.29,1.54,0,.12-.01.25-.03.4-.01.14-.03.27-.05.4h-7.07v-1.28h6.21l-.7.58c.1-.55.04-1.05-.16-1.49-.2-.44-.5-.78-.9-1.04-.4-.26-.84-.38-1.34-.38s-.96.13-1.38.38-.74.62-.98,1.1c-.22.47-.32,1.03-.27,1.68-.04.63.05,1.18.29,1.66.24.47.59.84,1.02,1.1.45.26.93.38,1.46.38.58,0,1.06-.13,1.46-.4.39-.27.71-.61.96-1.02l1.25.64c-.17.39-.44.76-.8,1.09-.35.32-.77.58-1.26.77-.48.19-1.02.29-1.62.29Z" fill="#fff"/>
  <path d="M29.02,222.77l4.27-11.92h1.86l4.27,11.92h-1.68l-.98-2.8h-5.09l-.98,2.8h-1.68ZM32.18,218.53h4.1l-2.27-6.54h.45l-2.27,6.54ZM42.67,222.77l-3.38-8.62h1.66l2.7,7.3h-.58l2.72-7.3h1.66l-3.39,8.62h-1.41ZM52.75,226.29c-.61,0-1.17-.1-1.7-.29-.51-.19-.95-.46-1.33-.8-.36-.33-.64-.72-.83-1.17l1.39-.64c.15.41.43.75.85,1.02.43.29.96.43,1.6.43.49,0,.93-.1,1.33-.29.41-.18.73-.46.96-.83.23-.36.35-.8.35-1.33v-1.94l.27.29c-.3.59-.73,1.04-1.3,1.34-.55.31-1.17.46-1.84.46-.81,0-1.54-.19-2.18-.56-.64-.38-1.14-.9-1.5-1.55-.36-.66-.54-1.39-.54-2.19s.18-1.54.54-2.19c.36-.65.86-1.16,1.49-1.54.64-.38,1.37-.58,2.18-.58.67,0,1.28.15,1.82.46.55.3,1,.71,1.33,1.25l-.22.4v-1.92h1.46v8.26c0,.75-.18,1.41-.53,2-.35.59-.84,1.05-1.47,1.38-.62.34-1.33.51-2.13.51ZM52.64,221.12c.51,0,.97-.13,1.38-.38.42-.26.75-.6.99-1.02.25-.44.37-.92.37-1.46s-.12-1-.37-1.44c-.25-.44-.58-.78-.99-1.04-.41-.26-.86-.38-1.38-.38s-1,.13-1.42.38c-.43.26-.76.6-1.01,1.04-.23.43-.35.91-.35,1.44s.12,1.02.35,1.46c.25.43.58.77.99,1.02.43.26.91.38,1.44.38ZM59.8,222.77v-1.92h1.55v1.92h-1.55ZM67.21,222.77v-11.92h3.9c1.21,0,2.26.25,3.15.74.9.49,1.59,1.18,2.08,2.08.49.89.74,1.93.74,3.14s-.25,2.24-.74,3.14-1.18,1.6-2.08,2.1c-.9.49-1.95.74-3.15.74h-3.9ZM68.78,221.33h2.35c.89,0,1.65-.19,2.29-.56.65-.37,1.15-.9,1.5-1.57.35-.68.53-1.48.53-2.4s-.18-1.73-.54-2.4c-.35-.67-.85-1.19-1.5-1.55-.64-.37-1.4-.56-2.27-.56h-2.35v9.04ZM81.31,222.96c-.57,0-1.07-.1-1.5-.3-.43-.21-.76-.5-1.01-.86-.25-.37-.37-.8-.37-1.28s.1-.87.29-1.23c.2-.37.51-.69.93-.94.43-.26.96-.44,1.6-.54l3.2-.53v1.25l-2.86.48c-.55.1-.96.27-1.22.53-.25.26-.37.57-.37.94,0,.35.14.65.42.88.29.23.65.35,1.07.35.54,0,1.01-.11,1.41-.34.41-.23.72-.55.94-.94.23-.39.35-.83.35-1.31v-2.19c0-.47-.18-.85-.53-1.14-.34-.3-.79-.45-1.36-.45-.49,0-.93.13-1.31.38-.37.25-.65.58-.83.99l-1.3-.67c.16-.39.42-.75.77-1.06.35-.32.76-.57,1.23-.75.47-.18.96-.27,1.47-.27.66,0,1.24.13,1.74.38.5.25.89.59,1.17,1.04.29.44.43.95.43,1.54v5.86h-1.46v-1.63l.27.1c-.18.34-.43.64-.74.9-.31.26-.67.46-1.09.61-.42.15-.87.22-1.36.22ZM88.45,226.29c-.19,0-.38-.02-.58-.05-.19-.02-.37-.07-.54-.14v-1.33c.12.01.26.03.43.06.18.03.36.05.53.05.5,0,.88-.11,1.14-.34.27-.22.52-.6.75-1.14l.54-1.3-.03,1.3-3.68-9.26h1.62l2.86,7.36h-.48l2.85-7.36h1.65l-3.89,9.65c-.18.46-.42.88-.7,1.26-.28.38-.62.68-1.02.9-.41.22-.89.34-1.44.34ZM99.16,225.17c-.86-.99-1.52-2.09-1.97-3.3-.45-1.22-.67-2.51-.67-3.87s.22-2.67.67-3.87c.45-1.21,1.1-2.3,1.97-3.28h1.28c-.77,1.09-1.35,2.24-1.74,3.46-.39,1.21-.59,2.44-.59,3.7s.2,2.5.59,3.71c.39,1.21.98,2.36,1.74,3.46h-1.28ZM105.09,222.96c-.86,0-1.62-.21-2.26-.64-.64-.43-1.09-1-1.36-1.73l1.18-.58c.25.51.58.92,1.01,1.22.43.3.9.45,1.42.45.47,0,.86-.11,1.17-.34.31-.22.46-.52.46-.88,0-.26-.07-.46-.22-.61-.14-.16-.31-.28-.51-.37-.2-.1-.39-.17-.56-.21l-1.3-.37c-.78-.22-1.35-.54-1.71-.96-.35-.42-.53-.9-.53-1.46,0-.51.13-.95.38-1.33.27-.38.62-.68,1.07-.9.46-.21.97-.32,1.54-.32.76,0,1.43.19,2.03.58.61.38,1.04.92,1.3,1.62l-1.22.56c-.19-.45-.48-.8-.86-1.06-.38-.27-.82-.4-1.3-.4-.44,0-.78.11-1.04.34-.26.21-.38.49-.38.82,0,.25.06.45.19.61.13.15.28.27.46.35.18.07.36.14.53.19l1.41.42c.7.2,1.25.52,1.63.94.39.43.59.94.59,1.54,0,.48-.13.91-.4,1.3-.27.38-.63.68-1.1.9-.47.21-1.01.32-1.63.32ZM109.44,225.17c.76-1.1,1.33-2.25,1.73-3.46.39-1.22.59-2.45.59-3.71s-.2-2.49-.59-3.7c-.4-1.22-.97-2.37-1.73-3.46h1.28c.86.98,1.51,2.07,1.95,3.28.45,1.21.67,2.5.67,3.87s-.22,2.66-.67,3.87c-.44,1.21-1.09,2.3-1.95,3.3h-1.28Z" fill="#fff"/>
  <path d="M150.85,227.79v-96.02" fill="none" stroke="#fff"/>
  <path d="M181.02,146.77l4.27-11.92h1.86l4.27,11.92h-1.68l-.98-2.8h-5.09l-.98,2.8h-1.68ZM184.18,142.53h4.1l-2.27-6.54h.45l-2.27,6.54ZM192.75,149.97v-11.82h1.46v1.86l-.19-.37c.32-.51.76-.92,1.31-1.22.55-.31,1.19-.46,1.9-.46.81,0,1.54.2,2.18.59.65.39,1.16.93,1.54,1.62.37.67.56,1.44.56,2.3s-.19,1.61-.56,2.29c-.37.68-.89,1.22-1.54,1.62-.64.4-1.37.59-2.19.59-.69,0-1.33-.15-1.9-.46-.57-.31-1-.75-1.31-1.31l.24-.26v5.04h-1.49ZM197.1,145.52c.54,0,1.03-.13,1.46-.4.43-.27.76-.63.99-1.09.25-.47.37-.99.37-1.57s-.12-1.12-.37-1.57c-.24-.46-.57-.82-.99-1.09-.43-.28-.91-.42-1.46-.42s-1.04.13-1.47.4c-.43.27-.77.63-1.02,1.1-.25.46-.37.98-.37,1.57s.12,1.1.37,1.57c.26.46.6.82,1.02,1.09.44.27.93.4,1.47.4ZM203.45,149.97v-11.82h1.46v1.86l-.19-.37c.32-.51.76-.92,1.31-1.22.55-.31,1.19-.46,1.9-.46.81,0,1.54.2,2.18.59.65.39,1.16.93,1.54,1.62.37.67.56,1.44.56,2.3s-.19,1.61-.56,2.29c-.37.68-.89,1.22-1.54,1.62-.64.4-1.37.59-2.19.59-.69,0-1.33-.15-1.9-.46-.57-.31-1-.75-1.31-1.31l.24-.26v5.04h-1.49ZM207.81,145.52c.54,0,1.03-.13,1.46-.4.43-.27.76-.63.99-1.09.24-.47.37-.99.37-1.57s-.12-1.12-.37-1.57c-.24-.46-.57-.82-.99-1.09-.43-.28-.91-.42-1.46-.42s-1.04.13-1.47.4c-.43.27-.77.63-1.02,1.1-.25.46-.37.98-.37,1.57s.12,1.1.37,1.57c.26.46.6.82,1.02,1.09.44.27.93.4,1.47.4ZM214.16,146.77v-8.62h1.49v8.62h-1.49ZM214.16,136.77v-1.92h1.49v1.92h-1.49ZM217.95,146.77v-12.11h1.49v12.11h-1.49ZM225.72,146.96c-.83,0-1.57-.2-2.22-.59-.65-.39-1.16-.93-1.54-1.62-.37-.69-.56-1.47-.56-2.32s.18-1.63.54-2.3c.37-.67.87-1.2,1.5-1.58.64-.39,1.35-.59,2.14-.59.64,0,1.21.12,1.7.35.5.22.92.53,1.26.93.35.38.62.83.8,1.33.19.49.29,1,.29,1.54,0,.12-.01.25-.03.4-.01.14-.03.27-.05.4h-7.07v-1.28h6.21l-.7.58c.1-.55.04-1.05-.16-1.49-.2-.44-.5-.78-.9-1.04-.4-.26-.84-.38-1.34-.38s-.96.13-1.38.38-.74.62-.98,1.1c-.22.47-.32,1.03-.27,1.68-.04.63.05,1.18.29,1.66.24.47.59.84,1.02,1.1.45.26.93.38,1.46.38.58,0,1.06-.13,1.46-.4.39-.27.71-.61.96-1.02l1.25.64c-.17.39-.44.76-.8,1.09-.35.32-.77.58-1.26.77-.48.19-1.02.29-1.62.29ZM235.5,146.96c-.81,0-1.54-.2-2.19-.59-.64-.39-1.15-.93-1.52-1.62-.37-.68-.56-1.44-.56-2.29s.19-1.63.56-2.3c.37-.68.88-1.22,1.52-1.62.65-.39,1.38-.59,2.19-.59.71,0,1.35.15,1.9.46.55.3.99.7,1.31,1.22l-.24.37v-5.34h1.5v12.11h-1.46v-1.84l.19.26c-.3.57-.74,1-1.31,1.31-.57.31-1.2.46-1.9.46ZM235.63,145.52c.54,0,1.03-.13,1.46-.4.43-.27.76-.63,1.01-1.09.26-.47.38-.99.38-1.57s-.13-1.11-.38-1.57c-.25-.47-.58-.84-1.01-1.1-.43-.27-.91-.4-1.46-.4s-1.02.14-1.46.42c-.43.27-.76.63-1.01,1.09-.25.45-.37.97-.37,1.57s.12,1.1.37,1.57c.25.46.58.82,1.01,1.09.43.27.91.4,1.46.4ZM247.3,146.77v-10.48h-3.23v-1.44h8v1.44h-3.18v10.48h-1.58ZM253.41,146.77v-8.62h1.49v8.62h-1.49ZM253.41,136.77v-1.92h1.49v1.92h-1.49ZM257.2,146.77v-8.62h1.46v1.76l-.21-.27c.21-.54.55-.96,1.02-1.25.47-.29,1-.43,1.58-.43.67,0,1.27.19,1.81.56.54.37.92.86,1.12,1.47l-.42.02c.22-.67.6-1.18,1.14-1.52.53-.35,1.12-.53,1.78-.53.6,0,1.14.14,1.62.42.49.28.88.66,1.17,1.15.29.49.43,1.05.43,1.66v5.58h-1.5v-5.1c0-.48-.09-.88-.26-1.22-.17-.33-.41-.59-.7-.77-.29-.19-.63-.29-1.02-.29s-.73.1-1.04.29c-.3.18-.54.44-.72.78-.17.33-.26.73-.26,1.2v5.1h-1.5v-5.1c0-.48-.09-.88-.26-1.22-.17-.33-.41-.59-.7-.77-.29-.19-.63-.29-1.02-.29s-.73.1-1.04.29c-.3.18-.54.44-.72.78-.17.33-.26.73-.26,1.2v5.1h-1.49ZM275.78,146.96c-.83,0-1.57-.2-2.22-.59-.65-.39-1.16-.93-1.54-1.62-.37-.69-.56-1.47-.56-2.32s.18-1.63.54-2.3c.37-.67.88-1.2,1.5-1.58.64-.39,1.36-.59,2.14-.59.64,0,1.2.12,1.7.35.5.22.92.53,1.26.93.35.38.62.83.8,1.33.19.49.29,1,.29,1.54,0,.12-.01.25-.03.4-.01.14-.03.27-.05.4h-7.07v-1.28h6.21l-.7.58c.1-.55.04-1.05-.16-1.49-.2-.44-.5-.78-.9-1.04-.4-.26-.84-.38-1.34-.38s-.96.13-1.38.38c-.42.26-.74.62-.98,1.1-.22.47-.32,1.03-.27,1.68-.04.63.05,1.18.29,1.66.25.47.59.84,1.02,1.1.45.26.93.38,1.46.38.58,0,1.06-.13,1.46-.4.4-.27.71-.61.96-1.02l1.25.64c-.17.39-.44.76-.8,1.09-.35.32-.77.58-1.26.77-.48.19-1.02.29-1.62.29Z" fill="#fff"/>
  <path d="M187.02,222.77l4.27-11.92h1.86l4.27,11.92h-1.68l-.98-2.8h-5.09l-.98,2.8h-1.68ZM190.18,218.53h4.1l-2.27-6.54h.45l-2.27,6.54ZM200.67,222.77l-3.38-8.62h1.66l2.7,7.3h-.58l2.72-7.3h1.66l-3.39,8.62h-1.41ZM210.75,226.29c-.61,0-1.17-.1-1.7-.29-.51-.19-.95-.46-1.33-.8-.36-.33-.64-.72-.83-1.17l1.39-.64c.15.41.43.75.85,1.02.43.29.96.43,1.6.43.49,0,.93-.1,1.33-.29.41-.18.73-.46.96-.83.24-.36.35-.8.35-1.33v-1.94l.27.29c-.3.59-.73,1.04-1.3,1.34-.55.31-1.17.46-1.84.46-.81,0-1.54-.19-2.18-.56-.64-.38-1.14-.9-1.5-1.55-.36-.66-.54-1.39-.54-2.19s.18-1.54.54-2.19c.36-.65.86-1.16,1.49-1.54.64-.38,1.37-.58,2.18-.58.67,0,1.28.15,1.82.46.56.3,1,.71,1.33,1.25l-.22.4v-1.92h1.46v8.26c0,.75-.18,1.41-.53,2-.35.59-.84,1.05-1.47,1.38-.62.34-1.33.51-2.13.51ZM210.64,221.12c.51,0,.97-.13,1.38-.38.42-.26.75-.6.99-1.02.25-.44.37-.92.37-1.46s-.12-1-.37-1.44c-.24-.44-.58-.78-.99-1.04-.4-.26-.86-.38-1.38-.38s-1,.13-1.42.38c-.43.26-.76.6-1.01,1.04-.23.43-.35.91-.35,1.44s.12,1.02.35,1.46c.25.43.58.77.99,1.02.43.26.91.38,1.44.38ZM217.8,222.77v-1.92h1.55v1.92h-1.55ZM225.21,222.77v-11.92h3.9c1.21,0,2.26.25,3.15.74.9.49,1.59,1.18,2.08,2.08.49.89.74,1.93.74,3.14s-.24,2.24-.74,3.14c-.49.9-1.18,1.6-2.08,2.1-.9.49-1.95.74-3.15.74h-3.9ZM226.78,221.33h2.35c.88,0,1.65-.19,2.29-.56.65-.37,1.15-.9,1.5-1.57.35-.68.53-1.48.53-2.4s-.18-1.73-.54-2.4c-.35-.67-.85-1.19-1.5-1.55-.64-.37-1.4-.56-2.27-.56h-2.35v9.04ZM239.31,222.96c-.57,0-1.07-.1-1.5-.3-.43-.21-.76-.5-1.01-.86-.25-.37-.37-.8-.37-1.28s.1-.87.29-1.23c.2-.37.51-.69.93-.94.43-.26.96-.44,1.6-.54l3.2-.53v1.25l-2.86.48c-.56.1-.96.27-1.22.53-.24.26-.37.57-.37.94,0,.35.14.65.42.88.29.23.65.35,1.07.35.54,0,1.01-.11,1.41-.34.4-.23.72-.55.94-.94.24-.39.35-.83.35-1.31v-2.19c0-.47-.18-.85-.53-1.14-.34-.3-.79-.45-1.36-.45-.49,0-.93.13-1.31.38-.37.25-.65.58-.83.99l-1.3-.67c.16-.39.42-.75.77-1.06.35-.32.76-.57,1.23-.75.47-.18.96-.27,1.47-.27.66,0,1.24.13,1.74.38.5.25.89.59,1.17,1.04.29.44.43.95.43,1.54v5.86h-1.46v-1.63l.27.1c-.18.34-.43.64-.74.9-.31.26-.67.46-1.09.61-.42.15-.87.22-1.36.22ZM246.45,226.29c-.19,0-.38-.02-.58-.05-.19-.02-.37-.07-.54-.14v-1.33c.12.01.26.03.43.06.18.03.36.05.53.05.5,0,.88-.11,1.14-.34.27-.22.52-.6.75-1.14l.54-1.3-.03,1.3-3.68-9.26h1.62l2.86,7.36h-.48l2.85-7.36h1.65l-3.89,9.65c-.18.46-.42.88-.7,1.26-.28.38-.62.68-1.02.9-.41.22-.89.34-1.44.34ZM257.17,225.17c-.86-.99-1.52-2.09-1.97-3.3-.45-1.22-.67-2.51-.67-3.87s.22-2.67.67-3.87c.45-1.21,1.1-2.3,1.97-3.28h1.28c-.77,1.09-1.35,2.24-1.74,3.46-.39,1.21-.59,2.44-.59,3.7s.2,2.5.59,3.71c.39,1.21.98,2.36,1.74,3.46h-1.28ZM263.09,222.96c-.86,0-1.62-.21-2.26-.64-.64-.43-1.09-1-1.36-1.73l1.18-.58c.24.51.58.92,1.01,1.22.43.3.9.45,1.42.45.47,0,.86-.11,1.17-.34.31-.22.46-.52.46-.88,0-.26-.08-.46-.22-.61-.14-.16-.31-.28-.51-.37-.2-.1-.39-.17-.56-.21l-1.3-.37c-.78-.22-1.35-.54-1.71-.96-.35-.42-.53-.9-.53-1.46,0-.51.13-.95.38-1.33.27-.38.62-.68,1.07-.9.46-.21.97-.32,1.54-.32.76,0,1.43.19,2.03.58.61.38,1.04.92,1.3,1.62l-1.22.56c-.19-.45-.48-.8-.86-1.06-.38-.27-.82-.4-1.3-.4-.44,0-.78.11-1.04.34-.26.21-.38.49-.38.82,0,.25.06.45.19.61.13.15.28.27.46.35.18.07.36.14.53.19l1.41.42c.7.2,1.25.52,1.63.94.39.43.59.94.59,1.54,0,.48-.13.91-.4,1.3-.27.38-.64.68-1.1.9-.47.21-1.01.32-1.63.32ZM267.44,225.17c.76-1.1,1.33-2.25,1.73-3.46.39-1.22.59-2.45.59-3.71s-.2-2.49-.59-3.7c-.4-1.22-.97-2.37-1.73-3.46h1.28c.86.98,1.51,2.07,1.95,3.28.45,1.21.67,2.5.67,3.87s-.22,2.66-.67,3.87c-.44,1.21-1.09,2.3-1.95,3.3h-1.28Z" fill="#fff"/>
  <g filter="url(#filter0_i_2148_2210-3)">
    <rect y="250.81" width="319.88" height="114.77" rx="16" ry="16" fill="#fff"/>
  </g>
  <path d="M248.44,338.45v-7.45h.98v7.45h-.98ZM253.42,338.57c-.51,0-.96-.12-1.37-.37-.4-.25-.72-.58-.95-1.01-.23-.43-.35-.9-.35-1.43s.12-1.02.35-1.44c.23-.43.55-.76.95-1.01.41-.25.86-.37,1.37-.37.45,0,.84.1,1.19.29.35.19.62.44.82.76l-.15.23v-3.34h.94v7.57h-.91v-1.15l.12.16c-.19.35-.46.63-.82.82-.35.19-.75.29-1.19.29ZM253.5,337.67c.34,0,.64-.08.91-.25.27-.17.48-.39.63-.68.16-.29.24-.62.24-.98s-.08-.69-.24-.98c-.15-.29-.36-.52-.63-.69-.27-.17-.57-.25-.91-.25s-.64.09-.91.26c-.27.17-.48.39-.63.68-.15.28-.23.61-.23.98s.08.69.23.98c.15.29.36.51.63.68.27.17.57.25.91.25ZM260.14,338.57c-.52,0-.98-.12-1.39-.37-.41-.25-.73-.58-.96-1.01-.23-.43-.35-.92-.35-1.45s.11-1.02.34-1.44c.23-.42.55-.75.94-.99.4-.25.85-.37,1.34-.37.4,0,.75.07,1.06.22.31.14.58.33.79.58.22.24.39.52.5.83.12.31.18.63.18.96,0,.07,0,.16-.02.25,0,.09-.02.17-.03.25h-4.42v-.8h3.88l-.44.36c.06-.35.03-.66-.1-.93-.13-.27-.31-.49-.56-.65-.25-.16-.53-.24-.84-.24s-.6.08-.86.24c-.26.16-.46.39-.61.69-.14.29-.2.64-.17,1.05-.03.39.03.74.18,1.04.15.29.37.52.64.69.28.16.58.24.91.24.36,0,.66-.08.91-.25.25-.17.45-.38.6-.64l.78.4c-.11.25-.27.47-.5.68-.22.2-.48.36-.79.48-.3.12-.64.18-1.01.18ZM265.31,338.57c-.35,0-.67-.06-.94-.19-.27-.13-.48-.31-.63-.54-.15-.23-.23-.5-.23-.8s.06-.54.18-.77c.13-.23.32-.43.58-.59.27-.16.6-.27,1-.34l2-.33v.78l-1.79.3c-.35.06-.6.17-.76.33-.15.16-.23.36-.23.59,0,.22.09.4.26.55.18.15.4.22.67.22.34,0,.63-.07.88-.21.25-.15.45-.34.59-.59.15-.25.22-.52.22-.82v-1.37c0-.29-.11-.53-.33-.71-.21-.19-.5-.28-.85-.28-.31,0-.58.08-.82.24-.23.15-.41.36-.52.62l-.81-.42c.1-.25.26-.47.48-.66.22-.2.48-.36.77-.47.29-.11.6-.17.92-.17.41,0,.78.08,1.09.24.31.15.56.37.73.65.18.27.27.59.27.96v3.66h-.91v-1.02l.17.06c-.11.21-.27.4-.46.56-.19.16-.42.29-.68.38-.26.09-.54.14-.85.14ZM270.94,339.95c-.54-.62-.95-1.31-1.23-2.06-.28-.76-.42-1.57-.42-2.42s.14-1.67.42-2.42c.28-.75.69-1.44,1.23-2.05h.8c-.48.68-.84,1.4-1.09,2.16-.25.75-.37,1.52-.37,2.31s.12,1.56.37,2.32c.25.75.61,1.47,1.09,2.16h-.8ZM274.64,338.57c-.54,0-1.01-.13-1.41-.4-.4-.27-.68-.63-.85-1.08l.74-.36c.15.32.36.57.63.76.27.19.56.28.89.28.29,0,.54-.07.73-.21.19-.14.29-.32.29-.55,0-.16-.05-.29-.14-.38-.09-.1-.19-.18-.32-.23-.13-.06-.24-.1-.35-.13l-.81-.23c-.49-.14-.84-.34-1.07-.6-.22-.26-.33-.56-.33-.91,0-.32.08-.6.24-.83.17-.24.39-.43.67-.56.29-.13.61-.2.96-.2.47,0,.9.12,1.27.36.38.24.65.58.81,1.01l-.76.35c-.12-.28-.3-.5-.54-.66-.24-.17-.51-.25-.81-.25-.27,0-.49.07-.65.21-.16.13-.24.3-.24.51,0,.15.04.28.12.38.08.09.18.17.29.22.11.05.22.09.33.12l.88.26c.44.13.78.32,1.02.59.25.27.37.59.37.96,0,.3-.08.57-.25.81-.17.24-.4.43-.69.56-.29.13-.63.2-1.02.2ZM277.36,339.95c.47-.69.83-1.41,1.08-2.16.25-.76.37-1.53.37-2.32s-.12-1.56-.37-2.31c-.25-.76-.61-1.48-1.08-2.16h.8c.54.61.95,1.3,1.22,2.05.28.75.42,1.56.42,2.42s-.14,1.66-.42,2.42c-.27.75-.68,1.44-1.22,2.06h-.8Z" fill="#7d7d7d"/>
  <path d="M212.54,347.52v-78.64" fill="none" stroke="#7d7d7d"/>
  <g filter="url(#filter0_i_2148_2210-4)">
    <rect y="382.59" width="319.88" height="114.77" rx="16" ry="16" fill="#fff"/>
  </g>
  <path d="M250.57,470.23v-7.45h.98v7.45h-.98ZM255.54,470.35c-.51,0-.96-.12-1.37-.37-.4-.25-.72-.58-.95-1.01-.23-.43-.35-.9-.35-1.43s.12-1.02.35-1.44c.23-.43.55-.76.95-1.01.41-.25.86-.37,1.37-.37.45,0,.84.1,1.19.29.35.19.62.44.82.76l-.15.23v-3.34h.94v7.57h-.91v-1.15l.12.16c-.19.35-.46.63-.82.82-.35.19-.75.29-1.19.29ZM255.62,469.45c.34,0,.64-.08.91-.25.27-.17.48-.39.63-.68.16-.29.24-.62.24-.98s-.08-.69-.24-.98c-.15-.29-.36-.52-.63-.69-.27-.17-.57-.25-.91-.25s-.64.09-.91.26c-.27.17-.48.39-.63.68-.15.28-.23.61-.23.98s.08.69.23.98c.15.29.36.51.63.68.27.17.57.25.91.25ZM262.26,470.35c-.52,0-.98-.12-1.39-.37-.41-.25-.73-.58-.96-1.01-.23-.43-.35-.92-.35-1.45s.11-1.02.34-1.44c.23-.42.55-.75.94-.99.4-.25.85-.37,1.34-.37.4,0,.75.07,1.06.22.31.14.58.33.79.58.22.24.39.52.5.83.12.31.18.63.18.96,0,.07,0,.16-.02.25,0,.09-.02.17-.03.25h-4.42v-.8h3.88l-.44.36c.06-.35.03-.66-.1-.93-.13-.27-.31-.49-.56-.65-.25-.16-.53-.24-.84-.24s-.6.08-.86.24c-.26.16-.46.39-.61.69-.14.29-.2.64-.17,1.05-.03.39.03.74.18,1.04.15.29.37.52.64.69.28.16.58.24.91.24.36,0,.66-.08.91-.25.25-.17.45-.38.6-.64l.78.4c-.11.25-.27.47-.5.68-.22.2-.48.36-.79.48-.3.12-.64.18-1.01.18ZM267.44,470.35c-.35,0-.67-.06-.94-.19-.27-.13-.48-.31-.63-.54-.15-.23-.23-.5-.23-.8s.06-.54.18-.77c.13-.23.32-.43.58-.59.27-.16.6-.27,1-.34l2-.33v.78l-1.79.3c-.35.06-.6.17-.76.33-.15.16-.23.36-.23.59,0,.22.09.4.26.55.18.15.4.22.67.22.34,0,.63-.07.88-.21.25-.15.45-.34.59-.59.15-.25.22-.52.22-.82v-1.37c0-.29-.11-.53-.33-.71-.21-.19-.5-.28-.85-.28-.31,0-.58.08-.82.24-.23.15-.41.36-.52.62l-.81-.42c.1-.25.26-.47.48-.66.22-.2.48-.36.77-.47.29-.11.6-.17.92-.17.41,0,.78.08,1.09.24.31.15.56.37.73.65.18.27.27.59.27.96v3.66h-.91v-1.02l.17.06c-.11.21-.27.4-.46.56-.19.16-.42.29-.68.38-.26.09-.54.14-.85.14ZM273.07,471.73c-.54-.62-.95-1.31-1.23-2.06-.28-.76-.42-1.57-.42-2.42s.14-1.67.42-2.42c.28-.75.69-1.44,1.23-2.05h.8c-.48.68-.84,1.4-1.09,2.16-.25.75-.37,1.52-.37,2.31s.12,1.56.37,2.32c.25.75.61,1.47,1.09,2.16h-.8ZM276.77,470.35c-.54,0-1.01-.13-1.41-.4-.4-.27-.68-.63-.85-1.08l.74-.36c.15.32.36.57.63.76.27.19.56.28.89.28.29,0,.54-.07.73-.21.19-.14.29-.32.29-.55,0-.16-.05-.29-.14-.38-.09-.1-.19-.18-.32-.23-.13-.06-.24-.1-.35-.13l-.81-.23c-.49-.14-.84-.34-1.07-.6-.22-.26-.33-.56-.33-.91,0-.32.08-.6.24-.83.17-.24.39-.43.67-.56.29-.13.61-.2.96-.2.47,0,.9.12,1.27.36.38.24.65.58.81,1.01l-.76.35c-.12-.28-.3-.5-.54-.66-.24-.17-.51-.25-.81-.25-.27,0-.49.07-.65.21-.16.13-.24.3-.24.51,0,.15.04.28.12.38.08.09.18.17.29.22.11.05.22.09.33.12l.88.26c.44.13.78.32,1.02.59.25.27.37.59.37.96,0,.3-.08.57-.25.81-.17.24-.4.43-.69.56-.29.13-.63.2-1.02.2ZM279.49,471.73c.47-.69.83-1.41,1.08-2.16.25-.76.37-1.53.37-2.32s-.12-1.56-.37-2.31c-.25-.76-.61-1.48-1.08-2.16h.8c.54.61.95,1.3,1.22,2.05.28.75.42,1.56.42,2.42s-.14,1.66-.42,2.42c-.27.75-.68,1.44-1.22,2.06h-.8Z" fill="#7d7d7d"/>
  <g filter="url(#filter0_i_2148_2210-5)">
    <line x1="214.67" y1="479.29" x2="214.67" y2="400.65" fill="none" stroke="#7d7d7d"/>
  </g>
  <g filter="url(#filter0_i_2148_2210-6)">
    <path d="M64.92,339.01c-16.03,0-29.03-13.08-29.03-29.23s13-29.23,29.03-29.23,29.03,13.08,29.03,29.23-13,29.23-29.03,29.23ZM62.03,321.48l20.53-20.67-4.11-4.13-16.42,16.53-8.21-8.27-4.11,4.13,12.32,12.4Z" fill="#008b16"/>
  </g>
  <g filter="url(#filter0_i_2148_2210-7)">
    <path d="M64.92,467.6c-16.03,0-29.03-13.08-29.03-29.22s13-29.23,29.03-29.23,29.03,13.08,29.03,29.23-13,29.22-29.03,29.22ZM64.92,434.24l-8.21-8.27-4.11,4.13,8.21,8.27-8.21,8.27,4.11,4.13,8.21-8.27,8.21,8.27,4.11-4.13-8.21-8.27,8.21-8.27-4.11-4.13-8.21,8.27Z" fill="red"/>
  </g>
  <text transform="translate(214.9 68.57) scale(.74 1)" font-family="FranklinGothic-Heavy, &apos;Franklin Gothic Heavy&apos;" font-size="33.9" font-weight="800"><tspan x="0" y="0">AMOUT1</tspan></text>
  <text/>
  <text transform="translate(23.02 186.65) scale(.74 1)" fill="#fff" font-family="FranklinGothic-Heavy, &apos;Franklin Gothic Heavy&apos;" font-size="33.9" font-weight="800"><tspan x="0" y="0">AMOUT2</tspan></text>
  <text transform="translate(214.97 186.65) scale(.74 1)" fill="#fff" font-family="FranklinGothic-Heavy, &apos;Franklin Gothic Heavy&apos;" font-size="33.9" font-weight="800"><tspan x="0" y="0">AMOUT3</tspan></text>
  <text transform="translate(221.4 314.49) scale(.74 1)" font-family="FranklinGothic-Heavy, &apos;Franklin Gothic Heavy&apos;" font-size="33.9" font-weight="800"><tspan x="0" y="0">AMOUT4</tspan></text>
  <text transform="translate(221.46 449.21) scale(.74 1)" font-family="FranklinGothic-Heavy, &apos;Franklin Gothic Heavy&apos;" font-size="33.9" font-weight="800"><tspan x="0" y="0">AMOUT5</tspan></text>
  <text transform="translate(103.32 321.48) scale(.98 1)" font-family="FranklinGothic-Demi, &apos;Franklin Gothic Demi&apos;" font-size="22.54" font-weight="300"><tspan x="0" y="0">Idea</tspan></text>
  <text transform="translate(103.32 291.54) scale(.98 1)" font-family="FranklinGothic-Demi, &apos;Franklin Gothic Demi&apos;" font-size="22.54" font-weight="300"><tspan x="0" y="0">Appr</tspan><tspan x="45.85" y="0" letter-spacing="0em">o</tspan><tspan x="57.72" y="0" letter-spacing="-.01em">v</tspan><tspan x="67.57" y="0">al</tspan></text>
  <text transform="translate(102.4 418.9) scale(.86 1)" font-family="FranklinGothic-Demi, &apos;Franklin Gothic Demi&apos;" font-size="23.08" font-weight="300"><tspan x="0" y="0" letter-spacing="-.02em">R</tspan><tspan x="14.78" y="0">ejec</tspan><tspan x="57.47" y="0" letter-spacing="0em">t</tspan><tspan x="65.47" y="0">ed</tspan></text>
  <text transform="translate(104.34 447.42) scale(.9 1)" font-family="FranklinGothic-Demi, &apos;Franklin Gothic Demi&apos;" font-size="25.38" font-weight="300"><tspan x="0" y="0">Idea</tspan></text>
  <text transform="translate(103.32 342.89) scale(.98 1)" font-family="MicrosoftSansSerif, &apos;Microsoft Sans Serif&apos;" font-size="11"><tspan x="0" y="0">จำนวนไอเดียที่อนุมัติ</tspan></text>
  <text transform="translate(101.47 469.45) scale(.98 1)" font-family="MicrosoftSansSerif, &apos;Microsoft Sans Serif&apos;" font-size="11"><tspan x="0" y="0">จำนวนไอเดียที่ไม่อนุมัติ</tspan></text>
</svg>