<?xml version="1.0" encoding="UTF-8"?>
<svg xmlns="http://www.w3.org/2000/svg" version="1.1" viewBox="0 0 254 75">
  <defs>
    <style>
      .cls-1 {
        fill: #fff;
      }

      .cls-2 {
        fill: #113595;
      }
    </style>
  </defs>
  <!-- Generator: Adobe Illustrator 28.6.0, SVG Export Plug-In . SVG Version: 1.2.0 Build 709)  -->
  <g>
    <g id="Layer_1">
      <path class="cls-1" d="M177.9,0H20C9,0,0,9,0,20v54.2h254L192.8,6.6c-3.8-4.2-9.2-6.6-14.8-6.6Z"/>
      <path class="cls-2" d="M56,33.5V14.9h3.8l7,9.3h-1.8l6.8-9.3h3.8v18.6h-3.9v-14.3l1.6.3-7.2,9.2h-.5l-6.9-9.2,1.3-.3v14.3h-3.9ZM80.7,39.1c-.4,0-.8,0-1.2,0-.4,0-.7-.2-1-.3v-3.1c.2,0,.5.1.8.2.3,0,.6,0,.9,0,.7,0,1.3-.2,1.6-.5.3-.4.6-.8.8-1.2l.9-2.1v3.1c0,0-6.1-15.2-6.1-15.2h4l4,10.8h-1.5l4-10.8h4l-5.9,14.9c-.4,1-.8,1.7-1.3,2.4-.5.6-1.1,1.1-1.8,1.4-.7.3-1.4.5-2.2.5ZM98.3,33.5V14.9h3.9v18.6h-3.9ZM111.7,33.8c-1.3,0-2.5-.3-3.6-.9-1-.6-1.9-1.5-2.5-2.6-.6-1.1-.9-2.3-.9-3.6s.3-2.5.9-3.6c.6-1.1,1.5-1.9,2.5-2.6s2.2-.9,3.5-.9,1.9.2,2.6.6c.8.4,1.4.9,1.9,1.6l-.6.8v-7.9h3.8v18.9h-3.5v-2.5l.3.8c-.5.7-1.1,1.2-1.9,1.5-.8.3-1.7.5-2.6.5ZM112.1,30.4c.7,0,1.3-.2,1.8-.5.5-.3.9-.8,1.2-1.3.3-.6.5-1.2.5-1.9s-.2-1.4-.5-1.9c-.3-.6-.7-1-1.2-1.3-.5-.3-1.1-.5-1.8-.5s-1.3.2-1.8.5c-.5.3-1,.8-1.2,1.3-.3.6-.5,1.2-.5,1.9s.1,1.4.5,1.9c.3.6.7,1,1.2,1.3.5.3,1.2.5,1.8.5ZM128.6,33.8c-1.4,0-2.7-.3-3.8-.9-1.1-.6-1.9-1.5-2.5-2.6-.6-1.1-.9-2.3-.9-3.6s.3-2.6.9-3.6c.6-1.1,1.4-1.9,2.5-2.5,1-.6,2.2-.9,3.5-.9s2,.2,2.9.5c.8.3,1.5.8,2.1,1.4.6.6,1,1.3,1.3,2.1.3.8.4,1.7.4,2.6s0,.5,0,.8c0,.2,0,.5-.1.7h-10.2v-2.8h8.1l-1.8,1.3c.2-.7.2-1.3,0-1.9-.2-.6-.5-1-1-1.3-.4-.3-1-.5-1.7-.5s-1.2.2-1.7.5c-.5.3-.8.8-1.1,1.4-.2.6-.3,1.4-.3,2.2,0,.8,0,1.4.3,2,.2.6.6,1,1.2,1.4.5.3,1.1.5,1.9.5s1.2-.1,1.7-.4c.5-.3.9-.6,1.1-1.1l3,1.4c-.3.7-.7,1.2-1.3,1.8-.6.5-1.2.9-2,1.2-.8.3-1.6.4-2.6.4ZM141.6,33.8c-1,0-1.8-.2-2.6-.5s-1.3-.8-1.7-1.4c-.4-.6-.6-1.3-.6-2.1s.2-1.4.5-2c.3-.6.9-1.1,1.6-1.5.7-.4,1.6-.7,2.7-.8l4.2-.7v2.8l-3.5.6c-.5,0-.9.3-1.2.5-.3.2-.4.6-.4,1s.2.7.5,1c.3.2.7.3,1.2.3s1.2-.1,1.6-.4c.5-.3.8-.6,1.1-1.1.3-.5.4-1,.4-1.5v-3.6c0-.5-.2-.9-.6-1.3-.4-.3-.9-.5-1.7-.5s-1.3.2-1.8.6c-.5.4-.9.8-1.1,1.4l-3-1.4c.3-.8.7-1.4,1.3-2,.6-.6,1.3-1,2.1-1.3.8-.3,1.7-.4,2.7-.4s2.2.2,3,.6c.9.4,1.6,1,2.1,1.8.5.7.8,1.6.8,2.6v9h-3.5v-2.2h.8c-.4.5-.8,1-1.3,1.4-.5.4-1,.7-1.6.9-.6.2-1.3.3-2,.3ZM157.3,33.8c-1.5,0-2.8-.3-3.9-1-1.1-.7-1.8-1.7-2.2-2.9l2.8-1.3c.3.7.8,1.3,1.4,1.7.6.4,1.3.6,2,.6s.9-.1,1.2-.3c.3-.2.4-.5.4-.9s0-.4-.2-.5c0-.1-.2-.3-.4-.4-.2-.1-.5-.2-.8-.3l-2.3-.6c-1.1-.3-2-.8-2.6-1.5-.6-.7-.9-1.6-.9-2.5s.2-1.6.7-2.2c.4-.6,1-1.1,1.8-1.5.8-.4,1.7-.5,2.7-.5s2.5.3,3.5.9c1,.6,1.7,1.5,2.1,2.6l-2.8,1.3c-.2-.6-.6-1-1.1-1.4-.5-.3-1.1-.5-1.8-.5s-.9,0-1.2.3c-.3.2-.4.5-.4.8s0,.3.2.5c0,.1.3.3.5.4.2.1.5.2.8.3l2.2.7c1.1.3,2,.8,2.6,1.5.6.7.9,1.5.9,2.5s-.2,1.6-.7,2.2c-.4.6-1,1.1-1.8,1.5-.8.4-1.7.5-2.8.5Z"/>
    </g>
  </g>
</svg>