<svg width="105" height="41" viewBox="0 0 105 41" fill="none" xmlns="http://www.w3.org/2000/svg">
<g filter="url(#filter0_d_2186_4351)">
<rect x="6.5" y="2.5" width="29" height="29" rx="9.5" stroke="blue"/>
</g>
<path d="M58.316 24.192C57.4733 24.192 56.6947 24.0427 55.98 23.744C55.276 23.4347 54.6573 23.0027 54.124 22.448C53.6013 21.8933 53.196 21.2427 52.908 20.496C52.62 19.7493 52.476 18.9333 52.476 18.048C52.476 17.152 52.62 16.3307 52.908 15.584C53.196 14.8373 53.6013 14.1867 54.124 13.632C54.6467 13.0773 55.2653 12.6507 55.98 12.352C56.6947 12.0427 57.4733 11.888 58.316 11.888C59.1373 11.888 59.8733 12.032 60.524 12.32C61.1853 12.608 61.74 12.9813 62.188 13.44C62.6467 13.8987 62.972 14.3893 63.164 14.912L61.724 15.568C61.4467 14.9067 61.0147 14.3733 60.428 13.968C59.8413 13.552 59.1373 13.344 58.316 13.344C57.484 13.344 56.7427 13.5413 56.092 13.936C55.452 14.3307 54.9507 14.88 54.588 15.584C54.2253 16.288 54.044 17.1093 54.044 18.048C54.044 18.976 54.2253 19.792 54.588 20.496C54.9507 21.2 55.452 21.7493 56.092 22.144C56.7427 22.5387 57.484 22.736 58.316 22.736C59.1373 22.736 59.8413 22.5333 60.428 22.128C61.0147 21.712 61.4467 21.1733 61.724 20.512L63.164 21.168C62.972 21.6907 62.6467 22.1813 62.188 22.64C61.74 23.0987 61.1853 23.472 60.524 23.76C59.8733 24.048 59.1373 24.192 58.316 24.192ZM69.0605 24.192C68.2285 24.192 67.4765 24 66.8045 23.616C66.1325 23.2213 65.5992 22.6827 65.2045 22C64.8098 21.3173 64.6125 20.544 64.6125 19.68C64.6125 18.816 64.8045 18.048 65.1885 17.376C65.5832 16.704 66.1165 16.1707 66.7885 15.776C67.4605 15.3813 68.2178 15.184 69.0605 15.184C69.8925 15.184 70.6445 15.3813 71.3165 15.776C71.9885 16.16 72.5165 16.688 72.9005 17.36C73.2952 18.032 73.4925 18.8053 73.4925 19.68C73.4925 20.5547 73.2898 21.3333 72.8845 22.016C72.4792 22.688 71.9405 23.2213 71.2685 23.616C70.6072 24 69.8712 24.192 69.0605 24.192ZM69.0605 22.752C69.5938 22.752 70.0738 22.6187 70.5005 22.352C70.9378 22.0853 71.2792 21.7173 71.5245 21.248C71.7805 20.7787 71.9085 20.256 71.9085 19.68C71.9085 19.0933 71.7805 18.576 71.5245 18.128C71.2792 17.6693 70.9378 17.3067 70.5005 17.04C70.0738 16.7627 69.5938 16.624 69.0605 16.624C68.5165 16.624 68.0258 16.7627 67.5885 17.04C67.1618 17.3067 66.8205 17.6693 66.5645 18.128C66.3085 18.576 66.1805 19.0933 66.1805 19.68C66.1805 20.256 66.3085 20.7787 66.5645 21.248C66.8205 21.7173 67.1618 22.0853 67.5885 22.352C68.0258 22.6187 68.5165 22.752 69.0605 22.752ZM75.4333 24V15.376H76.8893V17.056L76.6493 16.912C76.8626 16.368 77.2039 15.9467 77.6733 15.648C78.1533 15.3387 78.7133 15.184 79.3533 15.184C79.9719 15.184 80.5213 15.3227 81.0013 15.6C81.4919 15.8773 81.8759 16.2613 82.1533 16.752C82.4413 17.2427 82.5853 17.7973 82.5853 18.416V24H81.0813V18.896C81.0813 18.416 80.9959 18.0107 80.8253 17.68C80.6546 17.3493 80.4093 17.0933 80.0893 16.912C79.7799 16.72 79.4226 16.624 79.0173 16.624C78.6119 16.624 78.2493 16.72 77.9293 16.912C77.6199 17.0933 77.3746 17.3547 77.1933 17.696C77.0119 18.0267 76.9213 18.4267 76.9213 18.896V24H75.4333ZM85.6265 24V16.8H83.9785V15.376H85.6265V14.768C85.6265 14.1493 85.7598 13.6267 86.0265 13.2C86.3038 12.7733 86.6665 12.448 87.1145 12.224C87.5732 12 88.0798 11.888 88.6345 11.888C88.7518 11.888 88.8798 11.8987 89.0185 11.92C89.1678 11.9307 89.2905 11.9467 89.3865 11.968V13.296C89.3012 13.2747 89.1998 13.264 89.0825 13.264C88.9652 13.2533 88.8745 13.248 88.8105 13.248C88.3198 13.248 87.9145 13.3653 87.5945 13.6C87.2852 13.8347 87.1305 14.224 87.1305 14.768V15.376H91.6105V16.8H87.1305V24H85.6265ZM90.6825 24V15.376H92.1865V24H90.6825ZM98.3578 27.52C97.7498 27.52 97.1844 27.424 96.6618 27.232C96.1498 27.04 95.7071 26.7733 95.3338 26.432C94.9711 26.1013 94.6938 25.712 94.5018 25.264L95.8938 24.624C96.0431 25.0293 96.3258 25.3707 96.7418 25.648C97.1684 25.936 97.7018 26.08 98.3418 26.08C98.8324 26.08 99.2751 25.984 99.6698 25.792C100.075 25.6107 100.395 25.3333 100.63 24.96C100.864 24.5973 100.982 24.1547 100.982 23.632V21.696L101.254 21.984C100.955 22.5707 100.523 23.0187 99.9578 23.328C99.4031 23.6373 98.7898 23.792 98.1178 23.792C97.3071 23.792 96.5818 23.6053 95.9418 23.232C95.3018 22.848 94.8004 22.3307 94.4378 21.68C94.0751 21.0187 93.8938 20.288 93.8938 19.488C93.8938 18.6773 94.0751 17.9467 94.4378 17.296C94.8004 16.6453 95.2964 16.1333 95.9258 15.76C96.5658 15.376 97.2911 15.184 98.1018 15.184C98.7738 15.184 99.3818 15.3387 99.9258 15.648C100.48 15.9467 100.923 16.3627 101.254 16.896L101.03 17.296V15.376H102.486V23.632C102.486 24.3787 102.31 25.0453 101.958 25.632C101.606 26.2187 101.115 26.6773 100.486 27.008C99.8671 27.3493 99.1578 27.52 98.3578 27.52ZM98.2458 22.352C98.7578 22.352 99.2164 22.224 99.6218 21.968C100.038 21.712 100.368 21.3707 100.614 20.944C100.859 20.5067 100.982 20.0213 100.982 19.488C100.982 18.9653 100.859 18.4853 100.614 18.048C100.368 17.6107 100.038 17.264 99.6218 17.008C99.2164 16.752 98.7578 16.624 98.2458 16.624C97.7231 16.624 97.2484 16.752 96.8218 17.008C96.3951 17.264 96.0591 17.6107 95.8138 18.048C95.5791 18.4747 95.4618 18.9547 95.4618 19.488C95.4618 20.0213 95.5791 20.5067 95.8138 20.944C96.0591 21.3707 96.3898 21.712 96.8058 21.968C97.2324 22.224 97.7124 22.352 98.2458 22.352Z" fill="blue"/>
<path d="M21.5 25C17.3579 25 14 21.6421 14 17.5C14 13.3579 17.3579 10 21.5 10C25.6421 10 29 13.3579 29 17.5C29 21.6421 25.6421 25 21.5 25ZM20.75 16.75V21.25H22.25V16.75H20.75ZM20.75 13.75V15.25H22.25V13.75H20.75Z" fill="blue"/>
<defs>
<filter id="filter0_d_2186_4351" x="0.5" y="-2.38419e-07" width="41" height="41" filterUnits="userSpaceOnUse" color-interpolation-filters="sRGB">
<feFlood flood-opacity="0" result="BackgroundImageFix"/>
<feColorMatrix in="SourceAlpha" type="matrix" values="0 0 0 0 0 0 0 0 0 0 0 0 0 0 0 0 0 0 127 0" result="hardAlpha"/>
<feOffset dy="3.5"/>
<feGaussianBlur stdDeviation="2.75"/>
<feColorMatrix type="matrix" values="0 0 0 0 0 0 0 0 0 0 0 0 0 0 0 0 0 0 0.02 0"/>
<feBlend mode="normal" in2="BackgroundImageFix" result="effect1_dropShadow_2186_4351"/>
<feBlend mode="normal" in="SourceGraphic" in2="effect1_dropShadow_2186_4351" result="shape"/>
</filter>
</defs>
</svg>
