<svg width="131" height="30" viewBox="-6 0 137 30" fill="none" xmlns="http://www.w3.org/2000/svg">
<rect x="0.5" y="0.5" width="29" height="29" rx="9.5" stroke="white"/>
<path d="M10.5469 21.5317H9.60937C9.42289 21.5317 9.24405 21.4577 9.11219 21.3258C8.98033 21.1939 8.90625 21.0151 8.90625 20.8286V16.6099C8.90625 16.4234 8.98033 16.2445 9.11219 16.1127C9.24405 15.9808 9.42289 15.9067 9.60937 15.9067H10.5469C10.7334 15.9067 10.9122 15.9808 11.0441 16.1127C11.1759 16.2445 11.25 16.4234 11.25 16.6099V20.8286C11.25 21.0151 11.1759 21.1939 11.0441 21.3258C10.9122 21.4577 10.7334 21.5317 10.5469 21.5317Z" fill="white"/>
<path d="M17.1094 21.5308H16.1719C15.9854 21.5308 15.8066 21.4567 15.6747 21.3248C15.5428 21.193 15.4688 21.0141 15.4688 20.8276V13.7964C15.4688 13.6099 15.5428 13.4311 15.6747 13.2992C15.8066 13.1673 15.9854 13.0933 16.1719 13.0933H17.1094C17.2959 13.0933 17.4747 13.1673 17.6066 13.2992C17.7384 13.4311 17.8125 13.6099 17.8125 13.7964V20.8276C17.8125 21.0141 17.7384 21.193 17.6066 21.3248C17.4747 21.4567 17.2959 21.5308 17.1094 21.5308Z" fill="white"/>
<path d="M20.3906 21.5312H19.4531C19.2666 21.5312 19.0878 21.4572 18.9559 21.3253C18.8241 21.1934 18.75 21.0146 18.75 20.8281V10.5156C18.75 10.3291 18.8241 10.1503 18.9559 10.0184C19.0878 9.88658 19.2666 9.8125 19.4531 9.8125H20.3906C20.5771 9.8125 20.7559 9.88658 20.8878 10.0184C21.0197 10.1503 21.0937 10.3291 21.0937 10.5156V20.8281C21.0937 21.0146 21.0197 21.1934 20.8878 21.3253C20.7559 21.4572 20.5771 21.5312 20.3906 21.5312Z" fill="white"/>
<path d="M13.8281 21.5308H12.8906C12.7041 21.5308 12.5253 21.4567 12.3934 21.3248C12.2616 21.193 12.1875 21.0141 12.1875 20.8276V8.17139C12.1875 7.98491 12.2616 7.80606 12.3934 7.6742C12.5253 7.54234 12.7041 7.46826 12.8906 7.46826H13.8281C14.0146 7.46826 14.1934 7.54234 14.3253 7.6742C14.4572 7.80606 14.5312 7.98491 14.5312 8.17139V20.8276C14.5312 21.0141 14.4572 21.193 14.3253 21.3248C14.1934 21.4567 14.0146 21.5308 13.8281 21.5308Z" fill="white"/>
<path d="M46.328 22V10.08H50.232C51.4373 10.08 52.488 10.3253 53.384 10.816C54.28 11.3067 54.9733 12 55.464 12.896C55.9547 13.7813 56.2 14.8267 56.2 16.032C56.2 17.2267 55.9547 18.272 55.464 19.168C54.9733 20.064 54.28 20.7627 53.384 21.264C52.488 21.7547 51.4373 22 50.232 22H46.328ZM47.896 20.56H50.248C51.1333 20.56 51.896 20.3733 52.536 20C53.1867 19.6267 53.688 19.104 54.04 18.432C54.392 17.7493 54.568 16.9493 54.568 16.032C54.568 15.104 54.3867 14.304 54.024 13.632C53.672 12.96 53.1707 12.4427 52.52 12.08C51.88 11.7067 51.1227 11.52 50.248 11.52H47.896V20.56ZM60.43 22.192C59.8647 22.192 59.3633 22.0907 58.926 21.888C58.4993 21.6747 58.1633 21.3867 57.918 21.024C57.6727 20.6507 57.55 20.224 57.55 19.744C57.55 19.2853 57.646 18.8747 57.838 18.512C58.0407 18.1387 58.35 17.824 58.766 17.568C59.1927 17.312 59.726 17.1307 60.366 17.024L63.566 16.496V17.744L60.702 18.224C60.1473 18.32 59.742 18.496 59.486 18.752C59.2407 19.008 59.118 19.3227 59.118 19.696C59.118 20.048 59.2567 20.3413 59.534 20.576C59.822 20.8107 60.1793 20.928 60.606 20.928C61.15 20.928 61.6193 20.816 62.014 20.592C62.4193 20.3573 62.734 20.0427 62.958 19.648C63.1927 19.2533 63.31 18.816 63.31 18.336V16.144C63.31 15.6747 63.134 15.296 62.782 15.008C62.4407 14.7093 61.9873 14.56 61.422 14.56C60.9313 14.56 60.494 14.688 60.11 14.944C59.7367 15.1893 59.4593 15.52 59.278 15.936L57.982 15.264C58.142 14.8693 58.398 14.5173 58.75 14.208C59.102 13.888 59.5127 13.6373 59.982 13.456C60.4513 13.2747 60.942 13.184 61.454 13.184C62.1153 13.184 62.6967 13.312 63.198 13.568C63.6993 13.8133 64.0887 14.16 64.366 14.608C64.654 15.0453 64.798 15.5573 64.798 16.144V22H63.342V20.368L63.614 20.464C63.4327 20.8053 63.1873 21.104 62.878 21.36C62.5687 21.616 62.206 21.8187 61.79 21.968C61.374 22.1173 60.9207 22.192 60.43 22.192ZM70.1931 22.192C69.3291 22.192 68.5771 21.9787 67.9371 21.552C67.2971 21.1253 66.8438 20.5493 66.5771 19.824L67.7611 19.248C68.0065 19.76 68.3425 20.1653 68.7691 20.464C69.1958 20.7627 69.6705 20.912 70.1931 20.912C70.6625 20.912 71.0518 20.8 71.3611 20.576C71.6705 20.352 71.8251 20.0587 71.8251 19.696C71.8251 19.44 71.7505 19.2373 71.6011 19.088C71.4625 18.928 71.2918 18.8053 71.0891 18.72C70.8865 18.624 70.6998 18.5547 70.5291 18.512L69.2331 18.144C68.4545 17.92 67.8838 17.6 67.5211 17.184C67.1691 16.768 66.9931 16.2827 66.9931 15.728C66.9931 15.216 67.1211 14.7733 67.3771 14.4C67.6438 14.016 68.0011 13.7173 68.4491 13.504C68.9078 13.2907 69.4198 13.184 69.9851 13.184C70.7425 13.184 71.4198 13.376 72.0171 13.76C72.6251 14.144 73.0571 14.6827 73.3131 15.376L72.0971 15.936C71.9051 15.488 71.6171 15.136 71.2331 14.88C70.8491 14.6133 70.4171 14.48 69.9371 14.48C69.4998 14.48 69.1531 14.592 68.8971 14.816C68.6411 15.0293 68.5131 15.3013 68.5131 15.632C68.5131 15.8773 68.5771 16.08 68.7051 16.24C68.8331 16.3893 68.9878 16.5067 69.1691 16.592C69.3505 16.6667 69.5265 16.7307 69.6971 16.784L71.1051 17.2C71.8091 17.4027 72.3531 17.7173 72.7371 18.144C73.1318 18.5707 73.3291 19.0827 73.3291 19.68C73.3291 20.16 73.1958 20.592 72.9291 20.976C72.6625 21.36 72.2945 21.6587 71.8251 21.872C71.3558 22.0853 70.8118 22.192 70.1931 22.192ZM75.277 22V9.888H76.765V15.056L76.493 14.912C76.7063 14.368 77.0477 13.9467 77.517 13.648C77.997 13.3387 78.557 13.184 79.197 13.184C79.8157 13.184 80.365 13.3227 80.845 13.6C81.3357 13.8773 81.7197 14.2613 81.997 14.752C82.285 15.2427 82.429 15.7973 82.429 16.416V22H80.925V16.896C80.925 16.416 80.8343 16.0107 80.653 15.68C80.4823 15.3493 80.2423 15.0933 79.933 14.912C79.6237 14.72 79.2663 14.624 78.861 14.624C78.4663 14.624 78.109 14.72 77.789 14.912C77.469 15.0933 77.2183 15.3547 77.037 15.696C76.8557 16.0267 76.765 16.4267 76.765 16.896V22H75.277ZM89.0223 22.192C88.3289 22.192 87.6943 22.0373 87.1183 21.728C86.5529 21.4187 86.1156 20.9813 85.8063 20.416L86.0143 20.16V22H84.5583V9.888H86.0463V15.232L85.8223 14.864C86.1423 14.352 86.5796 13.9467 87.1343 13.648C87.6889 13.3387 88.3236 13.184 89.0383 13.184C89.8489 13.184 90.5743 13.3813 91.2143 13.776C91.8649 14.1707 92.3769 14.7093 92.7503 15.392C93.1236 16.064 93.3103 16.832 93.3103 17.696C93.3103 18.5387 93.1236 19.3013 92.7503 19.984C92.3769 20.6667 91.8649 21.2053 91.2143 21.6C90.5743 21.9947 89.8436 22.192 89.0223 22.192ZM88.9103 20.752C89.4543 20.752 89.9396 20.6187 90.3663 20.352C90.7929 20.0853 91.1236 19.7227 91.3583 19.264C91.6036 18.7947 91.7263 18.272 91.7263 17.696C91.7263 17.0987 91.6036 16.576 91.3583 16.128C91.1236 15.6693 90.7929 15.3067 90.3663 15.04C89.9396 14.7627 89.4543 14.624 88.9103 14.624C88.3663 14.624 87.8756 14.7573 87.4383 15.024C87.0116 15.2907 86.6703 15.6587 86.4143 16.128C86.1689 16.5867 86.0463 17.1093 86.0463 17.696C86.0463 18.272 86.1689 18.7947 86.4143 19.264C86.6703 19.7227 87.0116 20.0853 87.4383 20.352C87.8756 20.6187 88.3663 20.752 88.9103 20.752ZM99.3574 22.192C98.5254 22.192 97.7734 22 97.1014 21.616C96.4294 21.2213 95.896 20.6827 95.5014 20C95.1067 19.3173 94.9094 18.544 94.9094 17.68C94.9094 16.816 95.1014 16.048 95.4854 15.376C95.88 14.704 96.4134 14.1707 97.0854 13.776C97.7574 13.3813 98.5147 13.184 99.3574 13.184C100.189 13.184 100.941 13.3813 101.613 13.776C102.285 14.16 102.813 14.688 103.197 15.36C103.592 16.032 103.789 16.8053 103.789 17.68C103.789 18.5547 103.587 19.3333 103.181 20.016C102.776 20.688 102.237 21.2213 101.565 21.616C100.904 22 100.168 22.192 99.3574 22.192ZM99.3574 20.752C99.8907 20.752 100.371 20.6187 100.797 20.352C101.235 20.0853 101.576 19.7173 101.821 19.248C102.077 18.7787 102.205 18.256 102.205 17.68C102.205 17.0933 102.077 16.576 101.821 16.128C101.576 15.6693 101.235 15.3067 100.797 15.04C100.371 14.7627 99.8907 14.624 99.3574 14.624C98.8134 14.624 98.3227 14.7627 97.8854 15.04C97.4587 15.3067 97.1174 15.6693 96.8614 16.128C96.6054 16.576 96.4774 17.0933 96.4774 17.68C96.4774 18.256 96.6054 18.7787 96.8614 19.248C97.1174 19.7173 97.4587 20.0853 97.8854 20.352C98.3227 20.6187 98.8134 20.752 99.3574 20.752ZM108.258 22.192C107.693 22.192 107.191 22.0907 106.754 21.888C106.327 21.6747 105.991 21.3867 105.746 21.024C105.501 20.6507 105.378 20.224 105.378 19.744C105.378 19.2853 105.474 18.8747 105.666 18.512C105.869 18.1387 106.178 17.824 106.594 17.568C107.021 17.312 107.554 17.1307 108.194 17.024L111.394 16.496V17.744L108.53 18.224C107.975 18.32 107.57 18.496 107.314 18.752C107.069 19.008 106.946 19.3227 106.946 19.696C106.946 20.048 107.085 20.3413 107.362 20.576C107.65 20.8107 108.007 20.928 108.434 20.928C108.978 20.928 109.447 20.816 109.842 20.592C110.247 20.3573 110.562 20.0427 110.786 19.648C111.021 19.2533 111.138 18.816 111.138 18.336V16.144C111.138 15.6747 110.962 15.296 110.61 15.008C110.269 14.7093 109.815 14.56 109.25 14.56C108.759 14.56 108.322 14.688 107.938 14.944C107.565 15.1893 107.287 15.52 107.106 15.936L105.81 15.264C105.97 14.8693 106.226 14.5173 106.578 14.208C106.93 13.888 107.341 13.6373 107.81 13.456C108.279 13.2747 108.77 13.184 109.282 13.184C109.943 13.184 110.525 13.312 111.026 13.568C111.527 13.8133 111.917 14.16 112.194 14.608C112.482 15.0453 112.626 15.5573 112.626 16.144V22H111.17V20.368L111.442 20.464C111.261 20.8053 111.015 21.104 110.706 21.36C110.397 21.616 110.034 21.8187 109.618 21.968C109.202 22.1173 108.749 22.192 108.258 22.192ZM114.933 22V13.376H116.389V14.96L116.229 14.736C116.432 14.2453 116.741 13.8827 117.157 13.648C117.573 13.4027 118.08 13.28 118.677 13.28H119.205V14.688H118.453C117.845 14.688 117.355 14.88 116.981 15.264C116.608 15.6373 116.421 16.1707 116.421 16.864V22H114.933ZM124.447 22.192C123.636 22.192 122.906 21.9947 122.255 21.6C121.615 21.2053 121.108 20.6667 120.735 19.984C120.362 19.3013 120.175 18.5387 120.175 17.696C120.175 16.832 120.362 16.064 120.735 15.392C121.108 14.7093 121.615 14.1707 122.255 13.776C122.906 13.3813 123.636 13.184 124.447 13.184C125.162 13.184 125.796 13.3387 126.351 13.648C126.906 13.9467 127.343 14.352 127.663 14.864L127.423 15.232V9.888H128.927V22H127.471V20.16L127.663 20.416C127.364 20.9813 126.927 21.4187 126.351 21.728C125.786 22.0373 125.151 22.192 124.447 22.192ZM124.575 20.752C125.119 20.752 125.604 20.6187 126.031 20.352C126.458 20.0853 126.794 19.7227 127.039 19.264C127.295 18.7947 127.423 18.272 127.423 17.696C127.423 17.1093 127.295 16.5867 127.039 16.128C126.794 15.6587 126.458 15.2907 126.031 15.024C125.604 14.7573 125.119 14.624 124.575 14.624C124.042 14.624 123.556 14.7627 123.119 15.04C122.692 15.3067 122.356 15.6693 122.111 16.128C121.866 16.576 121.743 17.0987 121.743 17.696C121.743 18.272 121.866 18.7947 122.111 19.264C122.356 19.7227 122.692 20.0853 123.119 20.352C123.546 20.6187 124.031 20.752 124.575 20.752Z" fill="white"/>
</svg>
