<svg width="146" height="41" viewBox="0 0 146 41" fill="none" xmlns="http://www.w3.org/2000/svg">
<g filter="url(#filter0_d_2368_1837)">
<rect x="6.5" y="2.5" width="29" height="29" rx="9.5" stroke="white"/>
</g>
<path d="M52.828 24V12.08H54.396V17.392H60.364V12.08H61.948V24H60.364V18.832H54.396V24H52.828ZM66.9456 24.192C66.3803 24.192 65.879 24.0907 65.4416 23.888C65.015 23.6747 64.679 23.3867 64.4336 23.024C64.1883 22.6507 64.0656 22.224 64.0656 21.744C64.0656 21.2853 64.1616 20.8747 64.3536 20.512C64.5563 20.1387 64.8656 19.824 65.2816 19.568C65.7083 19.312 66.2416 19.1307 66.8816 19.024L70.0816 18.496V19.744L67.2176 20.224C66.663 20.32 66.2576 20.496 66.0016 20.752C65.7563 21.008 65.6336 21.3227 65.6336 21.696C65.6336 22.048 65.7723 22.3413 66.0496 22.576C66.3376 22.8107 66.695 22.928 67.1216 22.928C67.6656 22.928 68.135 22.816 68.5296 22.592C68.935 22.3573 69.2496 22.0427 69.4736 21.648C69.7083 21.2533 69.8256 20.816 69.8256 20.336V18.144C69.8256 17.6747 69.6496 17.296 69.2976 17.008C68.9563 16.7093 68.503 16.56 67.9376 16.56C67.447 16.56 67.0096 16.688 66.6256 16.944C66.2523 17.1893 65.975 17.52 65.7936 17.936L64.4976 17.264C64.6576 16.8693 64.9136 16.5173 65.2656 16.208C65.6176 15.888 66.0283 15.6373 66.4976 15.456C66.967 15.2747 67.4576 15.184 67.9696 15.184C68.631 15.184 69.2123 15.312 69.7136 15.568C70.215 15.8133 70.6043 16.16 70.8816 16.608C71.1696 17.0453 71.3136 17.5573 71.3136 18.144V24H69.8576V22.368L70.1296 22.464C69.9483 22.8053 69.703 23.104 69.3936 23.36C69.0843 23.616 68.7216 23.8187 68.3056 23.968C67.8896 24.1173 67.4363 24.192 66.9456 24.192ZM73.6208 24V11.888H75.1088V24H73.6208ZM77.4176 24V11.888H78.9056V24H77.4176ZM88.0761 24.192C87.2441 24.192 86.4921 24 85.8201 23.616C85.1481 23.2213 84.6148 22.6827 84.2201 22C83.8255 21.3173 83.6281 20.544 83.6281 19.68C83.6281 18.816 83.8201 18.048 84.2041 17.376C84.5988 16.704 85.1321 16.1707 85.8041 15.776C86.4761 15.3813 87.2335 15.184 88.0761 15.184C88.9081 15.184 89.6601 15.3813 90.3321 15.776C91.0041 16.16 91.5321 16.688 91.9161 17.36C92.3108 18.032 92.5081 18.8053 92.5081 19.68C92.5081 20.5547 92.3055 21.3333 91.9001 22.016C91.4948 22.688 90.9561 23.2213 90.2841 23.616C89.6228 24 88.8868 24.192 88.0761 24.192ZM88.0761 22.752C88.6095 22.752 89.0895 22.6187 89.5161 22.352C89.9535 22.0853 90.2948 21.7173 90.5401 21.248C90.7961 20.7787 90.9241 20.256 90.9241 19.68C90.9241 19.0933 90.7961 18.576 90.5401 18.128C90.2948 17.6693 89.9535 17.3067 89.5161 17.04C89.0895 16.7627 88.6095 16.624 88.0761 16.624C87.5321 16.624 87.0415 16.7627 86.6041 17.04C86.1775 17.3067 85.8361 17.6693 85.5801 18.128C85.3241 18.576 85.1961 19.0933 85.1961 19.68C85.1961 20.256 85.3241 20.7787 85.5801 21.248C85.8361 21.7173 86.1775 22.0853 86.6041 22.352C87.0415 22.6187 87.5321 22.752 88.0761 22.752ZM95.0953 24V16.8H93.4473V15.376H95.0953V14.768C95.0953 14.1493 95.2286 13.6267 95.4953 13.2C95.7726 12.7733 96.1353 12.448 96.5833 12.224C97.0419 12 97.5486 11.888 98.1033 11.888C98.2206 11.888 98.3486 11.8987 98.4873 11.92C98.6366 11.9307 98.7593 11.9467 98.8553 11.968V13.296C98.7699 13.2747 98.6686 13.264 98.5513 13.264C98.4339 13.2533 98.3433 13.248 98.2793 13.248C97.7886 13.248 97.3833 13.3653 97.0633 13.6C96.7539 13.8347 96.5993 14.224 96.5993 14.768V15.376H98.6473V16.8H96.5993V24H95.0953ZM103.484 24V12.08H111.036V13.52H105.052V17.376H110.476V18.816H105.052V24H103.484ZM114.727 24.192C114.162 24.192 113.66 24.0907 113.223 23.888C112.796 23.6747 112.46 23.3867 112.215 23.024C111.97 22.6507 111.847 22.224 111.847 21.744C111.847 21.2853 111.943 20.8747 112.135 20.512C112.338 20.1387 112.647 19.824 113.063 19.568C113.49 19.312 114.023 19.1307 114.663 19.024L117.863 18.496V19.744L114.999 20.224C114.444 20.32 114.039 20.496 113.783 20.752C113.538 21.008 113.415 21.3227 113.415 21.696C113.415 22.048 113.554 22.3413 113.831 22.576C114.119 22.8107 114.476 22.928 114.903 22.928C115.447 22.928 115.916 22.816 116.311 22.592C116.716 22.3573 117.031 22.0427 117.255 21.648C117.49 21.2533 117.607 20.816 117.607 20.336V18.144C117.607 17.6747 117.431 17.296 117.079 17.008C116.738 16.7093 116.284 16.56 115.719 16.56C115.228 16.56 114.791 16.688 114.407 16.944C114.034 17.1893 113.756 17.52 113.575 17.936L112.279 17.264C112.439 16.8693 112.695 16.5173 113.047 16.208C113.399 15.888 113.81 15.6373 114.279 15.456C114.748 15.2747 115.239 15.184 115.751 15.184C116.412 15.184 116.994 15.312 117.495 15.568C117.996 15.8133 118.386 16.16 118.663 16.608C118.951 17.0453 119.095 17.5573 119.095 18.144V24H117.639V22.368L117.911 22.464C117.73 22.8053 117.484 23.104 117.175 23.36C116.866 23.616 116.503 23.8187 116.087 23.968C115.671 24.1173 115.218 24.192 114.727 24.192ZM121.402 24V15.376H122.858V17.136L122.65 16.864C122.863 16.32 123.205 15.904 123.674 15.616C124.143 15.328 124.671 15.184 125.258 15.184C125.93 15.184 126.533 15.3707 127.066 15.744C127.61 16.1173 127.983 16.608 128.186 17.216L127.77 17.232C127.994 16.56 128.373 16.0533 128.906 15.712C129.439 15.36 130.031 15.184 130.682 15.184C131.279 15.184 131.818 15.3227 132.298 15.6C132.789 15.8773 133.178 16.2613 133.466 16.752C133.754 17.2427 133.898 17.7973 133.898 18.416V24H132.394V18.896C132.394 18.416 132.309 18.0107 132.138 17.68C131.967 17.3493 131.733 17.0933 131.434 16.912C131.146 16.72 130.805 16.624 130.41 16.624C130.026 16.624 129.679 16.72 129.37 16.912C129.071 17.0933 128.831 17.3547 128.65 17.696C128.479 18.0267 128.394 18.4267 128.394 18.896V24H126.89V18.896C126.89 18.416 126.805 18.0107 126.634 17.68C126.463 17.3493 126.229 17.0933 125.93 16.912C125.642 16.72 125.301 16.624 124.906 16.624C124.522 16.624 124.175 16.72 123.866 16.912C123.567 17.0933 123.327 17.3547 123.146 17.696C122.975 18.0267 122.89 18.4267 122.89 18.896V24H121.402ZM139.979 24.192C139.147 24.192 138.406 23.9947 137.755 23.6C137.105 23.2053 136.593 22.6667 136.219 21.984C135.846 21.2907 135.659 20.5173 135.659 19.664C135.659 18.8 135.841 18.032 136.203 17.36C136.577 16.688 137.078 16.16 137.707 15.776C138.347 15.3813 139.062 15.184 139.851 15.184C140.491 15.184 141.057 15.3013 141.547 15.536C142.049 15.76 142.47 16.0693 142.811 16.464C143.163 16.848 143.43 17.2907 143.611 17.792C143.803 18.2827 143.899 18.7947 143.899 19.328C143.899 19.4453 143.889 19.5787 143.867 19.728C143.857 19.8667 143.841 20 143.819 20.128H136.747V18.848H142.955L142.251 19.424C142.347 18.8693 142.294 18.3733 142.091 17.936C141.889 17.4987 141.59 17.152 141.195 16.896C140.801 16.64 140.353 16.512 139.851 16.512C139.35 16.512 138.891 16.64 138.475 16.896C138.059 17.152 137.734 17.52 137.499 18C137.275 18.4693 137.185 19.0293 137.227 19.68C137.185 20.3093 137.281 20.864 137.515 21.344C137.761 21.8133 138.102 22.1813 138.539 22.448C138.987 22.704 139.473 22.832 139.995 22.832C140.571 22.832 141.057 22.6987 141.451 22.432C141.846 22.1653 142.166 21.824 142.411 21.408L143.659 22.048C143.489 22.4427 143.222 22.8053 142.859 23.136C142.507 23.456 142.086 23.712 141.595 23.904C141.115 24.096 140.577 24.192 139.979 24.192Z" fill="white"/>
<g clip-path="url(#clip0_2368_1837)">
<path d="M29.0856 13.2732C29.0856 14.4099 28.7166 15.5001 28.0597 16.3039C27.5413 16.9382 26.8773 17.3531 26.1639 17.4999L16.8298 17.4975C16.1209 17.3485 15.4613 16.9347 14.9459 16.3039C14.289 15.5001 13.9199 14.4099 13.9199 13.2732L13.9199 11.4554C13.9199 11.2316 14.067 11.0344 14.2815 10.9705C18.9934 9.56711 24.0121 9.56711 28.724 10.9705C28.9386 11.0344 29.0856 11.2316 29.0856 11.4554V13.2732Z" stroke="white" stroke-width="1.73288" stroke-linecap="round" stroke-linejoin="round"/>
<path d="M21.4961 21.4132V25.0892" stroke="white" stroke-width="1.73288" stroke-linecap="round" stroke-linejoin="round"/>
<path d="M18.5762 25.0892H24.4141" stroke="white" stroke-width="1.73288" stroke-linecap="round" stroke-linejoin="round"/>
<path d="M17.2754 17.0088C17.3489 19.3294 19.1793 21.404 21.5011 21.404C23.8638 21.404 25.6434 19.366 25.7248 17.0047C25.7401 16.5602 25.7483 16.111 25.7483 15.6573C25.7483 13.8174 25.6255 11.9435 25.4247 10.2814C24.1629 9.99973 22.8652 9.91064 21.5011 9.91064C20.137 9.91064 18.8131 9.98891 17.5775 10.2814C17.3658 11.9365 17.2539 13.8174 17.2539 15.6573C17.2539 16.1126 17.2612 16.563 17.2754 17.0088Z" fill="white" stroke="white" stroke-width="1.73288"/>
</g>
<defs>
<filter id="filter0_d_2368_1837" x="0.5" y="-2.38419e-07" width="41" height="41" filterUnits="userSpaceOnUse" color-interpolation-filters="sRGB">
<feFlood flood-opacity="0" result="BackgroundImageFix"/>
<feColorMatrix in="SourceAlpha" type="matrix" values="0 0 0 0 0 0 0 0 0 0 0 0 0 0 0 0 0 0 127 0" result="hardAlpha"/>
<feOffset dy="3.5"/>
<feGaussianBlur stdDeviation="2.75"/>
<feColorMatrix type="matrix" values="0 0 0 0 0 0 0 0 0 0 0 0 0 0 0 0 0 0 0.02 0"/>
<feBlend mode="normal" in2="BackgroundImageFix" result="effect1_dropShadow_2368_1837"/>
<feBlend mode="normal" in="SourceGraphic" in2="effect1_dropShadow_2368_1837" result="shape"/>
</filter>
<clipPath id="clip0_2368_1837">
<rect width="17" height="17" fill="white" transform="translate(13 9)"/>
</clipPath>
</defs>
</svg>
