<svg width="92" height="30" viewBox="-6 0 98 30" fill="none" xmlns="http://www.w3.org/2000/svg">
<path d="M0.5 10C0.5 4.75329 4.75329 0.5 10 0.5H20C25.2467 0.5 29.5 4.75329 29.5 10V20C29.5 25.2467 25.2467 29.5 20 29.5H10C4.75329 29.5 0.5 25.2467 0.5 20V10Z" stroke="white"/>
<g clip-path="url(#clip0_2368_1674)">
<path d="M15.1639 10.4675C15.1202 10.4258 15.0622 10.4025 15.0019 10.4025C14.9415 10.4025 14.8835 10.4258 14.8398 10.4675L9.44629 15.6199C9.42338 15.6418 9.40516 15.6682 9.39272 15.6973C9.38028 15.7265 9.37389 15.7578 9.37393 15.7895L9.37305 20.6253C9.37305 20.8739 9.47182 21.1124 9.64763 21.2882C9.82345 21.464 10.0619 21.5628 10.3105 21.5628H13.126C13.2503 21.5628 13.3695 21.5134 13.4574 21.4255C13.5453 21.3376 13.5947 21.2184 13.5947 21.094V17.1097C13.5947 17.0475 13.6194 16.9879 13.6634 16.9439C13.7073 16.9 13.7669 16.8753 13.8291 16.8753H16.1728C16.235 16.8753 16.2946 16.9 16.3386 16.9439C16.3825 16.9879 16.4072 17.0475 16.4072 17.1097V21.094C16.4072 21.2184 16.4566 21.3376 16.5445 21.4255C16.6324 21.5134 16.7517 21.5628 16.876 21.5628H19.6902C19.9389 21.5628 20.1773 21.464 20.3531 21.2882C20.529 21.1124 20.6277 20.8739 20.6277 20.6253V15.7895C20.6278 15.7578 20.6214 15.7265 20.6089 15.6973C20.5965 15.6682 20.5783 15.6418 20.5554 15.6199L15.1639 10.4675Z" fill="white"/>
<path d="M21.8821 14.6539L19.6907 12.5574V9.3761C19.6907 9.25178 19.6413 9.13255 19.5534 9.04464C19.4655 8.95673 19.3463 8.90735 19.222 8.90735H17.8157C17.6914 8.90735 17.5722 8.95673 17.4843 9.04464C17.3964 9.13255 17.347 9.25178 17.347 9.3761V10.3136L15.6501 8.69114C15.4913 8.53059 15.2552 8.4386 15 8.4386C14.7457 8.4386 14.5102 8.53059 14.3514 8.69143L8.11993 14.6533C7.93771 14.8291 7.91485 15.1183 8.08068 15.3087C8.12232 15.3568 8.1733 15.3959 8.23053 15.4236C8.28776 15.4513 8.35003 15.4671 8.41356 15.4701C8.47709 15.473 8.54054 15.4629 8.60006 15.4405C8.65958 15.4181 8.71392 15.3838 8.75978 15.3398L14.8389 9.53079C14.8825 9.48906 14.9405 9.46577 15.0009 9.46577C15.0612 9.46577 15.1193 9.48906 15.1629 9.53079L21.2426 15.3398C21.3321 15.4257 21.4521 15.4725 21.5762 15.4701C21.7002 15.4677 21.8183 15.4162 21.9044 15.3269C22.0843 15.1406 22.0693 14.8329 21.8821 14.6539Z" fill="white"/>
</g>
<path d="M46.328 22.0001V10.0801H47.896V15.3921H53.864V10.0801H55.448V22.0001H53.864V16.8321H47.896V22.0001H46.328ZM62.0136 22.1921C61.1816 22.1921 60.4296 22.0001 59.7576 21.6161C59.0856 21.2215 58.5523 20.6828 58.1576 20.0001C57.763 19.3175 57.5656 18.5441 57.5656 17.6801C57.5656 16.8161 57.7576 16.0481 58.1416 15.3761C58.5363 14.7041 59.0696 14.1708 59.7416 13.7761C60.4136 13.3815 61.171 13.1841 62.0136 13.1841C62.8456 13.1841 63.5976 13.3815 64.2696 13.7761C64.9416 14.1601 65.4696 14.6881 65.8536 15.3601C66.2483 16.0321 66.4456 16.8055 66.4456 17.6801C66.4456 18.5548 66.243 19.3335 65.8376 20.0161C65.4323 20.6881 64.8936 21.2215 64.2216 21.6161C63.5603 22.0001 62.8243 22.1921 62.0136 22.1921ZM62.0136 20.7521C62.547 20.7521 63.027 20.6188 63.4536 20.3521C63.891 20.0855 64.2323 19.7175 64.4776 19.2481C64.7336 18.7788 64.8616 18.2561 64.8616 17.6801C64.8616 17.0935 64.7336 16.5761 64.4776 16.1281C64.2323 15.6695 63.891 15.3068 63.4536 15.0401C63.027 14.7628 62.547 14.6241 62.0136 14.6241C61.4696 14.6241 60.979 14.7628 60.5416 15.0401C60.115 15.3068 59.7736 15.6695 59.5176 16.1281C59.2616 16.5761 59.1336 17.0935 59.1336 17.6801C59.1336 18.2561 59.2616 18.7788 59.5176 19.2481C59.7736 19.7175 60.115 20.0855 60.5416 20.3521C60.979 20.6188 61.4696 20.7521 62.0136 20.7521ZM68.3864 22.0001V13.3761H69.8424V15.1361L69.6344 14.8641C69.8477 14.3201 70.189 13.9041 70.6584 13.6161C71.1277 13.3281 71.6557 13.1841 72.2424 13.1841C72.9144 13.1841 73.517 13.3708 74.0504 13.7441C74.5944 14.1175 74.9677 14.6081 75.1704 15.2161L74.7544 15.2321C74.9784 14.5601 75.357 14.0535 75.8904 13.7121C76.4237 13.3601 77.0157 13.1841 77.6664 13.1841C78.2637 13.1841 78.8024 13.3228 79.2824 13.6001C79.773 13.8775 80.1624 14.2615 80.4504 14.7521C80.7384 15.2428 80.8824 15.7975 80.8824 16.4161V22.0001H79.3784V16.8961C79.3784 16.4161 79.293 16.0108 79.1224 15.6801C78.9517 15.3495 78.717 15.0935 78.4184 14.9121C78.1304 14.7201 77.789 14.6241 77.3944 14.6241C77.0104 14.6241 76.6637 14.7201 76.3544 14.9121C76.0557 15.0935 75.8157 15.3548 75.6344 15.6961C75.4637 16.0268 75.3784 16.4268 75.3784 16.8961V22.0001H73.8744V16.8961C73.8744 16.4161 73.789 16.0108 73.6184 15.6801C73.4477 15.3495 73.213 15.0935 72.9144 14.9121C72.6264 14.7201 72.285 14.6241 71.8904 14.6241C71.5064 14.6241 71.1597 14.7201 70.8504 14.9121C70.5517 15.0935 70.3117 15.3548 70.1304 15.6961C69.9597 16.0268 69.8744 16.4268 69.8744 16.8961V22.0001H68.3864ZM86.9638 22.1921C86.1318 22.1921 85.3904 21.9948 84.7398 21.6001C84.0891 21.2055 83.5771 20.6668 83.2038 19.9841C82.8304 19.2908 82.6438 18.5175 82.6438 17.6641C82.6438 16.8001 82.8251 16.0321 83.1878 15.3601C83.5611 14.6881 84.0624 14.1601 84.6918 13.7761C85.3318 13.3815 86.0464 13.1841 86.8358 13.1841C87.4758 13.1841 88.0411 13.3015 88.5318 13.5361C89.0331 13.7601 89.4544 14.0695 89.7958 14.4641C90.1478 14.8481 90.4144 15.2908 90.5958 15.7921C90.7878 16.2828 90.8837 16.7948 90.8837 17.3281C90.8837 17.4455 90.8731 17.5788 90.8518 17.7281C90.8411 17.8668 90.8251 18.0001 90.8038 18.1281H83.7318V16.8481H89.9398L89.2358 17.4241C89.3318 16.8695 89.2784 16.3735 89.0758 15.9361C88.8731 15.4988 88.5744 15.1521 88.1798 14.8961C87.7851 14.6401 87.3371 14.5121 86.8358 14.5121C86.3344 14.5121 85.8758 14.6401 85.4598 14.8961C85.0438 15.1521 84.7184 15.5201 84.4838 16.0001C84.2598 16.4695 84.1691 17.0295 84.2118 17.6801C84.1691 18.3095 84.2651 18.8641 84.4998 19.3441C84.7451 19.8135 85.0864 20.1815 85.5238 20.4481C85.9718 20.7041 86.4571 20.8321 86.9798 20.8321C87.5558 20.8321 88.0411 20.6988 88.4358 20.4321C88.8304 20.1655 89.1504 19.8241 89.3958 19.4081L90.6438 20.0481C90.4731 20.4428 90.2064 20.8055 89.8438 21.1361C89.4918 21.4561 89.0704 21.7121 88.5798 21.9041C88.0998 22.0961 87.5611 22.1921 86.9638 22.1921Z" fill="white"/>
<defs>
<clipPath id="clip0_2368_1674">
<rect width="15" height="15" fill="white" transform="translate(7.5 7.50012)"/>
</clipPath>
</defs>
</svg>
