<svg width="79" height="30" viewBox="-6 0 85 30" fill="none" xmlns="http://www.w3.org/2000/svg">
<path d="M46.328 22V10.08H47.896V22H46.328ZM54.2908 22.192C53.4801 22.192 52.7494 21.9947 52.0988 21.6C51.4588 21.2053 50.9521 20.6667 50.5788 19.984C50.2054 19.3013 50.0188 18.5387 50.0188 17.696C50.0188 16.832 50.2054 16.064 50.5788 15.392C50.9521 14.7093 51.4588 14.1707 52.0988 13.776C52.7494 13.3813 53.4801 13.184 54.2908 13.184C55.0054 13.184 55.6401 13.3387 56.1948 13.648C56.7494 13.9467 57.1868 14.352 57.5068 14.864L57.2668 15.232V9.888H58.7708V22H57.3148V20.16L57.5068 20.416C57.2081 20.9813 56.7708 21.4187 56.1948 21.728C55.6294 22.0373 54.9948 22.192 54.2908 22.192ZM54.4188 20.752C54.9628 20.752 55.4481 20.6187 55.8748 20.352C56.3014 20.0853 56.6374 19.7227 56.8828 19.264C57.1388 18.7947 57.2668 18.272 57.2668 17.696C57.2668 17.1093 57.1388 16.5867 56.8828 16.128C56.6374 15.6587 56.3014 15.2907 55.8748 15.024C55.4481 14.7573 54.9628 14.624 54.4188 14.624C53.8854 14.624 53.4001 14.7627 52.9628 15.04C52.5361 15.3067 52.2001 15.6693 51.9548 16.128C51.7094 16.576 51.5868 17.0987 51.5868 17.696C51.5868 18.272 51.7094 18.7947 51.9548 19.264C52.2001 19.7227 52.5361 20.0853 52.9628 20.352C53.3894 20.6187 53.8748 20.752 54.4188 20.752ZM65.0419 22.192C64.2099 22.192 63.4685 21.9947 62.8179 21.6C62.1672 21.2053 61.6552 20.6667 61.2819 19.984C60.9085 19.2907 60.7219 18.5173 60.7219 17.664C60.7219 16.8 60.9032 16.032 61.2659 15.36C61.6392 14.688 62.1405 14.16 62.7699 13.776C63.4099 13.3813 64.1245 13.184 64.9139 13.184C65.5539 13.184 66.1192 13.3013 66.6099 13.536C67.1112 13.76 67.5325 14.0693 67.8739 14.464C68.2259 14.848 68.4925 15.2907 68.6739 15.792C68.8659 16.2827 68.9619 16.7947 68.9619 17.328C68.9619 17.4453 68.9512 17.5787 68.9299 17.728C68.9192 17.8667 68.9032 18 68.8819 18.128H61.8099V16.848H68.0179L67.3139 17.424C67.4099 16.8693 67.3565 16.3733 67.1539 15.936C66.9512 15.4987 66.6525 15.152 66.2579 14.896C65.8632 14.64 65.4152 14.512 64.9139 14.512C64.4125 14.512 63.9539 14.64 63.5379 14.896C63.1219 15.152 62.7965 15.52 62.5619 16C62.3379 16.4693 62.2472 17.0293 62.2899 17.68C62.2472 18.3093 62.3432 18.864 62.5779 19.344C62.8232 19.8133 63.1645 20.1813 63.6019 20.448C64.0499 20.704 64.5352 20.832 65.0579 20.832C65.6339 20.832 66.1192 20.6987 66.5139 20.432C66.9085 20.1653 67.2285 19.824 67.4739 19.408L68.7219 20.048C68.5512 20.4427 68.2845 20.8053 67.9219 21.136C67.5699 21.456 67.1485 21.712 66.6579 21.904C66.1779 22.096 65.6392 22.192 65.0419 22.192ZM73.3206 22.192C72.7553 22.192 72.254 22.0907 71.8166 21.888C71.39 21.6747 71.054 21.3867 70.8086 21.024C70.5633 20.6507 70.4406 20.224 70.4406 19.744C70.4406 19.2853 70.5366 18.8747 70.7286 18.512C70.9313 18.1387 71.2406 17.824 71.6566 17.568C72.0833 17.312 72.6166 17.1307 73.2566 17.024L76.4566 16.496V17.744L73.5926 18.224C73.038 18.32 72.6326 18.496 72.3766 18.752C72.1313 19.008 72.0086 19.3227 72.0086 19.696C72.0086 20.048 72.1473 20.3413 72.4246 20.576C72.7126 20.8107 73.07 20.928 73.4966 20.928C74.0406 20.928 74.51 20.816 74.9046 20.592C75.31 20.3573 75.6246 20.0427 75.8486 19.648C76.0833 19.2533 76.2006 18.816 76.2006 18.336V16.144C76.2006 15.6747 76.0246 15.296 75.6726 15.008C75.3313 14.7093 74.878 14.56 74.3126 14.56C73.822 14.56 73.3846 14.688 73.0006 14.944C72.6273 15.1893 72.35 15.52 72.1686 15.936L70.8726 15.264C71.0326 14.8693 71.2886 14.5173 71.6406 14.208C71.9926 13.888 72.4033 13.6373 72.8726 13.456C73.342 13.2747 73.8326 13.184 74.3446 13.184C75.006 13.184 75.5873 13.312 76.0886 13.568C76.59 13.8133 76.9793 14.16 77.2566 14.608C77.5446 15.0453 77.6886 15.5573 77.6886 16.144V22H76.2326V20.368L76.5046 20.464C76.3233 20.8053 76.078 21.104 75.7686 21.36C75.4593 21.616 75.0966 21.8187 74.6806 21.968C74.2646 22.1173 73.8113 22.192 73.3206 22.192Z" fill="white"/>
<rect x="0.5" y="0.5" width="29" height="29" rx="9.5" stroke="white"/>
<path d="M9.375 13.3245C9.375 10.3029 11.9055 7.875 15 7.875C18.0945 7.875 20.625 10.3029 20.625 13.3245C20.625 15.0899 19.8952 16.6828 18.5288 17.6873C18.4345 17.7567 18.3774 17.8427 18.3576 17.9271C18.3173 18.0981 18.2731 18.2938 18.2276 18.5038C18.2051 18.6077 18.1134 18.6822 18.0071 18.6822H11.9929C11.8866 18.6822 11.7949 18.6077 11.7724 18.5038C11.7269 18.2938 11.6827 18.0981 11.6424 17.9271C11.6226 17.8427 11.5655 17.7567 11.4712 17.6873C10.1048 16.6828 9.375 15.0899 9.375 13.3245Z" fill="white"/>
<path d="M12.3004 19.8072C12.1602 19.8072 12.0543 19.9339 12.0776 20.0721C12.1481 20.4896 12.1995 20.8623 12.2151 21.1199C12.2624 21.9008 12.8375 22.5441 13.6067 22.7102L13.7537 22.742C14.5745 22.9193 15.4255 22.9193 16.2463 22.742L16.3933 22.7102C17.1625 22.5441 17.7376 21.9008 17.7849 21.1199C17.8005 20.8623 17.8519 20.4896 17.9224 20.0721C17.9457 19.9339 17.8398 19.8072 17.6996 19.8072H12.3004Z" fill="white"/>
</svg>
