<svg width="107" height="41" viewBox="0 0 107 41" fill="none" xmlns="http://www.w3.org/2000/svg">
<g filter="url(#filter0_d_2186_4356)">
<rect x="6.5" y="2.5" width="29" height="29" rx="9.5" stroke="blue"/>
</g>
<path d="M52.828 24V12.08H54.268L58.732 18.432H57.996L62.428 12.08H63.868V24H62.284V14.064L62.844 14.24L58.412 20.48H58.284L53.9 14.24L54.396 14.064V24H52.828ZM68.8675 24.192C68.3022 24.192 67.8008 24.0907 67.3635 23.888C66.9368 23.6747 66.6008 23.3867 66.3555 23.024C66.1102 22.6507 65.9875 22.224 65.9875 21.744C65.9875 21.2853 66.0835 20.8747 66.2755 20.512C66.4782 20.1387 66.7875 19.824 67.2035 19.568C67.6302 19.312 68.1635 19.1307 68.8035 19.024L72.0035 18.496V19.744L69.1395 20.224C68.5848 20.32 68.1795 20.496 67.9235 20.752C67.6782 21.008 67.5555 21.3227 67.5555 21.696C67.5555 22.048 67.6942 22.3413 67.9715 22.576C68.2595 22.8107 68.6168 22.928 69.0435 22.928C69.5875 22.928 70.0568 22.816 70.4515 22.592C70.8568 22.3573 71.1715 22.0427 71.3955 21.648C71.6302 21.2533 71.7475 20.816 71.7475 20.336V18.144C71.7475 17.6747 71.5715 17.296 71.2195 17.008C70.8782 16.7093 70.4248 16.56 69.8595 16.56C69.3688 16.56 68.9315 16.688 68.5475 16.944C68.1742 17.1893 67.8968 17.52 67.7155 17.936L66.4195 17.264C66.5795 16.8693 66.8355 16.5173 67.1875 16.208C67.5395 15.888 67.9502 15.6373 68.4195 15.456C68.8888 15.2747 69.3795 15.184 69.8915 15.184C70.5528 15.184 71.1342 15.312 71.6355 15.568C72.1368 15.8133 72.5262 16.16 72.8035 16.608C73.0915 17.0453 73.2355 17.5573 73.2355 18.144V24H71.7795V22.368L72.0515 22.464C71.8702 22.8053 71.6248 23.104 71.3155 23.36C71.0062 23.616 70.6435 23.8187 70.2275 23.968C69.8115 24.1173 69.3582 24.192 68.8675 24.192ZM75.5426 24V15.376H76.9986V17.056L76.7586 16.912C76.972 16.368 77.3133 15.9467 77.7826 15.648C78.2626 15.3387 78.8226 15.184 79.4626 15.184C80.0813 15.184 80.6306 15.3227 81.1106 15.6C81.6013 15.8773 81.9853 16.2613 82.2626 16.752C82.5506 17.2427 82.6946 17.7973 82.6946 18.416V24H81.1906V18.896C81.1906 18.416 81.1053 18.0107 80.9346 17.68C80.764 17.3493 80.5186 17.0933 80.1986 16.912C79.8893 16.72 79.532 16.624 79.1266 16.624C78.7213 16.624 78.3586 16.72 78.0386 16.912C77.7293 17.0933 77.484 17.3547 77.3026 17.696C77.1213 18.0267 77.0306 18.4267 77.0306 18.896V24H75.5426ZM87.8799 24.192C87.2612 24.192 86.7012 24.048 86.1999 23.76C85.7092 23.472 85.3252 23.072 85.0479 22.56C84.7812 22.0373 84.6479 21.44 84.6479 20.768V15.376H86.1359V20.608C86.1359 21.0347 86.2212 21.408 86.3919 21.728C86.5732 22.048 86.8185 22.2987 87.1279 22.48C87.4479 22.6613 87.8105 22.752 88.2159 22.752C88.6212 22.752 88.9785 22.6613 89.2879 22.48C89.6079 22.2987 89.8532 22.0373 90.0239 21.696C90.2052 21.3547 90.2959 20.9493 90.2959 20.48V15.376H91.7999V24H90.3439V22.32L90.5839 22.464C90.3812 23.008 90.0345 23.4347 89.5439 23.744C89.0639 24.0427 88.5092 24.192 87.8799 24.192ZM96.6331 24.192C96.0678 24.192 95.5665 24.0907 95.1291 23.888C94.7025 23.6747 94.3665 23.3867 94.1211 23.024C93.8758 22.6507 93.7531 22.224 93.7531 21.744C93.7531 21.2853 93.8491 20.8747 94.0411 20.512C94.2438 20.1387 94.5531 19.824 94.9691 19.568C95.3958 19.312 95.9291 19.1307 96.5691 19.024L99.7691 18.496V19.744L96.9051 20.224C96.3505 20.32 95.9451 20.496 95.6891 20.752C95.4438 21.008 95.3211 21.3227 95.3211 21.696C95.3211 22.048 95.4598 22.3413 95.7371 22.576C96.0251 22.8107 96.3825 22.928 96.8091 22.928C97.3531 22.928 97.8225 22.816 98.2171 22.592C98.6225 22.3573 98.9371 22.0427 99.1611 21.648C99.3958 21.2533 99.5131 20.816 99.5131 20.336V18.144C99.5131 17.6747 99.3371 17.296 98.9851 17.008C98.6438 16.7093 98.1905 16.56 97.6251 16.56C97.1345 16.56 96.6971 16.688 96.3131 16.944C95.9398 17.1893 95.6625 17.52 95.4811 17.936L94.1851 17.264C94.3451 16.8693 94.6011 16.5173 94.9531 16.208C95.3051 15.888 95.7158 15.6373 96.1851 15.456C96.6545 15.2747 97.1451 15.184 97.6571 15.184C98.3185 15.184 98.8998 15.312 99.4011 15.568C99.9025 15.8133 100.292 16.16 100.569 16.608C100.857 17.0453 101.001 17.5573 101.001 18.144V24H99.5451V22.368L99.8171 22.464C99.6358 22.8053 99.3905 23.104 99.0811 23.36C98.7718 23.616 98.4091 23.8187 97.9931 23.968C97.5771 24.1173 97.1238 24.192 96.6331 24.192ZM103.308 24V11.888H104.796V24H103.308Z" fill="blue"/>
<path d="M27.2222 25H16.7222C15.2188 25 14 23.7464 14 22.2V11.4C14 10.0745 15.0447 9 16.3333 9H27.2222C27.6518 9 28 9.35818 28 9.8V24.2C28 24.6418 27.6518 25 27.2222 25ZM26.4444 23.4V21H16.7222C16.0779 21 15.5556 21.5373 15.5556 22.2C15.5556 22.8627 16.0779 23.4 16.7222 23.4H26.4444ZM19.4444 10.6V17L22.1667 15.4L24.8889 17V10.6H19.4444Z" fill="blue"/>
<defs>
<filter id="filter0_d_2186_4356" x="0.5" y="-2.38419e-07" width="41" height="41" filterUnits="userSpaceOnUse" color-interpolation-filters="sRGB">
<feFlood flood-opacity="0" result="BackgroundImageFix"/>
<feColorMatrix in="SourceAlpha" type="matrix" values="0 0 0 0 0 0 0 0 0 0 0 0 0 0 0 0 0 0 127 0" result="hardAlpha"/>
<feOffset dy="3.5"/>
<feGaussianBlur stdDeviation="2.75"/>
<feColorMatrix type="matrix" values="0 0 0 0 0 0 0 0 0 0 0 0 0 0 0 0 0 0 0.02 0"/>
<feBlend mode="normal" in2="BackgroundImageFix" result="effect1_dropShadow_2186_4356"/>
<feBlend mode="normal" in="SourceGraphic" in2="effect1_dropShadow_2186_4356" result="shape"/>
</filter>
</defs>
</svg>
