<svg width="102" height="41" viewBox="0 0 102 41" fill="none" xmlns="http://www.w3.org/2000/svg">
<g filter="url(#filter0_d_2186_4347)">
<rect x="6.5" y="2.5" width="29" height="29" rx="9.5" stroke="blue"/>
</g>
<path d="M23.2453 11.392C22.6752 10.7765 21.8789 10.4375 21 10.4375C20.1164 10.4375 19.3175 10.7744 18.75 11.3861C18.1764 12.0046 17.8969 12.8451 17.9625 13.7527C18.0926 15.5434 19.4552 17 21 17C22.5449 17 23.9051 15.5437 24.0372 13.7533C24.1037 12.8539 23.8225 12.0151 23.2453 11.392Z" fill="blue"/>
<path d="M26.1564 23.5615H15.8439C15.7089 23.5633 15.5753 23.5349 15.4526 23.4785C15.33 23.4221 15.2214 23.3391 15.1349 23.2354C14.9445 23.0078 14.8677 22.697 14.9246 22.3826C15.1718 21.0109 15.9435 19.8587 17.1564 19.0498C18.234 18.3317 19.5989 17.9365 21.0002 17.9365C22.4014 17.9365 23.7664 18.332 24.8439 19.0498C26.0568 19.8584 26.8285 21.0106 27.0757 22.3823C27.1326 22.6967 27.0558 23.0075 26.8654 23.2352C26.7789 23.3388 26.6704 23.4219 26.5478 23.4784C26.4251 23.5348 26.2914 23.5632 26.1564 23.5615Z" fill="blue"/>
<path d="M52.828 24V12.08H57.036C57.8253 12.08 58.5187 12.2293 59.116 12.528C59.7133 12.8267 60.1773 13.2533 60.508 13.808C60.8493 14.3627 61.02 15.0133 61.02 15.76C61.02 16.5067 60.8493 17.1573 60.508 17.712C60.1773 18.256 59.7133 18.6827 59.116 18.992C58.5293 19.2907 57.836 19.44 57.036 19.44H54.396V24H52.828ZM54.396 18H57.084C57.564 18 57.98 17.9093 58.332 17.728C58.684 17.5467 58.956 17.2853 59.148 16.944C59.34 16.6027 59.436 16.208 59.436 15.76C59.436 15.3013 59.34 14.9067 59.148 14.576C58.956 14.2347 58.684 13.9733 58.332 13.792C57.98 13.6107 57.564 13.52 57.084 13.52H54.396V18ZM62.9645 24V15.376H64.4205V16.96L64.2605 16.736C64.4632 16.2453 64.7725 15.8827 65.1885 15.648C65.6045 15.4027 66.1112 15.28 66.7085 15.28H67.2365V16.688H66.4845C65.8765 16.688 65.3858 16.88 65.0125 17.264C64.6392 17.6373 64.4525 18.1707 64.4525 18.864V24H62.9645ZM72.6543 24.192C71.8223 24.192 71.0703 24 70.3983 23.616C69.7263 23.2213 69.1929 22.6827 68.7983 22C68.4036 21.3173 68.2063 20.544 68.2063 19.68C68.2063 18.816 68.3983 18.048 68.7823 17.376C69.1769 16.704 69.7103 16.1707 70.3823 15.776C71.0543 15.3813 71.8116 15.184 72.6543 15.184C73.4863 15.184 74.2383 15.3813 74.9103 15.776C75.5823 16.16 76.1103 16.688 76.4943 17.36C76.8889 18.032 77.0863 18.8053 77.0863 19.68C77.0863 20.5547 76.8836 21.3333 76.4783 22.016C76.0729 22.688 75.5343 23.2213 74.8623 23.616C74.2009 24 73.4649 24.192 72.6543 24.192ZM72.6543 22.752C73.1876 22.752 73.6676 22.6187 74.0943 22.352C74.5316 22.0853 74.8729 21.7173 75.1183 21.248C75.3743 20.7787 75.5023 20.256 75.5023 19.68C75.5023 19.0933 75.3743 18.576 75.1183 18.128C74.8729 17.6693 74.5316 17.3067 74.0943 17.04C73.6676 16.7627 73.1876 16.624 72.6543 16.624C72.1103 16.624 71.6196 16.7627 71.1823 17.04C70.7556 17.3067 70.4143 17.6693 70.1583 18.128C69.9023 18.576 69.7743 19.0933 69.7743 19.68C69.7743 20.256 69.9023 20.7787 70.1583 21.248C70.4143 21.7173 70.7556 22.0853 71.1823 22.352C71.6196 22.6187 72.1103 22.752 72.6543 22.752ZM79.6734 24V16.8H78.0254V15.376H79.6734V14.768C79.6734 14.1493 79.8067 13.6267 80.0734 13.2C80.3507 12.7733 80.7134 12.448 81.1614 12.224C81.62 12 82.1267 11.888 82.6814 11.888C82.7987 11.888 82.9267 11.8987 83.0654 11.92C83.2147 11.9307 83.3374 11.9467 83.4334 11.968V13.296C83.348 13.2747 83.2467 13.264 83.1294 13.264C83.012 13.2533 82.9214 13.248 82.8574 13.248C82.3667 13.248 81.9614 13.3653 81.6414 13.6C81.332 13.8347 81.1774 14.224 81.1774 14.768V15.376H85.6574V16.8H81.1774V24H79.6734ZM84.7294 24V15.376H86.2334V24H84.7294ZM88.2926 24V11.888H89.7806V24H88.2926ZM96.0575 24.192C95.2255 24.192 94.4842 23.9947 93.8335 23.6C93.1828 23.2053 92.6708 22.6667 92.2975 21.984C91.9242 21.2907 91.7375 20.5173 91.7375 19.664C91.7375 18.8 91.9188 18.032 92.2815 17.36C92.6548 16.688 93.1562 16.16 93.7855 15.776C94.4255 15.3813 95.1402 15.184 95.9295 15.184C96.5695 15.184 97.1348 15.3013 97.6255 15.536C98.1268 15.76 98.5482 16.0693 98.8895 16.464C99.2415 16.848 99.5082 17.2907 99.6895 17.792C99.8815 18.2827 99.9775 18.7947 99.9775 19.328C99.9775 19.4453 99.9668 19.5787 99.9455 19.728C99.9348 19.8667 99.9188 20 99.8975 20.128H92.8255V18.848H99.0335L98.3295 19.424C98.4255 18.8693 98.3722 18.3733 98.1695 17.936C97.9668 17.4987 97.6682 17.152 97.2735 16.896C96.8788 16.64 96.4308 16.512 95.9295 16.512C95.4282 16.512 94.9695 16.64 94.5535 16.896C94.1375 17.152 93.8122 17.52 93.5775 18C93.3535 18.4693 93.2628 19.0293 93.3055 19.68C93.2628 20.3093 93.3588 20.864 93.5935 21.344C93.8388 21.8133 94.1802 22.1813 94.6175 22.448C95.0655 22.704 95.5508 22.832 96.0735 22.832C96.6495 22.832 97.1348 22.6987 97.5295 22.432C97.9242 22.1653 98.2442 21.824 98.4895 21.408L99.7375 22.048C99.5668 22.4427 99.3002 22.8053 98.9375 23.136C98.5855 23.456 98.1642 23.712 97.6735 23.904C97.1935 24.096 96.6548 24.192 96.0575 24.192Z" fill="blue"/>
<defs>
<filter id="filter0_d_2186_4347" x="0.5" y="-2.38419e-07" width="41" height="41" filterUnits="userSpaceOnUse" color-interpolation-filters="sRGB">
<feFlood flood-opacity="0" result="BackgroundImageFix"/>
<feColorMatrix in="SourceAlpha" type="matrix" values="0 0 0 0 0 0 0 0 0 0 0 0 0 0 0 0 0 0 127 0" result="hardAlpha"/>
<feOffset dy="3.5"/>
<feGaussianBlur stdDeviation="2.75"/>
<feColorMatrix type="matrix" values="0 0 0 0 0 0 0 0 0 0 0 0 0 0 0 0 0 0 0.02 0"/>
<feBlend mode="normal" in2="BackgroundImageFix" result="effect1_dropShadow_2186_4347"/>
<feBlend mode="normal" in="SourceGraphic" in2="effect1_dropShadow_2186_4347" result="shape"/>
</filter>
</defs>
</svg>
