<svg width="113" height="41" viewBox="0 0 113 41" fill="none" xmlns="http://www.w3.org/2000/svg">
<g filter="url(#filter0_d_2186_4342)">
<rect x="6.5" y="2.5" width="29" height="29" rx="9.5" stroke="white"/>
</g>
<path fill-rule="evenodd" clip-rule="evenodd" d="M22.6992 10.1875C22.6992 10.0839 22.6153 10 22.5117 10H17.2617C16.1226 10 15.1992 10.9234 15.1992 12.0625V22.5625C15.1992 23.7016 16.1226 24.625 17.2617 24.625H24.7617C25.9008 24.625 26.8242 23.7016 26.8242 22.5625V15.1728C26.8242 15.0692 26.7403 14.9853 26.6367 14.9853H23.2617C22.9511 14.9853 22.6992 14.7335 22.6992 14.4228V10.1875ZM23.2617 17.5C23.5724 17.5 23.8242 17.7518 23.8242 18.0625C23.8242 18.3732 23.5724 18.625 23.2617 18.625H18.7617C18.4511 18.625 18.1992 18.3732 18.1992 18.0625C18.1992 17.7518 18.4511 17.5 18.7617 17.5H23.2617ZM23.2617 20.5C23.5724 20.5 23.8242 20.7518 23.8242 21.0625C23.8242 21.3732 23.5724 21.625 23.2617 21.625H18.7617C18.4511 21.625 18.1992 21.3732 18.1992 21.0625C18.1992 20.7518 18.4511 20.5 18.7617 20.5H23.2617Z" fill="white"/>
<path d="M23.8242 10.4306C23.8242 10.2922 23.9687 10.2044 24.0764 10.2913C24.1671 10.3645 24.2486 10.4503 24.3181 10.5472L26.578 13.6956C26.6294 13.7673 26.5737 13.8603 26.4855 13.8603H24.0117C23.9082 13.8603 23.8242 13.7763 23.8242 13.6728V10.4306Z" fill="white"/>
<path d="M52.328 24V12.08H56.536C57.3253 12.08 58.0187 12.2293 58.616 12.528C59.2133 12.8267 59.6773 13.2533 60.008 13.808C60.3493 14.3627 60.52 15.0133 60.52 15.76C60.52 16.6027 60.3067 17.3173 59.88 17.904C59.4533 18.4907 58.8773 18.912 58.152 19.168L60.92 24H59.096L56.184 18.832L57.224 19.44H53.896V24H52.328ZM53.896 18H56.584C57.0533 18 57.464 17.9093 57.816 17.728C58.168 17.5467 58.44 17.2853 58.632 16.944C58.8347 16.6027 58.936 16.208 58.936 15.76C58.936 15.3013 58.8347 14.9067 58.632 14.576C58.44 14.2347 58.168 13.9733 57.816 13.792C57.464 13.6107 57.0533 13.52 56.584 13.52H53.896V18ZM66.0106 24.192C65.1786 24.192 64.4373 23.9947 63.7866 23.6C63.136 23.2053 62.624 22.6667 62.2506 21.984C61.8773 21.2907 61.6906 20.5173 61.6906 19.664C61.6906 18.8 61.872 18.032 62.2346 17.36C62.608 16.688 63.1093 16.16 63.7386 15.776C64.3786 15.3813 65.0933 15.184 65.8826 15.184C66.5226 15.184 67.088 15.3013 67.5786 15.536C68.08 15.76 68.5013 16.0693 68.8426 16.464C69.1946 16.848 69.4613 17.2907 69.6426 17.792C69.8346 18.2827 69.9306 18.7947 69.9306 19.328C69.9306 19.4453 69.92 19.5787 69.8986 19.728C69.888 19.8667 69.872 20 69.8506 20.128H62.7786V18.848H68.9866L68.2826 19.424C68.3786 18.8693 68.3253 18.3733 68.1226 17.936C67.92 17.4987 67.6213 17.152 67.2266 16.896C66.832 16.64 66.384 16.512 65.8826 16.512C65.3813 16.512 64.9226 16.64 64.5066 16.896C64.0906 17.152 63.7653 17.52 63.5306 18C63.3066 18.4693 63.216 19.0293 63.2586 19.68C63.216 20.3093 63.312 20.864 63.5466 21.344C63.792 21.8133 64.1333 22.1813 64.5706 22.448C65.0186 22.704 65.504 22.832 66.0266 22.832C66.6026 22.832 67.088 22.6987 67.4826 22.432C67.8773 22.1653 68.1973 21.824 68.4426 21.408L69.6906 22.048C69.52 22.4427 69.2533 22.8053 68.8906 23.136C68.5386 23.456 68.1173 23.712 67.6266 23.904C67.1466 24.096 66.608 24.192 66.0106 24.192ZM71.8708 27.2V15.376H73.3268V17.232L73.1348 16.864C73.4548 16.352 73.8921 15.9467 74.4468 15.648C75.0014 15.3387 75.6361 15.184 76.3508 15.184C77.1614 15.184 77.8868 15.3813 78.5268 15.776C79.1774 16.1707 79.6894 16.7093 80.0628 17.392C80.4361 18.064 80.6228 18.832 80.6228 19.696C80.6228 20.5387 80.4361 21.3013 80.0628 21.984C79.6894 22.6667 79.1774 23.2053 78.5268 23.6C77.8868 23.9947 77.1561 24.192 76.3348 24.192C75.6414 24.192 75.0068 24.0373 74.4308 23.728C73.8654 23.4187 73.4281 22.9813 73.1188 22.416L73.3588 22.16V27.2H71.8708ZM76.2228 22.752C76.7668 22.752 77.2521 22.6187 77.6788 22.352C78.1054 22.0853 78.4361 21.7227 78.6708 21.264C78.9161 20.7947 79.0388 20.272 79.0388 19.696C79.0388 19.0987 78.9161 18.576 78.6708 18.128C78.4361 17.6693 78.1054 17.3067 77.6788 17.04C77.2521 16.7627 76.7668 16.624 76.2228 16.624C75.6788 16.624 75.1881 16.7573 74.7508 17.024C74.3241 17.2907 73.9828 17.6587 73.7268 18.128C73.4814 18.5867 73.3588 19.1093 73.3588 19.696C73.3588 20.272 73.4814 20.7947 73.7268 21.264C73.9828 21.7227 74.3241 22.0853 74.7508 22.352C75.1881 22.6187 75.6788 22.752 76.2228 22.752ZM86.6699 24.192C85.8379 24.192 85.0859 24 84.4139 23.616C83.7419 23.2213 83.2085 22.6827 82.8139 22C82.4192 21.3173 82.2219 20.544 82.2219 19.68C82.2219 18.816 82.4139 18.048 82.7979 17.376C83.1925 16.704 83.7259 16.1707 84.3979 15.776C85.0699 15.3813 85.8272 15.184 86.6699 15.184C87.5019 15.184 88.2539 15.3813 88.9259 15.776C89.5979 16.16 90.1259 16.688 90.5099 17.36C90.9045 18.032 91.1019 18.8053 91.1019 19.68C91.1019 20.5547 90.8992 21.3333 90.4939 22.016C90.0885 22.688 89.5499 23.2213 88.8779 23.616C88.2165 24 87.4805 24.192 86.6699 24.192ZM86.6699 22.752C87.2032 22.752 87.6832 22.6187 88.1099 22.352C88.5472 22.0853 88.8885 21.7173 89.1339 21.248C89.3899 20.7787 89.5179 20.256 89.5179 19.68C89.5179 19.0933 89.3899 18.576 89.1339 18.128C88.8885 17.6693 88.5472 17.3067 88.1099 17.04C87.6832 16.7627 87.2032 16.624 86.6699 16.624C86.1259 16.624 85.6352 16.7627 85.1979 17.04C84.7712 17.3067 84.4299 17.6693 84.1739 18.128C83.9179 18.576 83.7899 19.0933 83.7899 19.68C83.7899 20.256 83.9179 20.7787 84.1739 21.248C84.4299 21.7173 84.7712 22.0853 85.1979 22.352C85.6352 22.6187 86.1259 22.752 86.6699 22.752ZM93.0426 24V15.376H94.4986V16.96L94.3386 16.736C94.5413 16.2453 94.8506 15.8827 95.2666 15.648C95.6826 15.4027 96.1893 15.28 96.7866 15.28H97.3146V16.688H96.5626C95.9546 16.688 95.464 16.88 95.0906 17.264C94.7173 17.6373 94.5306 18.1707 94.5306 18.864V24H93.0426ZM102.219 24.096C101.376 24.096 100.725 23.856 100.267 23.376C99.8185 22.896 99.5945 22.2187 99.5945 21.344V16.8H98.0265V15.376H98.3465C98.7305 15.376 99.0345 15.2587 99.2585 15.024C99.4825 14.7893 99.5945 14.48 99.5945 14.096V13.392H101.083V15.376H103.019V16.8H101.083V21.296C101.083 21.584 101.125 21.8347 101.211 22.048C101.307 22.2613 101.461 22.432 101.674 22.56C101.888 22.6773 102.171 22.736 102.523 22.736C102.597 22.736 102.688 22.7307 102.795 22.72C102.912 22.7093 103.019 22.6987 103.115 22.688V24C102.976 24.032 102.821 24.0533 102.651 24.064C102.48 24.0853 102.336 24.096 102.219 24.096ZM108.146 24.192C107.282 24.192 106.53 23.9787 105.89 23.552C105.25 23.1253 104.797 22.5493 104.53 21.824L105.714 21.248C105.96 21.76 106.296 22.1653 106.722 22.464C107.149 22.7627 107.624 22.912 108.146 22.912C108.616 22.912 109.005 22.8 109.314 22.576C109.624 22.352 109.778 22.0587 109.778 21.696C109.778 21.44 109.704 21.2373 109.554 21.088C109.416 20.928 109.245 20.8053 109.042 20.72C108.84 20.624 108.653 20.5547 108.482 20.512L107.186 20.144C106.408 19.92 105.837 19.6 105.474 19.184C105.122 18.768 104.946 18.2827 104.946 17.728C104.946 17.216 105.074 16.7733 105.33 16.4C105.597 16.016 105.954 15.7173 106.402 15.504C106.861 15.2907 107.373 15.184 107.938 15.184C108.696 15.184 109.373 15.376 109.97 15.76C110.578 16.144 111.01 16.6827 111.266 17.376L110.05 17.936C109.858 17.488 109.57 17.136 109.186 16.88C108.802 16.6133 108.37 16.48 107.89 16.48C107.453 16.48 107.106 16.592 106.85 16.816C106.594 17.0293 106.466 17.3013 106.466 17.632C106.466 17.8773 106.53 18.08 106.658 18.24C106.786 18.3893 106.941 18.5067 107.122 18.592C107.304 18.6667 107.48 18.7307 107.65 18.784L109.058 19.2C109.762 19.4027 110.306 19.7173 110.69 20.144C111.085 20.5707 111.282 21.0827 111.282 21.68C111.282 22.16 111.149 22.592 110.882 22.976C110.616 23.36 110.248 23.6587 109.778 23.872C109.309 24.0853 108.765 24.192 108.146 24.192Z" fill="white"/>
<defs>
<filter id="filter0_d_2186_4342" x="0.5" y="-2.38419e-07" width="41" height="41" filterUnits="userSpaceOnUse" color-interpolation-filters="sRGB">
<feFlood flood-opacity="0" result="BackgroundImageFix"/>
<feColorMatrix in="SourceAlpha" type="matrix" values="0 0 0 0 0 0 0 0 0 0 0 0 0 0 0 0 0 0 127 0" result="hardAlpha"/>
<feOffset dy="3.5"/>
<feGaussianBlur stdDeviation="2.75"/>
<feColorMatrix type="matrix" values="0 0 0 0 0 0 0 0 0 0 0 0 0 0 0 0 0 0 0.02 0"/>
<feBlend mode="normal" in2="BackgroundImageFix" result="effect1_dropShadow_2186_4342"/>
<feBlend mode="normal" in="SourceGraphic" in2="effect1_dropShadow_2186_4342" result="shape"/>
</filter>
</defs>
</svg>
